<svg width="413" height="373" viewBox="0 0 413 373" fill="none" xmlns="http://www.w3.org/2000/svg">
<g clip-path="url(#clip0_83_1059)">
<path d="M324.408 309.295C324.494 310.288 324.586 311.658 324.619 313.3C324.672 315.789 324.646 321.688 322.978 328.924C321.382 335.855 318.966 341.019 317.397 344.322C315.398 348.533 314.113 350.347 314.06 353.551C313.994 357.563 315.914 360.866 317.536 363.024C323.123 360.098 329.227 356.378 335.463 351.618C351.319 339.516 361.401 325.799 367.565 315.511C365.771 313.181 363.487 310.573 360.627 307.944C356.84 304.462 339.078 288.567 333.014 285.8C331.677 287.495 324.467 301.205 321.356 301.02C322.375 303.78 323.388 306.541 324.408 309.301V309.295Z" fill="#6E8DF9" stroke="black" stroke-width="0.331009" stroke-miterlimit="10"/>
<path d="M318.079 362.944C326.089 358.985 333.636 354.146 340.541 348.473C348.254 342.137 355.158 334.868 360.984 326.765C363.44 323.342 365.711 319.794 367.83 316.153C368.346 315.266 366.936 314.538 366.419 315.418C362.355 322.416 357.681 329.036 352.279 335.073C345.467 342.687 337.608 349.38 329.029 354.927C325.229 357.383 321.29 359.601 317.231 361.6C316.318 362.051 317.172 363.395 318.079 362.944Z" fill="#6E8DF9" stroke="black" stroke-width="0.331009" stroke-miterlimit="10"/>
<path d="M228.646 323.627C228.103 324.461 227.335 325.607 226.355 326.918C224.866 328.917 221.225 333.551 215.465 338.238C209.944 342.726 204.873 345.315 201.602 346.963C197.445 349.055 195.313 349.698 193.301 352.193C190.785 355.318 190.269 359.105 190.229 361.806C196.439 362.931 203.535 363.739 211.38 363.818C231.327 364.01 247.705 359.376 258.887 355.04C258.9 352.101 258.708 348.638 258.059 344.805C257.205 339.728 253.412 319.271 250.327 313.359C248.228 313.869 233.664 317.272 231.32 315.22C230.427 318.027 229.533 320.827 228.639 323.634L228.646 323.627Z" fill="#6E8DF9" stroke="black" stroke-width="0.331009" stroke-miterlimit="10"/>
<path d="M190.692 362.077C199.444 363.878 208.374 364.685 217.305 364.447C227.282 364.182 237.192 362.693 246.771 359.873C250.81 358.681 254.782 357.278 258.688 355.702C259.634 355.318 258.972 353.875 258.026 354.259C250.518 357.284 242.766 359.641 234.795 361.084C224.739 362.905 214.432 363.361 204.25 362.468C199.748 362.071 195.273 361.402 190.844 360.488C189.844 360.283 189.692 361.865 190.685 362.071L190.692 362.077Z" fill="#6E8DF9" stroke="black" stroke-width="0.331009" stroke-miterlimit="10"/>
<path d="M255.08 120.011C252.015 126.134 247.129 143.466 243.184 154.131C237.358 169.867 234.677 181.943 230.771 199.843C226.368 220.015 224.071 235.632 222.601 245.761C221.959 250.203 220.086 263.391 218.371 280.795C216.954 295.187 216.081 307.971 215.524 318.729C222.886 318.437 231.228 318.523 240.344 319.331C248.539 320.059 256.007 321.244 262.627 322.615C261.296 311.016 259.741 292.824 260.178 270.474C260.694 244.238 263.62 229.528 266.381 201.121C267.996 184.445 271.485 150.973 271.836 120.388C266.5 120.209 260.423 120.196 255.087 120.017L255.08 120.011Z" fill="#6E8DF9" stroke="black" stroke-width="0.331009" stroke-miterlimit="10"/>
<path d="M269.136 125.664C267.871 135.191 265.654 150.006 261.847 167.967C252.863 210.376 247.461 211.66 247.898 228.734C248.832 264.86 309.161 318.046 309.161 318.046C309.161 318.046 334.351 288.077 340.746 280.934C325.884 263.079 303.078 241.206 288.209 223.351C293.551 210.475 297.06 199.353 299.37 191.058C304.229 173.607 306.599 164.73 303.965 157.315C302.151 152.211 299.35 149.166 293.902 136.064C292.326 132.271 291.141 129.107 290.387 127.028C283.303 126.578 276.219 126.121 269.136 125.671V125.664Z" fill="#6E8DF9" stroke="black" stroke-width="0.331009" stroke-miterlimit="10"/>
<path d="M217.868 337.895C221.364 337.875 224.833 338.656 227.964 340.212C229.103 340.774 230.115 339.066 228.964 338.497C225.514 336.789 221.721 335.889 217.861 335.909C216.584 335.915 216.584 337.901 217.861 337.895H217.868Z" fill="#6E8DF9" stroke="black" stroke-width="0.331009" stroke-miterlimit="10"/>
<path d="M212.083 342.66C215.698 341.839 219.087 343.991 222.013 345.825C223.099 346.506 224.099 344.785 223.013 344.11C219.577 341.958 215.757 339.794 211.553 340.747C210.309 341.032 210.832 342.945 212.083 342.66Z" fill="#6E8DF9" stroke="black" stroke-width="0.331009" stroke-miterlimit="10"/>
<path d="M323.845 327.706C325.613 326.726 327.765 326.335 329.698 326.647C330.207 326.726 330.79 326.514 330.922 325.951C331.028 325.475 330.777 324.819 330.227 324.727C327.685 324.316 325.103 324.727 322.846 325.985C322.376 326.243 322.224 326.885 322.488 327.342C322.766 327.812 323.375 327.957 323.845 327.699V327.706Z" fill="#6E8DF9" stroke="black" stroke-width="0.331009" stroke-miterlimit="10"/>
<path d="M321.998 334.246C324.997 333.465 328.069 333.121 331.167 333.207C332.445 333.24 332.445 331.254 331.167 331.221C327.903 331.135 324.633 331.512 321.468 332.333C320.23 332.651 320.753 334.571 321.998 334.246Z" fill="#6E8DF9" stroke="black" stroke-width="0.331009" stroke-miterlimit="10"/>
<path d="M191.467 360.581C195.453 361.68 199.623 362.084 203.748 362.276C208.547 362.494 213.367 362.368 218.16 362.077C222.635 361.806 227.11 361.428 231.533 360.667C235.961 359.906 240.344 358.866 244.654 357.602C249.275 356.245 253.849 354.636 258.205 352.564C259.357 352.015 258.351 350.3 257.206 350.849C249.493 354.517 241.039 356.88 232.665 358.456C228.448 359.25 224.197 359.674 219.914 359.979C215.187 360.31 210.434 360.488 205.694 360.363C201.1 360.243 196.446 359.893 191.997 358.668C190.766 358.33 190.236 360.243 191.467 360.581Z" fill="#6E8DF9" stroke="black" stroke-width="0.331009" stroke-miterlimit="10"/>
<path d="M363.381 313.241C359.998 318.014 356.549 322.747 353.014 327.408C350.439 330.798 347.843 334.194 344.778 337.166C342.786 339.099 340.667 340.907 338.569 342.727C336.457 344.554 334.424 346.474 332.266 348.242C327.261 352.34 321.733 355.756 316.173 359.046C315.074 359.695 316.073 361.416 317.172 360.761C322.204 357.781 327.182 354.696 331.809 351.115C334.04 349.394 336.113 347.514 338.224 345.647C340.336 343.78 342.501 341.972 344.58 340.066C347.936 336.994 350.763 333.552 353.53 329.957C356.046 326.686 358.502 323.363 360.925 320.027C362.322 318.107 363.712 316.18 365.082 314.241C365.824 313.195 364.103 312.202 363.368 313.241H363.381Z" fill="#6E8DF9" stroke="black" stroke-width="0.331009" stroke-miterlimit="10"/>
<path d="M349.107 303.575C351.345 306.593 351.404 310.347 349.239 311.949C347.075 313.551 343.506 312.406 341.269 309.381C339.031 306.362 338.971 302.608 341.136 301.006C343.301 299.404 346.869 300.549 349.107 303.575Z" fill="#6E8DF9" stroke="black" stroke-width="0.331009" stroke-miterlimit="10"/>
<path d="M250.256 84.0761C249.256 103.301 243.265 144.194 232.977 148.967C220.128 154.932 185.921 147.444 176.229 142.916C172.005 140.943 184.511 108.935 189.205 110.623C195.481 112.874 216.129 119.037 216.738 119.017C218.036 118.971 230.164 94.7081 237.161 79.4288C244.993 62.3156 251.017 69.5316 250.263 84.0761H250.256Z" fill="white" stroke="black" stroke-width="0.331009" stroke-miterlimit="10"/>
<path d="M184.616 145.279C184.616 145.279 171.375 141.665 162.829 138.891C158.062 137.342 150.124 133.966 147.139 131.225C142.677 127.127 126.636 107.147 131.396 103.155C135.706 99.5406 147.311 118.454 147.311 118.454C147.311 118.454 133.912 100.401 139.903 97.0051C145.894 93.6089 156.162 116.72 156.162 116.72C156.162 116.72 142.816 97.8591 149.549 95.3368C154.633 93.4236 165.113 113.84 165.113 113.84C165.113 113.84 153.752 97.5546 158.896 95.3633C164.583 92.9403 175.44 111.179 175.44 111.179C189.462 107.816 197.24 111.649 202.616 115.27C203.92 116.144 184.609 145.286 184.609 145.286L184.616 145.279Z" fill="white" stroke="black" stroke-width="0.331009" stroke-miterlimit="10"/>
<path d="M232.724 159.765L190.055 172.479L163.938 114.356L206.601 101.642L232.724 159.765Z" fill="#D0DCFF" stroke="black" stroke-width="0.354258"/>
<path d="M230.856 160.506L187.845 173.323L161.583 114.873L204.587 102.057L230.856 160.506Z" fill="#CD89FF"/>
<path d="M189.779 136.713C190.666 138.964 193.261 140.229 195.571 139.54C197.882 138.852 199.034 136.469 198.14 134.218C197.246 131.967 194.651 130.702 192.347 131.391C190.037 132.079 188.885 134.463 189.779 136.713Z" fill="#D7FF7B"/>
<path d="M311.712 83.8445C308.401 66.9763 292.97 78.1246 288.72 99.4482C285.105 117.594 284.463 116.343 281.689 118.567C279.14 120.606 252.653 128.795 245.113 131.821C242.18 130.636 234.692 127.736 229.469 126.77C222.849 125.532 199.897 127.531 200.009 133.264C200.115 138.977 216.302 137.296 220.36 137.746C223.968 138.143 224.822 139.004 223.551 140.05C217.056 142.082 210.145 144.015 204.081 145.121C197.13 146.392 186.901 142.44 186.332 147.663C185.809 152.324 193.171 154.409 193.171 154.409C193.171 154.409 193.786 158.123 199.162 161.506C199.162 161.506 200.248 164.988 206.537 166.696C206.537 166.696 207.715 168.523 210.449 169.324C223.398 173.084 237.539 169.304 249.482 166.2C250.064 166.054 250.733 165.882 251.475 165.683C251.733 165.617 251.991 165.551 252.249 165.485C265.059 162.009 296.836 151.999 306.541 140.904C316.445 129.577 315.79 104.612 311.712 83.8511V83.8445Z" fill="white" stroke="black" stroke-width="0.331009" stroke-miterlimit="10"/>
<path d="M320.621 119.031C320.568 116.085 320.363 111.947 319.721 107.042C318.304 96.2376 317.179 87.6645 311.538 78.992C309.678 76.1321 304.203 67.9562 293.419 63.1963C289.976 61.6737 286.686 60.813 283.78 60.3298C280.291 59.0653 277.272 58.6681 275.26 58.4232C268.672 57.6089 263.575 58.688 260.02 59.4758C256.564 60.2371 254.068 61.1573 252.281 61.9914C242.112 66.1555 235.452 77.6482 232.976 82.2823C230.209 87.4725 228.25 92.6627 222.556 103.262C221.219 105.751 220.08 107.79 219.306 109.147C221.073 110.795 223.106 112.477 225.429 114.092C233.784 119.905 242.231 122.295 248.269 123.347C248.269 123.341 248.276 123.327 248.282 123.321C248.633 124.122 248.958 124.843 249.236 125.452C255.194 127.24 264.919 129.074 276.723 126.459C281.84 125.327 286.276 123.592 289.91 121.825C290.267 119.951 290.618 118.137 290.976 116.389C297.159 118.349 304.488 119.766 312.71 119.633C315.51 119.587 318.152 119.369 320.628 119.031H320.621Z" fill="#1FFFB4" stroke="black" stroke-width="0.331009" stroke-miterlimit="10"/>
<path d="M279.198 37.0596C278.821 36.9272 278.437 36.8742 278.046 36.8808C278.669 30.4063 276.352 24.7527 271.737 22.8725C265.534 20.3502 257.544 25.6001 253.883 34.5969C250.222 43.5937 252.281 52.9282 258.484 55.4504C260.145 56.1257 261.933 56.2382 263.734 55.8808C263.932 56.1389 264.124 56.4104 264.309 56.7149C264.581 57.1584 264.866 57.7079 265.382 59.1776C265.753 60.217 266.209 61.6337 266.646 63.3814C267.606 63.4079 268.672 63.3616 269.804 63.196C274.127 62.5671 277.318 60.5546 279.185 59.1048C278.523 57.5424 277.874 55.7417 277.318 53.716C276.669 51.3459 276.305 49.1613 276.093 47.2282C278.139 47.6386 280.41 46.0498 281.323 43.4613C282.303 40.6874 281.35 37.8275 279.198 37.0662V37.0596Z" fill="white" stroke="black" stroke-width="0.331009" stroke-miterlimit="10"/>
<path d="M255.724 28.5992C256.486 30.5852 257.962 31.757 259.339 32.8295C264.602 36.9141 270.792 36.8347 273.36 36.6427C273.989 38.1058 274.618 39.5755 275.247 41.0385C276.048 39.0326 277.855 38.0859 279.034 38.4897C280.391 38.9598 280.669 41.1511 280.411 42.5214C280.04 44.4942 279.411 46.2949 279.087 46.4869C281.41 46.7583 283.489 45.8646 285.992 44.0706C289.745 41.3761 292.539 33.2466 291.798 28.0034C291.42 25.3354 287.7 23.356 287.7 23.356C287.7 23.356 287.978 18.424 284.621 16.1202C279.292 12.4592 269.329 10.0826 263.47 13.0418C257.975 15.809 253.732 23.356 255.737 28.5992H255.724Z" fill="#1B2C56"/>
<path d="M272.943 34.0014C271.049 34.5244 263.972 36.239 257.835 32.3C252.135 28.6457 249.448 21.5422 250.467 20.6485C251.017 20.1652 252.433 21.6945 253.85 21.0722C255.518 20.3374 254.923 17.6231 256.048 15.4914C258.153 11.5061 273.155 8.47401 280.98 14.1409C286.011 17.782 278.504 22.0057 278.53 22.2572C278.987 26.8119 276.842 31.3202 272.949 34.0014H272.943Z" fill="#1B2C56"/>
<path d="M256.87 39.0591C256.347 42.5413 257.751 45.6396 260.008 45.9772C262.266 46.3148 264.523 43.7727 265.046 40.2905C265.569 36.8082 264.166 33.71 261.908 33.3724C259.651 33.0347 257.393 35.5769 256.87 39.0591Z" fill="#B9F2E1"/>
<path d="M249.124 37.318C248.647 40.4957 249.666 43.2828 251.408 43.541C253.149 43.8058 254.949 41.4424 255.426 38.2647C255.903 35.087 254.883 32.2999 253.142 32.0417C251.401 31.7769 249.6 34.1403 249.124 37.318Z" fill="#B9F2E1"/>
<path d="M249.468 39.5621C249.574 40.7273 250.19 41.621 250.852 41.5614C251.514 41.5018 251.964 40.5088 251.865 39.3503C251.759 38.1851 251.143 37.2914 250.481 37.351C249.819 37.4105 249.369 38.4036 249.468 39.5621Z" fill="#1B2C56"/>
<path d="M257.756 40.6016C257.862 41.7668 258.478 42.6605 259.14 42.6009C259.802 42.5414 260.252 41.5483 260.153 40.3898C260.047 39.2246 259.431 38.3309 258.769 38.3905C258.107 38.4501 257.657 39.4431 257.756 40.6016Z" fill="#1B2C56"/>
<path d="M289.434 27.8512C290.009 25.9578 290.599 23.985 290.473 21.9857C290.36 20.2446 289.718 18.6425 288.639 17.2722C286.401 14.4321 282.688 13.2934 279.172 13.6244C278.636 13.6774 278.179 14.0481 278.179 14.6175C278.179 15.114 278.636 15.6635 279.172 15.6105C282.112 15.3324 285.21 16.1269 287.11 18.5234C289.215 21.1781 288.421 24.3624 287.514 27.3216C287.136 28.5463 289.056 29.0693 289.427 27.8512H289.434Z" fill="#1B2C56"/>
<path d="M99.5559 246.794L101.919 260.961L117.92 347.361H120.496L108.864 260.961L107.143 246.794H99.5559Z" fill="#DCDCDC"/>
<path d="M107.143 246.794H99.5559L101.919 260.961H108.864L107.143 246.794Z" fill="#C8C8C8"/>
<path d="M49.3065 347.361H51.8883L67.8893 260.961L70.2527 246.794H62.666L60.9447 260.961L49.3065 347.361Z" fill="#DCDCDC"/>
<path d="M62.6659 246.794L60.9446 260.961H67.8892L70.2526 246.794H62.6659Z" fill="#C8C8C8"/>
<path d="M1.31766 347.361H3.89953L19.9005 260.961L22.2573 246.794H14.6706L12.9559 260.961L1.31766 347.361Z" fill="#D7FF7B" stroke="black" stroke-width="0.662018" stroke-miterlimit="10"/>
<path d="M5.40831 253.447H122.652V241.094H78.7599L64.0101 155.276H9.87693L5.40831 253.447Z" fill="#D0DCFF" stroke="black" stroke-width="0.662018" stroke-miterlimit="10"/>
<path d="M170.245 325.083C170.854 325.864 171.722 326.937 172.814 328.162C174.469 330.022 178.501 334.325 184.644 338.496C190.53 342.488 195.812 344.633 199.209 345.983C203.538 347.711 205.716 348.168 207.927 350.478C210.708 353.371 211.542 357.105 211.82 359.793C205.736 361.454 198.725 362.871 190.92 363.626C171.066 365.539 154.344 362.342 142.831 358.992C142.56 356.066 142.46 352.597 142.765 348.724C143.175 343.593 145.38 319.867 147.942 313.703C150.074 314.034 164.684 319.178 166.843 316.927C167.975 319.641 169.107 322.356 170.239 325.077L170.245 325.083Z" fill="#1FFFB4" stroke="black" stroke-width="0.662018" stroke-miterlimit="10"/>
<path d="M211.383 360.104C202.816 362.653 193.998 364.235 185.074 364.771C175.111 365.367 165.108 364.745 155.323 362.765C151.192 361.931 147.114 360.872 143.089 359.641C142.109 359.343 142.645 357.847 143.625 358.144C151.371 360.508 159.295 362.183 167.358 362.931C177.534 363.871 187.848 363.441 197.904 361.666C202.359 360.885 206.755 359.826 211.091 358.535C212.071 358.244 212.356 359.806 211.383 360.097V360.104Z" fill="#1FFFB4" stroke="black" stroke-width="0.662018" stroke-miterlimit="10"/>
<path d="M182.697 336.264C180.321 336.847 178.123 338.237 176.62 340.17C176.302 340.581 176.19 341.183 176.62 341.574C176.978 341.898 177.686 342.011 178.024 341.574C178.361 341.143 178.732 340.733 179.129 340.362C179.334 340.17 179.546 339.985 179.771 339.813C179.659 339.899 179.758 339.819 179.818 339.78C179.864 339.747 179.91 339.707 179.963 339.674C180.083 339.588 180.208 339.502 180.334 339.422C180.797 339.124 181.281 338.866 181.777 338.641C181.857 338.608 181.877 338.601 181.784 338.641C181.85 338.614 181.923 338.588 181.989 338.562C182.115 338.515 182.241 338.469 182.366 338.429C182.644 338.336 182.929 338.25 183.22 338.184C183.724 338.058 184.074 337.463 183.916 336.959C183.743 336.436 183.234 336.132 182.691 336.264H182.697Z" fill="#85D7C8"/>
<path d="M188.019 339.992C185.146 341.535 182.498 343.494 180.168 345.778C179.254 346.672 180.658 348.075 181.571 347.182C183.789 345.01 186.285 343.177 189.019 341.707C189.489 341.455 189.641 340.8 189.377 340.35C189.099 339.873 188.489 339.741 188.019 339.992Z" fill="#85D7C8"/>
<path d="M143.802 356.39C149.383 357.562 154.99 358.654 160.604 359.641C164.709 360.362 168.853 361.137 173.017 361.309C175.93 361.428 178.85 361.329 181.769 361.223C184.695 361.123 187.628 361.143 190.547 360.971C197.307 360.581 203.98 359.296 210.587 357.866C211.838 357.595 211.308 355.682 210.057 355.953C204.251 357.211 198.406 358.363 192.48 358.853C189.534 359.098 186.589 359.078 183.636 359.17C180.769 359.263 177.903 359.396 175.036 359.369C170.74 359.323 166.536 358.654 162.319 357.926C158.486 357.264 154.666 356.542 150.853 355.788C148.675 355.357 146.503 354.92 144.332 354.47C143.087 354.212 142.551 356.125 143.802 356.383V356.39Z" fill="#85D7C8"/>
<path d="M106.578 334.312L62.1959 324.375C62.1959 324.375 98.7923 239.458 95.555 235.168C93.933 233.023 52.8217 232.388 39.7469 221.312C22.7595 206.92 34.1594 184.934 34.1594 184.934L80.077 183.57C80.077 183.57 79.5209 193.163 81.315 194.606C82.4934 195.573 137.203 200.167 143.214 218.604C150.582 241.212 106.578 334.312 106.578 334.312Z" fill="#EF9DD7" stroke="black" stroke-width="0.331009" stroke-miterlimit="10"/>
<path d="M184.08 327.361L136.269 327.321C136.269 327.321 120.871 258.941 117.25 254.314C112.424 248.15 44.8646 248.29 30.373 228.177C17.3577 210.118 28.3472 184.557 28.3472 184.557L79.508 183.041C79.508 183.041 77.9125 191.151 74.7679 199.128C74.7679 199.128 136.402 210.488 153.667 229.369C165.319 242.113 184.087 327.354 184.087 327.354L184.08 327.361Z" fill="#EF9DD7" stroke="black" stroke-width="0.331009" stroke-miterlimit="10"/>
<path d="M191.594 146.432C189.86 143.479 186.801 145.684 186.801 145.684C186.801 145.684 190.376 141.52 188.364 138.706C186.351 135.892 181.704 139.474 181.704 139.474C181.704 139.474 185.067 134.932 182.856 132.271C180.645 129.61 176.58 133.992 176.58 133.992C176.58 133.992 179.843 129.981 177.103 128.557C173.799 126.836 168.616 134.913 164.432 137.514C164.021 137.773 160.155 139.812 155.925 142.043C155.607 141.414 155.389 141.043 155.389 141.043C159.308 138.653 166.544 132.821 164.273 129.041C162.518 126.108 148.53 133.456 145.869 136.409C144.088 138.382 141.552 142.453 140.056 144.949C131.761 147.822 120.633 151.377 118.541 151.205C115.436 150.953 88.1209 130.02 78.5746 125.386C62.1168 117.402 69.7036 140.043 73.2123 145.353C79.7331 155.217 106.644 181.254 118.441 181.393C125.379 181.479 149.351 172.74 157.388 169.119C162.836 167.312 176.785 162.645 179.949 160.327C183.538 157.699 193.322 149.398 191.594 146.438V146.432Z" fill="white" stroke="black" stroke-width="0.331009" stroke-miterlimit="10"/>
<path d="M89.393 194.487C87.9432 195.891 22.5689 200.664 22.2644 200.247C21.4435 199.121 23.0654 147.391 47.6064 127.008C55.1733 120.725 73.9879 120.825 77.2847 122.943C78.9331 124.002 82.4286 132.085 83.7394 139.513C85.0436 146.935 90.3066 193.587 89.393 194.481V194.487Z" fill="#6E8DF9" stroke="black" stroke-width="0.331009" stroke-miterlimit="10"/>
<path d="M97.0521 157.733C93.7486 156.865 86.4929 157.474 82.3288 158.203C79.171 158.752 75.179 159.639 71.6107 160.473C70.77 160.526 69.8564 160.659 68.8633 160.877L51.8826 165.789C51.8826 165.789 57.417 157.097 63.5142 142.003C70.3132 125.175 53.9878 121.54 43.4286 133.463C24.9583 154.323 9.55977 190.105 18.6691 197.44C26.9841 204.14 54.9345 197.718 73.7689 190.112C73.7689 190.112 73.7755 190.112 73.7821 190.112C76.8804 188.967 80.2501 187.033 83.858 183.856C83.858 183.856 99.1507 193.17 102.434 189.125C103.798 187.444 101.395 184.922 98.396 182.677C102.858 185.12 107.843 187.225 109.419 185.451C110.908 183.77 109.458 181.506 107.049 179.321C110.921 181.327 114.642 182.459 115.953 180.407C117.959 177.262 111.623 172.767 106.83 169.947C111.729 172.39 118.727 175.269 119.872 172.462C121.845 167.603 101.997 159.037 97.0587 157.739L97.0521 157.733Z" fill="white" stroke="black" stroke-width="0.331009" stroke-miterlimit="10"/>
<path d="M74.4696 78.1313C73.1191 76.5027 71.7156 74.8477 69.339 73.9209C63.3676 71.5906 56.8997 76.0592 56.5488 76.3108C51.5572 79.8658 51.8948 84.0034 45.0231 95.2842C43.3349 98.058 41.8189 100.256 40.8259 101.653C41.713 103.414 43.5004 106.393 46.7708 109.087C50.0345 111.768 53.2851 112.947 55.185 113.483C55.9331 113.099 56.6878 112.715 57.4359 112.331C57.4756 113 57.5087 113.668 57.5484 114.33C58.5613 114.946 59.7397 115.522 61.0969 115.952C67.5118 118.005 73.4038 115.482 75.5553 114.43C77.4553 110.901 81.6724 101.937 80.0173 91.2724C79.64 88.8494 78.6933 83.1957 74.4762 78.1247L74.4696 78.1313Z" fill="#1B2C56"/>
<path d="M90.7486 99.2031C87.3459 90.3718 79.6598 85.1087 73.5693 87.4523C69.0411 89.1934 66.6777 94.6617 67.1676 100.984C66.7902 100.971 66.4129 101.017 66.0421 101.143C63.9303 101.845 62.9505 104.618 63.8575 107.333C64.6982 109.868 66.8829 111.464 68.8822 111.093C68.6372 112.973 68.24 115.092 67.5648 117.395C66.9888 119.362 66.3202 121.103 65.6515 122.612C67.439 124.055 70.5174 126.081 74.7146 126.77C75.8201 126.948 76.8529 127.014 77.7863 127.008C78.2431 125.313 78.7132 123.943 79.0971 122.936C79.6334 121.513 79.918 120.983 80.1895 120.56C80.3748 120.269 80.5668 120.004 80.7654 119.759C82.5131 120.143 84.2542 120.063 85.8828 119.441C91.9668 117.097 94.1448 108.041 90.7486 99.2097V99.2031Z" fill="white" stroke="black" stroke-width="0.331009" stroke-miterlimit="10"/>
<path d="M89.067 93.3377C88.2925 95.2576 86.8294 96.3764 85.4723 97.3893C80.2688 101.275 74.2378 101.083 71.742 100.852C71.0999 102.268 70.4643 103.685 69.8222 105.095C69.0741 103.122 67.333 102.169 66.1811 102.546C64.8504 102.977 64.5393 105.108 64.7644 106.452C65.0888 108.379 66.6577 109.405 66.9689 109.604C64.6982 109.822 61.7058 109.656 59.3027 107.862C53.8543 103.798 54.6421 93.7879 58.0184 87.651C62.5267 79.4552 73.9929 73.9141 81.8179 78.0451C87.1207 80.8454 91.1127 88.2733 89.067 93.3377Z" fill="#1B2C56"/>
<path d="M87.7637 103.499C88.2138 106.902 86.7905 109.895 84.5794 110.186C82.3748 110.477 80.2233 107.955 79.7731 104.552C79.3229 101.149 80.7463 98.157 82.9574 97.8657C85.1619 97.5744 87.3135 100.097 87.7637 103.499Z" fill="#B9F2E1" stroke="black" stroke-width="0.331009" stroke-miterlimit="10"/>
<path d="M95.336 101.951C95.7465 105.056 94.7005 107.75 92.9991 107.975C91.2977 108.2 89.5897 105.863 89.1793 102.765C88.7688 99.6601 89.8148 96.9657 91.5162 96.7406C93.2176 96.5155 94.9256 98.8524 95.336 101.951Z" fill="#B9F2E1" stroke="black" stroke-width="0.331009" stroke-miterlimit="10"/>
<path d="M69.4262 103.646H79.5749" stroke="black" stroke-width="0.331009" stroke-miterlimit="10"/>
<path d="M87.5374 102.361L89.0931 101.533" stroke="black" stroke-width="0.331009" stroke-miterlimit="10"/>
<path d="M78.3374 79.5612C76.4175 74.9734 72.922 70.7365 67.8841 69.5515C65.4148 68.9689 62.7998 69.1411 60.4893 70.2135C58.1524 71.2992 56.3915 73.3912 55.2991 75.6818C53.8956 78.6278 53.4984 81.8717 53.1608 85.0825C53.0284 86.3535 55.0145 86.3403 55.1469 85.0825C55.7294 79.5546 57.1462 72.1334 63.8524 71.2661C69.6914 70.5114 74.3321 75.0727 76.4307 80.0842C76.636 80.5807 77.0861 80.925 77.6555 80.7793C78.1255 80.6536 78.5558 80.0511 78.3506 79.5546L78.3374 79.5612Z" fill="#1B2C56"/>
<path d="M91.722 103.103C91.8279 104.268 92.4436 105.162 93.1056 105.102C93.7676 105.042 94.2178 104.049 94.1185 102.891C94.0125 101.726 93.3969 100.832 92.7348 100.891C92.0728 100.951 91.6227 101.944 91.722 103.103Z" fill="#1B2C56"/>
<path d="M84.4139 103.751C84.5199 104.916 85.1355 105.81 85.7976 105.75C86.4596 105.691 86.9098 104.698 86.8105 103.539C86.7045 102.374 86.0889 101.48 85.4268 101.54C84.7648 101.6 84.3146 102.593 84.4139 103.751Z" fill="#1B2C56"/>
<path d="M78.5748 125.373C82.7323 127.286 87.3068 129.67 92.1131 132.642C97.2967 135.853 101.759 139.136 105.526 142.221C104.466 144.578 102.725 147.762 99.8918 151.013C97.3364 153.946 94.7148 155.972 92.6824 157.315C89.0545 157.646 85.4333 157.971 81.8054 158.302C80.733 147.326 79.6539 136.349 78.5814 125.38L78.5748 125.373Z" fill="#6E8DF9" stroke="black" stroke-width="0.331009" stroke-miterlimit="10"/>
<path d="M61.0115 123.4C58.7143 123.738 55.4175 124.453 51.7698 126.108C44.7656 129.286 40.7405 133.993 36.7817 138.726C33.6106 142.519 29.3472 148.431 25.8518 156.64C28.9169 158.573 33.7563 161.135 40.1646 162.612C47.0496 164.201 52.9084 163.889 56.6157 163.4C58.3966 160.162 65.2816 147.425 67.4331 137.482C67.87 135.449 68.2606 132.854 67.208 130.047C65.8045 126.313 62.6335 124.274 61.0115 123.4Z" fill="#6E8DF9" stroke="black" stroke-width="0.331009" stroke-miterlimit="10"/>
<path d="M91.8951 249.614C95.9069 249.62 99.8989 250.077 103.798 251.01C107.486 251.891 111.272 253.096 114.602 254.943C116.218 255.837 117.595 257.002 118.621 258.544C119.607 260.034 120.296 261.682 120.891 263.357C122.209 267.084 123.182 270.931 123.97 274.797C124.89 279.312 125.552 283.866 126.214 288.421C126.399 289.679 128.313 289.143 128.127 287.891C126.909 279.53 125.685 271.089 122.891 263.079C121.653 259.531 120.004 256.134 116.813 253.956C115.218 252.871 113.411 252.116 111.63 251.401C109.73 250.64 107.784 249.991 105.811 249.461C101.283 248.237 96.5822 247.627 91.8885 247.614C90.6108 247.614 90.6108 249.6 91.8885 249.6L91.8951 249.614Z" fill="#1B2C56"/>
<path d="M155.389 141.029C155.389 141.029 158.156 143.386 154.528 149.695Z" fill="white"/>
<path d="M155.389 141.029C155.389 141.029 158.156 143.386 154.528 149.695" stroke="black" stroke-width="0.331009" stroke-miterlimit="10"/>
<path d="M176.58 133.985C176.58 133.985 171.516 141.837 163.697 144.313Z" fill="white"/>
<path d="M176.58 133.985C176.58 133.985 171.516 141.837 163.697 144.313" stroke="black" stroke-width="0.331009" stroke-miterlimit="10"/>
<path d="M181.81 139.149C181.81 139.149 176.745 147.001 168.927 149.477Z" fill="white"/>
<path d="M181.81 139.149C181.81 139.149 176.745 147.001 168.927 149.477" stroke="black" stroke-width="0.331009" stroke-miterlimit="10"/>
<path d="M187.629 144.531C187.629 144.531 182.565 152.383 174.746 154.859Z" fill="white"/>
<path d="M187.629 144.531C187.629 144.531 182.565 152.383 174.746 154.859" stroke="black" stroke-width="0.331009" stroke-miterlimit="10"/>
<path d="M264.751 166.339C289.775 165.101 314.793 163.856 339.817 162.618C340.466 226.715 341.115 290.811 341.763 354.914L267.167 356.344C266.36 293.009 265.559 229.674 264.751 166.345V166.339Z" fill="#D7FF7B" stroke="black" stroke-width="0.662018" stroke-miterlimit="10"/>
<path d="M41.8423 177.388C66.8666 176.15 91.8842 174.905 116.909 173.667C118.021 235.499 119.133 297.325 120.245 359.158C95.3797 359.634 70.5143 360.111 45.6489 360.588C44.3778 299.523 43.1134 238.459 41.8423 177.394V177.388Z" fill="#D7FF7B" stroke="black" stroke-width="0.662018" stroke-miterlimit="10"/>
<path d="M340.088 189.331C265.85 192.7 191.611 196.063 117.372 199.433C117.22 190.847 117.061 182.254 116.909 173.667C191.214 169.986 265.519 166.299 339.817 162.618C339.91 171.522 339.996 180.426 340.088 189.331Z" fill="#D7FF7B" stroke="black" stroke-width="0.662018" stroke-miterlimit="10"/>
<path d="M116.909 173.667C120.947 173.469 122.966 173.369 127.011 173.164C128.104 235.096 129.196 297.028 130.288 358.959C126.276 359.039 124.264 359.072 120.252 359.151C119.14 297.319 118.028 235.493 116.915 173.661L116.909 173.667Z" fill="#D7FF7B" stroke="black" stroke-width="0.662018" stroke-miterlimit="10"/>
<path d="M329.722 163.121C333.76 162.923 335.779 162.823 339.817 162.618C340.466 226.715 341.115 290.811 341.764 354.914C337.752 354.994 335.746 355.027 331.727 355.106C331.059 291.109 330.39 227.119 329.722 163.121Z" fill="#D7FF7B" stroke="black" stroke-width="0.662018" stroke-miterlimit="10"/>
<path d="M364.302 355.802H361.72L345.719 269.395L343.356 255.234H350.943L352.664 269.395L364.302 355.802Z" fill="#D7FF7B" stroke="black" stroke-width="0.662018" stroke-miterlimit="10"/>
<path d="M412.292 355.802H409.71L393.709 269.395L391.353 255.234H398.939L400.654 269.395L412.292 355.802Z" fill="#D7FF7B" stroke="black" stroke-width="0.662018" stroke-miterlimit="10"/>
<path d="M408.201 261.887H290.958V249.534H334.849L349.599 163.717H403.732L408.201 261.887Z" fill="#D0DCFF" stroke="black" stroke-width="0.662018" stroke-miterlimit="10"/>
<path d="M323.144 317.544C323.019 318.53 322.813 319.894 322.502 321.503C322.026 323.945 320.741 329.705 317.57 336.418C314.532 342.853 311.076 347.381 308.838 350.274C305.992 353.961 304.35 355.464 303.615 358.576C302.695 362.482 303.866 366.116 304.999 368.572C311.082 366.904 317.835 364.567 324.945 361.244C343.018 352.796 355.782 341.535 363.991 332.797C362.733 330.135 361.058 327.103 358.827 323.926C355.868 319.715 341.899 300.404 336.557 296.412C334.889 297.782 324.925 309.646 321.926 308.805C322.33 311.718 322.741 314.631 323.144 317.55V317.544Z" fill="#1FFFB4" stroke="black" stroke-width="0.662018" stroke-miterlimit="10"/>
<path d="M305.534 368.618C314.207 366.46 322.608 363.329 330.558 359.258C339.443 354.703 347.738 349.076 355.152 342.396C358.284 339.576 361.256 336.59 364.096 333.485C364.785 332.73 363.567 331.718 362.871 332.472C357.41 338.444 351.432 343.919 344.871 348.665C336.589 354.65 327.493 359.522 317.927 363.117C313.697 364.706 309.367 366.037 304.985 367.129C303.992 367.374 304.541 368.87 305.527 368.625L305.534 368.618Z" fill="#1FFFB4" stroke="black" stroke-width="0.662018" stroke-miterlimit="10"/>
<path d="M241.968 331.849C241.365 332.637 240.511 333.723 239.432 334.954C237.797 336.834 233.805 341.177 227.708 345.401C221.862 349.452 216.599 351.644 213.216 353.034C208.906 354.801 206.735 355.278 204.544 357.615C201.796 360.541 200.995 364.275 200.744 366.963C206.848 368.558 213.865 369.909 221.683 370.584C241.557 372.305 258.247 368.936 269.726 365.473C269.964 362.54 270.037 359.078 269.686 355.205C269.223 350.081 266.787 326.374 264.158 320.244C262.027 320.595 247.469 325.885 245.291 323.66C244.185 326.388 243.08 329.115 241.974 331.843L241.968 331.849Z" fill="#1FFFB4" stroke="black" stroke-width="0.662018" stroke-miterlimit="10"/>
<path d="M201.181 367.274C209.767 369.737 218.612 371.233 227.536 371.676C237.506 372.173 247.502 371.451 257.267 369.373C261.385 368.499 265.456 367.4 269.468 366.129C270.441 365.818 269.892 364.328 268.919 364.639C261.199 367.082 253.288 368.836 245.232 369.664C235.07 370.71 224.749 370.379 214.673 368.704C210.211 367.963 205.802 366.95 201.459 365.705C200.479 365.42 200.208 366.989 201.181 367.267V367.274Z" fill="#1FFFB4" stroke="black" stroke-width="0.662018" stroke-miterlimit="10"/>
<path d="M312.597 321.144L348.009 296.411C348.009 296.411 323.17 247.243 323.984 246.184C326.837 242.503 361.256 244.178 376.118 229.402C391.861 213.759 379.832 191.488 379.832 191.488H338.707C338.707 191.488 339.085 202.65 337.317 204.106C336.152 205.08 275.683 210.912 273.32 226.867C269.222 254.486 312.597 321.144 312.597 321.144Z" fill="#E745A0" stroke="black" stroke-width="0.662018" stroke-miterlimit="10"/>
<path d="M229.368 329.652L278.642 329.288C278.642 329.288 296.702 272.5 300.7 268.223C302.726 266.052 316.284 263.642 332.484 260.087L332.57 260.067C338.554 258.756 344.896 257.287 351.139 255.598C367.398 251.262 383.029 245.556 390.152 237.678C405.047 221.213 390.152 191.469 390.152 191.469H348.193C348.193 191.469 347.154 204.418 350.365 212.349C350.365 212.349 319.495 216.884 293.497 225.318C278.768 230.097 265.607 236.135 260.509 243.318C250.559 257.366 229.361 329.652 229.361 329.652H229.368Z" fill="#E745A0" stroke="black" stroke-width="0.662018" stroke-miterlimit="10"/>
<path d="M348.942 137.719C337.284 146.902 323.395 158.825 321.846 159.718C320.37 160.566 300.463 155.991 289.765 154.687C286.322 153.515 276.484 150.463 266.422 150.013C262.178 149.821 247.819 156.587 249.11 160.744C249.256 161.234 249.54 161.526 249.911 161.671C248.236 163.048 247.23 164.571 247.985 166.014C248.428 166.868 249.322 167.193 250.447 167.153C249.732 167.974 249.534 168.814 250.156 169.649C251.242 171.105 255.287 170.41 259.219 169.271C256.65 170.476 254.724 171.906 255.644 173.257C258.087 176.831 266.634 173.343 272.744 171.794C275.902 170.993 280.543 170.364 280.854 172.396C281.033 173.561 278.583 174.673 276.789 174.879C273.386 175.276 268.567 175.733 268.792 177.864C269.116 180.989 277.286 181.174 280.126 181.168C281.575 181.168 283.409 181.002 285.15 180.797C286.302 180.996 287.686 181.241 289.255 181.485C295.114 182.426 303.535 183.551 311.876 183.743C318.993 183.895 326.076 183.359 331.498 181.439C338.224 179.063 347.095 164.776 357.211 145.73C362.818 135.171 356.986 131.364 348.942 137.713V137.719Z" fill="white" stroke="black" stroke-width="0.331009" stroke-miterlimit="10"/>
<path d="M331.109 147.524L351.962 161.599C351.962 161.599 358.43 146.71 361.343 141.142C365.203 133.774 363.369 130.616 353.869 134.304C347.507 136.766 331.109 147.524 331.109 147.524Z" fill="#EF9DD7" stroke="black" stroke-width="0.331009" stroke-miterlimit="10"/>
<path d="M338.039 197.016L397.031 201.783C397.031 201.783 388.193 149.252 376.038 136.263C370.504 130.351 358.833 132.317 354.252 136.124C353.106 137.077 338.932 155.071 337.728 161.34C336.668 166.881 341.17 173.032 341.17 173.032L338.039 197.016Z" fill="#EF9DD7" stroke="black" stroke-width="0.331009" stroke-miterlimit="10"/>
<path d="M376.032 138.19C371.828 134.403 357.674 131.523 364.612 146.233C370.623 158.99 375.555 169.225 375.648 170.503C375.767 172.257 354.397 177.871 343.931 181.837C343.931 181.837 333.557 183.677 326.831 185.2C323.077 186.047 316.775 188.079 314.299 189.966C310.605 192.786 296.941 206.947 300.304 210.33C302.25 212.289 307.116 207.417 310.373 203.643C307.334 207.688 303.587 213.686 306.381 215.626C308.201 216.89 310.929 214.633 313.478 211.594C312.22 214.275 311.796 216.685 313.637 217.572C315.576 218.512 319.032 214.997 321.918 211.376C320.184 214.309 319.052 217.268 320.786 218.201C324.964 220.452 334.537 207.265 334.537 207.265C343.6 210.336 349.644 208.807 353.934 206.795C365.042 202.988 392.595 192.369 401.486 181.823C407.511 174.674 390.722 151.43 376.032 138.183V138.19Z" fill="white" stroke="black" stroke-width="0.331009" stroke-miterlimit="10"/>
<path d="M393.502 154.555L368.669 159.03C368.669 159.03 364.088 148.762 362.354 142.725C360.057 134.734 369.007 129.107 377.574 134.635C383.307 138.329 393.495 154.555 393.495 154.555H393.502Z" fill="#EF9DD7" stroke="black" stroke-width="0.331009" stroke-miterlimit="10"/>
<path d="M364.866 110.445C364.496 110.299 364.112 110.227 363.728 110.213C364.615 103.765 362.536 98.0255 358.001 95.9601C351.911 93.1862 343.708 98.0984 339.683 106.936C335.658 115.774 337.327 125.188 343.417 127.962C345.046 128.703 346.826 128.895 348.64 128.604C348.826 128.869 349.005 129.154 349.177 129.465C349.428 129.915 349.686 130.478 350.15 131.967C350.474 133.02 350.878 134.456 351.242 136.217C352.202 136.284 353.261 136.277 354.407 136.158C358.749 135.708 362.02 133.827 363.946 132.457C363.35 130.868 362.774 129.041 362.304 126.995C361.755 124.599 361.477 122.408 361.345 120.461C363.377 120.958 365.707 119.462 366.727 116.92C367.819 114.192 366.985 111.286 364.866 110.438V110.445Z" fill="white" stroke="black" stroke-width="0.331009" stroke-miterlimit="10"/>
<path d="M341.763 101.024C342.438 103.037 343.868 104.275 345.199 105.4C350.289 109.703 356.473 109.875 359.048 109.789C359.617 111.279 360.187 112.768 360.749 114.258C361.636 112.285 363.477 111.418 364.635 111.868C365.973 112.391 366.158 114.595 365.84 115.953C365.383 117.906 364.682 119.68 364.351 119.865C366.661 120.229 368.773 119.428 371.348 117.733C377.174 113.9 376.989 103.599 373.91 97.105C369.799 88.4325 358.393 82.0441 350.124 85.7977C344.523 88.3399 339.969 95.7015 341.756 101.017L341.763 101.024Z" fill="#1B2C56"/>
<path d="M342.471 111.517C341.802 114.973 343.08 118.131 345.318 118.561C347.562 118.991 349.919 116.542 350.587 113.086C351.256 109.63 349.978 106.473 347.741 106.042C345.503 105.612 343.14 108.061 342.471 111.517Z" fill="#B9F2E1"/>
<path d="M334.805 109.465C334.196 112.617 335.102 115.443 336.83 115.781C338.558 116.119 340.452 113.828 341.067 110.677C341.676 107.526 340.769 104.699 339.041 104.361C337.314 104.024 335.42 106.314 334.805 109.465Z" fill="#B9F2E1"/>
<path d="M376.412 99.327C380.688 97.1125 382.359 91.8511 380.145 87.5752C377.93 83.2994 372.669 81.6284 368.393 83.8429C364.117 86.0574 362.446 91.3188 364.661 95.5946C366.875 99.8704 372.136 101.541 376.412 99.327Z" fill="#1B2C56"/>
<path d="M377.545 88.2604C380.968 90.3988 382.411 94.8608 380.472 98.4952C378.452 102.295 373.911 103.004 370.038 103.487C368.787 103.646 368.774 105.632 370.038 105.473C374.778 104.877 380.2 103.871 382.411 99.0315C384.503 94.4702 382.762 89.1806 378.545 86.5392C377.459 85.8573 376.46 87.5786 377.545 88.2538V88.2604Z" fill="#1B2C56"/>
<path d="M341.066 110.677H342.291" stroke="black" stroke-width="0.496513" stroke-miterlimit="10"/>
<path d="M350.766 112.305L360.755 114.258" stroke="black" stroke-width="0.496513" stroke-miterlimit="10"/>
<path d="M335.749 109.213C335.55 110.365 335.921 111.392 336.576 111.504C337.232 111.617 337.92 110.776 338.119 109.624C338.317 108.472 337.947 107.446 337.291 107.333C336.636 107.221 335.947 108.062 335.749 109.213Z" fill="#1B2C56"/>
<path d="M343.773 110.729C343.575 111.881 343.945 112.907 344.601 113.02C345.256 113.132 345.945 112.291 346.143 111.14C346.342 109.988 345.971 108.962 345.316 108.849C344.66 108.736 343.972 109.577 343.773 110.729Z" fill="#1B2C56"/>
<path d="M136.752 44.6399C139.056 66.6784 158.797 82.6794 180.836 80.3756C189.74 79.4421 197.658 75.662 203.788 70.015L223.861 72.961L213.818 55.6095C216.254 49.6778 217.28 43.0841 216.572 36.2918C214.268 14.2532 194.527 -1.74775 172.488 0.556075C150.449 2.8599 134.448 22.6013 136.752 44.6399Z" fill="#D0DCFF" stroke="black" stroke-width="0.662018" stroke-miterlimit="10"/>
<path d="M153.838 29.8903C159.081 29.7645 164.324 29.6454 169.561 29.5196C177.882 29.321 186.204 29.129 194.526 28.9304C196.439 28.884 198.352 28.8377 200.265 28.798C201.543 28.7649 201.543 26.7788 200.265 26.8119C195.022 26.9377 189.779 27.0569 184.542 27.1827C176.221 27.3813 167.899 27.5733 159.578 27.7719C157.664 27.8182 155.751 27.8645 153.838 27.9043C152.56 27.9374 152.56 29.9234 153.838 29.8903Z" fill="#D0DCFF" stroke="black" stroke-width="0.662018" stroke-miterlimit="10"/>
<path d="M153.838 42.1179C159.081 41.9921 164.324 41.8729 169.561 41.7471C177.882 41.5485 186.204 41.3565 194.526 41.1579C196.439 41.1116 198.352 41.0652 200.265 41.0255C201.543 40.9924 201.543 39.0064 200.265 39.0395C195.022 39.1653 189.779 39.2844 184.542 39.4102C176.221 39.6088 167.899 39.8008 159.578 39.9994C157.664 40.0457 155.751 40.0921 153.838 40.1318C152.56 40.1649 152.56 42.151 153.838 42.1179Z" fill="#D0DCFF" stroke="black" stroke-width="0.662018" stroke-miterlimit="10"/>
<path d="M153.838 54.3386C159.081 54.2128 164.324 54.0936 169.561 53.9678C177.882 53.7692 186.204 53.5772 194.526 53.3786C196.439 53.3323 198.352 53.2859 200.265 53.2462C201.543 53.2131 201.543 51.2271 200.265 51.2602C195.022 51.386 189.779 51.5051 184.542 51.6309C176.221 51.8295 167.899 52.0215 159.578 52.2201C157.664 52.2664 155.751 52.3128 153.838 52.3525C152.56 52.3856 152.56 54.3717 153.838 54.3386Z" fill="#D0DCFF" stroke="black" stroke-width="0.662018" stroke-miterlimit="10"/>
<path d="M193.176 154.402C193.176 154.402 208.509 156.428 225.708 150.827Z" fill="white"/>
<path d="M193.176 154.402C193.176 154.402 208.509 156.428 225.708 150.827" stroke="black" stroke-width="0.331009" stroke-miterlimit="10"/>
<path d="M199.162 161.499C199.162 161.499 218.036 161.989 225.709 156.68Z" fill="white"/>
<path d="M199.162 161.499C199.162 161.499 218.036 161.989 225.709 156.68" stroke="black" stroke-width="0.331009" stroke-miterlimit="10"/>
<path d="M206.536 166.69C206.536 166.69 220.399 167.087 225.708 163.135Z" fill="white"/>
<path d="M206.536 166.69C206.536 166.69 220.399 167.087 225.708 163.135" stroke="black" stroke-width="0.331009" stroke-miterlimit="10"/>
<path d="M246.893 86.3936C246.893 86.3936 246.37 122.977 249.236 125.459Z" fill="#1FFFB4"/>
<path d="M246.893 86.3936C246.893 86.3936 246.37 122.977 249.236 125.459" stroke="black" stroke-width="0.331009" stroke-miterlimit="10"/>
<path d="M290.968 116.389L290.485 91.5967" stroke="black" stroke-width="0.331009" stroke-miterlimit="10"/>
<path d="M255.426 38.2715L257.459 38.6886" stroke="black" stroke-width="0.331009" stroke-miterlimit="10"/>
<path d="M265.044 40.2905L275.835 40.4958" stroke="black" stroke-width="0.331009" stroke-miterlimit="10"/>
<path d="M249.912 161.671C249.912 161.671 257.287 155.707 264.748 154.733Z" fill="white"/>
<path d="M249.912 161.671C249.912 161.671 257.287 155.707 264.748 154.733" stroke="black" stroke-width="0.331009" stroke-miterlimit="10"/>
<path d="M259.22 169.278C259.22 169.278 265.721 165.12 271.123 165.12Z" fill="white"/>
<path d="M259.22 169.278C259.22 169.278 265.721 165.12 271.123 165.12" stroke="black" stroke-width="0.331009" stroke-miterlimit="10"/>
<path d="M250.448 167.16C250.448 167.16 260.259 159.58 270.083 159.209Z" fill="white"/>
<path d="M250.448 167.16C250.448 167.16 260.259 159.58 270.083 159.209" stroke="black" stroke-width="0.331009" stroke-miterlimit="10"/>
<path d="M313.478 211.594L320.562 202.339" stroke="black" stroke-width="0.331009" stroke-miterlimit="10"/>
<path d="M321.753 211.594L328.837 202.339" stroke="black" stroke-width="0.331009" stroke-miterlimit="10"/>
<path d="M309.936 204.067L317.02 194.806" stroke="black" stroke-width="0.331009" stroke-miterlimit="10"/>
</g>
<defs>
<clipPath id="clip0_83_1059">
<rect width="411.729" height="372.16" fill="white" transform="translate(0.939575)"/>
</clipPath>
</defs>
</svg>
