<?xml version="1.0" encoding="UTF-8"?>
<svg version="1.1" xmlns="http://www.w3.org/2000/svg" width="1024" height="1024">
<path d="M0 0 C337.92 0 675.84 0 1024 0 C1024 337.92 1024 675.84 1024 1024 C686.08 1024 348.16 1024 0 1024 C0 686.08 0 348.16 0 0 Z " fill="#FEFEFE" transform="translate(0,0)"/>
<path d="M0 0 C5.57173332 4.30249677 10.83027693 8.84538469 15.9375 13.6875 C17.37416016 15.02748047 17.37416016 15.02748047 18.83984375 16.39453125 C47.16509197 43.34912901 62.90972353 81.54688475 64.21875 120.4140625 C65.20781867 172.11632604 58.43900787 230.47915044 27.9375 273.6875 C27.55368164 274.2335791 27.16986328 274.7796582 26.77441406 275.34228516 C22.14640161 281.8373018 17.09251157 287.81371783 11.5 293.5 C10.95674072 294.05502197 10.41348145 294.61004395 9.85375977 295.18188477 C6.37003176 298.61487636 2.9512263 300.84644438 -1.375 303.1875 C-4.20725105 305.11951451 -5.7843436 306.43735253 -6.54248047 309.84472656 C-7.05444652 315.30924574 -6.7290811 320.70886409 -6.26953125 326.16699219 C-6.0945648 328.29712615 -6.00627106 330.43411155 -5.9375 332.5703125 C-5.69526384 339.09554911 -4.68530608 345.38072348 -3.3125 351.75 C-3.16780273 352.46510742 -3.02310547 353.18021484 -2.87402344 353.91699219 C-1.70847689 358.87350833 -0.10931834 361.60683883 3.9375 364.6875 C6.66736283 365.82081552 9.17735327 366.70319066 12 367.5 C12.81654053 367.74516357 13.63308105 367.99032715 14.47436523 368.24291992 C19.46708211 369.72781288 24.48489671 371.12421869 29.5 372.53125 C51.83976451 378.80479951 74.05164185 385.44067258 94.9375 395.6875 C95.91638184 396.16735352 96.89526367 396.64720703 97.90380859 397.14160156 C110.60349265 403.42849716 122.86629519 409.79377353 133.9375 418.6875 C134.4826123 419.12271973 135.02772461 419.55793945 135.58935547 420.00634766 C153.86810045 434.70019559 167.23018559 451.52237809 178.9375 471.6875 C179.49050781 472.62650146 179.49050781 472.62650146 180.0546875 473.58447266 C202.16341833 511.43320687 209.83076867 557.14957348 217.9375 599.6875 C218.06916565 600.37483215 218.2008313 601.06216431 218.33648682 601.77032471 C219.20000121 606.28125084 220.04352316 610.79553379 220.875 615.3125 C221.08656738 616.4372876 221.29813477 617.5620752 221.51611328 618.72094727 C222.60894235 624.80312235 223.35827142 630.50587288 222.9375 636.6875 C218.33809895 642.60101563 210.97384179 643.94785196 203.9375 645.6875 C203.2775 645.6875 202.6175 645.6875 201.9375 645.6875 C202.03772461 646.4818042 202.13794922 647.2761084 202.24121094 648.09448242 C204.60154274 666.99453158 206.55540807 685.89922693 208.18438721 704.87612915 C209.323632 718.12423534 210.59666247 731.3465309 212.0625 744.5625 C214.27755203 764.65656391 216.33657999 784.4452759 215.9375 804.6875 C213.9460944 805.06883299 211.94470923 805.40075582 209.9375 805.6875 C207.94116701 803.69116701 208.42527982 799.81106202 208.2109375 797.06640625 C208.06864657 795.36211792 207.92605101 793.65785501 207.78320312 791.95361328 C207.66924194 790.56822357 207.66924194 790.56822357 207.55297852 789.15484619 C205.8161316 768.17470521 203.68281086 747.24284057 201.4375 726.3125 C201.28427956 724.88171733 201.13109144 723.4509312 200.97793579 722.0201416 C200.37969142 716.43285222 199.78060058 710.84565427 199.17982483 705.25863647 C198.02263305 694.49684408 196.873504 683.73428179 195.75683594 672.96820068 C195.58817089 671.3473248 195.41812986 669.72659139 195.24658203 668.10601807 C195.01646898 665.93169286 194.79080508 663.75695251 194.56640625 661.58203125 C194.44338135 660.40487549 194.32035645 659.22771973 194.19360352 658.01489258 C193.9276309 654.55927698 193.89313006 651.15193793 193.9375 647.6875 C193.03435059 647.84307373 192.13120117 647.99864746 191.20068359 648.15893555 C181.23817146 649.87389736 171.27426708 651.58059906 161.30944824 653.28210449 C159.04372242 653.66934527 156.77818364 654.05766158 154.51269531 654.44628906 C150.48851882 655.13615534 146.46310253 655.81850438 142.4375 656.5 C141.23657715 656.7064917 140.0356543 656.9129834 138.79833984 657.12573242 C131.85653134 658.29382048 124.95873225 659.17191153 117.9375 659.6875 C118.16777893 661.3688353 118.16777893 661.3688353 118.40270996 663.08413696 C118.99379716 667.82945044 119.26393719 672.56674043 119.49414062 677.34130859 C119.54144821 678.27251022 119.5887558 679.20371185 119.63749695 680.16313171 C119.73919522 682.17258577 119.83953417 684.18210899 119.93864441 686.19169235 C120.09588864 689.37929121 120.25678031 692.56668812 120.4185791 695.75405884 C120.76151885 702.52337531 121.09968733 709.29292604 121.4375 716.0625 C121.82928094 723.90466012 122.22304477 731.74671406 122.62065125 739.58858109 C122.77834383 742.71580479 122.93301838 745.84316801 123.08752441 748.97055054 C123.18516447 750.90534146 123.28293598 752.84012575 123.38085938 754.77490234 C123.42244675 755.63340286 123.46403412 756.49190338 123.50688171 757.37641907 C123.76542942 762.41411627 124.17326876 767.41634936 124.70930386 772.43228245 C125.07053278 776.00223675 125.27642246 779.57793571 125.47265625 783.16015625 C125.51563339 783.92694199 125.55861053 784.69372772 125.60289001 785.48374939 C125.6922625 787.09448794 125.78043211 788.70529365 125.86743164 790.31616211 C125.99841222 792.72084977 126.13671678 795.12504225 126.27539062 797.52929688 C126.85406694 807.92590174 127.04990174 818.27576866 126.9375 828.6875 C85.9007081 838.37021069 44.54035803 846.71159907 2.6875 852 C1.43420898 852.15944092 0.18091797 852.31888184 -1.11035156 852.4831543 C-16.79076998 854.3819386 -32.3295378 854.84048865 -48.1015625 854.8203125 C-49.9989727 854.82098889 -51.89638282 854.82196169 -53.79379272 854.82321167 C-57.74876744 854.82467504 -61.70371937 854.82257977 -65.65869141 854.81787109 C-70.66023913 854.81219834 -75.66173287 854.81544602 -80.66327858 854.82144356 C-84.57758978 854.82510651 -88.49188879 854.8238843 -92.40620041 854.82131577 C-94.24688092 854.82066099 -96.08756263 854.82142244 -97.92824173 854.82379532 C-118.30271356 854.84429405 -138.53578651 853.85834848 -158.8125 851.875 C-159.72103729 851.78724304 -160.62957458 851.69948608 -161.56564331 851.60906982 C-176.49713591 850.15697781 -191.28360583 848.28706623 -206.0625 845.6875 C-207.99790943 845.35768257 -209.93332044 845.02787441 -211.86877441 844.69831848 C-235.29617859 840.68937424 -258.52654581 835.8564398 -281.37817383 829.26074219 C-286.8906886 827.68131758 -292.40132669 826.56367522 -298.0625 825.6875 C-297.52356988 813.99446737 -296.78504998 802.31778169 -295.9765625 790.640625 C-295.87350052 789.14774307 -295.77047374 787.65485871 -295.66748047 786.16197205 C-295.58913593 785.02658288 -295.58913593 785.02658288 -295.50920868 783.86825657 C-295.45621864 783.10018649 -295.40322861 782.33211641 -295.34863281 781.54077148 C-295.29489754 780.76202888 -295.24116226 779.98328627 -295.18579865 779.1809454 C-293.09527669 748.8542005 -291.28885082 718.53316789 -289.96337891 688.16308594 C-289.90846283 686.91723221 -289.85354675 685.67137848 -289.79696655 684.38777161 C-289.69683776 682.09549062 -289.59943546 679.80308793 -289.50552368 677.51054382 C-289.23369172 671.20678368 -288.76887487 664.95779913 -288.0625 658.6875 C-289.2071875 658.74292969 -290.351875 658.79835938 -291.53125 658.85546875 C-298.97267069 658.84821307 -306.26190486 657.30303378 -313.5625 656 C-315.11689017 655.72804866 -316.67133407 655.45640427 -318.22583008 655.18505859 C-331.214762 652.90186866 -344.15209154 650.37991092 -357.0625 647.6875 C-357.14549347 648.7299865 -357.14549347 648.7299865 -357.23016357 649.79353333 C-357.89897819 658.02192216 -358.68961579 666.23532955 -359.515625 674.44921875 C-359.65758791 675.86811572 -359.79947226 677.28702055 -359.94128418 678.70593262 C-360.31898374 682.48209388 -360.69799062 686.25812275 -361.07737732 690.03411484 C-361.31375705 692.38751518 -361.54981467 694.7409476 -361.7857666 697.09439087 C-362.87508882 707.95905527 -363.96772702 718.82338356 -365.0625 729.6875 C-365.19350098 730.9878418 -365.32450195 732.28818359 -365.45947266 733.62792969 C-370.35372812 782.18561497 -370.35372812 782.18561497 -373.0625 805.6875 C-375.3725 805.3575 -377.6825 805.0275 -380.0625 804.6875 C-380.3618492 793.79967629 -379.55074566 783.14358323 -378.51831055 772.31567383 C-378.25478597 769.5502244 -378.000532 766.78405492 -377.74804688 764.01757812 C-376.82754404 754.05817013 -375.7864552 744.11738118 -374.65625 734.1796875 C-372.74571772 717.31870627 -371.18933376 700.42461526 -369.61157227 683.52996826 C-369.21084008 679.2444291 -368.80743673 674.95914135 -368.40429688 670.67382812 C-367.62116892 662.34528797 -366.84086521 654.01648661 -366.0625 645.6875 C-367.17310791 645.40724976 -367.17310791 645.40724976 -368.30615234 645.12133789 C-369.7749585 644.73836548 -369.7749585 644.73836548 -371.2734375 644.34765625 C-372.24071777 644.09894775 -373.20799805 643.85023926 -374.20458984 643.59399414 C-378.24782602 642.31152909 -381.76639297 640.35787548 -385.0625 637.6875 C-388.57366095 630.6651781 -385.33748429 619.87969365 -384.0625 612.5625 C-383.84247314 611.27915771 -383.62244629 609.99581543 -383.39575195 608.67358398 C-375.6852067 564.23520483 -366.99195607 519.49717518 -347.0625 478.6875 C-346.73958984 478.0171875 -346.41667969 477.346875 -346.08398438 476.65625 C-323.38822514 430.04301364 -279.99568117 399.81449281 -232.0625 382.6875 C-218.22360671 377.94362383 -204.26431645 373.5588897 -190.265625 369.3125 C-189.07525635 368.95091797 -187.8848877 368.58933594 -186.65844727 368.21679688 C-184.44763693 367.54916731 -182.23468439 366.88857537 -180.01928711 366.23632812 C-178.54600952 365.79450195 -178.54600952 365.79450195 -177.04296875 365.34375 C-176.19629639 365.09431641 -175.34962402 364.84488281 -174.47729492 364.58789062 C-171.78158407 363.5827565 -169.52018557 362.17087675 -167.0625 360.6875 C-166.4025 360.6875 -165.7425 360.6875 -165.0625 360.6875 C-160.3924877 349.79751441 -159.24206761 337.52046469 -158.26318359 325.8046875 C-158.07813012 323.85239591 -157.80285582 321.90921758 -157.51953125 319.96875 C-157.17574978 316.50666836 -157.08225584 314.03050247 -158.0625 310.6875 C-161.58690928 306.93246662 -165.74238261 304.44317251 -170.0625 301.6875 C-177.06472758 295.9988216 -183.30461726 289.62203549 -189.0625 282.6875 C-189.47580566 282.19137207 -189.88911133 281.69524414 -190.31494141 281.18408203 C-211.1475733 255.72894061 -223.18175137 221.97186655 -228.0625 189.6875 C-228.4217582 187.44789793 -228.78114209 185.20831601 -229.140625 182.96875 C-237.08585208 132.12898178 -236.1191778 79.67670032 -206.0625 35.6875 C-203.21404813 31.87472849 -200.2033856 28.26142219 -197.0625 24.6875 C-196.35480469 23.84703125 -195.64710938 23.0065625 -194.91796875 22.140625 C-172.2249323 -4.19147496 -138.64376825 -18.20213113 -105.05541992 -23.96875 C-103.40479953 -24.25345826 -101.75998905 -24.57162022 -100.1171875 -24.8984375 C-66.68167674 -29.43061671 -27.22853209 -19.95373344 0 0 Z " fill="#91E46E" transform="translate(592.0625,136.3125)"/>
<path d="M0 0 C1.59810943 1.29028387 3.18087524 2.59663939 4.75708008 3.91357422 C5.27012695 4.34009277 5.78317383 4.76661133 6.31176758 5.20605469 C28.46901624 23.88365929 42.86213484 50.25324936 49.17114258 78.33544922 C49.60115979 80.22752497 50.06432817 82.11214599 50.54614258 83.99169922 C52.86526665 93.57594658 53.23251502 102.62097634 53.13208008 112.41357422 C53.12559952 113.61761398 53.12559952 113.61761398 53.11898804 114.84597778 C52.77511947 169.8317144 44.21334868 232.59131391 3.81958008 273.41357422 C-2.69602436 279.80663535 -9.42231435 285.16398693 -17.24291992 289.91357422 C-18.36182617 290.59677734 -19.48073242 291.27998047 -20.63354492 291.98388672 C-48.84254282 308.81156101 -81.61232172 316.11668384 -114.11450195 308.45703125 C-147.75274198 299.86805186 -177.21570411 278.87614531 -195.24291992 248.91357422 C-212.07025017 219.66809309 -219.80489117 189.94095898 -223.80078125 156.55224609 C-224.10788351 154.02488435 -224.43747878 151.50019484 -224.78466797 148.97802734 C-226.17380171 138.65274415 -226.58472099 128.46197435 -226.55859375 118.04785156 C-226.55542216 115.41543507 -226.57905525 112.78413539 -226.60424805 110.15185547 C-226.66112388 95.34624657 -224.9565202 81.38480971 -219.99291992 67.35107422 C-219.68918457 66.47177246 -219.38544922 65.5924707 -219.07250977 64.68652344 C-212.21898333 45.20752179 -203.31851244 28.14206888 -189.24291992 12.91357422 C-188.74276367 12.36427246 -188.24260742 11.8149707 -187.72729492 11.24902344 C-179.79185189 2.61472036 -171.32236064 -4.11168754 -161.24291992 -10.08642578 C-160.64253906 -10.44575195 -160.0421582 -10.80507812 -159.42358398 -11.17529297 C-143.13289892 -20.77626706 -125.82915836 -26.05369618 -107.24291992 -29.08642578 C-106.10725586 -29.27978516 -104.9715918 -29.47314453 -103.80151367 -29.67236328 C-67.41466447 -33.90617889 -28.72442474 -22.61717947 0 0 Z " fill="#FEFAF4" transform="translate(594.242919921875,150.08642578125)"/>
<path d="M0 0 C5.57173332 4.30249677 10.83027693 8.84538469 15.9375 13.6875 C17.37416016 15.02748047 17.37416016 15.02748047 18.83984375 16.39453125 C47.16509197 43.34912901 62.90972353 81.54688475 64.21875 120.4140625 C65.20781867 172.11632604 58.43900787 230.47915044 27.9375 273.6875 C27.55368164 274.2335791 27.16986328 274.7796582 26.77441406 275.34228516 C22.14640161 281.8373018 17.09251157 287.81371783 11.5 293.5 C10.95674072 294.05502197 10.41348145 294.61004395 9.85375977 295.18188477 C6.37003176 298.61487636 2.9512263 300.84644438 -1.375 303.1875 C-4.20725105 305.11951451 -5.7843436 306.43735253 -6.54248047 309.84472656 C-7.05444652 315.30924574 -6.7290811 320.70886409 -6.26953125 326.16699219 C-6.0945648 328.29712615 -6.00627106 330.43411155 -5.9375 332.5703125 C-5.69526384 339.09554911 -4.68530608 345.38072348 -3.3125 351.75 C-3.16780273 352.46510742 -3.02310547 353.18021484 -2.87402344 353.91699219 C-1.70847689 358.87350833 -0.10931834 361.60683883 3.9375 364.6875 C6.66736283 365.82081552 9.17735327 366.70319066 12 367.5 C12.81654053 367.74516357 13.63308105 367.99032715 14.47436523 368.24291992 C19.46708211 369.72781288 24.48489671 371.12421869 29.5 372.53125 C51.83976451 378.80479951 74.05164185 385.44067258 94.9375 395.6875 C95.91638184 396.16735352 96.89526367 396.64720703 97.90380859 397.14160156 C110.60349265 403.42849716 122.86629519 409.79377353 133.9375 418.6875 C134.4826123 419.12271973 135.02772461 419.55793945 135.58935547 420.00634766 C153.86810045 434.70019559 167.23018559 451.52237809 178.9375 471.6875 C179.49050781 472.62650146 179.49050781 472.62650146 180.0546875 473.58447266 C202.16341833 511.43320687 209.83076867 557.14957348 217.9375 599.6875 C218.06916565 600.37483215 218.2008313 601.06216431 218.33648682 601.77032471 C219.20000121 606.28125084 220.04352316 610.79553379 220.875 615.3125 C221.08656738 616.4372876 221.29813477 617.5620752 221.51611328 618.72094727 C222.60894235 624.80312235 223.35827142 630.50587288 222.9375 636.6875 C218.33809895 642.60101563 210.97384179 643.94785196 203.9375 645.6875 C203.2775 645.6875 202.6175 645.6875 201.9375 645.6875 C202.03772461 646.4818042 202.13794922 647.2761084 202.24121094 648.09448242 C204.60154274 666.99453158 206.55540807 685.89922693 208.18438721 704.87612915 C209.323632 718.12423534 210.59666247 731.3465309 212.0625 744.5625 C214.27755203 764.65656391 216.33657999 784.4452759 215.9375 804.6875 C213.9460944 805.06883299 211.94470923 805.40075582 209.9375 805.6875 C207.94116701 803.69116701 208.42527982 799.81106202 208.2109375 797.06640625 C208.06864657 795.36211792 207.92605101 793.65785501 207.78320312 791.95361328 C207.66924194 790.56822357 207.66924194 790.56822357 207.55297852 789.15484619 C205.8161316 768.17470521 203.68281086 747.24284057 201.4375 726.3125 C201.28427956 724.88171733 201.13109144 723.4509312 200.97793579 722.0201416 C200.37969142 716.43285222 199.78060058 710.84565427 199.17982483 705.25863647 C198.02263305 694.49684408 196.873504 683.73428179 195.75683594 672.96820068 C195.58817089 671.3473248 195.41812986 669.72659139 195.24658203 668.10601807 C195.01646898 665.93169286 194.79080508 663.75695251 194.56640625 661.58203125 C194.44338135 660.40487549 194.32035645 659.22771973 194.19360352 658.01489258 C193.9276309 654.55927698 193.89313006 651.15193793 193.9375 647.6875 C193.03435059 647.84307373 192.13120117 647.99864746 191.20068359 648.15893555 C181.23817146 649.87389736 171.27426708 651.58059906 161.30944824 653.28210449 C159.04372242 653.66934527 156.77818364 654.05766158 154.51269531 654.44628906 C150.48851882 655.13615534 146.46310253 655.81850438 142.4375 656.5 C141.23657715 656.7064917 140.0356543 656.9129834 138.79833984 657.12573242 C131.85653134 658.29382048 124.95873225 659.17191153 117.9375 659.6875 C118.16777893 661.3688353 118.16777893 661.3688353 118.40270996 663.08413696 C118.99379716 667.82945044 119.26393719 672.56674043 119.49414062 677.34130859 C119.54144821 678.27251022 119.5887558 679.20371185 119.63749695 680.16313171 C119.73919522 682.17258577 119.83953417 684.18210899 119.93864441 686.19169235 C120.09588864 689.37929121 120.25678031 692.56668812 120.4185791 695.75405884 C120.76151885 702.52337531 121.09968733 709.29292604 121.4375 716.0625 C121.82928094 723.90466012 122.22304477 731.74671406 122.62065125 739.58858109 C122.77834383 742.71580479 122.93301838 745.84316801 123.08752441 748.97055054 C123.18516447 750.90534146 123.28293598 752.84012575 123.38085938 754.77490234 C123.42244675 755.63340286 123.46403412 756.49190338 123.50688171 757.37641907 C123.76542942 762.41411627 124.17326876 767.41634936 124.70930386 772.43228245 C125.07053278 776.00223675 125.27642246 779.57793571 125.47265625 783.16015625 C125.51563339 783.92694199 125.55861053 784.69372772 125.60289001 785.48374939 C125.6922625 787.09448794 125.78043211 788.70529365 125.86743164 790.31616211 C125.99841222 792.72084977 126.13671678 795.12504225 126.27539062 797.52929688 C126.85406694 807.92590174 127.04990174 818.27576866 126.9375 828.6875 C124.6275 829.0175 122.3175 829.3475 119.9375 829.6875 C117.93477116 808.2558145 116.46870268 786.78603386 115 765.3125 C114.93349495 764.34165215 114.8669899 763.37080429 114.79846954 762.3705368 C112.62399288 730.57703117 110.80476359 698.79742437 109.4961853 666.95535278 C109.03816612 655.8356676 108.53005791 644.71857898 108.01262665 633.60151291 C107.72892627 627.49420125 107.44883654 621.38672279 107.16856384 615.27925301 C106.93945394 610.29033008 106.70886655 605.3014864 106.47454834 600.31280518 C105.51135914 579.75976453 104.60753066 559.26949572 104.9375 538.6875 C111.8125 540.5625 111.8125 540.5625 112.9375 541.6875 C113.08363152 543.0701706 113.16491573 544.45979238 113.21875 545.84912109 C113.27385742 547.17718277 113.27385742 547.17718277 113.33007812 548.53207397 C113.38325195 549.98186142 113.38325195 549.98186142 113.4375 551.4609375 C113.47810547 552.45445221 113.51871094 553.44796692 113.56054688 554.47158813 C113.69069812 557.66839679 113.81455335 560.86540675 113.9375 564.0625 C114.06111483 567.22385273 114.18616728 570.38512841 114.31445312 573.54629517 C114.39415724 575.51523582 114.47115363 577.48428871 114.54492188 579.45346069 C114.72770714 584.01532594 114.99473126 588.54496045 115.43530273 593.08959961 C116.01747378 599.17196958 116.25899553 605.25048237 116.47265625 611.35546875 C116.51563339 612.51629471 116.55861053 613.67712067 116.60289001 614.87312317 C116.73802989 618.5403203 116.86908349 622.20764992 117 625.875 C117.09152558 628.37826514 117.18331987 630.88152048 117.27539062 633.38476562 C117.4991992 639.48556717 117.71966313 645.58648246 117.9375 651.6875 C155.54202572 645.79406185 155.54202572 645.79406185 192.86474609 638.36474609 C197.57460797 637.32667547 202.29526018 636.33950699 207.01489258 635.34692383 C209.97790091 634.72940642 209.97790091 634.72940642 212.9375 633.6875 C213.74796384 622.96826181 211.33904432 612.64631795 209.3125 602.1875 C208.94246443 600.24589608 208.57267479 598.30424527 208.203125 596.36254883 C199.44182298 550.24368077 199.44182298 550.24368077 184.9375 505.6875 C184.61700684 504.88086914 184.29651367 504.07423828 183.96630859 503.24316406 C166.67726804 460.19369466 140.25055932 429.21582957 98.9375 407.6875 C98.30650391 407.35830566 97.67550781 407.02911133 97.02539062 406.68994141 C78.9751217 397.43020865 59.47628424 390.59141612 39.93212891 385.24951172 C37.76973235 384.64022936 35.62575295 383.98336516 33.48046875 383.31640625 C25.96629968 380.99359352 18.84630706 379.06410986 10.9375 378.6875 C10.50050781 379.83025391 10.50050781 379.83025391 10.0546875 380.99609375 C2.72947454 399.44733771 -9.01383237 410.93373823 -26.8671875 419.34765625 C-54.79646659 431.05883318 -88.67202029 432.13906872 -118.0625 425.6875 C-119.68671875 425.36265625 -119.68671875 425.36265625 -121.34375 425.03125 C-138.75757986 421.18187708 -153.3372473 413.14248184 -166.0625 400.6875 C-166.89201172 399.91212891 -166.89201172 399.91212891 -167.73828125 399.12109375 C-173.47431284 393.19953014 -176.57978402 385.05070409 -180.0625 377.6875 C-188.20755511 379.08726704 -195.99600064 381.3430796 -203.875 383.8125 C-204.51044739 384.0110257 -205.14589478 384.20955139 -205.80059814 384.41409302 C-217.4058747 388.0502001 -228.81109015 392.06499128 -240.0625 396.6875 C-240.99787598 397.07019043 -241.93325195 397.45288086 -242.89697266 397.84716797 C-266.96994707 407.78312697 -288.26321406 419.55961712 -307.0625 437.6875 C-307.84109375 438.40292969 -308.6196875 439.11835937 -309.421875 439.85546875 C-341.1724851 469.8609212 -356.56958609 518.91916933 -365.0625 560.6875 C-365.27842804 561.74865021 -365.27842804 561.74865021 -365.49871826 562.83123779 C-369.07414881 580.44689632 -372.54993988 598.09080619 -375.5625 615.8125 C-375.72242432 616.73973877 -375.88234863 617.66697754 -376.04711914 618.62231445 C-376.82682399 623.38045542 -377.2192941 627.86608132 -377.0625 632.6875 C-371.51203257 635.93399982 -365.75642601 637.07956462 -359.5 638.375 C-358.32066895 638.62411133 -357.14133789 638.87322266 -355.92626953 639.12988281 C-341.84831418 642.03768988 -327.6848739 644.49918181 -313.52514648 646.97143555 C-312.57821426 647.13683334 -311.63128204 647.30223114 -310.65565491 647.47264099 C-308.88436499 647.78131323 -307.11284774 648.0886853 -305.34104919 648.39442444 C-299.5616388 649.39859821 -293.80957265 650.51254462 -288.0625 651.6875 C-288.04006226 650.97101791 -288.01762451 650.25453583 -287.99450684 649.51634216 C-287.38229794 630.24901124 -286.53966147 611.00249373 -285.5625 591.75 C-285.3012684 586.55342614 -285.04122448 581.35679313 -284.78125 576.16015625 C-284.71921387 574.92455963 -284.65717773 573.68896301 -284.59326172 572.41592407 C-284.04777897 561.50799641 -283.54481183 550.59838651 -283.0625 539.6875 C-280.70811267 538.25805055 -279.58217567 537.60088739 -276.8125 538.0625 C-276.235 538.26875 -275.6575 538.475 -275.0625 538.6875 C-274.99580653 550.2387151 -275.15422116 561.75120331 -275.61328125 573.29296875 C-275.67253571 574.84375636 -275.73154957 576.39455317 -275.79034424 577.94535828 C-275.94778456 582.06868836 -276.1100087 586.19181591 -276.2736702 590.31490326 C-276.37595498 592.89912768 -276.47695897 595.48339931 -276.5776062 598.06768799 C-277.78578436 629.04924551 -279.18650957 660.0187056 -280.73046875 690.98535156 C-281.03803431 697.16428175 -281.33315079 703.34374829 -281.625 709.5234375 C-282.42861016 726.43952158 -283.36974859 743.32822043 -284.71337891 760.21142578 C-285.17497037 766.07575511 -285.6066831 771.94233887 -286.04296875 777.80859375 C-286.31296867 781.42893362 -286.5831315 785.04926131 -286.85333252 788.66958618 C-287.03314965 791.08083659 -287.21263854 793.49211151 -287.39178467 795.90341187 C-287.6463069 799.32375079 -287.90298749 802.74392167 -288.16015625 806.1640625 C-288.23614548 807.19119858 -288.3121347 808.21833466 -288.39042664 809.27659607 C-288.83030851 815.09783295 -289.38201478 820.88933145 -290.0625 826.6875 C-292.7025 826.3575 -295.3425 826.0275 -298.0625 825.6875 C-297.52356988 813.99446737 -296.78504998 802.31778169 -295.9765625 790.640625 C-295.87350052 789.14774307 -295.77047374 787.65485871 -295.66748047 786.16197205 C-295.58913593 785.02658288 -295.58913593 785.02658288 -295.50920868 783.86825657 C-295.45621864 783.10018649 -295.40322861 782.33211641 -295.34863281 781.54077148 C-295.29489754 780.76202888 -295.24116226 779.98328627 -295.18579865 779.1809454 C-293.09527669 748.8542005 -291.28885082 718.53316789 -289.96337891 688.16308594 C-289.90846283 686.91723221 -289.85354675 685.67137848 -289.79696655 684.38777161 C-289.69683776 682.09549062 -289.59943546 679.80308793 -289.50552368 677.51054382 C-289.23369172 671.20678368 -288.76887487 664.95779913 -288.0625 658.6875 C-289.2071875 658.74292969 -290.351875 658.79835938 -291.53125 658.85546875 C-298.97267069 658.84821307 -306.26190486 657.30303378 -313.5625 656 C-315.11689017 655.72804866 -316.67133407 655.45640427 -318.22583008 655.18505859 C-331.214762 652.90186866 -344.15209154 650.37991092 -357.0625 647.6875 C-357.14549347 648.7299865 -357.14549347 648.7299865 -357.23016357 649.79353333 C-357.89897819 658.02192216 -358.68961579 666.23532955 -359.515625 674.44921875 C-359.65758791 675.86811572 -359.79947226 677.28702055 -359.94128418 678.70593262 C-360.31898374 682.48209388 -360.69799062 686.25812275 -361.07737732 690.03411484 C-361.31375705 692.38751518 -361.54981467 694.7409476 -361.7857666 697.09439087 C-362.87508882 707.95905527 -363.96772702 718.82338356 -365.0625 729.6875 C-365.19350098 730.9878418 -365.32450195 732.28818359 -365.45947266 733.62792969 C-370.35372812 782.18561497 -370.35372812 782.18561497 -373.0625 805.6875 C-375.3725 805.3575 -377.6825 805.0275 -380.0625 804.6875 C-380.3618492 793.79967629 -379.55074566 783.14358323 -378.51831055 772.31567383 C-378.25478597 769.5502244 -378.000532 766.78405492 -377.74804688 764.01757812 C-376.82754404 754.05817013 -375.7864552 744.11738118 -374.65625 734.1796875 C-372.74571772 717.31870627 -371.18933376 700.42461526 -369.61157227 683.52996826 C-369.21084008 679.2444291 -368.80743673 674.95914135 -368.40429688 670.67382812 C-367.62116892 662.34528797 -366.84086521 654.01648661 -366.0625 645.6875 C-367.17310791 645.40724976 -367.17310791 645.40724976 -368.30615234 645.12133789 C-369.7749585 644.73836548 -369.7749585 644.73836548 -371.2734375 644.34765625 C-372.24071777 644.09894775 -373.20799805 643.85023926 -374.20458984 643.59399414 C-378.24782602 642.31152909 -381.76639297 640.35787548 -385.0625 637.6875 C-388.57366095 630.6651781 -385.33748429 619.87969365 -384.0625 612.5625 C-383.84247314 611.27915771 -383.62244629 609.99581543 -383.39575195 608.67358398 C-375.6852067 564.23520483 -366.99195607 519.49717518 -347.0625 478.6875 C-346.73958984 478.0171875 -346.41667969 477.346875 -346.08398438 476.65625 C-323.38822514 430.04301364 -279.99568117 399.81449281 -232.0625 382.6875 C-218.22360671 377.94362383 -204.26431645 373.5588897 -190.265625 369.3125 C-189.07525635 368.95091797 -187.8848877 368.58933594 -186.65844727 368.21679688 C-184.44763693 367.54916731 -182.23468439 366.88857537 -180.01928711 366.23632812 C-178.54600952 365.79450195 -178.54600952 365.79450195 -177.04296875 365.34375 C-176.19629639 365.09431641 -175.34962402 364.84488281 -174.47729492 364.58789062 C-171.78158407 363.5827565 -169.52018557 362.17087675 -167.0625 360.6875 C-166.4025 360.6875 -165.7425 360.6875 -165.0625 360.6875 C-160.3924877 349.79751441 -159.24206761 337.52046469 -158.26318359 325.8046875 C-158.07813012 323.85239591 -157.80285582 321.90921758 -157.51953125 319.96875 C-157.17574978 316.50666836 -157.08225584 314.03050247 -158.0625 310.6875 C-161.58690928 306.93246662 -165.74238261 304.44317251 -170.0625 301.6875 C-177.06472758 295.9988216 -183.30461726 289.62203549 -189.0625 282.6875 C-189.47580566 282.19137207 -189.88911133 281.69524414 -190.31494141 281.18408203 C-211.1475733 255.72894061 -223.18175137 221.97186655 -228.0625 189.6875 C-228.4217582 187.44789793 -228.78114209 185.20831601 -229.140625 182.96875 C-237.08585208 132.12898178 -236.1191778 79.67670032 -206.0625 35.6875 C-203.21404813 31.87472849 -200.2033856 28.26142219 -197.0625 24.6875 C-196.35480469 23.84703125 -195.64710938 23.0065625 -194.91796875 22.140625 C-172.2249323 -4.19147496 -138.64376825 -18.20213113 -105.05541992 -23.96875 C-103.40479953 -24.25345826 -101.75998905 -24.57162022 -100.1171875 -24.8984375 C-66.68167674 -29.43061671 -27.22853209 -19.95373344 0 0 Z M-181.0625 20.6875 C-182.30773437 21.85732422 -182.30773437 21.85732422 -183.578125 23.05078125 C-207.69462897 46.24257264 -223.31191584 82.33590769 -224.44897461 115.77767944 C-224.53015095 119.93602153 -224.52921634 124.09111569 -224.5 128.25 C-224.49795563 129.13269562 -224.49591125 130.01539124 -224.49380493 130.92483521 C-224.42957487 148.10358072 -222.74475779 164.73563074 -220.0625 181.6875 C-219.80791344 183.43200351 -219.55507305 185.17676357 -219.3046875 186.921875 C-218.66865593 191.20121188 -217.91277682 195.44573442 -217.0625 199.6875 C-216.82176758 200.8926123 -216.82176758 200.8926123 -216.57617188 202.12207031 C-211.02168768 229.12588185 -200.42084147 256.74347663 -182.0625 277.6875 C-181.39951904 278.45344482 -181.39951904 278.45344482 -180.72314453 279.23486328 C-159.45052674 303.69422041 -130.12310502 322.3152698 -97.0625 324.6875 C-60.27164443 326.71260697 -27.04060249 316.06629997 1.02734375 291.88720703 C11.5918506 282.40226687 19.70978103 271.8629089 26.9375 259.6875 C27.35080566 259.0063916 27.76411133 258.3252832 28.18994141 257.62353516 C44.41155875 230.55243723 49.60742335 198.025307 52.58984375 167.07275391 C52.84799731 164.55901987 53.13183496 162.05573857 53.44140625 159.54833984 C54.73802372 148.9136646 55.41445862 138.40145903 55.4375 127.6875 C55.44051117 126.89366913 55.44352234 126.09983826 55.44662476 125.2819519 C55.4430964 110.41994763 53.35714109 96.93463209 48.9375 82.6875 C48.72432129 81.96643066 48.51114258 81.24536133 48.29150391 80.50244141 C38.25434839 46.98655955 14.47524269 18.48446245 -16.00878906 1.73071289 C-68.93166569 -26.44906973 -136.95362013 -22.31125705 -181.0625 20.6875 Z " fill="#1C2646" transform="translate(592.0625,136.3125)"/>
<path d="M0 0 C5.57173332 4.30249677 10.83027693 8.84538469 15.9375 13.6875 C17.37416016 15.02748047 17.37416016 15.02748047 18.83984375 16.39453125 C37.29545151 33.95707756 50.90035779 56.78088185 57.875 81.25 C58.19259277 82.35661987 58.19259277 82.35661987 58.51660156 83.4855957 C59.91323982 88.70752382 61.34795316 94.18715121 58.5625 99.125 C56.9375 100.6875 56.9375 100.6875 54.9375 100.6875 C55.081875 101.54085937 55.22625 102.39421875 55.375 103.2734375 C56.71400259 112.29310775 57.13011881 121.12956776 57.125 130.25 C57.12564453 131.36745605 57.12628906 132.48491211 57.12695312 133.63623047 C57.09084614 139.08592283 56.90010903 144.31999207 55.9375 149.6875 C55.6075 149.6875 55.2775 149.6875 54.9375 149.6875 C54.93862793 148.58164551 54.93975586 147.47579102 54.94091797 146.33642578 C54.91369444 124.41834127 54.51643204 103.78903046 47.9375 82.6875 C47.61990723 81.61459717 47.61990723 81.61459717 47.29589844 80.52001953 C37.75763775 48.66477661 15.87427493 20.88396184 -13.0625 4.6875 C-13.64612305 4.35266602 -14.22974609 4.01783203 -14.83105469 3.67285156 C-48.0784004 -15.35370576 -86.42455779 -20.36327861 -123.54785156 -10.66308594 C-145.15239978 -4.53748766 -164.93730245 5.98005368 -181.0625 21.6875 C-181.81917969 22.39390625 -182.57585937 23.1003125 -183.35546875 23.828125 C-207.18487169 46.63216637 -222.33332894 82.96568353 -223.44897461 115.77767944 C-223.53015095 119.93602153 -223.52921634 124.09111569 -223.5 128.25 C-223.49795563 129.13269562 -223.49591125 130.01539124 -223.49380493 130.92483521 C-223.42957487 148.10358072 -221.74475779 164.73563074 -219.0625 181.6875 C-218.80791344 183.43200351 -218.55507305 185.17676357 -218.3046875 186.921875 C-217.66865593 191.20121188 -216.91277682 195.44573442 -216.0625 199.6875 C-215.82176758 200.8926123 -215.82176758 200.8926123 -215.57617188 202.12207031 C-210.01835322 229.14209274 -199.40789257 256.71721635 -181.0625 277.6875 C-180.63646484 278.18749512 -180.21042969 278.68749023 -179.77148438 279.20263672 C-169.48398481 291.24663158 -157.92068764 300.94078962 -144.0625 308.6875 C-143.03253906 309.28175781 -142.00257813 309.87601562 -140.94140625 310.48828125 C-130.24460523 316.27970653 -118.72268693 319.40703645 -107.0625 322.6875 C-107.0625 323.0175 -107.0625 323.3475 -107.0625 323.6875 C-108.155625 323.625625 -109.24875 323.56375 -110.375 323.5 C-113.98376083 323.33152086 -113.98376083 323.33152086 -116 325.1875 C-116.350625 325.6825 -116.70125 326.1775 -117.0625 326.6875 C-116.4025 327.3475 -115.7425 328.0075 -115.0625 328.6875 C-126.8611603 328.27351192 -137.45555398 322.43359197 -148.0625 317.6875 C-148.09988281 318.96882813 -148.13726562 320.25015625 -148.17578125 321.5703125 C-148.71690272 336.90010528 -149.47390131 354.04792868 -159.375 366.625 C-162.80454253 369.2569745 -166.34351419 371.48132197 -170.0625 373.6875 C-169.7325 376.6575 -169.4025 379.6275 -169.0625 382.6875 C-171.0625 380.6875 -171.0625 380.6875 -172.0625 377.6875 C-173.86025148 380.35344928 -173.86025148 380.35344928 -175.0625 383.6875 C-170.55503245 398.2225936 -156.41913134 407.31625306 -144.0625 414.6875 C-144.7225 415.0175 -145.3825 415.3475 -146.0625 415.6875 C-153.81032161 412.26057891 -160.07670309 406.54815829 -166.0625 400.6875 C-166.89394531 399.91019531 -166.89394531 399.91019531 -167.7421875 399.1171875 C-173.47623466 393.19717125 -176.58085009 385.0484502 -180.0625 377.6875 C-188.20755511 379.08726704 -195.99600064 381.3430796 -203.875 383.8125 C-204.51044739 384.0110257 -205.14589478 384.20955139 -205.80059814 384.41409302 C-217.4058747 388.0502001 -228.81109015 392.06499128 -240.0625 396.6875 C-240.99787598 397.07019043 -241.93325195 397.45288086 -242.89697266 397.84716797 C-266.96994707 407.78312697 -288.26321406 419.55961712 -307.0625 437.6875 C-307.84109375 438.40292969 -308.6196875 439.11835937 -309.421875 439.85546875 C-341.1724851 469.8609212 -356.56958609 518.91916933 -365.0625 560.6875 C-365.27842804 561.74865021 -365.27842804 561.74865021 -365.49871826 562.83123779 C-369.07414881 580.44689632 -372.54993988 598.09080619 -375.5625 615.8125 C-375.72242432 616.73973877 -375.88234863 617.66697754 -376.04711914 618.62231445 C-376.82682399 623.38045542 -377.2192941 627.86608132 -377.0625 632.6875 C-371.51203257 635.93399982 -365.75642601 637.07956462 -359.5 638.375 C-358.32066895 638.62411133 -357.14133789 638.87322266 -355.92626953 639.12988281 C-341.84831418 642.03768988 -327.6848739 644.49918181 -313.52514648 646.97143555 C-312.57821426 647.13683334 -311.63128204 647.30223114 -310.65565491 647.47264099 C-308.88436499 647.78131323 -307.11284774 648.0886853 -305.34104919 648.39442444 C-299.5616388 649.39859821 -293.80957265 650.51254462 -288.0625 651.6875 C-288.04006226 650.97101791 -288.01762451 650.25453583 -287.99450684 649.51634216 C-287.38229794 630.24901124 -286.53966147 611.00249373 -285.5625 591.75 C-285.3012684 586.55342614 -285.04122448 581.35679313 -284.78125 576.16015625 C-284.71921387 574.92455963 -284.65717773 573.68896301 -284.59326172 572.41592407 C-284.04777897 561.50799641 -283.54481183 550.59838651 -283.0625 539.6875 C-280.70811267 538.25805055 -279.58217567 537.60088739 -276.8125 538.0625 C-276.235 538.26875 -275.6575 538.475 -275.0625 538.6875 C-274.99580653 550.2387151 -275.15422116 561.75120331 -275.61328125 573.29296875 C-275.67253571 574.84375636 -275.73154957 576.39455317 -275.79034424 577.94535828 C-275.94778456 582.06868836 -276.1100087 586.19181591 -276.2736702 590.31490326 C-276.37595498 592.89912768 -276.47695897 595.48339931 -276.5776062 598.06768799 C-277.78578436 629.04924551 -279.18650957 660.0187056 -280.73046875 690.98535156 C-281.03803431 697.16428175 -281.33315079 703.34374829 -281.625 709.5234375 C-282.42861016 726.43952158 -283.36974859 743.32822043 -284.71337891 760.21142578 C-285.17497037 766.07575511 -285.6066831 771.94233887 -286.04296875 777.80859375 C-286.31296867 781.42893362 -286.5831315 785.04926131 -286.85333252 788.66958618 C-287.03314965 791.08083659 -287.21263854 793.49211151 -287.39178467 795.90341187 C-287.6463069 799.32375079 -287.90298749 802.74392167 -288.16015625 806.1640625 C-288.23614548 807.19119858 -288.3121347 808.21833466 -288.39042664 809.27659607 C-288.83030851 815.09783295 -289.38201478 820.88933145 -290.0625 826.6875 C-292.7025 826.3575 -295.3425 826.0275 -298.0625 825.6875 C-297.52356988 813.99446737 -296.78504998 802.31778169 -295.9765625 790.640625 C-295.87350052 789.14774307 -295.77047374 787.65485871 -295.66748047 786.16197205 C-295.58913593 785.02658288 -295.58913593 785.02658288 -295.50920868 783.86825657 C-295.45621864 783.10018649 -295.40322861 782.33211641 -295.34863281 781.54077148 C-295.29489754 780.76202888 -295.24116226 779.98328627 -295.18579865 779.1809454 C-293.09527669 748.8542005 -291.28885082 718.53316789 -289.96337891 688.16308594 C-289.90846283 686.91723221 -289.85354675 685.67137848 -289.79696655 684.38777161 C-289.69683776 682.09549062 -289.59943546 679.80308793 -289.50552368 677.51054382 C-289.23369172 671.20678368 -288.76887487 664.95779913 -288.0625 658.6875 C-289.2071875 658.74292969 -290.351875 658.79835938 -291.53125 658.85546875 C-298.97267069 658.84821307 -306.26190486 657.30303378 -313.5625 656 C-315.11689017 655.72804866 -316.67133407 655.45640427 -318.22583008 655.18505859 C-331.214762 652.90186866 -344.15209154 650.37991092 -357.0625 647.6875 C-357.14549347 648.7299865 -357.14549347 648.7299865 -357.23016357 649.79353333 C-357.89897819 658.02192216 -358.68961579 666.23532955 -359.515625 674.44921875 C-359.65758791 675.86811572 -359.79947226 677.28702055 -359.94128418 678.70593262 C-360.31898374 682.48209388 -360.69799062 686.25812275 -361.07737732 690.03411484 C-361.31375705 692.38751518 -361.54981467 694.7409476 -361.7857666 697.09439087 C-362.87508882 707.95905527 -363.96772702 718.82338356 -365.0625 729.6875 C-365.19350098 730.9878418 -365.32450195 732.28818359 -365.45947266 733.62792969 C-370.35372812 782.18561497 -370.35372812 782.18561497 -373.0625 805.6875 C-375.3725 805.3575 -377.6825 805.0275 -380.0625 804.6875 C-380.3618492 793.79967629 -379.55074566 783.14358323 -378.51831055 772.31567383 C-378.25478597 769.5502244 -378.000532 766.78405492 -377.74804688 764.01757812 C-376.82754404 754.05817013 -375.7864552 744.11738118 -374.65625 734.1796875 C-372.74571772 717.31870627 -371.18933376 700.42461526 -369.61157227 683.52996826 C-369.21084008 679.2444291 -368.80743673 674.95914135 -368.40429688 670.67382812 C-367.62116892 662.34528797 -366.84086521 654.01648661 -366.0625 645.6875 C-367.17310791 645.40724976 -367.17310791 645.40724976 -368.30615234 645.12133789 C-369.7749585 644.73836548 -369.7749585 644.73836548 -371.2734375 644.34765625 C-372.24071777 644.09894775 -373.20799805 643.85023926 -374.20458984 643.59399414 C-378.24782602 642.31152909 -381.76639297 640.35787548 -385.0625 637.6875 C-388.57366095 630.6651781 -385.33748429 619.87969365 -384.0625 612.5625 C-383.84247314 611.27915771 -383.62244629 609.99581543 -383.39575195 608.67358398 C-375.6852067 564.23520483 -366.99195607 519.49717518 -347.0625 478.6875 C-346.73958984 478.0171875 -346.41667969 477.346875 -346.08398438 476.65625 C-323.38822514 430.04301364 -279.99568117 399.81449281 -232.0625 382.6875 C-218.22360671 377.94362383 -204.26431645 373.5588897 -190.265625 369.3125 C-189.07525635 368.95091797 -187.8848877 368.58933594 -186.65844727 368.21679688 C-184.44763693 367.54916731 -182.23468439 366.88857537 -180.01928711 366.23632812 C-178.54600952 365.79450195 -178.54600952 365.79450195 -177.04296875 365.34375 C-176.19629639 365.09431641 -175.34962402 364.84488281 -174.47729492 364.58789062 C-171.78158407 363.5827565 -169.52018557 362.17087675 -167.0625 360.6875 C-166.4025 360.6875 -165.7425 360.6875 -165.0625 360.6875 C-160.3924877 349.79751441 -159.24206761 337.52046469 -158.26318359 325.8046875 C-158.07813012 323.85239591 -157.80285582 321.90921758 -157.51953125 319.96875 C-157.17574978 316.50666836 -157.08225584 314.03050247 -158.0625 310.6875 C-161.58690928 306.93246662 -165.74238261 304.44317251 -170.0625 301.6875 C-177.06472758 295.9988216 -183.30461726 289.62203549 -189.0625 282.6875 C-189.47580566 282.19137207 -189.88911133 281.69524414 -190.31494141 281.18408203 C-211.1475733 255.72894061 -223.18175137 221.97186655 -228.0625 189.6875 C-228.4217582 187.44789793 -228.78114209 185.20831601 -229.140625 182.96875 C-237.08585208 132.12898178 -236.1191778 79.67670032 -206.0625 35.6875 C-203.21404813 31.87472849 -200.2033856 28.26142219 -197.0625 24.6875 C-196.35480469 23.84703125 -195.64710938 23.0065625 -194.91796875 22.140625 C-172.2249323 -4.19147496 -138.64376825 -18.20213113 -105.05541992 -23.96875 C-103.40479953 -24.25345826 -101.75998905 -24.57162022 -100.1171875 -24.8984375 C-66.68167674 -29.43061671 -27.22853209 -19.95373344 0 0 Z " fill="#1D2746" transform="translate(592.0625,136.3125)"/>
<path d="M0 0 C0.04487549 0.81041748 0.08975098 1.62083496 0.13598633 2.45581055 C0.31163766 5.52981828 0.49747006 8.603013 0.68969727 11.67602539 C0.80918357 13.63317778 0.91744793 15.59100515 1.02539062 17.54882812 C1.84513122 30.43515027 3.32237636 47.32237636 13 57 C15.61857695 58.78962819 15.61857695 58.78962819 18 60 C17.2183153 69.90133955 11.21721372 78.53056667 4 85 C-13.82607033 98.26641775 -35.47434991 105.02055549 -57.64453125 105.23828125 C-58.85842781 105.25038887 -58.85842781 105.25038887 -60.09684753 105.26274109 C-61.80534789 105.27649475 -63.51387471 105.28725537 -65.22241211 105.29516602 C-66.92952831 105.30659077 -68.63661156 105.32688837 -70.34350586 105.35668945 C-97.05272554 105.82099462 -124.24163078 99.05161574 -144 80 C-148.64608848 74.51778799 -153.05309355 68.00027391 -155 61 C-154 58 -154 58 -151.92578125 56.81640625 C-151.06339844 56.40261719 -150.20101563 55.98882812 -149.3125 55.5625 C-141.20054363 50.93206997 -138.6565348 42.54213344 -136 34 C-133.51627145 23.89260463 -132.94489615 13.33765003 -132 3 C-127.48620583 3.64977843 -123.65838569 5.41098012 -119.5625 7.3125 C-112.19450336 10.61899804 -104.86643095 13.1078518 -97 15 C-95.86304688 15.2990625 -94.72609375 15.598125 -93.5546875 15.90625 C-75.85661253 19.96440732 -55.4737486 20.04480751 -38 15 C-37.37303223 14.83371094 -36.74606445 14.66742188 -36.10009766 14.49609375 C-24.47338781 11.41011522 -14.25714176 6.39180191 -3.671875 0.76171875 C-2 0 -2 0 0 0 Z " fill="#FDF7F2" transform="translate(576,451)"/>
<path d="M0 0 C2.35953094 2.35953094 2.49141413 3.77895617 3 7 C3.99 6.67 4.98 6.34 6 6 C6.07516846 7.74071777 6.07516846 7.74071777 6.15185547 9.51660156 C6.34032993 13.82580034 6.54069007 18.13437878 6.74462891 22.44287109 C6.83120351 24.3069812 6.91456261 26.17124355 6.99462891 28.03564453 C7.11033736 30.71693789 7.2376343 33.39746931 7.3671875 36.078125 C7.40061249 36.91055725 7.43403748 37.7429895 7.46847534 38.60064697 C7.50836578 39.38115417 7.54825623 40.16166138 7.58935547 40.96582031 C7.62044403 41.64976868 7.65153259 42.33371704 7.68356323 43.03839111 C8.05099469 45.31611888 8.96633591 46.94887914 10 49 C10.23046875 52.42578125 10.23046875 52.42578125 10.1875 56.3125 C10.17783203 58.22482422 10.17783203 58.22482422 10.16796875 60.17578125 C10.0055125 63.87449449 9.58996481 67.35165761 9 71 C8.34 69.68 7.68 68.36 7 67 C3.77595022 68.66954819 3.77595022 68.66954819 3.3125 71.625 C3.209375 72.40875 3.10625 73.1925 3 74 C2.67 74 2.34 74 2 74 C1.56600951 66.88776565 1.13965202 59.77510128 0.71826172 52.66210938 C0.57445512 50.24924696 0.42898796 47.83648286 0.28173828 45.42382812 C-1.88239172 9.91442971 -1.88239172 9.91442971 0 0 Z " fill="#212C4C" transform="translate(703,794)"/>
<path d="M0 0 C0.33 0 0.66 0 1 0 C1 12.54 1 25.08 1 38 C2.98 37.505 2.98 37.505 5 37 C5.50610343 54.86357665 3.95571589 72.27025644 2 90 C1.67 90 1.34 90 1 90 C1.01047363 89.19256348 1.02094727 88.38512695 1.03173828 87.55322266 C1.07319831 83.91051318 1.09929438 80.26785325 1.125 76.625 C1.14175781 75.35398437 1.15851563 74.08296875 1.17578125 72.7734375 C1.18222656 71.56171875 1.18867188 70.35 1.1953125 69.1015625 C1.20578613 67.98088379 1.21625977 66.86020508 1.22705078 65.70556641 C1.28055323 62.85022157 1.28055323 62.85022157 -1 61 C-1.66 61 -2.32 61 -3 61 C-3.62605936 40.57191494 -1.73318003 20.33413518 0 0 Z " fill="#171F42" transform="translate(301,858)"/>
<path d="M0 0 C3.87729888 1.59115567 6.58592922 4.20185558 9.5 7.125 C10.0161084 7.64199463 10.5322168 8.15898926 11.06396484 8.69165039 C15.26344259 13.01613525 19.00149101 17.62426484 22.625 22.4375 C23.13353516 23.11119629 23.64207031 23.78489258 24.16601562 24.47900391 C26.6527102 27.86479928 28.67799035 30.9639823 30 35 C28.515 35.495 28.515 35.495 27 36 C26.67 36.66 26.34 37.32 26 38 C24.32756577 35.71234889 22.66193073 33.42026108 21 31.125 C20.52304687 30.47402344 20.04609375 29.82304688 19.5546875 29.15234375 C16 24.2265625 16 24.2265625 16 22 C15.34 22 14.68 22 14 22 C12.54597658 20.3623728 11.16151322 18.66265804 9.8125 16.9375 C6.12269417 12.31628688 2.30191738 8.05293181 -2 4 C-1.34 3.34 -0.68 2.68 0 2 C0 1.34 0 0.68 0 0 Z " fill="#222F4D" transform="translate(733,564)"/>
<path d="M0 0 C3.46784954 3.86143983 4.88951071 8.51416627 6.625 13.3125 C6.93695313 14.14201172 7.24890625 14.97152344 7.5703125 15.82617188 C10.3041436 23.2911805 12.43079174 31.16744885 10 39 C9.67 39.66 9.34 40.32 9 41 C-2.42854766 20.43359397 -2.42854766 20.43359397 -5 10 C-4.67 9.01 -4.34 8.02 -4 7 C-1 13.625 -1 13.625 -1 17 C-0.01 17 0.98 17 2 17 C3.60968626 12.46361146 2.32499677 9.37869107 0.69140625 5.0859375 C0 3 0 3 0 0 Z " fill="#18213E" transform="translate(379,355)"/>
<path d="M0 0 C-3 2 -3 2 -6 2 C-5.505 3.485 -5.505 3.485 -5 5 C-2.525 5.495 -2.525 5.495 0 6 C-5.08595537 8.94990111 -10.9045007 9.35452577 -16.62475586 10.28710938 C-18.66510255 10.62133115 -20.70258672 10.97005712 -22.74023438 11.3203125 C-29.55476358 12.46446029 -36.08241427 13.28982167 -43 13 C-43.33 12.01 -43.66 11.02 -44 10 C-42.02 9.67 -40.04 9.34 -38 9 C-38 9.33 -38 9.66 -38 10 C-27.605 9.505 -27.605 9.505 -17 9 C-16.67 7.68 -16.34 6.36 -16 5 C-18.475 4.505 -18.475 4.505 -21 4 C-16.28048534 -0.71951466 -6.43854699 -0.29266123 0 0 Z " fill="#161E40" transform="translate(761,781)"/>
<path d="M0 0 C2.67210085 2.67210085 3.43474972 3.53390948 4.60546875 6.8359375 C4.86650391 7.57070313 5.12753906 8.30546875 5.39648438 9.0625 C5.65751953 9.825625 5.91855469 10.58875 6.1875 11.375 C6.46013672 12.13039063 6.73277344 12.88578125 7.01367188 13.6640625 C8.36935213 17.55102545 9.37449342 20.82231785 9 25 C7.02 25.99 7.02 25.99 5 27 C5 28.98 5 30.96 5 33 C2.28543893 28.92815839 0.92840777 24.59837482 -0.6875 20 C-1.02072266 19.08476563 -1.35394531 18.16953125 -1.69726562 17.2265625 C-2.16229492 15.90785156 -2.16229492 15.90785156 -2.63671875 14.5625 C-2.92248779 13.75941406 -3.20825684 12.95632813 -3.50268555 12.12890625 C-4 10 -4 10 -3 7 C-2.01 8.32 -1.02 9.64 0 11 C0.66 10.67 1.32 10.34 2 10 C1.34 6.7 0.68 3.4 0 0 Z " fill="#1A2246" transform="translate(781,632)"/>
<path d="M0 0 C0.33 0 0.66 0 1 0 C1.22860375 8.34509533 0.53158816 16.41156079 -0.5 24.6875 C-0.71462891 26.47317383 -0.71462891 26.47317383 -0.93359375 28.29492188 C-1.28328605 31.197368 -1.63885091 34.09896111 -2 37 C-2.33 37 -2.66 37 -3 37 C-2.98839844 35.81921875 -2.97679687 34.6384375 -2.96484375 33.421875 C-2.95546248 31.86458492 -2.94636264 30.30729312 -2.9375 28.75 C-2.92912109 27.97269531 -2.92074219 27.19539062 -2.91210938 26.39453125 C-2.90888672 25.64042969 -2.90566406 24.88632812 -2.90234375 24.109375 C-2.89710693 23.41811523 -2.89187012 22.72685547 -2.88647461 22.01464844 C-2.95709496 19.64017027 -2.95709496 19.64017027 -4 16 C-5.485 21.445 -5.485 21.445 -7 27 C-7.33 27 -7.66 27 -8 27 C-8.02714735 24.77090129 -8.04646254 22.54170633 -8.0625 20.3125 C-8.07990234 18.45044922 -8.07990234 18.45044922 -8.09765625 16.55078125 C-8.01478673 13.53764546 -7.70839449 10.91724661 -7 8 C-6.34 8.66 -5.68 9.32 -5 10 C-4.01 10 -3.02 10 -2 10 C-2.04125 8.906875 -2.0825 7.81375 -2.125 6.6875 C-2 3 -2 3 0 0 Z " fill="#18203E" transform="translate(229,823)"/>
<path d="M0 0 C3.24980885 3.03453635 5.06005922 6.61427155 7.125 10.5 C11.05958759 17.68595245 15.53189244 23.87571953 21 30 C21.73089844 30.85078125 22.46179688 31.7015625 23.21484375 32.578125 C33.88483836 44.80455116 46.1094094 53.79793698 60 62 C59.505 62.99 59.505 62.99 59 64 C36.51002638 50.82256865 18.56504627 34.3100527 4.9375 12 C4.5549707 11.37689941 4.17244141 10.75379883 3.77832031 10.11181641 C1.80329364 6.77023087 0.47603744 3.86688871 0 0 Z " fill="#0F132F" transform="translate(391,385)"/>
<path d="M0 0 C4.89889753 7.34834629 3.13944335 19.40099359 3 28 C2.34 26.68 1.68 25.36 1 24 C0.34 24 -0.32 24 -1 24 C-0.979375 25.19625 -0.95875 26.3925 -0.9375 27.625 C-0.93117429 31.18004869 -1.30111125 34.50555624 -2 38 C-2.33 38 -2.66 38 -3 38 C-4.34350823 30.61070473 -5.18768843 22.27493217 -3 15 C-2.34 15 -1.68 15 -1 15 C-0.67 10.05 -0.34 5.1 0 0 Z " fill="#18203E" transform="translate(801,865)"/>
<path d="M0 0 C2.3828125 0.0234375 2.3828125 0.0234375 5.125 0.375 C6.03507813 0.48585938 6.94515625 0.59671875 7.8828125 0.7109375 C8.58148437 0.80632813 9.28015625 0.90171875 10 1 C9.34 2.65 8.68 4.3 8 6 C-9.40397351 8.53807947 -9.40397351 8.53807947 -15 8 C-16.703125 6.48046875 -16.703125 6.48046875 -18 5 C-16.86820313 4.80664062 -15.73640625 4.61328125 -14.5703125 4.4140625 C-13.08846798 4.15145714 -11.60670108 3.88841352 -10.125 3.625 C-9.00544922 3.43550781 -9.00544922 3.43550781 -7.86328125 3.2421875 C-3.49009468 2.54731306 -3.49009468 2.54731306 0 0 Z " fill="#212E4B" transform="translate(736,784)"/>
<path d="M0 0 C0.66 1.32 1.32 2.64 2 4 C2.66 3.34 3.32 2.68 4 2 C4.33 10.58 4.66 19.16 5 28 C4.01 26.68 3.02 25.36 2 24 C1.01 24 0.02 24 -1 24 C-1.02712325 21.12493579 -1.04689851 18.25013092 -1.0625 15.375 C-1.07087891 14.56675781 -1.07925781 13.75851562 -1.08789062 12.92578125 C-1.1058955 8.49658082 -0.89622662 4.36116576 0 0 Z " fill="#23314C" transform="translate(302,873)"/>
<path d="M0 0 C0.33 0 0.66 0 1 0 C1.92159579 6.21170074 2.12177385 12.22609106 2.0625 18.5 C2.05798828 19.4178125 2.05347656 20.335625 2.04882812 21.28125 C2.03716326 23.52090391 2.02079614 25.76041545 2 28 C1.01 27.67 0.02 27.34 -1 27 C-1 25.02 -1 23.04 -1 21 C-1.66 21 -2.32 21 -3 21 C-3.33 22.32 -3.66 23.64 -4 25 C-4.33 18.73 -4.66 12.46 -5 6 C-4.01 6 -3.02 6 -2 6 C-1.34 4.02 -0.68 2.04 0 0 Z " fill="#273250" transform="translate(225,838)"/>
<path d="M0 0 C0.66 0 1.32 0 2 0 C7.74326317 8.61489475 3.09870607 25.07240585 2 35 C1.34 35 0.68 35 0 35 C0.33 28.07 0.66 21.14 1 14 C0.01 14.495 0.01 14.495 -1 15 C-1 14.01 -1 13.02 -1 12 C-1.66 12 -2.32 12 -3 12 C-3 9.69 -3 7.38 -3 5 C-2.34 5 -1.68 5 -1 5 C-0.67 3.35 -0.34 1.7 0 0 Z " fill="#151D3B" transform="translate(217,907)"/>
<path d="M0 0 C0.33 0 0.66 0 1 0 C1.33 1.98 1.66 3.96 2 6 C5.16115776 4.63016497 5.9927092 4.0109362 8 1 C7.62054529 7.83018485 5.63930943 13.18390736 2 19 C1.34 19.33 0.68 19.66 0 20 C0.66 18.02 1.32 16.04 2 14 C-0.31 14.66 -2.62 15.32 -5 16 C-4.19429304 12.50577615 -3.08208283 9.14682647 -1.9375 5.75 C-1.57527344 4.67234375 -1.21304687 3.5946875 -0.83984375 2.484375 C-0.56269531 1.66453125 -0.28554688 0.8446875 0 0 Z M0 7 C1 9 1 9 1 9 Z " fill="#171F3C" transform="translate(432,482)"/>
<path d="M0 0 C0 1.32 0 2.64 0 4 C-1.8125 5.625 -1.8125 5.625 -4 7 C-4.99 7.66 -5.98 8.32 -7 9 C-10.29439042 10.19158802 -13.586541 11.21227869 -17 12 C-16.75544746 8.94309328 -16.60035638 7.55040921 -15 5 C-5.13326987 -1.71108996 -5.13326987 -1.71108996 0 0 Z " fill="#202E4C" transform="translate(330,537)"/>
<path d="M0 0 C13.63313748 5.67518979 23.72329166 23.66329114 31.1875 35.6875 C31.68185547 36.47842041 32.17621094 37.26934082 32.68554688 38.08422852 C33.13349609 38.82342529 33.58144531 39.56262207 34.04296875 40.32421875 C34.44539795 40.98510498 34.84782715 41.64599121 35.26245117 42.3269043 C35.62753784 43.15508667 35.62753784 43.15508667 36 44 C35.505 44.99 35.505 44.99 35 46 C34.66379639 45.46745605 34.32759277 44.93491211 33.98120117 44.38623047 C24.46504345 29.37296109 14.88587415 15.3382151 2.01953125 3.01171875 C1.35308594 2.34785156 0.68664062 1.68398438 0 1 C0 0.67 0 0.34 0 0 Z " fill="#0B0F2B" transform="translate(735,564)"/>
<path d="M0 0 C0.33 0 0.66 0 1 0 C1.02694851 1.95825873 1.04637218 3.91662226 1.0625 5.875 C1.07410156 6.96554687 1.08570313 8.05609375 1.09765625 9.1796875 C1 12 1 12 0 14 C-2.3125 14.5625 -2.3125 14.5625 -5 15 C-5.639375 15.20625 -6.27875 15.4125 -6.9375 15.625 C-9.77743461 16.14135175 -12.19608697 15.57352767 -15 15 C-13 12 -13 12 -10.875 11.3125 C-10.25625 11.209375 -9.6375 11.10625 -9 11 C-9 10.34 -9 9.68 -9 9 C-2.25 7.875 -2.25 7.875 0 9 C0 6.03 0 3.06 0 0 Z " fill="#2A3850" transform="translate(304,779)"/>
<path d="M0 0 C0.99 0.33 1.98 0.66 3 1 C2.85946128 3.62538284 2.71281053 6.25017427 2.5625 8.875 C2.50352539 9.99455078 2.50352539 9.99455078 2.44335938 11.13671875 C2.11328125 16.7734375 2.11328125 16.7734375 1 19 C2.32 19 3.64 19 5 19 C5 15.37 5 11.74 5 8 C5.33 8 5.66 8 6 8 C6 11.96 6 15.92 6 20 C4.0085944 20.38133299 2.00720923 20.71325582 0 21 C-1.9395114 19.0604886 -1.13256629 16.1879288 -1.13671875 13.61132812 C-1.13091797 12.3496582 -1.13091797 12.3496582 -1.125 11.0625 C-1.12886719 10.22525391 -1.13273438 9.38800781 -1.13671875 8.52539062 C-1.13542969 7.72423828 -1.13414062 6.92308594 -1.1328125 6.09765625 C-1.13168457 5.36039307 -1.13055664 4.62312988 -1.12939453 3.86352539 C-1 2 -1 2 0 0 Z " fill="#19203B" transform="translate(802,921)"/>
<path d="M0 0 C1.48828125 0.98828125 1.48828125 0.98828125 3 3 C3.21714241 5.81127043 3.28284276 8.3883345 3.1875 11.1875 C3.16719727 12.31188477 3.16719727 12.31188477 3.14648438 13.45898438 C3.11118539 15.30629767 3.05737917 17.15324066 3 19 C3.33 19 3.66 19 4 19 C4.19477739 20.62414378 4.38059458 22.24936423 4.5625 23.875 C4.66691406 24.77992188 4.77132812 25.68484375 4.87890625 26.6171875 C5 29 5 29 4 31 C3.77532169 32.53668865 3.59203195 34.07968054 3.4375 35.625 C3.35371094 36.44226563 3.26992188 37.25953125 3.18359375 38.1015625 C3.12300781 38.72804688 3.06242188 39.35453125 3 40 C2.67 40 2.34 40 2 40 C1.71188568 35.58939887 1.42718432 31.17859398 1.14550781 26.76757812 C1.0494179 25.27012328 0.95243026 23.77272573 0.85449219 22.27539062 C0.71307392 20.11082537 0.57499232 17.94606777 0.4375 15.78125 C0.35371094 14.48251953 0.26992188 13.18378906 0.18359375 11.84570312 C-0.00549385 7.88492132 -0.03085045 3.96428225 0 0 Z " fill="#DDDEE1" transform="translate(717,925)"/>
<path d="M0 0 C-0.06029967 1.91752953 -0.14916707 3.83417426 -0.25 5.75 C-0.29640625 6.81734375 -0.3428125 7.8846875 -0.390625 8.984375 C-1.11424982 12.56539012 -2.32539863 13.61793315 -5 16 C-5.79681318 18.64184541 -5.79681318 18.64184541 -6 21 C-6.33 21 -6.66 21 -7 21 C-6.6865221 16.9981545 -6.35153259 12.99868322 -6 9 C-5.89171875 7.74123047 -5.89171875 7.74123047 -5.78125 6.45703125 C-5.59478007 4.62895994 -5.30763405 2.81162276 -5 1 C-3 0 -3 0 0 0 Z " fill="#293451" transform="translate(805,888)"/>
<path d="M0 0 C-0.99 0 -1.98 0 -3 0 C-3 0.66 -3 1.32 -3 2 C-3.66 2 -4.32 2 -5 2 C-4.98839844 2.84820313 -4.97679687 3.69640625 -4.96484375 4.5703125 C-4.89912125 13.11423811 -5.27525312 21.48422414 -6 30 C-6.33 30 -6.66 30 -7 30 C-7.33 20.1 -7.66 10.2 -8 0 C-4.29847322 -0.92538169 -3.36541838 -1.08174162 0 0 Z " fill="#E7E7E9" transform="translate(718,796)"/>
<path d="M0 0 C0.33 0 0.66 0 1 0 C1 5.94 1 11.88 1 18 C2.98 18.66 4.96 19.32 7 20 C7 20.66 7 21.32 7 22 C9.31 22.66 11.62 23.32 14 24 C11.34397374 25.01299606 10.21604293 25.07672553 7.4921875 24.109375 C6.19667969 23.43648437 6.19667969 23.43648437 4.875 22.75 C4.00617188 22.31171875 3.13734375 21.8734375 2.2421875 21.421875 C0 20 0 20 -2 17 C-2.70923808 11.03405612 -1.95955133 5.63371008 0 0 Z " fill="#161C38" transform="translate(208,755)"/>
<path d="M0 0 C0.33 0.99 0.66 1.98 1 3 C0.67 3.66 0.34 4.32 0 5 C0.99 5 1.98 5 3 5 C3.08090971 6.62418745 3.13914995 8.24951745 3.1875 9.875 C3.22230469 10.77992188 3.25710937 11.68484375 3.29296875 12.6171875 C3.19628906 13.40351562 3.09960938 14.18984375 3 15 C2.01 15.66 1.02 16.32 0 17 C-2.3129482 14.6870518 -2.49580975 13.52095125 -3.125 10.375 C-3.29257813 9.55773437 -3.46015625 8.74046875 -3.6328125 7.8984375 C-3.75398437 7.27195312 -3.87515625 6.64546875 -4 6 C-3.01 6.495 -3.01 6.495 -2 7 C-1.34 4.69 -0.68 2.38 0 0 Z " fill="#23304E" transform="translate(226,673)"/>
<path d="M0 0 C0.33 0 0.66 0 1 0 C2.24279527 8.43188793 2.6104283 17.92564181 -2.5703125 25.20703125 C-3.04210937 25.79871094 -3.51390625 26.39039063 -4 27 C-3.51298949 19.40935336 -2.00236413 12.32940833 0 5 C-0.66 5 -1.32 5 -2 5 C-1 2 -1 2 0 0 Z " fill="#28364F" transform="translate(810,742)"/>
<path d="M0 0 C0.33 0.99 0.66 1.98 1 3 C-3.3175742 11.02576104 -9.68047074 16.76533665 -17 22 C-17 21.01 -17 20.02 -17 19 C-14.8046875 16.8359375 -14.8046875 16.8359375 -11.875 14.375 C-6.93975047 10.1116933 -3.24058563 5.66076984 0 0 Z " fill="#E9EAEC" transform="translate(590,519)"/>
<path d="M0 0 C2.31 0 4.62 0 7 0 C6.67 9.57 6.34 19.14 6 29 C5.67 29 5.34 29 5 29 C4.29953297 22.30803817 3.78286777 15.73109922 4 9 C4.33 8.67 4.66 8.34 5 8 C5.36760731 5.67182036 5.70241581 3.3381615 6 1 C3.69 1.33 1.38 1.66 -1 2 C-0.67 1.34 -0.34 0.68 0 0 Z " fill="#E7E7E8" transform="translate(297,795)"/>
<path d="M0 0 C2.92824652 0.97608217 4.61426621 2.10786631 7 4 C5.02 4.66 3.04 5.32 1 6 C1 6.66 1 7.32 1 8 C-2.3 7.67 -5.6 7.34 -9 7 C-8.67 6.01 -8.34 5.02 -8 4 C-5.69 4 -3.38 4 -1 4 C-0.67 2.68 -0.34 1.36 0 0 Z " fill="#252F4C" transform="translate(273,783)"/>
<path d="M0 0 C0.33 0 0.66 0 1 0 C1.33 4.62 1.66 9.24 2 14 C3.98 13.67 5.96 13.34 8 13 C10.67810075 12.88803927 13.31732686 12.95374701 16 13 C11.11834891 16.25443406 5.79130818 15.65596189 0 16 C0 10.72 0 5.44 0 0 Z " fill="#A4F272" transform="translate(710,772)"/>
<path d="M0 0 C0.33 0 0.66 0 1 0 C0.76448024 2.6358169 0.52573489 5.27124623 0.28125 7.90625 C0.10330989 9.86359119 -0.0646429 11.82188831 -0.21875 13.78125 C-0.59088513 18.19370943 -0.98718528 21.97437056 -3 26 C-3.33 26 -3.66 26 -4 26 C-4.15255984 20.15629492 -3.63805068 14.80043781 -2.5625 9.0625 C-2.42779297 8.29615234 -2.29308594 7.52980469 -2.15429688 6.74023438 C-1.13685403 1.13685403 -1.13685403 1.13685403 0 0 Z " fill="#222845" transform="translate(216,710)"/>
<path d="M0 0 C0.33 0 0.66 0 1 0 C0.67 6.27 0.34 12.54 0 19 C-1.32 19 -2.64 19 -4 19 C-3.88658363 16.68690295 -3.75896193 14.37449815 -3.625 12.0625 C-3.55539062 10.77472656 -3.48578125 9.48695313 -3.4140625 8.16015625 C-3.27742187 7.11730469 -3.14078125 6.07445312 -3 5 C-2.34 4.67 -1.68 4.34 -1 4 C-0.34786708 1.97536745 -0.34786708 1.97536745 0 0 Z " fill="#202C4A" transform="translate(807,921)"/>
<path d="M0 0 C2 2 2 2 3 5 C3.45375 4.505 3.9075 4.01 4.375 3.5 C6 2 6 2 8 2 C7.67 4.31 7.34 6.62 7 9 C6.34 9 5.68 9 5 9 C4.34 10.32 3.68 11.64 3 13 C1.41744803 8.67435795 0.54855348 4.571279 0 0 Z " fill="#182146" transform="translate(786,666)"/>
<path d="M0 0 C0.33 0 0.66 0 1 0 C2.23615622 5.09914442 2.67479795 9.97560615 1 15 C0.93334624 16.39439664 0.91461801 17.79169875 0.9375 19.1875 C0.958125 20.445625 0.97875 21.70375 1 23 C0.34 23 -0.32 23 -1 23 C-1.33 23.66 -1.66 24.32 -2 25 C-1.34 16.75 -0.68 8.5 0 0 Z " fill="#EAECEC" transform="translate(223,894)"/>
<path d="M0 0 C-0.33 0.33 -0.66 0.66 -1 1 C-0.01 1.66 0.98 2.32 2 3 C2 3.66 2 4.32 2 5 C-1.3 4.67 -4.6 4.34 -8 4 C-7.67 2.68 -7.34 1.36 -7 0 C-3.86650268 -1.04449911 -3.01031744 -0.93423645 0 0 Z " fill="#24304D" transform="translate(762,783)"/>
<path d="M0 0 C0.33 0 0.66 0 1 0 C2.17700048 4.62459244 2.11408412 9.07866462 2.0625 13.8125 C2.05798828 14.60076172 2.05347656 15.38902344 2.04882812 16.20117188 C2.03711312 18.13414761 2.01917998 20.06708393 2 22 C1.67 22 1.34 22 1 22 C0.67 19.03 0.34 16.06 0 13 C-0.33 13 -0.66 13 -1 13 C-1.02696365 11.20841511 -1.04637917 9.41671527 -1.0625 7.625 C-1.07410156 6.62726562 -1.08570313 5.62953125 -1.09765625 4.6015625 C-1 2 -1 2 0 0 Z " fill="#26364E" transform="translate(311,772)"/>
<path d="M0 0 C0.33 0 0.66 0 1 0 C0.54775239 5.91492272 -0.1582605 11.35199888 -2 17 C-2.33 16.01 -2.66 15.02 -3 14 C-3.99 13.67 -4.98 13.34 -6 13 C-5.071875 11.7315625 -5.071875 11.7315625 -4.125 10.4375 C-1.86952264 7.08627655 -0.93874355 3.91143146 0 0 Z " fill="#131848" transform="translate(227,687)"/>
<path d="M0 0 C5.40251207 4.29995859 10.50429396 8.96300766 14 15 C13.67 15.99 13.34 16.98 13 18 C11.20392214 15.75340093 9.41306517 13.50296211 7.625 11.25 C6.86316406 10.29867187 6.86316406 10.29867187 6.0859375 9.328125 C5.59609375 8.709375 5.10625 8.090625 4.6015625 7.453125 C4.15119629 6.88754883 3.70083008 6.32197266 3.23681641 5.73925781 C1.93146936 3.90362964 0.95576697 2.0363688 0 0 Z " fill="#9DED6E" transform="translate(739,579)"/>
<path d="M0 0 C7.04072777 3.53737047 12.97993271 7.93509996 19 13 C18.01 13.495 18.01 13.495 17 14 C15.94039062 13.21753906 14.88078125 12.43507813 13.7890625 11.62890625 C12.40110048 10.60669098 11.01307642 9.58455992 9.625 8.5625 C8.92632813 8.04623047 8.22765625 7.52996094 7.5078125 6.99804688 C6.8375 6.50498047 6.1671875 6.01191406 5.4765625 5.50390625 C4.85861816 5.04830322 4.24067383 4.5927002 3.60400391 4.12329102 C1.98664761 2.93217767 1.98664761 2.93217767 0 2 C0 1.34 0 0.68 0 0 Z " fill="#9CED6E" transform="translate(709,554)"/>
<path d="M0 0 C-0.99 0.495 -0.99 0.495 -2 1 C-1.67 1.99 -1.34 2.98 -1 4 C-4.13498292 5.85776765 -6.37471432 6.20140476 -10 6 C-7.83322503 -0.036016 -6.28508493 -0.13663228 0 0 Z " fill="#171F43" transform="translate(297,787)"/>
<path d="M0 0 C-0.598125 0.2475 -1.19625 0.495 -1.8125 0.75 C-4.28647521 2.16370012 -5.43370255 3.65055383 -7 6 C-8.32 5.67 -9.64 5.34 -11 5 C-10.67 3.35 -10.34 1.7 -10 0 C-6.33694766 -0.74926071 -3.57644848 -1.2380014 0 0 Z " fill="#242F4D" transform="translate(294,787)"/>
<path d="M0 0 C3.3 0.33 6.6 0.66 10 1 C8 3 8 3 4.875 3.125 C3.92625 3.08375 2.9775 3.0425 2 3 C1.87625 3.61875 1.7525 4.2375 1.625 4.875 C1 7 1 7 -1 9 C-0.67 6.03 -0.34 3.06 0 0 Z " fill="#EBEBEC" transform="translate(235,784)"/>
<path d="M0 0 C1.7492214 -0.08142927 3.49954542 -0.13938541 5.25 -0.1875 C6.22453125 -0.22230469 7.1990625 -0.25710938 8.203125 -0.29296875 C11 0 11 0 15 3 C9.72 3 4.44 3 -1 3 C-0.67 2.01 -0.34 1.02 0 0 Z " fill="#9AE67F" transform="translate(477,988)"/>
<path d="M0 0 C1.35862973 3.90480249 0.89469712 7.7101776 0.5625 11.75 C0.51029297 12.44738281 0.45808594 13.14476562 0.40429688 13.86328125 C0.27525928 15.57596203 0.13840386 17.28805066 0 19 C-0.33 19 -0.66 19 -1 19 C-1.81564858 15.41114625 -2.16216156 12.05414195 -2.1875 8.375 C-2.20167969 7.43398438 -2.21585937 6.49296875 -2.23046875 5.5234375 C-2 3 -2 3 0 0 Z " fill="#EBEBEE" transform="translate(298,893)"/>
<path d="M0 0 C0 5.94 0 11.88 0 18 C-0.33 18 -0.66 18 -1 18 C-1.33 12.39 -1.66 6.78 -2 1 C-3.32 1.33 -4.64 1.66 -6 2 C-6 1.34 -6 0.68 -6 0 C-4 -1 -4 -1 0 0 Z " fill="#23374F" transform="translate(317,675)"/>
<path d="M0 0 C0.33 0 0.66 0 1 0 C1.18451025 11.52164009 1.18451025 11.52164009 0 17 C-0.33 17 -0.66 17 -1 17 C-1.22185844 14.73044814 -1.42705515 12.45926245 -1.625 10.1875 C-1.74101562 8.92292969 -1.85703125 7.65835938 -1.9765625 6.35546875 C-2 3 -2 3 0 0 Z " fill="#0E1534" transform="translate(229,823)"/>
<path d="M0 0 C0.33 0 0.66 0 1 0 C3.59259994 9.83473862 3.59259994 9.83473862 2 14 C1.01 14.99 0.02 15.98 -1 17 C-0.67 11.39 -0.34 5.78 0 0 Z " fill="#DCDCDF" transform="translate(231,815)"/>
<path d="M0 0 C1.485 0.99 1.485 0.99 3 2 C3.36328125 4.49609375 3.36328125 4.49609375 3.3125 7.4375 C3.30863281 8.40558594 3.30476563 9.37367188 3.30078125 10.37109375 C3 13 3 13 1 16 C-0.14077657 12.57767028 -0.09815117 9.91326783 -0.0625 6.3125 C-0.05347656 5.13300781 -0.04445313 3.95351563 -0.03515625 2.73828125 C-0.02355469 1.83464844 -0.01195312 0.93101562 0 0 Z " fill="#28314C" transform="translate(303,805)"/>
<path d="M0 0 C-4.5148336 3.16038352 -9.61498657 4.9412516 -15 6 C-15.99 5.67 -16.98 5.34 -18 5 C-16.06305322 4.18618205 -14.12542289 3.37399084 -12.1875 2.5625 C-11.10855469 2.11003906 -10.02960937 1.65757812 -8.91796875 1.19140625 C-3.3032491 -1.10108303 -3.3032491 -1.10108303 0 0 Z " fill="#99EC6C" transform="translate(570,555)"/>
<path d="M0 0 C0.33 0 0.66 0 1 0 C0.67 5.28 0.34 10.56 0 16 C-2.24234009 12.63648987 -2.27098215 11.37689944 -2.25 7.4375 C-2.25515625 6.46683594 -2.2603125 5.49617188 -2.265625 4.49609375 C-2 2 -2 2 0 0 Z " fill="#293352" transform="translate(585,465)"/>
<path d="M0 0 C0.33 0 0.66 0 1 0 C1.36256858 1.4562672 1.71479793 2.91511185 2.0625 4.375 C2.35833984 5.59316406 2.35833984 5.59316406 2.66015625 6.8359375 C3 9 3 9 2 11 C1.34 11 0.68 11 0 11 C0.33 12.98 0.66 14.96 1 17 C0.34 17.33 -0.32 17.66 -1 18 C-0.505 9.09 -0.505 9.09 0 0 Z " fill="#D9DBDE" transform="translate(220,922)"/>
<path d="M0 0 C0.66 0 1.32 0 2 0 C2.08090971 1.62418745 2.13914995 3.24951745 2.1875 4.875 C2.22230469 5.77992188 2.25710938 6.68484375 2.29296875 7.6171875 C2.19628906 8.40351562 2.09960938 9.18984375 2 10 C1.01 10.66 0.02 11.32 -1 12 C-1.02712066 10.56260487 -1.04645067 9.12506137 -1.0625 7.6875 C-1.07410156 6.88699219 -1.08570313 6.08648438 -1.09765625 5.26171875 C-1 3 -1 3 0 0 Z " fill="#23334E" transform="translate(709,903)"/>
<path d="M0 0 C1.5625 1.125 1.5625 1.125 3 3 C2.71826949 7.2259576 1.4188296 11.02727713 0 15 C-0.33 15 -0.66 15 -1 15 C-1.09038099 9.84828377 -0.84681133 5.08086796 0 0 Z " fill="#DEDEE1" transform="translate(226,866)"/>
<path d="M0 0 C0 3 0 3 0 3 Z M-5 4 C-4.01 4 -3.02 4 -2 4 C-2.165 4.598125 -2.33 5.19625 -2.5 5.8125 C-3.1114124 8.11344336 -3.1114124 8.11344336 -3 11 C-4.98 11.99 -4.98 11.99 -7 13 C-6.34 10.03 -5.68 7.06 -5 4 Z " fill="#24304E" transform="translate(387,174)"/>
<path d="M0 0 C0.99 0 1.98 0 3 0 C3.16682272 4.92127034 3.24828052 8.50343896 1 13 C0.67 13 0.34 13 0 13 C0 8.71 0 4.42 0 0 Z " fill="#27314F" transform="translate(716,948)"/>
<path d="M0 0 C1.90318884 2.85478326 2.4619099 4.41941308 3.125 7.6875 C3.29257812 8.49574219 3.46015625 9.30398438 3.6328125 10.13671875 C3.75398437 10.75160156 3.87515625 11.36648438 4 12 C3.01 12 2.02 12 1 12 C0.63762737 10.37681021 0.28534843 8.7513642 -0.0625 7.125 C-0.25972656 6.22007812 -0.45695313 5.31515625 -0.66015625 4.3828125 C-1 2 -1 2 0 0 Z " fill="#8BD968" transform="translate(781,653)"/>
<path d="M0 0 C-0.99 0 -1.98 0 -3 0 C-3 0.66 -3 1.32 -3 2 C-3.97753644 3.02196992 -4.9805881 4.01979625 -6 5 C-6.66 5.99 -7.32 6.98 -8 8 C-8 5.36 -8 2.72 -8 0 C-4.94736336 -0.98120464 -3.05263664 -0.98120464 0 0 Z " fill="#D2D4D8" transform="translate(718,796)"/>
<path d="M0 0 C2.97 0.495 2.97 0.495 6 1 C5.01 1.33 4.02 1.66 3 2 C3.33 2.99 3.66 3.98 4 5 C1.69 5.33 -0.62 5.66 -3 6 C-2 4 -1 2 0 0 Z " fill="#23324D" transform="translate(643,518)"/>
<path d="M0 0 C0.99 0 1.98 0 3 0 C3.28571429 8.57142857 3.28571429 8.57142857 1 12 C0.03929566 9.11788698 -0.10581883 7.30149956 -0.0625 4.3125 C-0.05347656 3.50425781 -0.04445313 2.69601562 -0.03515625 1.86328125 C-0.02355469 1.24839844 -0.01195312 0.63351562 0 0 Z " fill="#28324E" transform="translate(295,943)"/>
<path d="M0 0 C0.99 0 1.98 0 3 0 C3.05422947 1.4370809 3.09289723 2.87475462 3.125 4.3125 C3.14820313 5.11300781 3.17140625 5.91351562 3.1953125 6.73828125 C3 9 3 9 1 12 C0.03929566 9.11788698 -0.10581883 7.30149956 -0.0625 4.3125 C-0.05347656 3.50425781 -0.04445313 2.69601562 -0.03515625 1.86328125 C-0.02355469 1.24839844 -0.01195312 0.63351562 0 0 Z " fill="#2B3653" transform="translate(297,912)"/>
<path d="M0 0 C0.66 0 1.32 0 2 0 C1.38461538 6.52307692 1.38461538 6.52307692 -0.5625 8.9375 C-1.036875 9.288125 -1.51125 9.63875 -2 10 C-3 8 -3 8 -2.44140625 6.0546875 C-2.15136719 5.33539063 -1.86132812 4.61609375 -1.5625 3.875 C-1.27503906 3.15054687 -0.98757813 2.42609375 -0.69140625 1.6796875 C-0.46324219 1.12539063 -0.23507812 0.57109375 0 0 Z " fill="#EEEEEE" transform="translate(439,488)"/>
<path d="M0 0 C3.63559661 3.43361902 6.36113346 6.7973607 9 11 C4.55092795 9.51697598 2.25420608 5.91714499 0 2 C0 1.34 0 0.68 0 0 Z " fill="#171C38" transform="translate(751,580)"/>
<path d="M0 0 C1.52299523 2.93720508 2.80100302 5.9168649 4 9 C0.125 7.125 0.125 7.125 -1 6 C-1.125 3.5 -1.125 3.5 -1 1 C-0.67 0.67 -0.34 0.34 0 0 Z " fill="#ECEBED" transform="translate(580,493)"/>
<path d="M0 0 C0.33 0 0.66 0 1 0 C1 2.31 1 4.62 1 7 C-1.70879335 8.35439668 -4.00933268 8.06501451 -7 8 C-6.360625 7.896875 -5.72125 7.79375 -5.0625 7.6875 C-4.381875 7.460625 -3.70125 7.23375 -3 7 C-2.67 6.01 -2.34 5.02 -2 4 C-1.34870203 2.65909241 -0.68486725 1.32407669 0 0 Z " fill="#85D669" transform="translate(711,959)"/>
<path d="M0 0 C1.86830571 3.73661142 2.508219 5.03589176 2 9 C1.01 9.99 0.02 10.98 -1 12 C-0.67 8.04 -0.34 4.08 0 0 Z " fill="#E0E1E2" transform="translate(228,846)"/>
<path d="M0 0 C0.33 0 0.66 0 1 0 C1 1.98 1 3.96 1 6 C0.34 6 -0.32 6 -1 6 C-0.67 6.99 -0.34 7.98 0 9 C-0.99 9.495 -0.99 9.495 -2 10 C-2.25 3.375 -2.25 3.375 0 0 Z " fill="#E7E8E9" transform="translate(235,793)"/>
<path d="M0 0 C0.99 0.66 1.98 1.32 3 2 C3 3.32 3 4.64 3 6 C0.13275314 5.42655063 -0.8614515 5.1385485 -3 3 C-2.01 2.67 -1.02 2.34 0 2 C0 1.34 0 0.68 0 0 Z " fill="#182242" transform="translate(779,778)"/>
<path d="M0 0 C3.3 0.33 6.6 0.66 10 1 C10 1.33 10 1.66 10 2 C8.88625 2.309375 7.7725 2.61875 6.625 2.9375 C3.2054845 3.82326483 3.2054845 3.82326483 1 5 C0.67 3.35 0.34 1.7 0 0 Z " fill="#283452" transform="translate(477,114)"/>
<path d="M0 0 C0.33 0 0.66 0 1 0 C1.38897161 1.62171239 1.76078298 3.24754925 2.125 4.875 C2.33382812 5.77992188 2.54265625 6.68484375 2.7578125 7.6171875 C2.83773437 8.40351562 2.91765625 9.18984375 3 10 C2.34 10.66 1.68 11.32 1 12 C-0.26237731 9.47524538 -0.09856404 7.68799534 -0.0625 4.875 C-0.05347656 3.96492187 -0.04445312 3.05484375 -0.03515625 2.1171875 C-0.02355469 1.41851563 -0.01195312 0.71984375 0 0 Z " fill="#E2E2E3" transform="translate(224,884)"/>
<path d="M0 0 C0.33 0 0.66 0 1 0 C2.35384615 6.4 2.35384615 6.4 0.5625 9.4375 C0.046875 9.953125 -0.46875 10.46875 -1 11 C-1.125 3.375 -1.125 3.375 0 0 Z " fill="#0D1331" transform="translate(213,725)"/>
<path d="M0 0 C0.66 0.33 1.32 0.66 2 1 C-0.83430453 4.2542015 -2.68607774 5.5206753 -7 6 C-2.25 1.125 -2.25 1.125 0 0 Z " fill="#0D132E" transform="translate(306,546)"/>
<path d="M0 0 C2.32590854 3.63423209 2.16265833 6.77088331 2 11 C0.4375 9.4375 0.4375 9.4375 -1 7 C-0.6875 3.25 -0.6875 3.25 0 0 Z " fill="#161F3C" transform="translate(220,898)"/>
<path d="M0 0 C-0.33 0.66 -0.66 1.32 -1 2 C-2.98 2 -4.96 2 -7 2 C-7.33 1.34 -7.66 0.68 -8 0 C-4.94736336 -0.98120464 -3.05263664 -0.98120464 0 0 Z " fill="#E7E6E7" transform="translate(772,787)"/>
<path d="M0 0 C0.33 0 0.66 0 1 0 C1 2.31 1 4.62 1 7 C-0.98 7.66 -2.96 8.32 -5 9 C-5 8.34 -5 7.68 -5 7 C-4.0409375 6.6596875 -4.0409375 6.6596875 -3.0625 6.3125 C-0.72806339 5.14749104 -0.72806339 5.14749104 -0.25 2.375 C-0.1675 1.59125 -0.085 0.8075 0 0 Z " fill="#101446" transform="translate(807,764)"/>
<path d="M0 0 C0.66 0.33 1.32 0.66 2 1 C0.02 3.31 -1.96 5.62 -4 8 C-4.66 7.67 -5.32 7.34 -6 7 C-4.02 4.69 -2.04 2.38 0 0 Z " fill="#101531" transform="translate(271,576)"/>
<path d="M0 0 C0.66 0.33 1.32 0.66 2 1 C1.01 2.32 0.02 3.64 -1 5 C-2.32 4.67 -3.64 4.34 -5 4 C-3.35 2.68 -1.7 1.36 0 0 Z " fill="#111732" transform="translate(418,140)"/>
</svg>
