<svg width="267" height="121" viewBox="0 0 267 121" fill="none" xmlns="http://www.w3.org/2000/svg">
<path d="M109.473 89H106.506V107.699H109.473V89Z" fill="white" stroke="black" stroke-width="0.465036" stroke-miterlimit="10"/>
<path d="M119.788 89H116.821V107.699H119.788V89Z" fill="white" stroke="black" stroke-width="0.465036" stroke-miterlimit="10"/>
<path d="M130.103 89.9297H127.136V108.629H130.103V89.9297Z" fill="white" stroke="black" stroke-width="0.465036" stroke-miterlimit="10"/>
<path d="M140.421 90.4004H137.454V109.099H140.421V90.4004Z" fill="white" stroke="black" stroke-width="0.465036" stroke-miterlimit="10"/>
<path d="M150.736 90.8652H147.77V109.564H150.736V90.8652Z" fill="white" stroke="black" stroke-width="0.465036" stroke-miterlimit="10"/>
<path d="M161.055 90.8652H158.088V109.564H161.055V90.8652Z" fill="white" stroke="black" stroke-width="0.465036" stroke-miterlimit="10"/>
<path d="M171.369 91.7949H168.402V110.494H171.369V91.7949Z" fill="white" stroke="black" stroke-width="0.465036" stroke-miterlimit="10"/>
<path d="M181.69 91.7949H178.723V110.494H181.69V91.7949Z" fill="white" stroke="black" stroke-width="0.465036" stroke-miterlimit="10"/>
<path d="M192.003 92.2598H189.036V110.959H192.003V92.2598Z" fill="white" stroke="black" stroke-width="0.465036" stroke-miterlimit="10"/>
<path d="M202.318 91.7949H199.352V110.494H202.318V91.7949Z" fill="white" stroke="black" stroke-width="0.465036" stroke-miterlimit="10"/>
<path d="M212.637 92.2598H209.67V110.959H212.637V92.2598Z" fill="white" stroke="black" stroke-width="0.465036" stroke-miterlimit="10"/>
<path d="M222.951 92.7246H219.984V111.424H222.951V92.7246Z" fill="white" stroke="black" stroke-width="0.465036" stroke-miterlimit="10"/>
<path d="M233.271 92.7246H230.304V111.424H233.271V92.7246Z" fill="white" stroke="black" stroke-width="0.465036" stroke-miterlimit="10"/>
<path d="M243.585 92.7246H240.618V111.424H243.585V92.7246Z" fill="white" stroke="black" stroke-width="0.465036" stroke-miterlimit="10"/>
<path d="M253.9 92.2598H250.933V110.959H253.9V92.2598Z" fill="white" stroke="black" stroke-width="0.465036" stroke-miterlimit="10"/>
<path d="M264.219 92.7246H261.252V111.424H264.219V92.7246Z" fill="white" stroke="black" stroke-width="0.465036" stroke-miterlimit="10"/>
<path d="M266.055 100.328H103V102.267H266.055V100.328Z" fill="white" stroke="black" stroke-width="0.465036" stroke-miterlimit="10"/>
<path d="M154.493 75.136C169.677 75.136 181.986 58.5401 181.986 38.068C181.986 17.5959 169.677 1 154.493 1C139.309 1 127 17.5959 127 38.068C127 58.5401 139.309 75.136 154.493 75.136Z" fill="#F073B4" stroke="black" stroke-width="0.465036" stroke-miterlimit="10"/>
<path d="M170.462 52.322L155.809 62.3156L156.102 20.8809L151.438 110.628L155.465 110.479L155.809 62.3156L156.102 66.2684L170.462 52.322Z" fill="#4E62F5" stroke="black" stroke-width="0.348777" stroke-miterlimit="10"/>
<path d="M155.948 42.7097C155.948 42.7097 164.882 33.023 164.882 31.5488L155.948 45.0349V42.7097Z" fill="#4E62F5" stroke="black" stroke-width="0.348777" stroke-miterlimit="10"/>
<path d="M154.261 56.339L145.662 38.291L154.493 51.8515L154.261 56.339Z" fill="#4E62F5" stroke="black" stroke-width="0.348777" stroke-miterlimit="10"/>
<path d="M134.757 37.8361C136.213 37.8361 137.394 36.4287 137.394 34.6925C137.394 32.9563 136.213 31.5488 134.757 31.5488C133.301 31.5488 132.12 32.9563 132.12 34.6925C132.12 36.4287 133.301 37.8361 134.757 37.8361Z" fill="white" stroke="black" stroke-width="0.465036" stroke-miterlimit="10"/>
<path d="M177.251 53.0646C178.707 53.0646 179.888 51.6572 179.888 49.921C179.888 48.1848 178.707 46.7773 177.251 46.7773C175.795 46.7773 174.614 48.1848 174.614 49.921C174.614 51.6572 175.795 53.0646 177.251 53.0646Z" fill="white" stroke="black" stroke-width="0.465036" stroke-miterlimit="10"/>
<path d="M138.951 18.2717C140.407 18.2717 141.588 16.8642 141.588 15.128C141.588 13.3918 140.407 11.9844 138.951 11.9844C137.495 11.9844 136.314 13.3918 136.314 15.128C136.314 16.8642 137.495 18.2717 138.951 18.2717Z" fill="white" stroke="black" stroke-width="0.465036" stroke-miterlimit="10"/>
<path d="M143.708 24.6764C143.864 23.8197 143.421 23.0219 142.718 22.8943C142.016 22.7668 141.32 23.3578 141.164 24.2145C141.009 25.0712 141.452 25.869 142.155 25.9966C142.857 26.1241 143.553 25.533 143.708 24.6764Z" fill="white" stroke="black" stroke-width="0.465036" stroke-miterlimit="10"/>
<path d="M235.493 75.136C250.677 75.136 262.986 58.5401 262.986 38.068C262.986 17.5959 250.677 1 235.493 1C220.309 1 208 17.5959 208 38.068C208 58.5401 220.309 75.136 235.493 75.136Z" fill="#F073B4" stroke="black" stroke-width="0.465036" stroke-miterlimit="10"/>
<path d="M251.462 52.322L236.809 62.3156L237.102 20.8809L232.438 110.628L236.465 110.479L236.809 62.3156L237.102 66.2684L251.462 52.322Z" fill="#4E62F5" stroke="black" stroke-width="0.348777" stroke-miterlimit="10"/>
<path d="M236.948 42.7097C236.948 42.7097 245.882 33.023 245.882 31.5488L236.948 45.0349V42.7097Z" fill="#4E62F5" stroke="black" stroke-width="0.348777" stroke-miterlimit="10"/>
<path d="M235.261 56.339L226.662 38.291L235.493 51.8515L235.261 56.339Z" fill="#4E62F5" stroke="black" stroke-width="0.348777" stroke-miterlimit="10"/>
<path d="M215.757 37.8361C217.213 37.8361 218.394 36.4287 218.394 34.6925C218.394 32.9563 217.213 31.5488 215.757 31.5488C214.301 31.5488 213.12 32.9563 213.12 34.6925C213.12 36.4287 214.301 37.8361 215.757 37.8361Z" fill="white" stroke="black" stroke-width="0.465036" stroke-miterlimit="10"/>
<path d="M258.251 53.0646C259.707 53.0646 260.888 51.6572 260.888 49.921C260.888 48.1848 259.707 46.7773 258.251 46.7773C256.795 46.7773 255.614 48.1848 255.614 49.921C255.614 51.6572 256.795 53.0646 258.251 53.0646Z" fill="white" stroke="black" stroke-width="0.465036" stroke-miterlimit="10"/>
<path d="M219.951 18.2717C221.407 18.2717 222.588 16.8642 222.588 15.128C222.588 13.3918 221.407 11.9844 219.951 11.9844C218.495 11.9844 217.314 13.3918 217.314 15.128C217.314 16.8642 218.495 18.2717 219.951 18.2717Z" fill="white" stroke="black" stroke-width="0.465036" stroke-miterlimit="10"/>
<path d="M224.708 24.6764C224.864 23.8197 224.421 23.0219 223.718 22.8943C223.016 22.7668 222.32 23.3578 222.164 24.2145C222.009 25.0712 222.452 25.869 223.155 25.9966C223.857 26.1241 224.553 25.533 224.708 24.6764Z" fill="white" stroke="black" stroke-width="0.465036" stroke-miterlimit="10"/>
<path fill-rule="evenodd" clip-rule="evenodd" d="M82.6787 93.2687L83.5762 93.8453L85.3992 64.1947L84.497 63.6738L82.6787 93.2687Z" fill="#8385F2" stroke="black" stroke-width="0.465036" stroke-miterlimit="10"/>
<path fill-rule="evenodd" clip-rule="evenodd" d="M81.1065 63.1426L84.5245 63.2263L82.6597 93.5559L79.251 93.3094L81.1065 63.1426Z" fill="#8385F2" stroke="black" stroke-width="0.465036" stroke-miterlimit="10"/>
<path fill-rule="evenodd" clip-rule="evenodd" d="M29.6377 89.5851L30.5306 90.1617L32.3535 60.5157L31.456 59.9902L29.6377 89.5851Z" fill="#8385F2" stroke="black" stroke-width="0.465036" stroke-miterlimit="10"/>
<path fill-rule="evenodd" clip-rule="evenodd" d="M28.0654 59.4609L31.4834 59.5493L29.6187 89.8742L26.21 89.6278L28.0654 59.4609Z" fill="#8385F2" stroke="black" stroke-width="0.465036" stroke-miterlimit="10"/>
<path fill-rule="evenodd" clip-rule="evenodd" d="M22.3818 57.5762L94.5646 63.045L94.2298 68.565L22.0283 63.2915L22.3818 57.5762Z" fill="#8385F2" stroke="black" stroke-width="0.465036" stroke-miterlimit="10"/>
<path fill-rule="evenodd" clip-rule="evenodd" d="M23.3021 57L95.4896 62.4735L94.5642 63.0455L22.3721 57.6976L23.3021 57Z" fill="#8385F2" stroke="black" stroke-width="0.465036" stroke-miterlimit="10"/>
<path fill-rule="evenodd" clip-rule="evenodd" d="M94.5643 63.0446L95.4897 62.4727L95.1503 67.9926L94.2295 68.5646L94.5643 63.0446Z" fill="#8385F2" stroke="black" stroke-width="0.465036" stroke-miterlimit="10"/>
<path fill-rule="evenodd" clip-rule="evenodd" d="M21.9452 64.6875L94.1281 70.161L93.7886 75.6809L21.5918 70.4074L21.9452 64.6875Z" fill="#8385F2" stroke="black" stroke-width="0.465036" stroke-miterlimit="10"/>
<path fill-rule="evenodd" clip-rule="evenodd" d="M22.8666 64.1152L95.0541 69.5841L94.1287 70.1607L21.9365 64.8128L22.8666 64.1152Z" fill="#8385F2" stroke="black" stroke-width="0.465036" stroke-miterlimit="10"/>
<path fill-rule="evenodd" clip-rule="evenodd" d="M94.1286 70.1606L95.054 69.584L94.7145 75.104L93.7891 75.6806L94.1286 70.1606Z" fill="#8385F2" stroke="black" stroke-width="0.465036" stroke-miterlimit="10"/>
<path fill-rule="evenodd" clip-rule="evenodd" d="M21.4853 72.1699L93.6727 77.6387L93.3333 83.1587L21.1318 77.8899L21.4853 72.1699Z" fill="#8385F2" stroke="black" stroke-width="0.465036" stroke-miterlimit="10"/>
<path fill-rule="evenodd" clip-rule="evenodd" d="M22.4066 71.5977L94.5941 77.0665L93.6734 77.6385L21.4766 72.2952L22.4066 71.5977Z" fill="#8385F2" stroke="black" stroke-width="0.465036" stroke-miterlimit="10"/>
<path fill-rule="evenodd" clip-rule="evenodd" d="M93.6725 77.6384L94.5933 77.0664L94.2538 82.5864L93.333 83.1584L93.6725 77.6384Z" fill="#8385F2" stroke="black" stroke-width="0.465036" stroke-miterlimit="10"/>
<path fill-rule="evenodd" clip-rule="evenodd" d="M21.0243 79.6484L93.2118 85.1219L92.8723 90.6419L20.6709 85.3684L21.0243 79.6484Z" fill="#8385F2" stroke="black" stroke-width="0.465036" stroke-miterlimit="10"/>
<path fill-rule="evenodd" clip-rule="evenodd" d="M21.9457 79.0762L94.1332 84.545L93.2124 85.1216L21.0156 79.7737L21.9457 79.0762Z" fill="#8385F2" stroke="black" stroke-width="0.465036" stroke-miterlimit="10"/>
<path fill-rule="evenodd" clip-rule="evenodd" d="M93.2115 85.1216L94.1323 84.5449L93.7928 90.0649L92.8721 90.6415L93.2115 85.1216Z" fill="#8385F2" stroke="black" stroke-width="0.465036" stroke-miterlimit="10"/>
<path fill-rule="evenodd" clip-rule="evenodd" d="M12.3317 112.949L11.3412 112.874L9.72754 94.9238L10.7506 95.3656L12.3317 112.949Z" fill="#8385F2" stroke="black" stroke-width="0.465036" stroke-miterlimit="10"/>
<path fill-rule="evenodd" clip-rule="evenodd" d="M22.5955 106.164L23.6651 105.238L22.6746 105.164L15.4805 108.117L16.4477 108.201L22.5955 106.164Z" fill="#8385F2" stroke="black" stroke-width="0.465036" stroke-miterlimit="10"/>
<path fill-rule="evenodd" clip-rule="evenodd" d="M15.1318 93.5664L16.4478 108.201L23.6652 105.239L23.9303 108.187L16.7129 111.149L12.3323 112.949L6.27286 115.432L6.00781 112.484L12.0672 109.996L10.7512 95.3661L15.1318 93.5664Z" fill="#8385F2" stroke="black" stroke-width="0.465036" stroke-miterlimit="10"/>
<path fill-rule="evenodd" clip-rule="evenodd" d="M11.077 109.926L12.0675 109.995L6.00811 112.483L5.01758 112.414L11.077 109.926Z" fill="#8385F2" stroke="black" stroke-width="0.465036" stroke-miterlimit="10"/>
<path fill-rule="evenodd" clip-rule="evenodd" d="M5.28265 115.362L6.27315 115.432L6.00811 112.484L5.01758 112.414L5.28265 115.362Z" fill="#8385F2" stroke="black" stroke-width="0.465036" stroke-miterlimit="10"/>
<path fill-rule="evenodd" clip-rule="evenodd" d="M19.3364 88.1211L91.5331 93.3899L73.2014 100.914L1 95.6453L19.3364 88.1211Z" fill="#8385F2" stroke="black" stroke-width="0.465036" stroke-miterlimit="10"/>
<path fill-rule="evenodd" clip-rule="evenodd" d="M16.2668 103.527L13.8486 104.522L81.5439 109.461L84.2364 108.489L16.2668 103.527Z" fill="#8385F2" stroke="black" stroke-width="0.465036" stroke-miterlimit="10"/>
<path fill-rule="evenodd" clip-rule="evenodd" d="M81.7214 118.013L80.7309 117.939L79.1172 99.9883L80.1449 100.43L81.7214 118.013Z" fill="#8385F2" stroke="black" stroke-width="0.465036" stroke-miterlimit="10"/>
<path fill-rule="evenodd" clip-rule="evenodd" d="M91.5329 93.3887L91.7375 95.6674L73.4058 103.192L73.2012 100.913L91.5329 93.3887Z" fill="#8385F2" stroke="black" stroke-width="0.465036" stroke-miterlimit="10"/>
<path fill-rule="evenodd" clip-rule="evenodd" d="M73.2014 100.913L1 95.6445L1.20462 97.9186L73.4061 103.192L73.2014 100.913Z" fill="#8385F2" stroke="black" stroke-width="0.465036" stroke-miterlimit="10"/>
<path fill-rule="evenodd" clip-rule="evenodd" d="M91.9842 111.228L93.0538 110.302L92.0633 110.232L84.8691 113.185L85.8364 113.264L91.9842 111.228Z" fill="#8385F2" stroke="black" stroke-width="0.465036" stroke-miterlimit="10"/>
<path fill-rule="evenodd" clip-rule="evenodd" d="M13.8486 104.521L14.0067 106.317L81.1114 111.213L80.9486 109.418L13.8486 104.521Z" fill="#8385F2" stroke="black" stroke-width="0.465036" stroke-miterlimit="10"/>
<path fill-rule="evenodd" clip-rule="evenodd" d="M84.5205 98.6309L85.8365 113.266L93.0539 110.303L93.319 113.252L86.1016 116.214L81.721 118.014L75.6616 120.501L75.3965 117.553L81.4559 115.065L80.1445 100.431L84.5205 98.6309Z" fill="#8385F2" stroke="black" stroke-width="0.465036" stroke-miterlimit="10"/>
<path fill-rule="evenodd" clip-rule="evenodd" d="M80.4647 114.99L81.4552 115.065L75.3958 117.553L74.4053 117.478L80.4647 114.99Z" fill="#8385F2" stroke="black" stroke-width="0.465036" stroke-miterlimit="10"/>
<path fill-rule="evenodd" clip-rule="evenodd" d="M74.6703 120.427L75.6609 120.501L75.3958 117.553L74.4053 117.479L74.6703 120.427Z" fill="#8385F2" stroke="black" stroke-width="0.465036" stroke-miterlimit="10"/>
</svg>
