<svg width="195" height="208" viewBox="0 0 195 208" fill="none" xmlns="http://www.w3.org/2000/svg">
<path d="M43.3952 7.26254L42.2306 7.04492C42.2306 7.04492 42.1974 7.04492 42.1832 7.04998C20.638 16.853 6.00944 36.6765 2.05168 61.4446C-4.33946 101.411 18.9763 137.287 56.2911 144.904C60.1021 145.683 64.0125 146.356 67.7904 147.004L67.8377 147.014C80.672 149.221 93.9419 151.503 105.678 158.3C109.068 160.264 112.083 162.592 114.9 165.421C114.933 165.456 114.985 165.456 115.018 165.421L128.8 152.247C128.8 152.247 128.828 152.207 128.828 152.176C128.828 152.151 128.819 152.126 128.8 152.106C128.184 151.498 127.663 150.997 127.128 150.501C118.545 142.647 108.173 137.1 99.1211 132.52C97.2227 131.558 95.2912 130.597 93.4212 129.666C90.3582 128.142 87.1957 126.568 84.1091 124.959L83.7729 124.782C79.1003 122.353 74.2714 119.837 70.0154 116.558C65.0256 112.717 62.0289 108.607 60.8595 103.997C59.6381 99.1837 60.6938 93.7433 63.6811 89.4415C67.6199 83.7632 74.1342 80.7873 81.5621 81.2681C81.5905 81.2681 81.6141 81.258 81.6331 81.2378C81.652 81.2175 81.6567 81.1872 81.6567 81.1619C81.0413 76.1769 81.9171 71.2476 84.1233 67.2747C86.5661 62.8768 90.6943 60.0478 95.4569 59.5164C96.7304 59.3747 98.0275 59.3747 99.4241 59.5164C99.4525 59.5164 99.4809 59.5113 99.4998 59.4809C99.5188 59.4556 99.5235 59.4253 99.514 59.3949C96.8534 50.7559 93.9514 44.0452 90.3818 38.2859C82.8498 26.1195 70.9717 16.4531 56.9349 11.0633C52.6174 9.40837 48.0678 8.12796 43.4141 7.25242L43.3952 7.26254Z" fill="#E0FF70" stroke="black" stroke-width="0.465036" stroke-miterlimit="10"/>
<path d="M92.8477 62.2244C88.7763 63.601 85.6186 67.2397 84.1936 72.2197C83.3699 75.0943 83.19 78.2017 83.6586 81.4508C83.6634 81.4912 83.6918 81.5216 83.7296 81.5267C86.2293 81.9265 88.6201 82.716 90.8404 83.8648C95.5225 86.289 99.3761 90.1403 101.156 94.1587C101.871 95.7782 102.619 98.2327 102.098 100.738C101.663 102.818 100.096 104.463 98.1973 104.822C93.7424 105.667 90.2297 100.389 88.5443 97.8531C85.1215 92.7062 82.9911 87.9844 82.0301 83.4245C82.0206 83.384 81.9922 83.3537 81.9496 83.3537C81.8597 83.3435 81.7697 83.3334 81.6798 83.3233C81.5377 83.3081 81.3957 83.2929 81.2489 83.2828C76.1929 82.9994 71.2646 84.6644 67.7376 87.8427C64.1633 91.0766 62.1182 95.8389 62.2981 100.586C62.5111 106.269 66.1659 110.637 69.1957 113.299C73.163 116.786 77.864 119.327 82.0111 121.563C86.0967 123.77 90.3196 125.87 94.4005 127.9C99.5323 130.45 104.839 133.092 109.929 135.967C118.246 140.663 124.893 145.502 130.248 150.755C130.281 150.785 130.333 150.79 130.366 150.755L133.756 147.516C133.794 147.48 133.794 147.425 133.765 147.384C131.365 144.474 129.003 141.033 126.531 136.847C118.067 122.51 111.486 105.561 105.829 83.5105C105.246 81.2382 104.674 78.9304 104.12 76.6986C102.913 71.8198 101.663 66.7741 100.238 61.8904L100.19 61.7183C100.181 61.6829 100.152 61.6576 100.119 61.6525C97.6102 61.2527 95.1627 61.4501 92.8524 62.2294L92.8477 62.2244Z" fill="#E0FF70" stroke="black" stroke-width="0.465036" stroke-miterlimit="10"/>
<path d="M92.6819 100.069C94.2726 101.81 95.7118 102.706 97.0895 102.807C97.9605 102.868 98.6707 102.569 99.2009 102.063C99.8542 101.441 100.233 100.504 100.304 99.5478C100.668 94.6286 96.4693 90.4179 93.9365 88.348C91.0723 86.0048 87.7111 84.3903 84.2125 83.6717C84.1841 83.6666 84.1462 83.6717 84.132 83.697C84.1131 83.7223 84.1036 83.7527 84.1131 83.783C84.3877 84.9369 84.7285 86.0604 85.1215 87.1232C85.9689 89.4158 87.0956 91.7185 88.5585 94.168C89.7042 96.0861 91.0581 98.2775 92.6867 100.064L92.6819 100.069Z" fill="#E0FF70" stroke="black" stroke-width="0.465036" stroke-miterlimit="10"/>
<path d="M168.464 164.48C168.44 164.48 168.417 164.486 168.398 164.506L139.226 192.386C139.226 192.386 139.197 192.432 139.197 192.457C139.197 192.482 139.211 192.513 139.23 192.528C143.368 196.121 148.24 198.697 153.305 199.983C158.366 201.263 163.521 201.228 168.213 199.876C168.227 199.876 168.237 199.866 168.246 199.856C168.251 199.851 168.256 199.846 168.26 199.836L168.762 199.016C171.778 194.107 173.572 188.975 174.098 183.762C174.907 175.792 172.455 170.306 168.521 164.521C168.507 164.501 168.483 164.486 168.459 164.48H168.464Z" fill="white"/>
<path d="M174.098 183.762C173.572 188.975 171.778 194.107 168.762 199.016L168.26 199.836C168.256 199.846 168.251 199.851 168.246 199.856C168.237 199.866 168.227 199.876 168.213 199.876C163.521 201.228 158.366 201.263 153.305 199.983C148.24 198.697 143.368 196.121 139.23 192.528C139.211 192.513 139.197 192.482 139.197 192.457C139.197 192.432 139.226 192.386 139.226 192.386L168.398 164.506C168.417 164.486 168.44 164.48 168.464 164.48H168.459C168.483 164.486 168.507 164.501 168.521 164.521C172.455 170.306 174.907 175.792 174.098 183.762ZM174.098 183.762L174.012 183.752" stroke="black" stroke-width="0.465036" stroke-miterlimit="10"/>
<path d="M169.126 199.417C169.126 199.417 169.088 199.432 169.069 199.437H169.064C169.022 199.452 168.993 199.508 169.008 199.553C169.022 199.604 169.069 199.629 169.116 199.614C169.116 199.614 169.116 199.614 169.121 199.614L169.235 199.574C169.235 199.574 169.259 199.564 169.268 199.553C169.277 199.548 169.282 199.538 169.287 199.533C169.306 199.503 169.306 199.457 169.287 199.427C169.263 199.397 169.225 199.381 169.192 199.397C169.173 199.402 169.15 199.412 169.131 199.417H169.126Z" fill="white" stroke="black" stroke-width="0.465036" stroke-miterlimit="10"/>
<path d="M182.429 151.135C182.405 151.135 182.377 151.135 182.358 151.16L168.392 164.506C168.359 164.536 168.354 164.592 168.378 164.632C172.288 170.386 174.727 175.837 173.922 183.747C173.396 188.93 171.611 194.036 168.615 198.92L168.085 199.785C168.066 199.816 168.066 199.861 168.085 199.891C168.108 199.922 168.146 199.937 168.179 199.927L169.107 199.623C169.107 199.623 169.154 199.608 169.173 199.598L169.23 199.578C172.918 198.348 176.227 196.349 179.068 193.636C189.71 183.464 191.145 165.609 182.481 151.185C182.467 151.16 182.443 151.145 182.42 151.145L182.429 151.135Z" fill="white" stroke="black" stroke-width="0.465036" stroke-miterlimit="10"/>
<path d="M104.532 8.64992C86.017 -1.25427 63.1509 -2.04883 43.3668 6.51422L42.1407 7.04562C42.1028 7.0608 42.0839 7.10129 42.0886 7.14177C42.0886 7.18226 42.1217 7.21769 42.1596 7.22275L43.3574 7.44543C48.0016 8.31591 52.5417 9.59631 56.8497 11.2462C70.8534 16.6208 82.6983 26.2619 90.2114 38.3979C93.7715 44.1471 96.6641 50.8427 99.32 59.4665C99.3295 59.5019 99.3579 59.5272 99.3957 59.5323C99.4478 59.5373 99.4999 59.5424 99.552 59.5474C99.6277 59.5525 99.6987 59.5576 99.7745 59.5677C107.411 60.4888 115.189 66.3493 120.581 75.2464C126.475 84.9734 128.634 96.5174 130.722 107.677C130.845 108.319 130.963 108.962 131.082 109.605C133.16 120.638 135.499 131.286 141.241 140.198C141.255 140.218 141.279 140.233 141.303 140.239C141.326 140.239 141.355 140.238 141.374 140.213L156.31 125.936C156.31 125.936 156.338 125.896 156.338 125.871C156.338 125.845 156.334 125.82 156.315 125.805C154.894 124.125 153.81 122.728 152.897 121.412C144.489 109.24 143.196 93.8148 141.942 78.8953C141.255 70.6916 140.54 62.2145 138.642 54.4663C132.194 28.2306 116.529 15.0722 104.523 8.64992H104.532Z" fill="white" stroke="black" stroke-width="0.465036" stroke-miterlimit="10"/>
<path d="M128.303 105.324C126.13 93.8358 123.649 82.7676 117.23 73.7136C112.661 67.2711 106.408 62.7821 100.504 61.7041C100.424 61.6889 100.343 61.6788 100.263 61.6687L100.121 61.6484C100.092 61.6484 100.064 61.6586 100.04 61.6788C100.021 61.7041 100.017 61.7345 100.021 61.7699L100.069 61.942C101.489 66.8258 102.739 71.8664 103.951 76.7451C104.505 78.977 105.073 81.2847 105.66 83.5571C111.322 105.628 117.912 122.592 126.386 136.945C128.857 141.135 131.229 144.587 133.634 147.502C133.648 147.522 133.672 147.532 133.695 147.532C133.719 147.532 133.743 147.527 133.757 147.507L139.784 141.742C139.817 141.712 139.821 141.656 139.798 141.621C138.936 140.3 138.198 139.065 137.554 137.845C132.654 128.579 130.666 117.961 128.743 107.687C128.597 106.898 128.45 106.114 128.298 105.324H128.303Z" fill="white" stroke="black" stroke-width="0.465036" stroke-miterlimit="10"/>
<path d="M99.7943 59.4719C99.6665 59.4567 99.5386 59.4466 99.4108 59.4365C98.1089 59.3049 96.7786 59.2847 95.4246 59.4365C90.6621 59.9679 86.4676 62.8374 84.0247 67.2404C81.7097 71.4156 80.957 76.4108 81.5488 81.1883C74.741 80.7429 67.8291 83.2885 63.5921 89.397C60.7279 93.5267 59.4875 99.0229 60.7563 104.033C62.115 109.383 65.8408 113.482 69.9453 116.645C74.3102 120.005 79.2338 122.541 84.0532 125.051C89.0288 127.642 94.0659 130.082 99.0652 132.612C108.893 137.587 118.745 142.977 127.054 150.583C127.622 151.105 128.176 151.641 128.725 152.183L130.301 150.674C124.242 144.733 117.235 139.981 109.963 135.876C100.822 130.714 91.268 126.448 82.0459 121.473C77.6099 119.079 73.103 116.615 69.2447 113.224C65.6609 110.071 62.5742 105.718 62.3801 100.582C62.2002 95.7333 64.3495 91.0165 67.7913 87.9142C71.4839 84.5892 76.4643 83.1063 81.2411 83.3746C81.473 83.3897 81.705 83.4201 81.937 83.4454C83.0448 88.7189 85.5539 93.5318 88.4654 97.9095C90.6147 101.143 93.9381 105.729 98.2036 104.919C100.197 104.539 101.74 102.849 102.176 100.764C102.64 98.532 102.128 96.1584 101.229 94.1239C99.2214 89.5944 95.0128 85.9354 90.8704 83.7896C88.6358 82.6306 86.2119 81.8411 83.736 81.4464C83.291 78.3946 83.4046 75.2721 84.2662 72.2608C85.5681 67.7313 88.5364 63.7889 92.8634 62.3263C95.2921 61.5064 97.7254 61.3748 100.093 61.7544C100.22 61.7746 100.348 61.7898 100.476 61.8151C107.113 63.0247 113.201 68.2273 117.145 73.7842C123.636 82.9343 126.116 94.3213 128.204 105.359C130.301 116.463 132.185 127.921 137.469 137.906C138.155 139.206 138.917 140.467 139.718 141.691L141.313 140.163C135.523 131.175 133.161 120.183 131.168 109.605C128.943 97.7779 126.893 85.5103 120.653 75.2113C115.971 67.4884 108.51 60.5398 99.7801 59.4922L99.7943 59.4719ZM93.8813 88.4203C96.9774 90.9507 100.547 95.0248 100.216 99.5391C100.083 101.336 98.8758 102.839 97.0958 102.712C95.3962 102.591 93.8813 101.25 92.7451 100.005C91.1544 98.2637 89.8478 96.1685 88.6264 94.1239C87.2961 91.8921 86.1125 89.5539 85.1988 87.0943C84.7964 86.0062 84.465 84.8928 84.1952 83.7643C87.7032 84.4829 91.0361 86.0973 93.8813 88.4203Z" fill="black" stroke="black" stroke-width="0.465036" stroke-miterlimit="10"/>
<path d="M128.72 154.02L127.872 153.185C127.271 152.588 126.76 152.097 126.234 151.616C117.779 143.878 107.501 138.387 98.5301 133.842C96.6364 132.881 94.7333 131.939 92.8349 130.993C89.7719 129.47 86.6 127.891 83.5038 126.276L83.1677 126.104C78.443 123.645 73.5573 121.104 69.2066 117.754C63.9517 113.71 60.7893 109.337 59.53 104.393C58.1997 99.1549 59.3359 93.2489 62.5693 88.5878C66.5176 82.8943 72.8614 79.7312 80.1378 79.7768C79.8348 75.0144 80.8053 70.3685 82.931 66.5425C85.5963 61.7448 90.1032 58.6576 95.2919 58.0807C96.6553 57.9288 98.0424 57.9288 99.529 58.0807L99.671 58.0958C99.7562 58.1009 99.8462 58.111 99.9314 58.1211C108.088 59.103 116.032 65.0546 121.728 74.4527C127.764 84.4125 129.946 96.0931 132.062 107.389L132.422 109.312C134.472 120.193 136.773 130.679 142.368 139.369L143.003 140.356L139.5 143.701L138.676 142.446C137.786 141.09 137.033 139.814 136.361 138.554C131.352 129.085 129.345 118.346 127.399 107.966C127.252 107.176 127.106 106.392 126.954 105.608C124.814 94.2864 122.376 83.3953 116.127 74.5843C111.762 68.4251 105.825 64.1436 100.258 63.1314C100.196 63.1213 100.13 63.1112 100.069 63.1011L99.8982 63.0758C97.5927 62.7114 95.3534 62.8885 93.242 63.6021C89.6014 64.8319 86.7751 68.1215 85.478 72.6358C84.7962 75.0144 84.5927 77.5702 84.8672 80.2474C87.1586 80.7029 89.36 81.4772 91.4193 82.5451C96.4423 85.1514 100.433 89.1496 102.369 93.5222C103.179 95.3441 104.012 98.1276 103.406 101.038C102.848 103.725 100.878 105.754 98.4165 106.235C93.1142 107.237 89.2653 101.458 87.419 98.6742C84.1287 93.7297 81.9936 89.1445 80.9095 84.701C76.2842 84.5087 71.8104 86.0422 68.6054 88.937C65.3388 91.8824 63.483 96.2095 63.6487 100.506C63.8428 105.653 67.2372 109.682 70.0493 112.151C73.9029 115.537 78.5282 118.037 82.6138 120.239C86.6804 122.435 90.8939 124.53 94.9652 126.555C100.111 129.116 105.437 131.762 110.555 134.657C118.977 139.414 125.718 144.318 131.158 149.658L132.195 150.675L128.706 154.01L128.72 154.02ZM86.0555 85.6525C86.1597 85.9713 86.2686 86.2851 86.3822 86.5938C87.2012 88.8003 88.2853 91.0221 89.7008 93.3956C90.8086 95.253 92.12 97.3735 93.6586 99.0588C95.0031 100.532 96.1535 101.286 97.1856 101.362C98.2981 101.442 98.8804 100.42 98.9514 99.4384C99.2639 95.2024 95.4245 91.3966 93.1142 89.5038C90.9933 87.773 88.5883 86.4622 86.0603 85.6525H86.0555Z" fill="#E745A0" stroke="black" stroke-width="0.465036" stroke-miterlimit="10"/>
<path d="M190.254 147.917L132.758 202.873C132.72 202.908 132.72 202.969 132.753 203.005L134.921 205.601C137.018 208.106 140.63 208.324 142.979 206.082L192.1 159.132C194.444 156.89 194.647 153.028 192.55 150.518L190.382 147.922C190.349 147.881 190.292 147.881 190.259 147.917H190.254Z" fill="#E0FF70" stroke="black" stroke-width="0.465036" stroke-miterlimit="10"/>
<path d="M160.661 121.544L111.54 168.494C109.196 170.736 108.993 174.597 111.09 177.107L115.933 182.897C115.966 182.937 116.018 182.937 116.056 182.902L173.553 127.946C173.591 127.91 173.591 127.849 173.557 127.814L168.714 122.024C166.617 119.519 163.005 119.302 160.657 121.544H160.661Z" fill="#E0FF70" stroke="black" stroke-width="0.465036" stroke-miterlimit="10"/>
<path d="M180.743 136.53L123.241 191.49C123.206 191.524 123.203 191.581 123.235 191.619L125.443 194.26C125.475 194.297 125.529 194.3 125.564 194.267L183.065 139.306C183.1 139.273 183.103 139.215 183.072 139.178L180.863 136.537C180.832 136.499 180.778 136.496 180.743 136.53Z" fill="#E0FF70" stroke="black" stroke-width="0.465036" stroke-miterlimit="10"/>
<path d="M32.8762 62.2294V61.6829C32.9614 55.6907 33.1034 44.5365 25.5619 43.332C22.1533 42.7905 19.1139 43.7723 16.5196 46.2522C16.4865 46.2825 16.4533 46.3179 16.4202 46.3483C10.0007 52.553 7.61464 66.5565 7.9697 74.5173C8.70349 90.9298 13.8637 105.839 21.7793 114.397C25.0743 117.96 32.5211 120.324 37.5488 118.147C38.4057 117.778 39.1537 117.287 39.7833 116.685C41.303 115.232 42.0841 113.188 42.1125 110.602C42.1457 107.307 40.8675 104.245 39.6271 101.274C39.4756 100.91 39.3241 100.551 39.1774 100.186C35.9629 92.3519 34.0266 83.8699 33.2549 74.2643C32.9519 70.4635 32.8241 66.5261 32.8762 62.2244V62.2294Z" fill="white"/>
<path d="M115.464 191.237C117.5 193.671 121.008 193.884 123.285 191.703L180.923 136.61C183.2 134.433 183.38 130.663 181.321 128.203C179.285 125.769 175.777 125.562 173.5 127.738L115.862 182.831C113.584 185.007 113.404 188.777 115.464 191.237Z" fill="white" stroke="black" stroke-width="0.465036" stroke-miterlimit="10"/>
<path d="M183.016 139.109L125.377 194.202C123.1 196.378 122.92 200.149 124.979 202.608C127.039 205.068 130.523 205.255 132.8 203.074L190.439 147.981C192.716 145.804 192.896 142.034 190.841 139.575C188.806 137.14 185.298 136.928 183.016 139.109Z" fill="#E0FF70" stroke="black" stroke-width="0.465036" stroke-miterlimit="10"/>
</svg>
