<svg width="165" height="117" viewBox="0 0 165 117" fill="none" xmlns="http://www.w3.org/2000/svg">
<path d="M131.768 99.2797L132.484 107.155L142.377 106.844L141.929 98.7207L131.768 99.2797Z" fill="white" stroke="black" stroke-width="0.0892888" stroke-miterlimit="10"/>
<path d="M132.271 107.822C132.271 107.822 130.392 108.488 129.408 108.662C128.424 108.835 127.422 109.006 126.531 109.456C125.64 109.906 124.858 110.688 124.667 111.669L143.226 111.762C143.334 110.263 142.882 108.044 142.303 106.656C139.623 107.126 132.356 106.279 132.356 106.279C132.356 106.279 132.281 107.631 132.271 107.82V107.822Z" fill="#6E8DF9" stroke="black" stroke-width="0.0892888" stroke-miterlimit="10"/>
<path d="M125.739 111.003C142.795 110.808 142.866 110.785 142.893 110.778C142.968 110.755 143.009 110.674 142.986 110.601C142.964 110.535 142.898 110.496 142.832 110.503C142.505 110.524 131.519 110.655 125.737 110.721C125.658 110.721 125.596 110.785 125.598 110.864C125.598 110.94 125.662 111.003 125.739 111.003Z" fill="#0D011E"/>
<path d="M140.57 110.822C140.648 110.822 140.711 110.76 140.711 110.681C140.711 109.065 142.532 108.64 142.611 108.624C142.688 108.606 142.736 108.531 142.718 108.456C142.702 108.379 142.627 108.333 142.55 108.349C142.529 108.354 140.429 108.838 140.429 110.683C140.429 110.761 140.491 110.824 140.57 110.824V110.822Z" fill="#0D011E"/>
<path d="M129.565 109.635C129.599 109.635 129.631 109.622 129.658 109.601C130.08 109.238 130.31 108.581 130.496 108.052L130.549 107.899C130.681 107.531 130.826 106.761 130.435 106.49C130.324 106.413 130.192 106.393 130.055 106.436C129.737 106.535 129.456 106.94 129.385 107.126C129.242 107.492 129.24 107.915 129.237 108.29V108.401C129.235 108.569 129.237 108.79 129.271 109.006C129.271 109.011 129.38 109.574 129.517 109.628C129.533 109.633 129.549 109.636 129.567 109.636L129.565 109.635ZM130.194 106.697C130.23 106.697 130.255 106.71 130.272 106.722C130.489 106.872 130.406 107.456 130.281 107.802L130.226 107.958C130.078 108.381 129.897 108.894 129.622 109.229C129.588 109.115 129.553 108.988 129.546 108.96C129.515 108.765 129.513 108.569 129.515 108.401V108.29C129.519 107.924 129.521 107.545 129.644 107.227C129.701 107.079 129.931 106.767 130.133 106.706C130.156 106.699 130.174 106.697 130.192 106.697H130.194Z" fill="#0D011E"/>
<path d="M129.554 109.617C129.588 109.617 129.615 109.612 129.633 109.599C129.676 109.571 129.699 109.519 129.694 109.469C129.638 108.917 129.235 108.349 128.91 107.894L128.815 107.76C128.59 107.44 128.044 106.878 127.597 107.044C127.47 107.09 127.379 107.187 127.335 107.324C127.231 107.64 127.402 108.103 127.511 108.269C127.729 108.596 128.074 108.842 128.379 109.06L128.469 109.124C128.604 109.222 128.786 109.347 128.983 109.446C128.986 109.447 129.365 109.619 129.552 109.619L129.554 109.617ZM127.772 107.295C128.024 107.295 128.392 107.651 128.585 107.922L128.681 108.056C128.942 108.422 129.258 108.863 129.374 109.281C129.26 109.244 129.136 109.199 129.11 109.188C128.935 109.101 128.772 108.99 128.636 108.892L128.545 108.828C128.247 108.615 127.938 108.396 127.751 108.112C127.663 107.978 127.54 107.61 127.606 107.41C127.629 107.34 127.667 107.319 127.697 107.306C127.72 107.297 127.747 107.294 127.774 107.294L127.772 107.295Z" fill="#0D011E"/>
<path d="M143.225 111.761V112.834H124.667V111.668L143.225 111.761Z" fill="white"/>
<path d="M131.815 106.008C131.692 106.311 131.81 106.949 132.067 107.156C132.322 107.361 132.663 107.433 132.99 107.445C133.505 107.465 134.114 107.035 134.353 106.577C134.372 106.863 134.58 107.111 134.831 107.251C135.081 107.39 135.372 107.438 135.656 107.472C136.015 107.515 136.385 107.54 136.735 107.447C137.085 107.354 137.415 107.127 137.553 106.794C137.71 107.195 138.039 107.527 138.44 107.688C138.842 107.849 139.308 107.836 139.701 107.652C140.096 107.469 140.396 107.129 140.666 106.786C140.996 107.356 141.703 107.677 142.35 107.551C142.466 107.527 142.558 107.483 142.635 107.394C142.712 107.304 142.758 107.194 142.792 107.081C142.798 107.061 142.803 107.042 142.808 107.022C142.955 106.449 142.496 105.895 141.903 105.902L131.817 106.008H131.815Z" fill="white"/>
<path d="M112.377 107.822C112.377 107.822 110.498 108.488 109.514 108.662C108.531 108.835 107.529 109.006 106.638 109.456C105.746 109.906 104.964 110.688 104.773 111.669L123.333 111.762C123.44 110.263 122.988 108.044 122.41 106.656C119.729 107.126 112.463 106.279 112.463 106.279C112.463 106.279 112.388 107.631 112.377 107.82V107.822Z" fill="#6E8DF9" stroke="black" stroke-width="0.0892888" stroke-miterlimit="10"/>
<path d="M105.846 111.003C122.902 110.808 122.973 110.785 123 110.778C123.075 110.755 123.116 110.674 123.093 110.601C123.072 110.535 123.006 110.496 122.94 110.503C122.613 110.524 111.627 110.655 105.844 110.721C105.766 110.721 105.703 110.785 105.705 110.864C105.705 110.94 105.769 111.003 105.846 111.003Z" fill="#0D011E"/>
<path d="M120.677 110.822C120.756 110.822 120.818 110.76 120.818 110.681C120.818 109.065 122.64 108.64 122.718 108.624C122.795 108.606 122.843 108.531 122.825 108.456C122.809 108.379 122.734 108.333 122.658 108.349C122.636 108.354 120.536 108.838 120.536 110.683C120.536 110.761 120.599 110.824 120.677 110.824V110.822Z" fill="#0D011E"/>
<path d="M109.673 109.635C109.707 109.635 109.739 109.622 109.766 109.601C110.187 109.238 110.417 108.581 110.603 108.052L110.657 107.899C110.789 107.531 110.933 106.761 110.542 106.49C110.432 106.413 110.3 106.393 110.162 106.436C109.844 106.535 109.564 106.94 109.492 107.126C109.349 107.492 109.348 107.915 109.344 108.29V108.401C109.342 108.569 109.344 108.79 109.378 109.006C109.378 109.011 109.487 109.574 109.624 109.628C109.641 109.633 109.657 109.636 109.674 109.636L109.673 109.635ZM110.301 106.697C110.337 106.697 110.362 106.71 110.38 106.722C110.596 106.872 110.514 107.456 110.389 107.802L110.333 107.958C110.185 108.381 110.005 108.894 109.73 109.229C109.696 109.115 109.66 108.988 109.653 108.96C109.623 108.765 109.621 108.569 109.623 108.401V108.29C109.626 107.924 109.628 107.545 109.751 107.227C109.808 107.079 110.039 106.767 110.241 106.706C110.264 106.699 110.282 106.697 110.3 106.697H110.301Z" fill="#0D011E"/>
<path d="M109.662 109.617C109.696 109.617 109.722 109.612 109.74 109.599C109.783 109.571 109.806 109.519 109.801 109.469C109.746 108.917 109.342 108.349 109.017 107.894L108.922 107.76C108.697 107.44 108.151 106.878 107.704 107.044C107.578 107.09 107.487 107.187 107.442 107.324C107.338 107.64 107.51 108.103 107.619 108.269C107.837 108.596 108.181 108.842 108.487 109.06L108.576 109.124C108.712 109.222 108.894 109.347 109.09 109.446C109.094 109.447 109.472 109.619 109.66 109.619L109.662 109.617ZM107.878 107.295C108.13 107.295 108.497 107.651 108.69 107.922L108.787 108.056C109.047 108.422 109.363 108.863 109.48 109.281C109.365 109.244 109.242 109.199 109.215 109.188C109.04 109.101 108.878 108.99 108.742 108.892L108.651 108.828C108.353 108.615 108.044 108.396 107.856 108.112C107.769 107.978 107.646 107.61 107.712 107.41C107.735 107.34 107.772 107.319 107.803 107.306C107.826 107.297 107.853 107.294 107.88 107.294L107.878 107.295Z" fill="#0D011E"/>
<path d="M123.333 111.761V112.834H104.775V111.668L123.333 111.761Z" fill="white"/>
<path d="M111.924 106.008C111.8 106.311 111.918 106.949 112.175 107.156C112.431 107.361 112.772 107.433 113.099 107.445C113.613 107.465 114.222 107.035 114.461 106.577C114.481 106.863 114.688 107.111 114.94 107.251C115.19 107.39 115.481 107.438 115.765 107.472C116.124 107.515 116.493 107.54 116.843 107.447C117.193 107.354 117.524 107.127 117.661 106.794C117.818 107.195 118.147 107.527 118.549 107.688C118.951 107.849 119.417 107.836 119.81 107.652C120.204 107.469 120.504 107.129 120.774 106.786C121.104 107.356 121.811 107.677 122.458 107.551C122.574 107.527 122.667 107.483 122.744 107.394C122.82 107.304 122.867 107.194 122.901 107.081C122.906 107.061 122.912 107.042 122.917 107.022C123.063 106.449 122.604 105.895 122.011 105.902L111.925 106.008H111.924Z" fill="white"/>
<path d="M111.653 99.2793L112.37 107.155L122.264 106.844V99.3418L111.653 99.2793Z" fill="white" stroke="black" stroke-width="0.0892888" stroke-miterlimit="10"/>
<path d="M107.257 56.9213C106.923 58.1535 106.648 59.4 106.346 60.6393C106.289 60.8768 106.145 61.5001 106.086 61.7358L110.991 60.0911V49.8086C109.046 51.7587 107.998 54.1927 107.257 56.9213Z" fill="#EF9DD7" stroke="black" stroke-width="0.0892888" stroke-miterlimit="10"/>
<path d="M138.406 67.4653C137.897 63.8331 137.642 60.1704 137.642 56.5024V48.5164C135.922 47.47 134.038 46.661 132.11 46.0896V48.3682C132.11 49.8469 130.91 51.0469 129.431 51.0469H121.191C119.713 51.0469 118.513 49.8469 118.513 48.3682V45.7949C118.102 45.9003 117.693 46.0146 117.29 46.1467C115.427 46.7485 113.652 47.6182 112.107 48.8182C111.704 49.1325 111.334 49.4647 110.989 49.8094V60.0919L111.111 60.0597C111.111 60.0597 109.67 91.243 109.634 100.05H123.77C124.665 92.6912 124.942 95.1895 126.051 88.0268L129.574 100.05H143.639L138.403 67.4653H138.406Z" fill="#1FFFB4" stroke="black" stroke-width="0.178578" stroke-miterlimit="10"/>
<path d="M130.321 45.6336C129.5 45.4532 128.678 45.3103 127.864 45.2139C127.094 45.1246 126.319 45.0692 125.544 45.0478C123.875 45.0032 122.182 45.096 120.533 45.3657C120.475 45.3746 120.417 45.3889 120.358 45.3978C121.119 46.5211 124.801 51.182 130.321 45.6318V45.6336Z" fill="#EF9DD7" stroke="black" stroke-width="0.0892888" stroke-miterlimit="10"/>
<path d="M130.322 45.6343C124.802 51.1845 121.12 46.5219 120.359 45.4004C119.741 45.5058 119.125 45.6379 118.512 45.7968V48.3273C118.512 49.8309 119.73 51.0488 121.234 51.0488H129.388C130.891 51.0488 132.109 49.8309 132.109 48.3273V46.0915C131.516 45.9165 130.92 45.7665 130.322 45.6361V45.6343Z" fill="#EF9DD7" stroke="black" stroke-width="0.0892888" stroke-miterlimit="10"/>
<path d="M135.216 49.3728C135.216 49.846 134.832 50.23 134.359 50.23C133.885 50.23 133.501 49.846 133.501 49.3728C133.501 48.8996 133.885 48.5156 134.359 48.5156C134.832 48.5156 135.216 48.8996 135.216 49.3728Z" fill="#EF9DD7" stroke="black" stroke-width="0.0892888" stroke-miterlimit="10"/>
<path d="M115.45 49.3728C115.45 49.846 115.066 50.23 114.593 50.23C114.12 50.23 113.736 49.846 113.736 49.3728C113.736 48.8996 114.12 48.5156 114.593 48.5156C115.066 48.5156 115.45 48.8996 115.45 49.3728Z" fill="#EF9DD7" stroke="black" stroke-width="0.0892888" stroke-miterlimit="10"/>
<path d="M109.694 96.8146H109.698L124.296 96.5378C124.375 96.5378 124.436 96.4718 124.436 96.3932C124.436 96.3164 124.371 96.2539 124.294 96.2539H124.291L109.692 96.5307C109.614 96.5307 109.553 96.5968 109.553 96.6753C109.553 96.7521 109.617 96.8146 109.694 96.8146Z" fill="#EF9DD7" stroke="black" stroke-width="0.0892888" stroke-miterlimit="10"/>
<path d="M128.777 96.8864H128.78L142.856 96.5185C142.934 96.5167 142.995 96.4506 142.993 96.3738C142.991 96.2953 142.918 96.2363 142.848 96.2363L128.773 96.6042C128.694 96.606 128.634 96.6721 128.635 96.7489C128.637 96.8256 128.7 96.8864 128.777 96.8864Z" fill="#EF9DD7" stroke="black" stroke-width="0.0892888" stroke-miterlimit="10"/>
<path d="M110.274 81.1961H110.277C115.687 81.0461 116.365 76.4638 116.372 76.4174C116.379 76.3602 116.338 76.3066 116.281 76.2977C116.224 76.2906 116.17 76.3299 116.162 76.3888C116.137 76.5709 115.497 80.8389 110.272 80.9836C110.213 80.9836 110.167 81.0336 110.168 81.0925C110.168 81.1497 110.217 81.1961 110.274 81.1961Z" fill="#EF9DD7" stroke="black" stroke-width="0.0892888" stroke-miterlimit="10"/>
<path d="M137.76 79.77C139.001 79.77 140.037 79.345 140.103 79.3165C140.175 79.2861 140.209 79.2039 140.178 79.1307C140.148 79.0593 140.066 79.0254 139.993 79.0557C139.969 79.0647 137.646 80.0183 135.862 79.0397C134.837 78.4789 134.176 77.3878 133.898 75.8003C133.885 75.7235 133.81 75.6717 133.733 75.686C133.657 75.7003 133.605 75.7735 133.619 75.8503C133.912 77.5289 134.621 78.6861 135.726 79.2897C136.385 79.6504 137.101 79.77 137.759 79.77H137.76Z" fill="#EF9DD7" stroke="black" stroke-width="0.0892888" stroke-miterlimit="10"/>
<path d="M125.32 64.2205C125.349 64.2205 125.379 64.2116 125.404 64.1937L131.149 60.0239C131.185 59.9971 131.208 59.9543 131.208 59.9096V54.8344C131.208 54.7559 131.146 54.6934 131.067 54.6934H118.508C118.468 54.6934 118.433 54.7094 118.406 54.738C118.379 54.7666 118.365 54.8041 118.366 54.8416L118.622 60.3936C118.624 60.4418 118.65 60.4864 118.693 60.5096L125.252 64.2026C125.274 64.2151 125.299 64.2205 125.322 64.2205H125.32ZM130.924 59.8382L125.311 63.9115L118.899 60.3007L118.654 54.9755H130.924V59.8382Z" fill="#EF9DD7" stroke="black" stroke-width="0.0892888" stroke-miterlimit="10"/>
<path d="M118.163 56.8407H131.567C131.646 56.8407 131.708 56.7782 131.708 56.6997C131.708 56.6211 131.646 56.5586 131.567 56.5586H118.163C118.084 56.5586 118.022 56.6211 118.022 56.6997C118.022 56.7782 118.084 56.8407 118.163 56.8407Z" fill="#EF9DD7" stroke="black" stroke-width="0.0892888" stroke-miterlimit="10"/>
<path d="M132.309 68.1979C131.879 67.0907 131.274 66.0532 130.534 65.121C129.227 63.4727 127.504 62.153 125.573 61.3155C124.605 60.8959 123.588 60.6048 122.546 60.4387C121.736 60.3101 120.548 60.6423 120.273 61.553C119.102 61.2745 117.848 61.2745 116.603 61.6084L115.696 61.853C114.464 62.1834 113.387 62.8049 112.519 63.621C111.851 63.2781 110.917 63.4924 110.355 63.8817C109.487 64.4817 108.696 65.1853 108.005 65.9818C106.628 67.5711 105.646 69.5069 105.18 71.5587C104.917 72.7177 104.821 73.9142 104.912 75.0999C104.994 76.1678 105.308 77.3572 106.248 77.8732C106.576 78.0536 106.955 78.1322 107.328 78.1554C107.774 78.184 108.23 78.1286 108.66 77.9983C108.553 79.0626 108.526 79.6447 108.71 80.6858C109.264 83.8145 111.162 87.7575 114.869 87.8772C117.218 87.954 119.368 86.1075 120.043 83.8556C120.582 82.0573 120.4 80.5698 119.559 78.7447C119.857 78.709 120.155 78.6554 120.453 78.584C120.652 80.5573 121.127 81.4912 122.477 82.7609C124.188 84.3699 126.975 84.8896 128.968 83.6467C132.116 81.6841 131.782 77.3214 130.693 74.3374C130.341 73.3749 130.156 73.3267 129.557 72.4766C130.215 72.4838 130.881 72.3195 131.452 71.998C131.779 71.8141 132.086 71.582 132.304 71.2766C132.927 70.4051 132.695 69.1962 132.307 68.1979H132.309Z" fill="#D7FF7B" stroke="black" stroke-width="0.0892888" stroke-miterlimit="10"/>
<path d="M127.146 72.8741C129.615 74.7224 131.306 80.4262 127.803 81.9048C124.995 83.0888 122.944 79.5315 122.801 77.1868C122.726 75.96 123.015 74.5599 123.694 73.5206C124.499 72.292 125.956 71.9848 127.144 72.8741H127.146Z" fill="white"/>
<path d="M111.576 77.2087C110.555 79.0088 111.064 81.5071 112 83.2357C112.368 83.9161 112.859 84.5625 113.541 84.9286C114.632 85.5162 115.98 85.2465 116.896 84.4197C118.037 83.3911 118.148 81.8446 117.864 80.416C117.536 78.7588 116.568 77.2355 115.21 76.2319C114.043 75.3694 112.716 75.6372 111.86 76.773C111.753 76.9141 111.659 77.0605 111.575 77.2087H111.576Z" fill="white"/>
<path d="M117.055 51.2086C117.052 50.5622 117.461 49.955 118.016 49.6228C120.502 48.1371 123.243 51.1354 121.863 53.5515C121.379 54.398 120.295 54.9141 119.373 54.5891" fill="#D7FF7B"/>
<path d="M117.055 51.2086C117.052 50.5622 117.461 49.955 118.016 49.6228C120.502 48.1371 123.243 51.1354 121.863 53.5515C121.379 54.398 120.295 54.9141 119.373 54.5891" stroke="black" stroke-width="0.0892888" stroke-miterlimit="10"/>
<path d="M117.639 51.673C117.635 51.1962 117.937 50.748 118.346 50.5033C120.146 49.4265 122.18 51.6516 121.182 53.3998C120.825 54.0249 120.025 54.4052 119.348 54.1659" fill="white"/>
<path d="M109.089 53.3504C108.769 52.7879 108.11 52.4682 107.464 52.4593C104.569 52.4182 103.699 56.388 106.105 57.7863C106.948 58.2774 108.146 58.1791 108.778 57.438" fill="#D7FF7B"/>
<path d="M109.089 53.3504C108.769 52.7879 108.11 52.4682 107.464 52.4593C104.569 52.4182 103.699 56.388 106.105 57.7863C106.948 58.2774 108.146 58.1791 108.778 57.438" stroke="black" stroke-width="0.0892888" stroke-miterlimit="10"/>
<path d="M108.815 54.0441C108.58 53.6298 108.094 53.3941 107.617 53.3869C105.519 53.3584 104.876 56.3031 106.615 57.3139C107.237 57.6746 108.119 57.6031 108.587 57.0567" fill="white"/>
<path d="M121.479 55.6096C122.495 59.3901 120.254 63.2777 116.473 64.2938C112.693 65.3099 108.805 63.0688 107.789 59.2883C106.773 55.5078 109.014 51.6202 112.795 50.6041C116.575 49.588 120.463 51.8291 121.479 55.6096Z" fill="#D7FF7B" stroke="black" stroke-width="0.0892888" stroke-miterlimit="10"/>
<path d="M111.839 59.6672C111.623 60.8726 112.408 62.1262 113.523 62.6316C114.637 63.137 115.985 62.962 117.048 62.3548C117.969 61.8298 118.744 60.9137 118.793 59.8529C118.843 58.76 118.075 57.7261 117.071 57.2886C115.167 56.4582 112.239 57.4261 111.837 59.6654L111.839 59.6672Z" fill="white"/>
<path d="M111.808 57.003C111.805 57.2245 111.976 57.437 112.194 57.4763C112.271 57.4905 112.351 57.4852 112.428 57.4709C112.537 57.453 112.648 57.4156 112.723 57.3352C112.8 57.253 112.828 57.137 112.828 57.0245C112.835 56.3102 111.821 56.3369 111.807 57.003H111.808Z" fill="#0D011E"/>
<path d="M116.403 55.7687C116.4 55.9901 116.571 56.2026 116.789 56.2419C116.866 56.2562 116.946 56.2508 117.023 56.2365C117.132 56.2187 117.242 56.1812 117.317 56.1008C117.394 56.0187 117.423 55.9026 117.423 55.7901C117.43 55.0758 116.416 55.1026 116.401 55.7687H116.403Z" fill="#0D011E"/>
<path d="M113.637 57.6631C113.867 57.3131 114.244 57.0613 114.657 56.9863C115.069 56.9095 115.512 57.0095 115.851 57.2559C115.941 57.3202 116.026 57.3988 116.067 57.5024C116.153 57.7184 116.016 57.9613 115.853 58.1274C115.328 58.6667 114.466 58.8471 113.767 58.5613C113.255 58.3506 113.383 58.047 113.635 57.6631H113.637Z" fill="#0D011E"/>
<path d="M115.611 61.2265C115.623 61.2265 115.636 61.2265 115.648 61.2211C115.723 61.2015 115.768 61.1229 115.748 61.0479L114.92 57.9621C114.9 57.8871 114.821 57.8424 114.746 57.8621C114.671 57.8817 114.627 57.9603 114.646 58.0353L115.475 61.1211C115.491 61.1836 115.548 61.2265 115.611 61.2265Z" fill="#0D011E"/>
<path d="M115.305 61.3187C115.489 61.3187 115.68 61.2937 115.87 61.2312C116.307 61.0865 116.646 60.7669 116.879 60.2794C116.913 60.2079 116.882 60.124 116.813 60.0901C116.743 60.0561 116.657 60.0865 116.625 60.1579C116.429 60.5722 116.145 60.8419 115.784 60.9615C115.073 61.1972 114.279 60.7829 114.27 60.7776C114.2 60.7419 114.114 60.7669 114.079 60.8365C114.043 60.9062 114.068 60.9901 114.137 61.0276C114.166 61.0419 114.689 61.3169 115.307 61.3169L115.305 61.3187Z" fill="#0D011E"/>
<path d="M117.135 66.5097C114.064 67.3347 112.144 70.3062 112.551 73.376C112.969 73.3081 113.401 73.2974 113.84 73.3492C115.33 73.5242 116.542 74.4403 117.501 75.5421C118.346 76.5118 119.062 77.6422 119.573 78.8244L120.403 78.6012C120.253 77.3225 120.307 75.985 120.551 74.7242C120.828 73.2921 121.419 71.8902 122.619 70.992C123.205 70.5527 123.862 70.2741 124.539 70.1455C123.352 67.2918 120.203 65.6882 117.135 66.5132V66.5097Z" fill="white" stroke="black" stroke-width="0.0892888" stroke-miterlimit="10"/>
<path d="M115.378 65.8801C115.768 65.8801 116.878 65.4337 117.009 65.3819C117.059 65.3622 117.093 65.3158 117.096 65.2622C117.1 65.2086 117.073 65.1569 117.027 65.1301C116.903 65.0569 115.816 64.4158 115.459 64.3872C115.257 64.3711 115.066 64.4354 114.914 64.5658C114.762 64.6961 114.671 64.8783 114.655 65.0765C114.641 65.2765 114.703 65.4694 114.834 65.6212C114.964 65.773 115.146 65.864 115.345 65.8801C115.355 65.8801 115.366 65.8801 115.377 65.8801H115.378ZM116.632 65.2247C116.157 65.4051 115.548 65.6104 115.37 65.5962C115.245 65.5872 115.132 65.5301 115.052 65.4354C114.971 65.3408 114.93 65.2212 114.941 65.0979C114.95 64.9729 115.007 64.8604 115.102 64.7801C115.196 64.6997 115.316 64.6604 115.439 64.6693C115.621 64.6836 116.191 64.9765 116.632 65.2265V65.2247Z" fill="#0D011E"/>
<path d="M117.059 65.3644C117.059 65.3644 117.071 65.3644 117.078 65.3644C117.219 65.3447 118.47 65.1644 118.766 64.9626C119.107 64.7286 119.195 64.2626 118.961 63.9215C118.848 63.7572 118.677 63.6465 118.48 63.609C118.284 63.5715 118.084 63.6143 117.92 63.7268C117.623 63.9286 117.005 65.0304 116.936 65.1554C116.909 65.2019 116.912 65.2608 116.943 65.3037C116.969 65.343 117.012 65.3644 117.059 65.3644ZM118.343 63.8768C118.371 63.8768 118.4 63.8786 118.428 63.884C118.552 63.9072 118.657 63.9768 118.727 64.0786C118.871 64.2911 118.818 64.5804 118.605 64.7251C118.455 64.8287 117.827 64.9554 117.327 65.0358C117.584 64.5983 117.928 64.059 118.08 63.9554C118.159 63.9018 118.25 63.8733 118.343 63.8733V63.8768Z" fill="#0D011E"/>
<path d="M115.997 68.223C116.027 68.223 116.057 68.2141 116.082 68.1945C116.463 67.9016 116.702 67.4409 116.724 66.9605C116.731 66.7873 116.711 66.6176 116.691 66.4533C116.684 66.3908 116.677 66.3283 116.672 66.2676C116.656 66.0908 116.647 65.8622 116.729 65.6694C116.791 65.5212 116.932 65.3694 117.111 65.3587C117.19 65.3551 117.249 65.2872 117.245 65.2104C117.241 65.1319 117.172 65.0711 117.097 65.0765C116.832 65.0908 116.588 65.2801 116.47 65.5587C116.365 65.8087 116.374 66.0819 116.391 66.2926C116.397 66.3569 116.406 66.4212 116.413 66.4855C116.432 66.6444 116.45 66.7962 116.443 66.9462C116.427 67.3444 116.227 67.7248 115.913 67.9677C115.85 68.0159 115.84 68.1034 115.886 68.1659C115.915 68.2016 115.956 68.2213 115.998 68.2213L115.997 68.223Z" fill="#0D011E"/>
<path d="M119.443 67.2512C119.513 67.2512 119.574 67.1994 119.583 67.128C119.593 67.0512 119.538 66.9797 119.461 66.969C119.067 66.9172 118.704 66.6869 118.49 66.3512C118.409 66.2244 118.349 66.0851 118.286 65.9386C118.261 65.8779 118.234 65.819 118.208 65.7601C118.12 65.569 117.99 65.3279 117.772 65.1636C117.529 64.9815 117.222 64.9404 116.988 65.06C116.918 65.0958 116.891 65.1815 116.927 65.2511C116.963 65.3208 117.049 65.3475 117.118 65.3118C117.277 65.2315 117.475 65.2922 117.604 65.3886C117.772 65.5154 117.879 65.7172 117.952 65.8779C117.979 65.9351 118.004 65.9922 118.029 66.0511C118.093 66.2029 118.161 66.3583 118.254 66.5047C118.513 66.9101 118.95 67.1887 119.427 67.2512C119.434 67.2512 119.44 67.2512 119.447 67.2512H119.443Z" fill="#0D011E"/>
<path d="M111.19 66.7441C111.19 66.7441 108.937 67.6049 108.662 77.9999" stroke="#0D011E" stroke-width="0.0892888" stroke-miterlimit="10"/>
<path d="M146.068 65.2894C146.183 63.5947 146.067 61.8822 145.743 60.216C145.099 56.8945 143.649 53.7515 141.254 51.3354C140.175 50.2478 138.952 49.3103 137.645 48.5156V64.3787C137.645 64.3787 131.359 64.9198 131.902 65.3501C132.002 68.5503 132.032 69.5181 132.132 72.72C131.232 73.2933 140.375 72.4308 140.379 72.4308C141.792 72.2968 143.09 71.8861 144.099 70.8378C145.527 69.3539 145.936 67.2752 146.07 65.2912L146.068 65.2894Z" fill="#EF9DD7" stroke="black" stroke-width="0.0892888" stroke-miterlimit="10"/>
<path d="M131.102 64.6275C130.623 64.3632 130.107 64.1685 129.57 64.0703C129.07 63.981 128.553 63.965 128.493 64.2668C128.493 64.2668 128.375 64.8525 129.961 65.9704C130.127 66.0883 130.057 66.349 129.855 66.3668C128.403 66.4954 124.877 66.8615 124.159 67.4562C124.059 67.5401 124.025 67.6901 124.102 67.7972C124.243 67.9955 124.727 68.2544 126.246 68.3312C126.346 68.3366 126.362 68.4794 126.264 68.4991C125.393 68.6723 124.052 69.0044 123.232 69.533C123.05 69.6509 123.062 69.9223 123.257 70.0205C123.63 70.2063 124.437 70.4098 126.162 70.3366C126.262 70.3331 126.289 70.4723 126.194 70.5027C125.573 70.6973 124.727 71.0045 124.328 71.3349C124.168 71.4688 124.21 71.7313 124.403 71.8117C124.778 71.9653 125.564 72.1635 127.061 72.0992C127.136 72.0956 127.161 72.1992 127.089 72.2242C126.612 72.3849 125.961 72.6617 125.675 73.0474C125.518 73.2617 125.628 73.5528 125.886 73.6225C126.319 73.7403 127.239 73.7689 129.079 73.1082L132.146 72.7581L131.936 65.0847L131.105 64.6275H131.102Z" fill="white" stroke="black" stroke-width="0.0892888" stroke-miterlimit="10"/>
<path d="M132.057 41.8363C132.464 42.1435 132.546 42.7238 132.239 43.131C131.932 43.5381 131.351 43.6203 130.944 43.3131C130.537 43.006 130.455 42.4256 130.762 42.0184C131.069 41.6113 131.65 41.5291 132.057 41.8363Z" fill="#0D011E"/>
<path d="M131.05 41.0765C131.457 41.3837 131.539 41.9641 131.232 42.3712C130.925 42.7784 130.345 42.8605 129.937 42.5534C129.53 42.2462 129.448 41.6658 129.755 41.2587C130.062 40.8515 130.643 40.7694 131.05 41.0765Z" fill="#0D011E"/>
<path d="M133.347 42.809C133.754 43.1161 133.836 43.6965 133.529 44.1036C133.222 44.5108 132.641 44.5929 132.234 44.2858C131.827 43.9786 131.745 43.3983 132.052 42.9911C132.359 42.5839 132.94 42.5018 133.347 42.809Z" fill="#0D011E"/>
<path d="M133.324 44.4562L134.424 46.2294C134.424 46.2294 135.817 45.5098 135.817 44.3829L133.866 43.7383L133.324 44.4562Z" fill="#0D011E"/>
<path d="M133.642 43.2796L132.842 44.3404C132.767 44.4404 132.786 44.5832 132.886 44.6582C132.986 44.7332 133.129 44.7136 133.204 44.6136L134.004 43.5528C134.079 43.4528 134.06 43.31 133.96 43.235C133.86 43.16 133.717 43.1796 133.642 43.2796Z" fill="#FFD024"/>
<path d="M118.799 41.3187C118.392 41.6259 118.309 42.2063 118.617 42.6134C118.924 43.0206 119.504 43.1027 119.911 42.7956C120.318 42.4884 120.401 41.908 120.093 41.5009C119.786 41.0937 119.206 41.0116 118.799 41.3187Z" fill="#0D011E"/>
<path d="M119.807 40.559C119.399 40.8661 119.317 41.4465 119.624 41.8536C119.932 42.2608 120.512 42.3429 120.919 42.0358C121.326 41.7286 121.408 41.1483 121.101 40.7411C120.794 40.3339 120.214 40.2518 119.807 40.559Z" fill="#0D011E"/>
<path d="M117.51 42.2894C117.102 42.5966 117.02 43.177 117.327 43.5841C117.635 43.9913 118.215 44.0734 118.622 43.7663C119.029 43.4591 119.111 42.8787 118.804 42.4716C118.497 42.0644 117.917 41.9823 117.51 42.2894Z" fill="#0D011E"/>
<path d="M117.531 43.9386L116.431 45.7119C116.431 45.7119 115.038 44.9922 115.038 43.8654L116.99 43.2207L117.531 43.9386Z" fill="#0D011E"/>
<path d="M117.214 42.762L118.014 43.8228C118.089 43.9228 118.069 44.0656 117.969 44.1406C117.869 44.2156 117.727 44.196 117.652 44.096L116.852 43.0353C116.777 42.9352 116.796 42.7924 116.896 42.7174C116.996 42.6424 117.139 42.662 117.214 42.762Z" fill="#FFD024"/>
<path d="M121.662 45.3164L121.413 37.7715L129.119 37.9518L129.169 45.4218C129.169 45.4218 124.79 49.4523 121.662 45.3164Z" fill="white" stroke="black" stroke-width="0.0892888" stroke-miterlimit="10"/>
<path d="M122.617 29.6828C125.851 28.5649 128.566 29.6828 130.809 32.2293C131.777 33.3275 131.628 34.1972 131.605 35.649C132.05 35.7901 132.112 35.8991 132.498 36.1598C133.67 36.9509 133.893 38.4152 133.377 39.6724C132.721 41.2671 131.345 42.3064 129.675 41.735C128.23 43.1118 123.732 46.8423 120.517 43.3904C119.603 42.41 119.151 41.0939 119.096 39.7545C118.98 36.8777 118.317 31.1685 122.617 29.6828Z" fill="white" stroke="black" stroke-width="0.0892888" stroke-miterlimit="10"/>
<path d="M131.033 39.8768C131.108 39.8768 131.17 39.8197 131.174 39.7447C131.227 38.8375 132.258 38.7375 132.302 38.7339C132.381 38.7268 132.438 38.6589 132.431 38.5803C132.424 38.5018 132.354 38.4446 132.277 38.4518C131.822 38.4893 130.947 38.8054 130.892 39.7286C130.886 39.8072 130.947 39.8733 131.024 39.8786C131.027 39.8786 131.029 39.8786 131.033 39.8786V39.8768Z" fill="#0D011E"/>
<path d="M126.215 38.7243C126.242 38.4814 126.065 38.2635 125.822 38.2368C125.579 38.2118 125.361 38.3868 125.335 38.6296C125.31 38.8725 125.485 39.0904 125.728 39.1171C125.97 39.1439 126.188 38.9671 126.215 38.7243Z" fill="#0D011E"/>
<path d="M121.006 38.7675C121.031 38.5247 120.856 38.3068 120.614 38.28C120.371 38.2532 120.153 38.43 120.126 38.6729C120.101 38.9158 120.276 39.1336 120.519 39.1604C120.762 39.1854 120.98 39.0104 121.006 38.7675Z" fill="#0D011E"/>
<path d="M123.053 40.5644C123.278 40.5644 123.503 40.4805 123.605 40.3019C123.644 40.234 123.621 40.1483 123.553 40.109C123.487 40.0698 123.4 40.093 123.36 40.1608C123.294 40.2769 123.016 40.318 122.841 40.2394C122.696 40.1733 122.707 40.0769 122.732 39.9983C122.742 39.968 122.762 39.9483 122.819 39.9001C122.928 39.8072 123.092 39.6662 123.267 39.2572C123.355 39.0554 123.435 38.7697 123.51 38.4072C123.526 38.3304 123.476 38.2554 123.4 38.2393C123.326 38.2233 123.248 38.2733 123.233 38.3501C123.162 38.6929 123.087 38.9608 123.008 39.1447C122.86 39.493 122.73 39.6037 122.635 39.684C122.569 39.7412 122.5 39.8001 122.464 39.909C122.38 40.1626 122.48 40.3876 122.725 40.4983C122.823 40.543 122.939 40.5644 123.053 40.5644Z" fill="#140625"/>
<path d="M126.791 37.0116C126.836 37.0116 126.88 36.9901 126.909 36.9491C126.954 36.8848 126.936 36.7973 126.871 36.7526C126.83 36.7241 125.859 36.074 125.021 36.6901C124.959 36.7366 124.945 36.8241 124.991 36.8884C125.037 36.9509 125.125 36.9651 125.189 36.9187C125.864 36.4223 126.677 36.9634 126.712 36.9866C126.737 37.0026 126.764 37.0116 126.791 37.0116Z" fill="#0D011E"/>
<path d="M119.893 36.9329C119.925 36.9329 119.958 36.9222 119.984 36.899C120.622 36.3561 121.472 36.8382 121.508 36.8579C121.574 36.8972 121.661 36.874 121.701 36.8061C121.74 36.7382 121.717 36.6525 121.651 36.6132C121.608 36.5882 120.592 36.0078 119.8 36.6829C119.742 36.7329 119.734 36.8222 119.784 36.8829C119.813 36.915 119.852 36.9329 119.892 36.9329H119.893Z" fill="#0D011E"/>
<path d="M123.826 41.9413C124.538 41.9413 125.501 41.7556 126.017 40.8663C126.056 40.7984 126.033 40.7127 125.965 40.6734C125.897 40.6341 125.812 40.6573 125.772 40.7252C125.012 42.0342 123.026 41.5788 123.006 41.5734C122.929 41.5556 122.854 41.602 122.837 41.6788C122.819 41.7556 122.865 41.8306 122.942 41.8485C122.978 41.8574 123.345 41.9413 123.826 41.9413Z" fill="#0D011E"/>
<path d="M130.684 35.5143C130.684 35.5143 130.428 36.6876 130.889 37.9055C130.889 37.9055 131.001 38.1555 131.012 38.1501C132.794 37.1251 133.466 35.5947 133.109 33.7732C132.501 30.6749 130.453 28.5998 125.61 28.2998C125.389 28.2855 125.164 28.2962 124.942 28.3087C124.392 28.3391 123.844 28.4159 123.308 28.5391C122.606 28.7016 121.919 28.9462 121.289 29.298C120.576 29.6963 119.944 30.232 119.463 30.8927C119.049 31.466 118.76 32.1231 118.58 32.8035C118.41 33.441 118.31 34.1053 118.369 34.7661C118.428 35.4375 118.681 36.0608 119.005 36.6465L119.121 34.7143C119.121 34.7143 122.908 35.6786 123.667 33.3464C123.667 33.3464 125.408 36.3876 130.687 35.5125L130.684 35.5143Z" fill="#0D011E"/>
<path d="M132.025 40.976C132.025 41.2332 132.232 41.4403 132.489 41.4403C132.746 41.4403 132.953 41.2332 132.953 40.976C132.953 40.7189 132.746 40.5117 132.489 40.5117C132.232 40.5117 132.025 40.7189 132.025 40.976Z" fill="#0853F2"/>
<path d="M107.925 59.8636C107.899 60.0404 108.181 60.5029 108.376 60.6011C109.758 61.2993 113.095 63.053 113.563 63.9191C113.629 64.0423 113.597 64.203 113.477 64.2762C113.256 64.4137 112.674 64.4744 111.16 63.9548C111.058 63.9208 110.986 64.0548 111.076 64.1137C111.867 64.6262 113.058 65.4834 113.658 66.3263C113.792 66.5138 113.672 66.7781 113.442 66.7959C112.999 66.8317 112.124 66.7156 110.449 65.962C110.352 65.9191 110.272 66.0459 110.354 66.112C110.892 66.5495 111.613 67.1906 111.872 67.6746C111.977 67.871 111.84 68.1049 111.617 68.1085C111.19 68.1138 110.336 68.0049 108.881 67.3478C108.808 67.3138 108.745 67.4103 108.806 67.462C109.208 67.8031 109.729 68.321 109.865 68.8067C109.942 69.08 109.729 69.3407 109.449 69.3103C108.976 69.2603 108.418 68.8174 106.493 67.546L104.458 66.4406C104.424 66.4227 104.4 66.2174 104.39 66.1781C104.368 66.087 104.347 65.9959 104.327 65.9048C104.29 65.7316 104.258 65.5566 104.229 65.3816C104.179 65.0637 104.147 64.7423 104.138 64.4209C104.116 63.5762 104.274 62.7422 104.627 61.9743C104.754 61.6976 105.313 61.06 105.558 60.8797C106.488 60.1904 106.813 60.0279 107.756 59.8386C107.811 59.8278 107.868 59.8528 107.925 59.8618V59.8636Z" fill="white" stroke="black" stroke-width="0.0892888" stroke-miterlimit="10"/>
<path d="M154.64 69.7258C154.676 69.7258 154.713 69.7115 154.74 69.6847L157.91 66.515C157.965 66.4596 157.965 66.3703 157.91 66.315C157.854 66.2596 157.765 66.2596 157.71 66.315L154.54 69.4847C154.485 69.5401 154.485 69.6294 154.54 69.6847C154.567 69.7115 154.604 69.7258 154.64 69.7258Z" fill="white"/>
<path d="M157.717 69.8176C157.753 69.8176 157.79 69.8033 157.817 69.7765C157.872 69.7212 157.872 69.6319 157.817 69.5765L154.647 66.4068C154.592 66.3514 154.502 66.3514 154.447 66.4068C154.392 66.4621 154.392 66.5514 154.447 66.6068L157.617 69.7765C157.644 69.8033 157.681 69.8176 157.717 69.8176Z" fill="white"/>
<path d="M163.681 60.0105C164.408 60.0105 165.001 59.4194 165.001 58.6908C165.001 57.9622 164.41 57.3711 163.681 57.3711C162.953 57.3711 162.362 57.9622 162.362 58.6908C162.362 59.4194 162.953 60.0105 163.681 60.0105ZM163.681 57.655C164.253 57.655 164.717 58.1193 164.717 58.6908C164.717 59.2622 164.253 59.7265 163.681 59.7265C163.11 59.7265 162.646 59.2622 162.646 58.6908C162.646 58.1193 163.11 57.655 163.681 57.655Z" fill="white"/>
<path d="M152.39 61.5346C152.426 61.5346 152.46 61.5221 152.487 61.4971C152.521 61.4649 152.537 61.4185 152.531 61.3721L152.106 58.4827C152.099 58.4309 152.062 58.3863 152.012 58.3702C151.962 58.3541 151.906 58.3666 151.867 58.4023L149.54 60.6649C149.503 60.7006 149.488 60.7542 149.503 60.8042C149.517 60.8542 149.556 60.8917 149.608 60.9042L152.358 61.531C152.369 61.5328 152.379 61.5346 152.39 61.5346ZM151.865 58.797L152.219 61.2096L149.922 60.6863L151.863 58.797H151.865Z" fill="white"/>
<path d="M25.7034 15.6965C25.7391 15.6965 25.7766 15.6822 25.8034 15.6554L28.9731 12.4857C29.0285 12.4303 29.0285 12.341 28.9731 12.2857C28.9178 12.2303 28.8285 12.2303 28.7731 12.2857L25.6034 15.4554C25.548 15.5108 25.548 15.6001 25.6034 15.6554C25.6302 15.6822 25.6677 15.6965 25.7034 15.6965Z" fill="white"/>
<path d="M28.7804 15.7883C28.8161 15.7883 28.8536 15.774 28.8804 15.7472C28.9357 15.6919 28.9357 15.6026 28.8804 15.5472L25.7106 12.3775C25.6552 12.3221 25.566 12.3221 25.5106 12.3775C25.4552 12.4328 25.4552 12.5221 25.5106 12.5775L28.6803 15.7472C28.7071 15.774 28.7446 15.7883 28.7804 15.7883Z" fill="white"/>
<path d="M35.3249 20.737C36.0517 20.737 36.6445 20.1459 36.6445 19.4173C36.6445 18.6887 36.0534 18.0977 35.3249 18.0977C34.5963 18.0977 34.0052 18.6887 34.0052 19.4173C34.0052 20.1459 34.5963 20.737 35.3249 20.737ZM35.3249 18.3816C35.8963 18.3816 36.3606 18.8459 36.3606 19.4173C36.3606 19.9888 35.8963 20.4531 35.3249 20.4531C34.7534 20.4531 34.2891 19.9888 34.2891 19.4173C34.2891 18.8459 34.7534 18.3816 35.3249 18.3816Z" fill="white"/>
<path d="M30.2232 26.0502C30.2589 26.0502 30.2928 26.0377 30.3196 26.0127C30.3535 25.9806 30.3696 25.9341 30.3642 25.8877L29.9392 22.9983C29.9321 22.9465 29.8946 22.9019 29.8446 22.8858C29.7946 22.8697 29.7392 22.8822 29.6999 22.918L27.373 25.1805C27.3355 25.2162 27.3213 25.2698 27.3355 25.3198C27.3498 25.3698 27.3891 25.4073 27.4409 25.4198L30.191 26.0466C30.2017 26.0484 30.2124 26.0502 30.2232 26.0502ZM29.6999 23.3126L30.0535 25.7252L27.757 25.202L29.6981 23.3126H29.6999Z" fill="white"/>
<path d="M27.9506 74.0621C28.156 73.2352 28.3667 72.6656 28.5274 72.1816H63.6733C63.6608 72.487 66.0609 75.2103 66.0466 75.521C66.0466 75.521 76.6202 85.975 79.0649 88.1393C99.187 105.961 81.3668 113.022 81.3668 113.022H27.2363L27.2399 96.9879L38.6045 97.0218C24.2201 97.4682 26.8434 78.5104 27.9506 74.0621Z" fill="#6E8DF9" stroke="black" stroke-width="0.0892888" stroke-miterlimit="10"/>
<path d="M49.5714 75.8359C49.525 75.8984 49.5393 75.9877 49.6035 76.0342L58.0556 82.1558C61.6111 84.8166 63.2987 86.3024 65.8559 88.5525C66.4024 89.0328 66.9863 89.5471 67.6363 90.115C71.1329 93.1651 73.3883 95.942 74.3437 98.3689C76.6741 104.299 74.2687 110.003 68.2149 112.902C68.1453 112.935 68.1149 113.019 68.1488 113.091C68.1738 113.141 68.2238 113.171 68.2756 113.171" stroke="#140625" stroke-width="0.178578" stroke-miterlimit="10"/>
<path d="M59.6555 13.2236C60.0252 13.3129 60.5109 14.9773 60.6288 15.3166C60.8734 16.0291 61.0288 16.7738 61.1806 17.5113C61.5163 19.1453 61.4717 20.8257 61.602 22.4811C61.7252 24.0437 62.036 25.6812 62.9128 27.0081C63.8664 28.451 65.395 29.4153 66.3004 30.9028C67.3433 32.6172 67.6326 34.6887 67.8629 36.6459C67.979 37.6388 68.0701 38.7156 67.5558 39.571L55.3679 39.6942L53.9107 12.0879L59.6555 13.2219V13.2236Z" fill="#140625"/>
<path d="M42.7963 17.4583C42.4249 19.5477 41.4374 20.9906 40.0552 22.546C38.298 24.5246 36.7908 26.5693 37.7694 29.3284C38.223 30.6088 38.9658 31.7588 39.5141 32.9963C40.0855 34.2857 40.4034 35.7089 40.4909 37.1161L52.9092 36.4607L51.8484 16.3672L42.7963 17.4583Z" fill="#140625"/>
<path d="M48.1496 30.8507L47.8406 22.6594L56.8124 22.5469L56.741 31.3883C56.9677 31.4258 58.6089 31.6633 60.1875 31.924C58.741 36.9224 51.7568 37.1545 47.6478 35.3259C45.8656 34.533 44.3584 33.1812 44.0923 31.1882C45.937 31.0293 47.6478 30.89 48.1514 30.849L48.1496 30.8507Z" fill="white" stroke="black" stroke-width="0.0892888" stroke-miterlimit="10"/>
<path d="M56.7822 28.3432C56.7822 28.3432 53.5535 29.8575 49.0337 26.0859C49.0337 26.0859 50.0909 30.579 56.7554 30.4968L56.7804 28.3432H56.7822Z" fill="#140625"/>
<path d="M60.5385 26.2308C60.5742 26.2308 60.6081 26.2308 60.6438 26.2273C61.7367 26.1701 62.5778 25.2344 62.5207 24.1415C62.4635 23.0486 61.5278 22.2057 60.4349 22.2646C60.2795 22.2736 60.1599 22.4057 60.167 22.5611C60.176 22.7164 60.3099 22.8379 60.4653 22.8289C61.251 22.7879 61.9153 23.3897 61.9564 24.1718C61.9975 24.9522 61.3957 25.6219 60.6135 25.663C59.8295 25.704 59.1634 25.1022 59.1224 24.3201C59.1063 23.9986 59.1938 23.6915 59.3795 23.429C59.4688 23.3022 59.4384 23.1254 59.3116 23.0343C59.1849 22.945 59.0081 22.9754 58.917 23.1022C58.6581 23.4682 58.5348 23.9004 58.5581 24.3486C58.6134 25.4058 59.492 26.2291 60.5385 26.2291V26.2308Z" fill="#6E8DF9" stroke="black" stroke-width="0.0892888" stroke-miterlimit="10"/>
<path d="M44.2878 18.8342C44.7378 18.5288 45.2467 18.3252 45.7646 18.1592C45.7361 16.468 45.7914 14.7805 46.3093 13.1554C46.3432 13.0483 46.4432 12.9447 46.5629 12.8465C47.0075 12.4768 47.545 12.2357 48.1129 12.1286C51.3666 11.5125 53.7453 11.4428 55.3864 11.5232C56.8507 11.5946 58.1597 12.4643 58.7901 13.7876C60.2866 16.927 60.4241 20.711 60.3294 22.9807C60.3258 23.0468 60.3241 23.1183 60.3205 23.1825C60.2473 24.663 59.6812 26.0898 58.6704 27.1738C54.9346 31.1721 49.7023 26.8434 48.0201 25.2451C48.0147 25.2469 48.0094 25.2487 48.0022 25.2505C46.0646 25.9059 44.0306 24.7772 43.2681 22.9272C42.6663 21.4664 42.9235 19.7592 44.286 18.8377L44.2878 18.8342Z" fill="white" stroke="black" stroke-width="0.0892888" stroke-miterlimit="10"/>
<path d="M51.9966 20.6139C51.9859 20.3264 52.2109 20.0853 52.4984 20.0746C52.7859 20.0639 53.027 20.2889 53.0377 20.5764C53.0484 20.8639 52.8234 21.105 52.5359 21.1157C52.2484 21.1264 52.0073 20.9014 51.9966 20.6139Z" fill="#140625"/>
<path d="M57.6888 20.6139C57.6781 20.3264 57.9031 20.0853 58.1906 20.0746C58.4781 20.0639 58.7192 20.2889 58.7281 20.5764C58.7389 20.8639 58.5139 21.105 58.2263 21.1157C57.9388 21.1264 57.6978 20.9014 57.687 20.6139H57.6888Z" fill="#140625"/>
<path d="M55.6738 23.2132C55.7828 23.2132 55.8899 23.1953 55.9846 23.1614C56.2685 23.0578 56.3989 22.8132 56.3239 22.5221C56.2917 22.3989 56.2221 22.3292 56.1471 22.256C56.0417 22.1506 55.8953 22.0078 55.7488 21.5828C55.6078 21.1774 55.5274 20.5327 55.4863 20.0631C55.4792 19.9845 55.4078 19.9256 55.3328 19.9345C55.2542 19.9416 55.197 20.0095 55.2042 20.0881C55.247 20.5738 55.331 21.2435 55.481 21.6756C55.6506 22.1631 55.8292 22.3399 55.9488 22.4578C56.0131 22.5203 56.0381 22.5471 56.0506 22.5917C56.0649 22.6471 56.1078 22.8149 55.8881 22.8953C55.6595 22.9792 55.3274 22.9007 55.2524 22.7471C55.2185 22.6774 55.1345 22.6471 55.0631 22.681C54.9935 22.7149 54.9631 22.7989 54.997 22.8703C55.1077 23.0989 55.3952 23.2132 55.6738 23.2132Z" fill="#140625"/>
<path d="M55.3879 25.0489C55.9807 25.0489 56.6361 24.8989 57.3344 24.4971C57.4022 24.4578 57.4254 24.3721 57.3862 24.3042C57.3469 24.2364 57.2611 24.2131 57.1933 24.2524C54.6039 25.7382 52.6914 23.5845 52.611 23.4917C52.5592 23.4328 52.4699 23.4274 52.411 23.4774C52.3521 23.5292 52.3449 23.6185 52.3967 23.6774C52.4128 23.6953 53.6092 25.0489 55.3861 25.0489H55.3879Z" fill="#140625"/>
<path d="M51.2645 19.1007C51.3056 19.1007 51.3467 19.0828 51.3752 19.0471C51.6556 18.6971 51.9699 18.5025 52.3074 18.4703C52.6682 18.4346 53.0717 18.5882 53.4396 18.8989C53.4646 18.9203 53.5164 18.9489 53.5503 18.9489C53.6289 18.9489 53.6914 18.8864 53.6914 18.8078C53.6914 18.7596 53.6682 18.7167 53.6307 18.6917C53.1914 18.3221 52.7182 18.1471 52.2789 18.1899C51.8628 18.231 51.4842 18.4596 51.1538 18.8703C51.1056 18.931 51.1145 19.0203 51.1752 19.0685C51.202 19.09 51.2324 19.0989 51.2628 19.0989L51.2645 19.1007Z" fill="#140625"/>
<path d="M56.6346 19.1007C56.6757 19.1007 56.7168 19.0828 56.7454 19.0471C57.0257 18.6971 57.34 18.5025 57.6775 18.4703C58.0383 18.4346 58.4419 18.5882 58.8097 18.8989C58.8347 18.9203 58.8865 18.9489 58.9204 18.9489C58.999 18.9489 59.0615 18.8864 59.0615 18.8078C59.0615 18.7596 59.0383 18.7167 59.0008 18.6917C58.5615 18.3221 58.0883 18.1471 57.649 18.1899C57.2329 18.231 56.8543 18.4596 56.5239 18.8703C56.4757 18.931 56.4846 19.0203 56.5454 19.0685C56.5721 19.09 56.6025 19.0989 56.6329 19.0989L56.6346 19.1007Z" fill="#140625"/>
<path d="M66.5629 52.7604C66.5772 52.7604 66.5914 52.7586 66.6057 52.7532C66.6807 52.73 66.7218 52.6515 66.6986 52.5764L65.3235 48.1638C65.3003 48.0888 65.22 48.0477 65.1468 48.0709C65.0718 48.0941 65.0307 48.1727 65.0539 48.2477L66.4289 52.6604C66.4486 52.7211 66.504 52.7604 66.5647 52.7604H66.5629Z" fill="#140625"/>
<path d="M46.682 23.4668C46.682 23.4668 46.6999 23.4668 46.707 23.4651C46.7838 23.4508 46.8338 23.3776 46.8213 23.3008C46.5338 21.7186 44.9784 21.6275 44.9623 21.6275C44.8856 21.6204 44.8177 21.6846 44.8141 21.7614C44.8105 21.84 44.8713 21.9061 44.9481 21.9096C45.0034 21.9132 46.2963 21.9936 46.5427 23.3508C46.5552 23.4186 46.6142 23.4668 46.682 23.4668Z" fill="#140625"/>
<path d="M44.6602 27.425C45.4477 27.425 46.1959 26.9518 46.5049 26.1767C46.9103 25.1606 46.4156 24.0035 45.3995 23.5981C45.2548 23.5409 45.0906 23.6106 45.0316 23.7552C44.9745 23.8999 45.0441 24.0642 45.1888 24.1231C45.9156 24.4142 46.2692 25.241 45.9799 25.9678C45.6888 26.6946 44.862 27.0482 44.1352 26.7589C43.4083 26.4678 43.0548 25.641 43.3441 24.9142C43.4637 24.616 43.6726 24.3731 43.9512 24.2124C44.0869 24.1338 44.1334 23.9606 44.0548 23.8267C43.9762 23.6909 43.803 23.6445 43.6691 23.7231C43.2798 23.9481 42.9869 24.2874 42.819 24.7035C42.4137 25.7196 42.9083 26.8768 43.9244 27.2821C44.1655 27.3786 44.4137 27.4232 44.6584 27.4232L44.6602 27.425Z" fill="#6E8DF9" stroke="black" stroke-width="0.0892888" stroke-miterlimit="10"/>
<path d="M55.7539 9.01608C53.511 14.7502 51.2341 17.7878 49.2876 19.3575C47.359 20.9147 44.6517 21.0665 42.5302 19.7861C42.5302 19.7861 42.2749 5.64275 55.7521 9.01608H55.7539Z" fill="#140625"/>
<path d="M48.2254 18.8331C49.3112 18.8331 50.6469 18.6188 51.9077 17.8384C53.8685 16.6259 55.1042 14.3955 55.5846 11.2078C55.6435 10.8221 55.3774 10.4614 54.9917 10.4043C54.606 10.3471 54.2453 10.6114 54.1881 10.9971C53.7738 13.749 52.7613 15.6437 51.1773 16.6295C49.0076 17.9795 46.4164 17.1795 46.3896 17.1723C46.02 17.0545 45.6218 17.2581 45.5021 17.6295C45.3825 18.0009 45.586 18.3974 45.9557 18.517C46.0253 18.5403 46.9557 18.8331 48.2272 18.8331H48.2254Z" fill="#140625"/>
<path d="M53.9698 9.1566C53.9698 9.1566 54.6252 18.0283 62.1023 18.6766C62.1023 18.6766 62.4648 6.88152 53.9698 9.1566Z" fill="#140625"/>
<path d="M50.8584 12.2275C50.8584 12.2275 45.1671 12.7275 42.2563 9.56486C39.3454 6.40047 38.4793 2.46461 40.3187 0.771696C42.1598 -0.92122 46.01 0.271679 48.9208 3.43429C51.8316 6.59869 50.8584 12.2275 50.8584 12.2275Z" fill="#140625"/>
<path d="M1.55546 114.321L0.0661297 112.677L17.7703 97.0225L20.8633 96.9922C17.506 100.137 6.19848 110.128 1.64654 114.337C1.61618 114.332 1.58582 114.329 1.55546 114.323V114.321Z" fill="#EF9DD7" stroke="black" stroke-width="0.0892888" stroke-miterlimit="10"/>
<path d="M1.64469 114.335C6.19663 110.126 17.5042 100.135 20.8614 96.9899L21.2543 96.9863H27.2402L27.2367 113.021L19.7096 111.853L1.64469 114.335Z" fill="#EF9DD7" stroke="black" stroke-width="0.0892888" stroke-miterlimit="10"/>
<path d="M17.057 112.358C17.0695 112.358 17.0838 112.357 17.0963 112.353C17.1713 112.332 17.2142 112.253 17.1909 112.178L16.1159 108.53C16.0945 108.455 16.0159 108.412 15.9409 108.433C15.8659 108.455 15.8231 108.533 15.8463 108.608L16.9213 112.257C16.9392 112.317 16.9963 112.358 17.057 112.358Z" fill="#140625"/>
<path d="M13.7389 112.813C13.7514 112.813 13.7621 112.813 13.7746 112.808C13.8496 112.788 13.896 112.711 13.8763 112.634L12.937 109.038C12.9174 108.963 12.8388 108.917 12.7656 108.936C12.6906 108.956 12.6442 109.033 12.6638 109.109L13.6031 112.706C13.6192 112.77 13.6763 112.811 13.7406 112.811L13.7389 112.813Z" fill="#140625"/>
<path d="M10.7679 113.162C10.7822 113.162 10.7983 113.16 10.8125 113.155C10.8858 113.13 10.9268 113.049 10.9018 112.976L9.88573 109.979C9.86073 109.906 9.78037 109.865 9.70715 109.89C9.63393 109.915 9.59286 109.996 9.61786 110.069L10.634 113.065C10.6536 113.124 10.709 113.162 10.7679 113.162Z" fill="#140625"/>
<path d="M16.3749 115.078C16.4284 115.078 16.482 115.076 16.5338 115.07C17.0999 115.024 17.5285 114.583 17.5303 114.045C17.5338 113.197 16.7427 112.642 15.2373 112.435C14.9195 112.392 14.5873 112.356 14.2498 112.329C14.1962 112.326 14.1462 112.32 14.0998 112.315C13.9033 112.294 13.698 112.27 13.6248 112.456C13.5908 112.54 13.5998 112.644 13.648 112.803C13.8248 113.365 14.273 113.908 14.6177 114.263C15.123 114.785 15.7552 115.074 16.3731 115.074L16.3749 115.078ZM13.9033 112.583C13.948 112.583 14.0159 112.59 14.0694 112.597C14.1194 112.603 14.173 112.608 14.2284 112.613C14.5587 112.638 14.8855 112.674 15.1998 112.717C16.1374 112.845 17.2517 113.179 17.2481 114.045C17.2481 114.442 16.9356 114.754 16.5106 114.79C15.9266 114.837 15.3123 114.576 14.823 114.07C14.4998 113.736 14.0801 113.231 13.9212 112.722C13.898 112.651 13.8926 112.61 13.8908 112.586C13.8944 112.586 13.8998 112.586 13.9051 112.586L13.9033 112.583Z" fill="#140625"/>
<path d="M12.4069 116.369C12.4372 116.369 12.4676 116.369 12.4979 116.365C13.3426 116.288 13.8212 115.447 13.8855 113.931C13.898 113.613 13.9034 113.279 13.8962 112.938C13.8962 112.885 13.8962 112.835 13.8962 112.788C13.8998 112.59 13.9034 112.385 13.7105 112.328C13.6248 112.303 13.523 112.319 13.3676 112.385C12.8247 112.613 12.3265 113.11 12.0051 113.488C11.4926 114.088 11.2675 114.81 11.3836 115.471C11.4783 115.997 11.9086 116.371 12.4069 116.371V116.369ZM13.6087 112.599C13.6141 112.642 13.6141 112.72 13.6123 112.781C13.6123 112.831 13.6123 112.885 13.6123 112.94C13.6176 113.274 13.6141 113.603 13.6016 113.917C13.5623 114.862 13.3337 116.004 12.4729 116.081C12.0819 116.113 11.7372 115.838 11.6622 115.417C11.5586 114.84 11.7622 114.203 12.2194 113.669C12.5212 113.315 12.9855 112.849 13.4766 112.642C13.5462 112.613 13.5873 112.603 13.6087 112.599Z" fill="#140625"/>
<path d="M27.8598 54.2706C29.0045 44.9096 32.1743 35.3521 41.3728 31.877C41.9764 31.6484 42.5907 31.452 43.2121 31.2823C43.505 31.2502 43.7979 31.2145 44.0907 31.1895C44.3586 33.1824 45.8658 34.5342 47.6462 35.3271C51.7553 37.1557 57.7823 36.6879 59.3895 31.7966C63.3736 32.4556 67.6255 33.6735 70.8488 36.2075C72.7632 37.7129 74.265 39.663 75.5526 41.713C77.1205 44.2078 78.6295 46.7346 79.542 48.5758L66.888 52.617C68.4166 62.5048 68.7648 68.5247 69.8059 78.4679L29.592 78.3429H27.0241C27.1259 78.3429 27.1902 65.4978 27.2205 64.2656C27.2919 61.1726 27.4384 57.735 27.8616 54.2706H27.8598Z" fill="#EF9DD7" stroke="black" stroke-width="0.0892888" stroke-miterlimit="10"/>
<path d="M61.374 32.1432C61.2829 32.1432 61.2294 32.1985 61.2258 32.2771C61.1097 34.3057 59.5257 35.8254 58.0811 36.5719C54.8256 38.2559 49.5843 38.1809 46.1521 36.4022C43.9377 35.254 42.6091 33.5039 42.3091 31.3396C42.2984 31.2628 42.2251 31.2074 42.1501 31.2181" stroke="#140625" stroke-width="0.178578" stroke-miterlimit="10"/>
<path d="M62.919 65.2487C54.7261 57.0557 54.7261 43.7724 62.919 35.5794C71.112 27.3865 84.3953 27.3865 92.5882 35.5795C100.781 43.7724 100.781 57.0557 92.5882 65.2487C84.3953 73.4416 71.1119 73.4416 62.919 65.2487Z" fill="#D7FF7B" stroke="black" stroke-width="0.178578" stroke-miterlimit="10"/>
<path d="M85.8691 39.9707C85.8691 39.9707 69.9079 43.4387 59.6879 61.0714C59.5468 60.8375 62.3701 68.6271 73.0955 70.8664C73.1205 70.8718 82.5369 59.0642 85.8691 39.9707Z" fill="#6E8DF9" stroke="black" stroke-width="0.0892888" stroke-miterlimit="10"/>
<path d="M85.8698 39.9707C85.8698 39.9707 93.8701 48.7424 92.42 65.4073C92.6004 65.2287 101.788 58.2785 97.8863 44.5048C97.8398 44.3566 94.1129 40.9207 85.8698 39.9707Z" fill="#6E8DF9" stroke="black" stroke-width="0.0892888" stroke-miterlimit="10"/>
<path d="M85.8691 40.1749C85.8691 40.1749 74.1473 32.3871 60.0004 39.2248C60.0272 39.1838 65.5577 29.4316 77.7956 29.4316C77.8456 29.4316 83.5101 32.78 85.8691 40.1749Z" fill="#6E8DF9" stroke="black" stroke-width="0.0892888" stroke-miterlimit="10"/>
<path d="M85.869 39.9718C85.869 39.9718 87.3209 37.0771 88.003 32.1055C88.0798 32.1483 91.7103 34.2305 93.4711 36.5217C93.5122 36.5681 91.4246 37.9628 85.8708 39.9736L85.869 39.9718Z" fill="#6E8DF9" stroke="black" stroke-width="0.0892888" stroke-miterlimit="10"/>
<path d="M88.1997 41.3549C87.63 42.2799 86.1282 42.3888 84.8442 41.5977C83.562 40.8066 82.9834 39.4155 83.5531 38.4905C84.1227 37.5654 85.6264 37.4565 86.9085 38.2476C88.1907 39.0387 88.7693 40.4298 88.1997 41.3549Z" fill="#6E8DF9" stroke="black" stroke-width="0.0892888" stroke-miterlimit="10"/>
<path d="M79.4955 68.8514C79.5705 68.8514 79.633 68.7925 79.6366 68.7157C79.6401 68.6371 79.5794 68.571 79.5008 68.5674C72.5613 68.2621 67.3308 66.1424 63.9539 62.269C59.2573 56.8831 59.8466 49.8936 59.8537 49.8221C59.8609 49.7436 59.8037 49.6757 59.7252 49.6686C59.6466 49.6614 59.5787 49.7186 59.5716 49.7954C59.5644 49.8668 58.9626 56.9706 63.7378 62.4512C67.1683 66.387 72.4667 68.5407 79.4883 68.8496C79.4901 68.8496 79.4919 68.8496 79.4955 68.8496V68.8514Z" fill="#D7FF7B" stroke="black" stroke-width="0.178578" stroke-miterlimit="10"/>
<path d="M46.7818 50.0678C47.5104 51.4929 48.0569 52.5519 48.0569 52.5519C48.0569 52.5519 64.0146 49.2928 64.0199 49.3517L67.7236 46.6838C67.7236 46.6838 70.4862 44.9855 70.8827 45.8748C70.8827 45.8748 71.2684 46.7374 69.213 49.016C68.9969 49.2553 69.1951 49.6357 69.5148 49.591C71.7988 49.2821 77.3668 48.6178 78.6829 49.2839C78.8669 49.3768 78.9705 49.5982 78.8901 49.7893C78.7401 50.1446 78.0865 50.7143 75.7668 51.3607C75.6132 51.4036 75.6382 51.6304 75.7971 51.625C77.2025 51.5875 79.3883 51.634 80.8366 52.1626C81.158 52.2804 81.2348 52.7054 80.9687 52.9215C80.4562 53.3394 79.2847 53.9323 76.5972 54.4234C76.4418 54.4519 76.4489 54.6769 76.6061 54.6894C77.6329 54.7734 79.0455 54.9502 79.7741 55.3216C80.0687 55.4716 80.0937 55.893 79.8241 56.0823C79.299 56.4502 78.1561 57.0306 75.8257 57.452C75.7078 57.4735 75.7078 57.6413 75.8257 57.6538C76.6204 57.7342 77.7258 57.9342 78.299 58.4342C78.6008 58.6967 78.5401 59.1932 78.1883 59.3842C77.5668 59.72 76.1596 60.0932 73.0685 59.711L65.3628 60.995C65.0878 61.0539 54.4589 64.9219 52.5463 65.6773C48.6462 67.2167 43.196 68.2756 39.4584 65.213C37.8494 63.8951 36.0547 60.2986 34.4957 56.8145C37.4851 55.2002 43.4496 51.9643 46.7818 50.0661V50.0678Z" fill="white" stroke="black" stroke-width="0.0892888" stroke-miterlimit="10"/>
<path d="M34.3509 55.813C34.3509 55.813 34.367 55.813 34.3759 55.8112C35.4938 55.6112 36.7438 55.3094 37.4331 54.263C37.6099 53.9933 37.7474 53.6915 37.8403 53.3737C37.8903 53.3719 37.9421 53.3683 37.9939 53.3665C38.9725 53.3022 39.7779 53.0147 40.3904 52.5111C41.2547 51.8004 41.4565 50.7146 41.6494 49.6628C41.719 49.2807 41.7869 48.9199 41.8833 48.5806C42.2101 47.4324 42.6922 46.118 43.7887 45.0591C43.8459 45.0055 43.8459 44.9162 43.7923 44.8591C43.7369 44.8037 43.6476 44.8019 43.5923 44.8555C42.4458 45.9609 41.9476 47.3199 41.6101 48.5038C41.5101 48.8574 41.4386 49.2414 41.3708 49.6128C41.1868 50.6128 40.9958 51.6486 40.21 52.2933C39.6439 52.7576 38.8921 53.0236 37.9742 53.0844C37.9528 53.0844 37.9314 53.0879 37.9099 53.0879C38.1028 52.1058 37.8528 51.0361 36.9635 50.37C36.5563 50.0646 35.9617 49.9003 35.5491 50.22C35.3045 50.411 35.1741 50.7325 35.1598 51.1754C35.1473 51.6111 35.2295 51.9897 35.4045 52.304C35.6331 52.7165 36.0438 53.0397 36.5563 53.2165C36.8492 53.3165 37.176 53.3701 37.5456 53.3772C37.4617 53.6379 37.3456 53.8844 37.1974 54.1076C36.5706 55.0612 35.4366 55.3344 34.3277 55.5327C34.2509 55.5469 34.1991 55.6202 34.2134 55.697C34.2259 55.7648 34.2848 55.813 34.3527 55.813H34.3509ZM36.0795 50.3307C36.3224 50.3307 36.5902 50.445 36.792 50.5968C37.6028 51.2057 37.8153 52.195 37.6189 53.0969C37.2492 53.0951 36.9278 53.0451 36.6456 52.9486C36.1992 52.7951 35.8456 52.5183 35.6491 52.1665C35.4991 51.8986 35.4295 51.5682 35.4402 51.1843C35.4473 50.9396 35.5027 50.6128 35.7206 50.4432C35.8241 50.3628 35.9474 50.3289 36.0795 50.3289V50.3307Z" fill="white"/>
<path d="M43.0642 42.5801C43.1053 42.8479 45.3179 47.2017 46.7822 50.0678C43.45 51.9661 37.4855 55.2002 34.4961 56.8163C32.98 53.4269 31.9228 50.3554 32.171 50.2107" fill="#EF9DD7"/>
<path d="M43.0642 42.5801C43.1053 42.8479 45.3179 47.2017 46.7822 50.0678C43.45 51.9661 37.4855 55.2002 34.4961 56.8163C32.98 53.4269 31.9228 50.3554 32.171 50.2107" stroke="black" stroke-width="0.0892888" stroke-miterlimit="10"/>
<path d="M110.46 21.8809L103.888 24.5088L102.424 26.7626L110.235 23.6083L110.46 21.8809Z" fill="#E745A0" stroke="black" stroke-width="0.12901" stroke-miterlimit="10"/>
<path d="M101.092 20L96.281 21.7661L95.0012 23.9671L99.7101 22.1493L101.092 20Z" fill="#E745A0" stroke="black" stroke-width="0.12901" stroke-miterlimit="10"/>
<path d="M95.0004 23.967L100.451 33.2557L112.248 28.3933L110.235 23.6083L112.248 28.3933L112.606 26.4491L110.46 21.8809L103.888 24.5088L102.424 26.7626L99.7093 22.1492" fill="#E745A0"/>
<path d="M95.0004 23.967L100.451 33.2557L112.248 28.3933L110.235 23.6083L112.248 28.3933L112.606 26.4491L110.46 21.8809L103.888 24.5088L102.424 26.7626L99.7093 22.1492" stroke="black" stroke-width="0.12901" stroke-miterlimit="10"/>
<path d="M103.889 24.5089L101.092 20L99.71 22.1493L102.424 26.7627L103.889 24.5089Z" fill="#E745A0" stroke="black" stroke-width="0.12901" stroke-miterlimit="10"/>
<path d="M110.46 21.8809L110.235 23.6083L102.424 26.7626L103.888 24.5088L110.46 21.8809Z" fill="#E745A0" stroke="black" stroke-width="0.12901" stroke-miterlimit="10"/>
</svg>
