<svg width="444" height="357" viewBox="0 0 444 357" fill="none" xmlns="http://www.w3.org/2000/svg">
<path d="M89.2851 310.734L87.3612 331.893L60.7812 331.058L61.9855 309.232L89.2851 310.734Z" fill="white" stroke="black" stroke-width="0.239891" stroke-miterlimit="10"/>
<path d="M87.9322 333.686C87.9322 333.686 92.9795 335.476 95.6231 335.941C98.2667 336.407 100.958 336.867 103.352 338.076C105.746 339.285 107.848 341.387 108.361 344.021L58.4975 344.27C58.2097 340.245 59.4235 334.281 60.978 330.553C68.1796 331.815 87.7019 329.541 87.7019 329.541C87.7019 329.541 87.9034 333.173 87.9322 333.682V333.686Z" fill="#6E8DF9" stroke="black" stroke-width="0.239891" stroke-miterlimit="10"/>
<path d="M105.482 342.232C59.6577 341.709 59.4658 341.647 59.3938 341.628C59.1923 341.565 59.082 341.35 59.1444 341.153C59.2019 340.975 59.3795 340.87 59.557 340.889C60.435 340.947 89.9512 341.297 105.487 341.474C105.698 341.474 105.866 341.647 105.861 341.858C105.861 342.064 105.688 342.232 105.482 342.232Z" fill="#0D011E"/>
<path d="M65.6353 341.747C65.4242 341.747 65.2563 341.579 65.2563 341.368C65.2563 337.026 60.3625 335.884 60.1514 335.841C59.9451 335.793 59.8155 335.592 59.8635 335.39C59.9067 335.184 60.1082 335.059 60.3145 335.102C60.3721 335.117 66.0143 336.417 66.0143 341.373C66.0143 341.584 65.8464 341.752 65.6353 341.752V341.747Z" fill="#0D011E"/>
<path d="M95.1993 338.557C95.1081 338.557 95.0218 338.523 94.9498 338.466C93.8175 337.492 93.1986 335.726 92.6996 334.306L92.5557 333.893C92.2007 332.905 91.812 330.837 92.8628 330.108C93.1602 329.902 93.5153 329.849 93.8847 329.964C94.7387 330.228 95.492 331.317 95.6839 331.816C96.0677 332.8 96.0725 333.937 96.0821 334.944V335.242C96.0869 335.693 96.0821 336.288 95.991 336.868C95.991 336.883 95.6983 338.394 95.3289 338.538C95.2857 338.552 95.2425 338.562 95.1945 338.562L95.1993 338.557ZM93.5105 330.665C93.4145 330.665 93.3474 330.698 93.2994 330.732C92.7188 331.135 92.9395 332.704 93.2754 333.634L93.4241 334.052C93.8223 335.189 94.3069 336.566 95.0458 337.468C95.1369 337.161 95.2329 336.82 95.2521 336.743C95.3336 336.22 95.3385 335.693 95.3337 335.242V334.944C95.3241 333.961 95.3193 332.944 94.9882 332.09C94.8347 331.691 94.2158 330.852 93.6736 330.689C93.6112 330.669 93.5633 330.665 93.5153 330.665H93.5105Z" fill="#0D011E"/>
<path d="M95.2278 338.51C95.1367 338.51 95.0647 338.496 95.0167 338.462C94.9016 338.385 94.8392 338.246 94.8536 338.112C95.0023 336.629 96.0866 335.104 96.9599 333.88L97.2141 333.52C97.8187 332.661 99.2868 331.15 100.486 331.596C100.827 331.721 101.072 331.98 101.192 332.35C101.47 333.199 101.009 334.441 100.717 334.888C100.131 335.766 99.2052 336.428 98.3848 337.013L98.1449 337.186C97.7803 337.45 97.2909 337.785 96.7631 338.049C96.7535 338.054 95.7364 338.515 95.2326 338.515L95.2278 338.51ZM100.016 332.273C99.3396 332.273 98.3512 333.228 97.833 333.957L97.574 334.317C96.8735 335.3 96.0243 336.485 95.7124 337.608C96.0195 337.507 96.3505 337.387 96.4225 337.358C96.8927 337.123 97.3293 336.826 97.6939 336.562L97.9386 336.389C98.7398 335.818 99.5699 335.228 100.074 334.465C100.309 334.106 100.64 333.117 100.462 332.58C100.4 332.393 100.299 332.335 100.218 332.302C100.155 332.278 100.083 332.268 100.011 332.268L100.016 332.273Z" fill="#0D011E"/>
<path d="M58.502 344.271V347.154H108.361V344.021L58.502 344.271Z" fill="white"/>
<path d="M89.1561 328.813C89.4871 329.628 89.1704 331.341 88.4796 331.898C87.7935 332.449 86.8771 332.641 85.9991 332.675C84.6173 332.728 82.9813 331.571 82.3383 330.343C82.2856 331.111 81.729 331.778 81.0525 332.152C80.3808 332.526 79.5988 332.656 78.8359 332.747C77.8716 332.862 76.8784 332.929 75.9381 332.68C74.9977 332.43 74.1101 331.821 73.7407 330.924C73.3184 332.003 72.4356 332.895 71.3561 333.327C70.2766 333.759 69.0244 333.726 67.9689 333.231C66.9086 332.737 66.1025 331.826 65.3781 330.904C64.4905 332.435 62.5905 333.299 60.8537 332.958C60.5418 332.896 60.2924 332.776 60.0861 332.536C59.8797 332.296 59.755 331.998 59.6638 331.696C59.6495 331.643 59.6351 331.59 59.6207 331.538C59.2272 329.998 60.4603 328.51 62.0532 328.529L89.1513 328.813H89.1561Z" fill="white"/>
<path d="M141.379 333.686C141.379 333.686 146.427 335.476 149.07 335.941C151.714 336.407 154.406 336.867 156.8 338.076C159.194 339.285 161.295 341.387 161.809 344.021L111.945 344.27C111.657 340.245 112.871 334.281 114.425 330.553C121.627 331.815 141.149 329.541 141.149 329.541C141.149 329.541 141.351 333.173 141.379 333.682V333.686Z" fill="#6E8DF9" stroke="black" stroke-width="0.239891" stroke-miterlimit="10"/>
<path d="M158.925 342.232C113.101 341.709 112.909 341.647 112.837 341.628C112.636 341.565 112.525 341.35 112.588 341.153C112.645 340.975 112.823 340.87 113 340.889C113.878 340.947 143.395 341.297 158.93 341.474C159.141 341.474 159.309 341.647 159.304 341.858C159.304 342.064 159.131 342.232 158.925 342.232Z" fill="#0D011E"/>
<path d="M119.079 341.747C118.868 341.747 118.7 341.579 118.7 341.368C118.7 337.026 113.806 335.884 113.595 335.841C113.388 335.793 113.259 335.592 113.307 335.39C113.35 335.184 113.552 335.059 113.758 335.102C113.815 335.117 119.458 336.417 119.458 341.373C119.458 341.584 119.29 341.752 119.079 341.752V341.747Z" fill="#0D011E"/>
<path d="M148.643 338.557C148.552 338.557 148.465 338.523 148.393 338.466C147.261 337.492 146.642 335.726 146.143 334.306L145.999 333.893C145.644 332.905 145.255 330.837 146.306 330.108C146.604 329.902 146.959 329.849 147.328 329.964C148.182 330.228 148.935 331.317 149.127 331.816C149.511 332.8 149.516 333.937 149.525 334.944V335.242C149.53 335.693 149.525 336.288 149.434 336.868C149.434 336.883 149.142 338.394 148.772 338.538C148.729 338.552 148.686 338.562 148.638 338.562L148.643 338.557ZM146.954 330.665C146.858 330.665 146.791 330.698 146.743 330.732C146.162 331.135 146.383 332.704 146.719 333.634L146.867 334.052C147.266 335.189 147.75 336.566 148.489 337.468C148.58 337.161 148.676 336.82 148.695 336.743C148.777 336.22 148.782 335.693 148.777 335.242V334.944C148.767 333.961 148.763 332.944 148.432 332.09C148.278 331.691 147.659 330.852 147.117 330.689C147.055 330.669 147.007 330.665 146.959 330.665H146.954Z" fill="#0D011E"/>
<path d="M148.671 338.51C148.58 338.51 148.508 338.496 148.46 338.462C148.345 338.385 148.283 338.246 148.297 338.112C148.446 336.629 149.53 335.104 150.403 333.88L150.657 333.52C151.262 332.661 152.73 331.15 153.93 331.596C154.27 331.721 154.515 331.98 154.635 332.35C154.913 333.199 154.453 334.441 154.16 334.888C153.575 335.766 152.649 336.428 151.828 337.013L151.588 337.186C151.224 337.45 150.734 337.785 150.206 338.049C150.197 338.054 149.18 338.515 148.676 338.515L148.671 338.51ZM153.464 332.273C152.788 332.273 151.799 333.228 151.281 333.957L151.022 334.317C150.322 335.3 149.472 336.485 149.161 337.608C149.468 337.507 149.799 337.387 149.871 337.358C150.341 337.123 150.777 336.826 151.142 336.562L151.387 336.389C152.188 335.818 153.018 335.228 153.522 334.465C153.757 334.106 154.088 333.117 153.91 332.58C153.848 332.393 153.747 332.335 153.666 332.302C153.603 332.278 153.531 332.268 153.459 332.268L153.464 332.273Z" fill="#0D011E"/>
<path d="M111.945 344.271V347.154H161.804V344.021L111.945 344.271Z" fill="white"/>
<path d="M142.599 328.813C142.93 329.628 142.614 331.341 141.923 331.898C141.237 332.449 140.32 332.641 139.442 332.675C138.061 332.728 136.425 331.571 135.782 330.343C135.729 331.111 135.172 331.778 134.496 332.152C133.824 332.526 133.042 332.656 132.279 332.747C131.315 332.862 130.322 332.929 129.381 332.68C128.441 332.43 127.553 331.821 127.184 330.924C126.762 332.003 125.879 332.895 124.799 333.327C123.72 333.759 122.468 333.726 121.412 333.231C120.352 332.737 119.546 331.826 118.821 330.904C117.934 332.435 116.034 333.299 114.297 332.958C113.985 332.896 113.736 332.776 113.529 332.536C113.323 332.296 113.198 331.998 113.107 331.696C113.093 331.643 113.078 331.59 113.064 331.538C112.671 329.998 113.904 328.51 115.497 328.529L142.595 328.813H142.599Z" fill="white"/>
<path d="M143.329 310.734L141.4 331.893L114.82 331.058V310.902L143.329 310.734Z" fill="white" stroke="black" stroke-width="0.239891" stroke-miterlimit="10"/>
<path d="M155.138 196.932C156.035 200.242 156.774 203.591 157.585 206.921C157.738 207.559 158.127 209.234 158.285 209.867L145.105 205.448V177.822C150.33 183.061 153.147 189.601 155.138 196.932Z" fill="#EF9DD7" stroke="black" stroke-width="0.239891" stroke-miterlimit="10"/>
<path d="M71.4482 225.259C72.8156 215.5 73.5017 205.66 73.5017 195.805V174.349C78.122 171.537 83.1837 169.364 88.3654 167.829V173.951C88.3654 177.923 91.5895 181.148 95.5621 181.148H117.699C121.672 181.148 124.896 177.923 124.896 173.951V167.037C125.999 167.32 127.098 167.627 128.182 167.982C133.187 169.599 137.956 171.936 142.106 175.16C143.19 176.004 144.183 176.897 145.109 177.823V205.448L144.783 205.362C144.783 205.362 148.655 289.142 148.751 312.805H110.771C108.367 293.033 107.624 299.745 104.644 280.501L95.1783 312.805H57.3906L71.4578 225.259H71.4482Z" fill="#1FFFB4" stroke="black" stroke-width="0.479782" stroke-miterlimit="10"/>
<path d="M93.168 166.604C95.375 166.12 97.582 165.736 99.7698 165.477C101.838 165.237 103.92 165.088 106.002 165.031C110.488 164.911 115.036 165.16 119.465 165.885C119.623 165.909 119.777 165.947 119.935 165.971C117.891 168.989 107.998 181.511 93.168 166.6V166.604Z" fill="#EF9DD7" stroke="black" stroke-width="0.239891" stroke-miterlimit="10"/>
<path d="M93.1679 166.605C107.998 181.517 117.891 168.99 119.935 165.977C121.595 166.26 123.25 166.615 124.896 167.042V173.84C124.896 177.88 121.624 181.152 117.584 181.152H95.6771C91.6374 181.152 88.3652 177.88 88.3652 173.84V167.833C89.9581 167.363 91.5606 166.96 93.1679 166.61V166.605Z" fill="#EF9DD7" stroke="black" stroke-width="0.239891" stroke-miterlimit="10"/>
<path d="M80.0215 176.651C80.0215 177.922 81.053 178.954 82.3244 178.954C83.5959 178.954 84.6274 177.922 84.6274 176.651C84.6274 175.379 83.5959 174.348 82.3244 174.348C81.053 174.348 80.0215 175.379 80.0215 176.651Z" fill="#EF9DD7" stroke="black" stroke-width="0.239891" stroke-miterlimit="10"/>
<path d="M133.123 176.651C133.123 177.922 134.155 178.954 135.426 178.954C136.697 178.954 137.729 177.922 137.729 176.651C137.729 175.379 136.697 174.348 135.426 174.348C134.155 174.348 133.123 175.379 133.123 176.651Z" fill="#EF9DD7" stroke="black" stroke-width="0.239891" stroke-miterlimit="10"/>
<path d="M148.592 304.114H148.583L109.361 303.37C109.149 303.37 108.986 303.193 108.986 302.982C108.986 302.775 109.159 302.607 109.365 302.607H109.375L148.597 303.351C148.808 303.351 148.971 303.529 148.971 303.74C148.971 303.946 148.799 304.114 148.592 304.114Z" fill="#EF9DD7" stroke="black" stroke-width="0.239891" stroke-miterlimit="10"/>
<path d="M97.3225 304.305H97.3129L59.4965 303.317C59.2854 303.312 59.1223 303.134 59.1271 302.928C59.1319 302.717 59.3286 302.559 59.5157 302.559L97.3321 303.547C97.5432 303.552 97.7063 303.729 97.7015 303.936C97.6967 304.142 97.5288 304.305 97.3225 304.305Z" fill="#EF9DD7" stroke="black" stroke-width="0.239891" stroke-miterlimit="10"/>
<path d="M147.033 262.153H147.024C132.491 261.75 130.668 249.439 130.649 249.314C130.629 249.16 130.74 249.016 130.893 248.992C131.047 248.973 131.191 249.079 131.215 249.237C131.282 249.727 133 261.193 147.038 261.582C147.196 261.582 147.321 261.716 147.316 261.875C147.316 262.028 147.187 262.153 147.033 262.153Z" fill="#EF9DD7" stroke="black" stroke-width="0.239891" stroke-miterlimit="10"/>
<path d="M73.1844 258.319C69.8499 258.319 67.0671 257.177 66.8896 257.1C66.6977 257.019 66.6066 256.798 66.6881 256.601C66.7697 256.409 66.9904 256.318 67.1871 256.4C67.2495 256.424 73.4914 258.986 78.2844 256.357C81.0384 254.85 82.8136 251.919 83.5621 247.653C83.5956 247.447 83.7971 247.308 84.0035 247.346C84.2098 247.385 84.3489 247.581 84.3105 247.788C83.5237 252.298 81.6189 255.407 78.6491 257.028C76.8787 257.997 74.9548 258.319 73.1892 258.319H73.1844Z" fill="#EF9DD7" stroke="black" stroke-width="0.239891" stroke-miterlimit="10"/>
<path d="M106.607 216.54C106.531 216.54 106.449 216.516 106.382 216.468L90.9474 205.265C90.8514 205.193 90.7891 205.078 90.7891 204.958V191.322C90.7891 191.111 90.957 190.943 91.1681 190.943H124.911C125.017 190.943 125.113 190.987 125.185 191.063C125.257 191.14 125.295 191.241 125.29 191.342L124.604 206.258C124.599 206.388 124.527 206.507 124.412 206.57L106.79 216.492C106.732 216.525 106.665 216.54 106.603 216.54H106.607ZM91.5519 204.766L106.631 215.71L123.86 206.009L124.518 191.701H91.5519V204.766Z" fill="#EF9DD7" stroke="black" stroke-width="0.239891" stroke-miterlimit="10"/>
<path d="M125.837 196.715H89.8243C89.6132 196.715 89.4453 196.547 89.4453 196.336C89.4453 196.125 89.6132 195.957 89.8243 195.957H125.837C126.048 195.957 126.216 196.125 126.216 196.336C126.216 196.547 126.048 196.715 125.837 196.715Z" fill="#EF9DD7" stroke="black" stroke-width="0.239891" stroke-miterlimit="10"/>
<path d="M87.8281 227.229C88.9844 224.254 90.6108 221.466 92.5971 218.962C96.1091 214.534 100.739 210.988 105.925 208.738C108.526 207.61 111.261 206.828 114.058 206.382C116.236 206.037 119.427 206.929 120.165 209.376C123.313 208.627 126.681 208.627 130.025 209.525L132.462 210.182C135.773 211.069 138.666 212.739 140.998 214.932C142.792 214.011 145.301 214.586 146.812 215.632C149.144 217.244 151.27 219.135 153.126 221.274C156.826 225.544 159.464 230.745 160.717 236.258C161.422 239.372 161.681 242.586 161.436 245.772C161.216 248.641 160.371 251.837 157.847 253.223C156.965 253.708 155.948 253.919 154.945 253.981C153.745 254.058 152.522 253.909 151.366 253.559C151.653 256.418 151.725 257.983 151.231 260.78C149.744 269.185 144.644 279.779 134.684 280.101C128.374 280.307 122.598 275.346 120.784 269.296C119.335 264.464 119.825 260.468 122.085 255.564C121.283 255.469 120.482 255.325 119.681 255.133C119.148 260.434 117.872 262.944 114.245 266.355C109.649 270.678 102.159 272.074 96.8048 268.734C88.3462 263.462 89.2434 251.741 92.1701 243.723C93.1153 241.137 93.6143 241.008 95.2215 238.724C93.4559 238.743 91.6663 238.302 90.131 237.438C89.253 236.944 88.4278 236.32 87.8425 235.5C86.168 233.159 86.7918 229.911 87.8329 227.229H87.8281Z" fill="#D7FF7B" stroke="black" stroke-width="0.239891" stroke-miterlimit="10"/>
<path d="M101.703 239.791C95.0681 244.756 90.5246 260.08 99.9379 264.053C107.48 267.234 112.993 257.677 113.377 251.377C113.578 248.081 112.801 244.32 110.978 241.527C108.814 238.226 104.899 237.401 101.708 239.791H101.703Z" fill="white"/>
<path d="M143.531 251.44C146.275 256.276 144.908 262.988 142.394 267.632C141.405 269.46 140.086 271.197 138.253 272.181C135.322 273.759 131.699 273.035 129.238 270.813C126.172 268.05 125.875 263.895 126.638 260.057C127.521 255.604 130.121 251.512 133.767 248.815C136.905 246.498 140.47 247.218 142.768 250.269C143.056 250.648 143.31 251.042 143.536 251.44H143.531Z" fill="white"/>
<path d="M128.81 181.583C128.82 179.846 127.721 178.215 126.229 177.322C119.55 173.331 112.186 181.386 115.894 187.878C117.194 190.152 120.107 191.538 122.582 190.665" fill="#D7FF7B"/>
<path d="M128.81 181.583C128.82 179.846 127.721 178.215 126.229 177.322C119.55 173.331 112.186 181.386 115.894 187.878C117.194 190.152 120.107 191.538 122.582 190.665" stroke="black" stroke-width="0.239891" stroke-miterlimit="10"/>
<path d="M127.242 182.83C127.252 181.549 126.441 180.344 125.342 179.687C120.506 176.794 115.041 182.772 117.723 187.469C118.683 189.148 120.832 190.17 122.651 189.527" fill="white"/>
<path d="M150.213 187.336C151.072 185.825 152.842 184.966 154.579 184.942C162.356 184.832 164.693 195.497 158.23 199.254C155.965 200.574 152.746 200.31 151.048 198.319" fill="#D7FF7B"/>
<path d="M150.213 187.336C151.072 185.825 152.842 184.966 154.579 184.942C162.356 184.832 164.693 195.497 158.23 199.254C155.965 200.574 152.746 200.31 151.048 198.319" stroke="black" stroke-width="0.239891" stroke-miterlimit="10"/>
<path d="M150.947 189.202C151.581 188.089 152.886 187.455 154.167 187.436C159.804 187.359 161.531 195.271 156.858 197.987C155.189 198.956 152.818 198.764 151.561 197.296" fill="white"/>
<path d="M116.925 193.405C114.195 203.562 120.216 214.006 130.373 216.736C140.53 219.466 150.975 213.445 153.705 203.288C156.435 193.131 150.414 182.686 140.257 179.956C130.1 177.226 119.655 183.248 116.925 193.405Z" fill="#D7FF7B" stroke="black" stroke-width="0.239891" stroke-miterlimit="10"/>
<path d="M142.826 204.311C143.406 207.549 141.295 210.917 138.301 212.275C135.307 213.633 131.685 213.163 128.83 211.531C126.355 210.121 124.272 207.66 124.143 204.81C124.009 201.873 126.072 199.095 128.768 197.92C133.883 195.689 141.751 198.289 142.83 204.306L142.826 204.311Z" fill="white"/>
<path d="M142.908 197.151C142.917 197.746 142.457 198.317 141.871 198.422C141.665 198.461 141.449 198.446 141.243 198.408C140.95 198.36 140.653 198.259 140.451 198.043C140.245 197.823 140.168 197.511 140.168 197.209C140.149 195.289 142.874 195.361 142.912 197.151H142.908Z" fill="#0D011E"/>
<path d="M130.56 193.837C130.57 194.432 130.109 195.002 129.524 195.108C129.317 195.146 129.101 195.132 128.895 195.094C128.602 195.046 128.305 194.945 128.103 194.729C127.897 194.508 127.82 194.196 127.82 193.894C127.801 191.975 130.526 192.047 130.565 193.837H130.56Z" fill="#0D011E"/>
<path d="M137.995 198.922C137.376 197.981 136.364 197.305 135.255 197.103C134.147 196.897 132.957 197.166 132.046 197.828C131.806 198 131.576 198.212 131.465 198.49C131.235 199.07 131.604 199.723 132.041 200.169C133.452 201.618 135.769 202.103 137.645 201.335C139.022 200.769 138.676 199.953 138 198.922H137.995Z" fill="#0D011E"/>
<path d="M132.69 208.499C132.657 208.499 132.623 208.499 132.59 208.484C132.388 208.432 132.268 208.221 132.321 208.019L134.547 199.728C134.6 199.527 134.811 199.407 135.013 199.46C135.214 199.512 135.334 199.724 135.281 199.925L133.055 208.216C133.012 208.384 132.858 208.499 132.69 208.499Z" fill="#0D011E"/>
<path d="M133.512 208.743C133.018 208.743 132.505 208.675 131.996 208.507C130.821 208.119 129.909 207.26 129.285 205.95C129.194 205.758 129.276 205.533 129.463 205.442C129.65 205.35 129.88 205.432 129.967 205.624C130.495 206.737 131.257 207.462 132.227 207.783C134.136 208.416 136.271 207.303 136.295 207.289C136.482 207.193 136.712 207.26 136.808 207.447C136.904 207.634 136.837 207.86 136.65 207.96C136.573 207.999 135.168 208.738 133.508 208.738L133.512 208.743Z" fill="#0D011E"/>
<path d="M128.595 222.691C136.847 224.907 142.005 232.891 140.911 241.138C139.788 240.956 138.627 240.927 137.447 241.067C133.445 241.537 130.188 243.998 127.611 246.958C125.342 249.563 123.418 252.6 122.046 255.777L119.815 255.177C120.218 251.742 120.074 248.148 119.417 244.761C118.673 240.913 117.085 237.147 113.861 234.733C112.287 233.553 110.521 232.805 108.703 232.459C111.894 224.792 120.352 220.484 128.595 222.7V222.691Z" fill="white" stroke="black" stroke-width="0.239891" stroke-miterlimit="10"/>
<path d="M133.318 221.002C132.272 221.002 129.287 219.802 128.937 219.663C128.803 219.611 128.712 219.486 128.702 219.342C128.692 219.198 128.764 219.059 128.889 218.987C129.22 218.79 132.142 217.068 133.102 216.991C133.644 216.948 134.157 217.12 134.565 217.471C134.973 217.821 135.217 218.31 135.261 218.843C135.299 219.38 135.131 219.898 134.781 220.306C134.431 220.714 133.941 220.959 133.409 221.002C133.38 221.002 133.351 221.002 133.322 221.002H133.318ZM129.949 219.241C131.226 219.726 132.862 220.277 133.342 220.239C133.677 220.215 133.98 220.061 134.196 219.807C134.411 219.553 134.522 219.231 134.493 218.9C134.469 218.565 134.315 218.262 134.061 218.046C133.807 217.831 133.485 217.725 133.154 217.749C132.665 217.787 131.135 218.574 129.949 219.246V219.241Z" fill="#0D011E"/>
<path d="M128.802 219.615C128.802 219.615 128.768 219.615 128.749 219.615C128.37 219.562 125.012 219.078 124.215 218.536C123.299 217.907 123.064 216.655 123.692 215.739C123.995 215.297 124.455 215 124.983 214.899C125.511 214.798 126.048 214.913 126.489 215.216C127.286 215.758 128.946 218.718 129.133 219.054C129.205 219.179 129.195 219.337 129.114 219.452C129.042 219.558 128.927 219.615 128.802 219.615ZM125.352 215.619C125.276 215.619 125.199 215.623 125.122 215.638C124.791 215.7 124.508 215.887 124.321 216.161C123.932 216.732 124.076 217.509 124.647 217.898C125.05 218.176 126.739 218.516 128.082 218.732C127.391 217.557 126.465 216.108 126.058 215.83C125.846 215.686 125.602 215.609 125.352 215.609V215.619Z" fill="#0D011E"/>
<path d="M131.655 227.296C131.573 227.296 131.492 227.272 131.425 227.22C130.403 226.433 129.76 225.195 129.702 223.904C129.683 223.439 129.736 222.983 129.789 222.542C129.808 222.374 129.827 222.206 129.841 222.043C129.884 221.568 129.908 220.954 129.688 220.436C129.52 220.037 129.141 219.63 128.661 219.601C128.45 219.591 128.292 219.409 128.301 219.203C128.311 218.991 128.498 218.828 128.699 218.843C129.409 218.881 130.067 219.39 130.383 220.138C130.667 220.81 130.643 221.544 130.595 222.11C130.58 222.283 130.556 222.455 130.537 222.628C130.484 223.055 130.436 223.463 130.455 223.866C130.499 224.936 131.036 225.958 131.88 226.61C132.048 226.74 132.077 226.975 131.952 227.143C131.876 227.239 131.765 227.292 131.65 227.292L131.655 227.296Z" fill="#0D011E"/>
<path d="M122.395 224.686C122.208 224.686 122.045 224.547 122.021 224.355C121.992 224.149 122.141 223.957 122.347 223.928C123.408 223.789 124.382 223.17 124.957 222.268C125.173 221.928 125.336 221.553 125.504 221.16C125.572 220.997 125.643 220.839 125.715 220.68C125.951 220.167 126.301 219.519 126.886 219.078C127.539 218.588 128.364 218.478 128.992 218.799C129.179 218.895 129.251 219.126 129.156 219.313C129.06 219.5 128.829 219.572 128.642 219.476C128.215 219.26 127.683 219.423 127.337 219.682C126.886 220.023 126.598 220.565 126.402 220.997C126.33 221.15 126.262 221.304 126.195 221.462C126.023 221.87 125.84 222.288 125.591 222.681C124.895 223.77 123.72 224.518 122.439 224.686C122.419 224.686 122.405 224.686 122.386 224.686H122.395Z" fill="#0D011E"/>
<path d="M144.566 223.324C144.566 223.324 150.621 225.637 151.36 253.565" stroke="#0D011E" stroke-width="0.239891" stroke-miterlimit="10"/>
<path d="M50.8652 219.414C50.5582 214.86 50.87 210.259 51.7384 205.783C53.4704 196.859 57.3663 188.415 63.8002 181.923C66.698 179.002 69.9845 176.483 73.4966 174.348V216.967C73.4966 216.967 90.3849 218.42 88.9263 219.577C88.6577 228.174 88.5761 230.775 88.3074 239.377C90.7255 240.917 66.1607 238.6 66.1511 238.6C62.356 238.24 58.868 237.137 56.1572 234.32C52.319 230.333 51.2203 224.749 50.8604 219.418L50.8652 219.414Z" fill="#EF9DD7" stroke="black" stroke-width="0.239891" stroke-miterlimit="10"/>
<path d="M91.0763 217.634C92.3621 216.923 93.7486 216.4 95.1928 216.137C96.5362 215.897 97.9228 215.854 98.0859 216.664C98.0859 216.664 98.4025 218.238 94.1421 221.241C93.6959 221.558 93.883 222.259 94.4251 222.307C98.3258 222.652 107.801 223.636 109.73 225.233C109.999 225.459 110.09 225.862 109.884 226.15C109.505 226.682 108.204 227.378 104.122 227.584C103.853 227.599 103.81 227.982 104.074 228.035C106.415 228.501 110.018 229.393 112.22 230.813C112.71 231.13 112.676 231.859 112.153 232.123C111.15 232.622 108.982 233.169 104.347 232.972C104.078 232.963 104.006 233.337 104.261 233.418C105.93 233.941 108.204 234.767 109.274 235.654C109.706 236.014 109.591 236.719 109.073 236.935C108.065 237.348 105.954 237.88 101.934 237.708C101.732 237.698 101.665 237.976 101.857 238.043C103.138 238.475 104.889 239.219 105.657 240.255C106.079 240.831 105.782 241.613 105.091 241.8C103.925 242.117 101.454 242.194 96.5122 240.418L88.2695 239.478L88.8357 218.862L91.0667 217.634H91.0763Z" fill="white" stroke="black" stroke-width="0.239891" stroke-miterlimit="10"/>
<path d="M88.5084 156.398C87.4145 157.223 87.1938 158.782 88.019 159.876C88.8442 160.97 90.4035 161.191 91.4974 160.366C92.5913 159.54 92.812 157.981 91.9868 156.887C91.1616 155.793 89.6023 155.573 88.5084 156.398Z" fill="#0D011E"/>
<path d="M91.2135 154.359C90.1196 155.184 89.8989 156.743 90.7241 157.837C91.5493 158.931 93.1086 159.152 94.2025 158.327C95.2964 157.501 95.5171 155.942 94.6919 154.848C93.8667 153.754 92.3074 153.534 91.2135 154.359Z" fill="#0D011E"/>
<path d="M85.0435 159.013C83.9496 159.838 83.7289 161.398 84.5542 162.492C85.3794 163.585 86.9387 163.806 88.0326 162.981C89.1265 162.156 89.3472 160.596 88.522 159.503C87.6967 158.409 86.1374 158.188 85.0435 159.013Z" fill="#0D011E"/>
<path d="M85.1021 163.44L82.1466 168.205C82.1466 168.205 78.4043 166.271 78.4043 163.244L83.6483 161.512L85.1021 163.44Z" fill="#0D011E"/>
<path d="M84.2486 160.279L86.398 163.129C86.5995 163.398 86.5467 163.782 86.278 163.983C86.0094 164.185 85.6255 164.132 85.424 163.863L83.2746 161.013C83.0731 160.745 83.1259 160.361 83.3946 160.159C83.6632 159.958 84.0471 160.011 84.2486 160.279Z" fill="#FFD024"/>
<path d="M124.128 155.007C125.222 155.833 125.443 157.392 124.618 158.486C123.792 159.58 122.233 159.8 121.139 158.975C120.045 158.15 119.825 156.591 120.65 155.497C121.475 154.403 123.034 154.182 124.128 155.007Z" fill="#0D011E"/>
<path d="M121.421 152.968C122.515 153.793 122.736 155.353 121.911 156.447C121.085 157.541 119.526 157.761 118.432 156.936C117.338 156.111 117.118 154.552 117.943 153.458C118.768 152.364 120.327 152.143 121.421 152.968Z" fill="#0D011E"/>
<path d="M127.591 157.617C128.685 158.442 128.906 160.001 128.081 161.095C127.255 162.189 125.696 162.41 124.602 161.584C123.508 160.759 123.288 159.2 124.113 158.106C124.938 157.012 126.497 156.791 127.591 157.617Z" fill="#0D011E"/>
<path d="M127.535 162.05L130.491 166.814C130.491 166.814 134.233 164.881 134.233 161.853L128.989 160.121L127.535 162.05Z" fill="#0D011E"/>
<path d="M128.387 158.889L126.238 161.739C126.036 162.007 126.089 162.391 126.357 162.593C126.626 162.794 127.01 162.741 127.211 162.473L129.361 159.623C129.562 159.354 129.51 158.97 129.241 158.769C128.972 158.567 128.588 158.62 128.387 158.889Z" fill="#FFD024"/>
<path d="M116.438 165.753L117.105 145.482L96.4019 145.967L96.2676 166.036C96.2676 166.036 108.032 176.865 116.438 165.753Z" fill="white" stroke="black" stroke-width="0.239891" stroke-miterlimit="10"/>
<path d="M113.87 123.749C105.181 120.745 97.8888 123.749 91.8627 130.59C89.2623 133.541 89.6605 135.878 89.7229 139.778C88.5282 140.157 88.3603 140.45 87.324 141.15C84.1766 143.276 83.5769 147.21 84.9634 150.588C86.7242 154.872 90.4234 157.664 94.9093 156.129C98.7908 159.828 110.876 169.851 119.513 160.577C121.969 157.943 123.183 154.407 123.332 150.808C123.643 143.079 125.423 127.74 113.87 123.749Z" fill="white" stroke="black" stroke-width="0.239891" stroke-miterlimit="10"/>
<path d="M91.2583 151.135C91.0568 151.135 90.8889 150.981 90.8793 150.78C90.7353 148.343 87.967 148.074 87.8471 148.064C87.636 148.045 87.4824 147.863 87.5016 147.652C87.5208 147.441 87.7079 147.287 87.9142 147.306C89.1377 147.407 91.4886 148.256 91.6373 150.737C91.6517 150.948 91.4886 151.125 91.2823 151.14C91.2727 151.14 91.2679 151.14 91.2583 151.14V151.135Z" fill="#0D011E"/>
<path d="M104.203 148.041C104.131 147.388 104.606 146.803 105.258 146.731C105.911 146.664 106.496 147.134 106.568 147.787C106.635 148.439 106.165 149.024 105.512 149.096C104.86 149.168 104.274 148.693 104.203 148.041Z" fill="#0D011E"/>
<path d="M118.198 148.155C118.131 147.502 118.601 146.917 119.253 146.845C119.906 146.773 120.491 147.248 120.563 147.901C120.63 148.553 120.16 149.138 119.508 149.21C118.855 149.278 118.27 148.807 118.198 148.155Z" fill="#0D011E"/>
<path d="M112.7 152.987C112.095 152.987 111.491 152.762 111.217 152.282C111.112 152.1 111.174 151.869 111.357 151.764C111.534 151.658 111.769 151.721 111.875 151.903C112.052 152.215 112.801 152.325 113.271 152.114C113.659 151.937 113.631 151.677 113.564 151.466C113.535 151.385 113.482 151.332 113.328 151.202C113.036 150.953 112.594 150.574 112.124 149.475C111.889 148.933 111.673 148.165 111.472 147.191C111.428 146.985 111.563 146.784 111.769 146.741C111.966 146.697 112.177 146.832 112.215 147.038C112.407 147.959 112.609 148.679 112.82 149.173C113.218 150.109 113.568 150.406 113.823 150.622C114 150.775 114.187 150.934 114.283 151.226C114.509 151.908 114.24 152.512 113.583 152.81C113.319 152.93 113.007 152.987 112.7 152.987Z" fill="#140625"/>
<path d="M102.658 143.439C102.538 143.439 102.419 143.381 102.342 143.271C102.222 143.098 102.27 142.863 102.443 142.743C102.553 142.667 105.163 140.92 107.413 142.575C107.581 142.7 107.619 142.935 107.495 143.108C107.37 143.276 107.135 143.314 106.962 143.19C105.148 141.856 102.965 143.31 102.87 143.372C102.802 143.415 102.73 143.439 102.658 143.439Z" fill="#0D011E"/>
<path d="M121.188 143.228C121.102 143.228 121.015 143.199 120.943 143.137C119.231 141.678 116.947 142.973 116.851 143.026C116.673 143.132 116.438 143.069 116.333 142.887C116.227 142.705 116.29 142.474 116.467 142.369C116.582 142.302 119.312 140.742 121.438 142.556C121.596 142.69 121.615 142.93 121.481 143.093C121.404 143.18 121.299 143.228 121.193 143.228H121.188Z" fill="#0D011E"/>
<path d="M110.622 156.68C108.708 156.68 106.122 156.181 104.735 153.792C104.629 153.61 104.692 153.38 104.874 153.274C105.056 153.168 105.287 153.231 105.392 153.413C107.436 156.93 112.771 155.707 112.824 155.692C113.03 155.644 113.232 155.769 113.28 155.975C113.328 156.181 113.203 156.383 112.997 156.431C112.901 156.455 111.912 156.68 110.622 156.68Z" fill="#0D011E"/>
<path d="M92.1997 139.415C92.1997 139.415 92.8858 142.567 91.648 145.839C91.648 145.839 91.3457 146.511 91.3169 146.497C86.5287 143.743 84.7247 139.631 85.6843 134.737C87.3155 126.413 92.8187 120.838 105.83 120.032C106.425 119.994 107.03 120.022 107.625 120.056C109.102 120.138 110.575 120.344 112.015 120.675C113.9 121.111 115.747 121.769 117.441 122.714C119.355 123.784 121.054 125.223 122.344 126.998C123.458 128.539 124.235 130.304 124.719 132.132C125.175 133.845 125.444 135.63 125.286 137.405C125.127 139.209 124.446 140.883 123.577 142.457L123.266 137.266C123.266 137.266 113.089 139.857 111.05 133.591C111.05 133.591 106.372 141.761 92.1901 139.41L92.1997 139.415Z" fill="#0D011E"/>
<path d="M88.5964 154.091C88.5964 154.782 88.0399 155.339 87.349 155.339C86.6581 155.339 86.1016 154.782 86.1016 154.091C86.1016 153.4 86.6581 152.844 87.349 152.844C88.0399 152.844 88.5964 153.4 88.5964 154.091Z" fill="#0853F2"/>
<path d="M153.343 204.838C153.415 205.313 152.656 206.556 152.134 206.819C148.42 208.695 139.453 213.407 138.196 215.734C138.018 216.065 138.105 216.497 138.426 216.693C139.021 217.063 140.585 217.226 144.654 215.83C144.927 215.739 145.119 216.098 144.879 216.257C142.754 217.634 139.554 219.937 137.942 222.201C137.582 222.705 137.903 223.415 138.522 223.463C139.712 223.559 142.063 223.247 146.563 221.222C146.822 221.107 147.038 221.448 146.818 221.625C145.373 222.801 143.435 224.523 142.739 225.824C142.456 226.351 142.826 226.98 143.425 226.989C144.572 227.004 146.866 226.711 150.776 224.946C150.972 224.854 151.14 225.113 150.977 225.253C149.898 226.169 148.497 227.56 148.132 228.865C147.926 229.599 148.497 230.3 149.25 230.218C150.521 230.084 152.018 228.894 157.19 225.478L162.66 222.508C162.751 222.46 162.813 221.909 162.842 221.803C162.9 221.558 162.957 221.314 163.01 221.069C163.111 220.604 163.197 220.133 163.274 219.663C163.408 218.809 163.495 217.946 163.519 217.082C163.576 214.813 163.154 212.572 162.204 210.509C161.863 209.765 160.362 208.052 159.704 207.568C157.205 205.716 156.332 205.279 153.798 204.771C153.65 204.742 153.496 204.809 153.343 204.833V204.838Z" fill="white" stroke="black" stroke-width="0.239891" stroke-miterlimit="10"/>
<path d="M27.8339 231.332C27.7379 231.332 27.6371 231.294 27.5652 231.222L19.049 222.706C18.9003 222.557 18.9003 222.317 19.049 222.168C19.1978 222.019 19.4377 222.019 19.5864 222.168L28.1025 230.684C28.2513 230.833 28.2513 231.073 28.1025 231.222C28.0306 231.294 27.9298 231.332 27.8339 231.332Z" fill="white"/>
<path d="M19.5677 231.576C19.4718 231.576 19.371 231.538 19.299 231.466C19.1503 231.317 19.1503 231.077 19.299 230.928L27.8152 222.412C27.9639 222.264 28.2038 222.264 28.3525 222.412C28.5013 222.561 28.5013 222.801 28.3525 222.95L19.8364 231.466C19.7644 231.538 19.6637 231.576 19.5677 231.576Z" fill="white"/>
<path d="M3.54364 205.232C1.59092 205.232 -0.00195312 203.644 -0.00195312 201.686C-0.00195312 199.729 1.58613 198.141 3.54364 198.141C5.50115 198.141 7.08923 199.729 7.08923 201.686C7.08923 203.644 5.50115 205.232 3.54364 205.232ZM3.54364 198.903C2.00833 198.903 0.7609 200.151 0.7609 201.686C0.7609 203.222 2.00833 204.469 3.54364 204.469C5.07894 204.469 6.32637 203.222 6.32637 201.686C6.32637 200.151 5.07894 198.903 3.54364 198.903Z" fill="white"/>
<path d="M33.8798 209.325C33.7838 209.325 33.6927 209.291 33.6207 209.224C33.5296 209.138 33.4864 209.013 33.5008 208.888L34.6426 201.126C34.6618 200.986 34.7626 200.866 34.8969 200.823C35.0313 200.78 35.18 200.814 35.2856 200.91L41.5371 206.988C41.6379 207.084 41.6763 207.228 41.6379 207.363C41.5995 207.497 41.4939 207.598 41.3548 207.631L33.9662 209.315C33.9374 209.32 33.9086 209.325 33.8798 209.325ZM35.2903 201.97L34.3404 208.452L40.5104 207.046L35.2951 201.97H35.2903Z" fill="white"/>
<path d="M374.246 86.1738C374.15 86.1738 374.049 86.1354 373.977 86.0635L365.461 77.5473C365.312 77.3986 365.312 77.1587 365.461 77.01C365.61 76.8613 365.85 76.8613 365.999 77.01L374.515 85.5261C374.663 85.6749 374.663 85.9147 374.515 86.0635C374.443 86.1354 374.342 86.1738 374.246 86.1738Z" fill="white"/>
<path d="M365.98 86.418C365.884 86.418 365.783 86.3796 365.711 86.3076C365.562 86.1589 365.562 85.919 365.711 85.7703L374.227 77.2541C374.376 77.1054 374.616 77.1054 374.765 77.2541C374.913 77.4029 374.913 77.6428 374.765 77.7915L366.249 86.3076C366.177 86.3796 366.076 86.418 365.98 86.418Z" fill="white"/>
<path d="M348.395 99.7181C346.442 99.7181 344.85 98.1301 344.85 96.1725C344.85 94.215 346.438 92.627 348.395 92.627C350.353 92.627 351.941 94.215 351.941 96.1725C351.941 98.1301 350.353 99.7181 348.395 99.7181ZM348.395 93.3898C346.86 93.3898 345.612 94.6372 345.612 96.1725C345.612 97.7078 346.86 98.9553 348.395 98.9553C349.93 98.9553 351.178 97.7078 351.178 96.1725C351.178 94.6372 349.93 93.3898 348.395 93.3898Z" fill="white"/>
<path d="M362.102 113.991C362.006 113.991 361.915 113.957 361.843 113.89C361.752 113.804 361.709 113.679 361.723 113.554L362.865 105.792C362.884 105.652 362.985 105.532 363.12 105.489C363.254 105.446 363.403 105.48 363.508 105.576L369.76 111.654C369.861 111.75 369.899 111.894 369.861 112.029C369.822 112.163 369.717 112.264 369.577 112.297L362.189 113.981C362.16 113.986 362.131 113.991 362.102 113.991ZM363.508 106.636L362.558 113.118L368.728 111.712L363.513 106.636H363.508Z" fill="white"/>
<path d="M368.211 242.98C367.66 240.758 367.094 239.228 366.662 237.928H272.236C272.269 238.748 265.821 246.065 265.859 246.9C265.859 246.9 237.452 274.986 230.883 280.801C176.822 328.683 224.699 347.654 224.699 347.654H370.131L370.121 304.574L339.588 304.665C378.234 305.865 371.186 254.931 368.211 242.98Z" fill="#6E8DF9" stroke="black" stroke-width="0.239891" stroke-miterlimit="10"/>
<path d="M310.124 247.744C310.249 247.912 310.211 248.152 310.038 248.277L287.33 264.724C277.778 271.872 273.244 275.864 266.373 281.909C264.905 283.2 263.336 284.582 261.59 286.108C252.196 294.302 246.136 301.763 243.569 308.283C237.308 324.217 243.771 339.541 260.035 347.328C260.222 347.419 260.304 347.644 260.213 347.836C260.146 347.971 260.011 348.052 259.872 348.052" stroke="#140625" stroke-width="0.479782" stroke-miterlimit="10"/>
<path d="M283.027 79.528C282.034 79.7679 280.729 84.2394 280.413 85.151C279.755 87.0654 279.338 89.066 278.93 91.0475C278.028 95.4375 278.148 99.9523 277.798 104.4C277.467 108.598 276.632 112.998 274.276 116.562C271.714 120.439 267.607 123.03 265.175 127.026C262.373 131.632 261.596 137.198 260.977 142.456C260.665 145.124 260.42 148.017 261.802 150.315L294.547 150.646L298.462 76.4766L283.027 79.5232V79.528Z" fill="#140625"/>
<path d="M328.324 90.9041C329.322 96.5176 331.975 100.394 335.689 104.573C340.41 109.889 344.459 115.383 341.83 122.795C340.612 126.235 338.616 129.325 337.143 132.65C335.607 136.114 334.753 139.938 334.518 143.719L301.154 141.958L304.004 87.9727L328.324 90.9041Z" fill="#140625"/>
<path d="M313.94 126.888L314.77 104.88L290.666 104.578L290.857 128.332C290.248 128.433 285.839 129.071 281.598 129.771C285.484 143.201 304.248 143.824 315.288 138.911C320.076 136.781 324.126 133.149 324.84 127.795C319.884 127.368 315.288 126.994 313.935 126.883L313.94 126.888Z" fill="white" stroke="black" stroke-width="0.239891" stroke-miterlimit="10"/>
<path d="M290.748 120.15C290.748 120.15 299.423 124.219 311.566 114.086C311.566 114.086 308.725 126.157 290.82 125.937L290.753 120.15H290.748Z" fill="#140625"/>
<path d="M280.657 114.474C280.561 114.474 280.47 114.474 280.374 114.465C277.438 114.311 275.178 111.797 275.332 108.861C275.485 105.925 277.999 103.66 280.935 103.818C281.353 103.842 281.674 104.197 281.655 104.615C281.631 105.032 281.271 105.358 280.854 105.334C278.743 105.224 276.958 106.841 276.848 108.942C276.737 111.039 278.354 112.838 280.456 112.949C282.562 113.059 284.352 111.442 284.462 109.341C284.505 108.477 284.27 107.652 283.771 106.947C283.531 106.606 283.613 106.131 283.953 105.886C284.294 105.646 284.769 105.728 285.014 106.069C285.709 107.052 286.04 108.213 285.978 109.417C285.829 112.258 283.469 114.47 280.657 114.47V114.474Z" fill="#6E8DF9" stroke="black" stroke-width="0.239891" stroke-miterlimit="10"/>
<path d="M324.317 94.6018C323.108 93.7814 321.741 93.2345 320.349 92.7883C320.426 88.2447 320.277 83.7108 318.886 79.3448C318.795 79.0569 318.526 78.7786 318.205 78.5147C317.01 77.5216 315.566 76.8739 314.04 76.586C305.299 74.9308 298.908 74.7437 294.499 74.9596C290.565 75.1515 287.048 77.488 285.354 81.0432C281.334 89.4778 280.964 99.6443 281.218 105.742C281.228 105.92 281.233 106.112 281.242 106.285C281.439 110.262 282.96 114.095 285.676 117.008C295.713 127.75 309.77 116.12 314.29 111.826C314.304 111.831 314.319 111.836 314.338 111.84C319.543 113.601 325.008 110.569 327.057 105.598C328.674 101.674 327.983 97.0871 324.322 94.6114L324.317 94.6018Z" fill="white" stroke="black" stroke-width="0.239891" stroke-miterlimit="10"/>
<path d="M303.605 99.3816C303.634 98.6091 303.029 97.9614 302.257 97.9326C301.484 97.9038 300.836 98.5084 300.808 99.2808C300.779 100.053 301.383 100.701 302.156 100.73C302.928 100.759 303.576 100.154 303.605 99.3816Z" fill="#140625"/>
<path d="M288.315 99.3816C288.344 98.6091 287.739 97.9614 286.967 97.9326C286.194 97.9038 285.546 98.5084 285.522 99.2808C285.494 100.053 286.098 100.701 286.871 100.73C287.643 100.759 288.291 100.154 288.32 99.3816H288.315Z" fill="#140625"/>
<path d="M293.728 106.368C293.436 106.368 293.148 106.32 292.893 106.229C292.131 105.95 291.78 105.293 291.982 104.511C292.068 104.18 292.255 103.993 292.457 103.796C292.74 103.513 293.133 103.129 293.527 101.987C293.906 100.898 294.122 99.1663 294.232 97.9045C294.251 97.6934 294.443 97.5351 294.645 97.559C294.856 97.5782 295.009 97.7606 294.99 97.9717C294.875 99.2767 294.649 101.076 294.246 102.237C293.791 103.547 293.311 104.022 292.989 104.338C292.817 104.506 292.749 104.578 292.716 104.698C292.678 104.847 292.562 105.298 293.153 105.514C293.767 105.739 294.659 105.528 294.861 105.116C294.952 104.928 295.177 104.847 295.369 104.938C295.556 105.029 295.638 105.255 295.547 105.447C295.249 106.061 294.477 106.368 293.728 106.368Z" fill="#140625"/>
<path d="M294.494 111.3C292.901 111.3 291.141 110.897 289.265 109.817C289.082 109.712 289.02 109.481 289.126 109.299C289.231 109.117 289.461 109.054 289.644 109.16C296.601 113.152 301.739 107.366 301.955 107.116C302.094 106.958 302.334 106.943 302.492 107.078C302.651 107.217 302.67 107.457 302.531 107.615C302.488 107.663 299.273 111.3 294.499 111.3H294.494Z" fill="#140625"/>
<path d="M305.573 95.3175C305.463 95.3175 305.352 95.2695 305.276 95.1735C304.522 94.2331 303.678 93.7102 302.771 93.6238C301.802 93.5279 300.718 93.9405 299.729 94.7753C299.662 94.8329 299.523 94.9096 299.432 94.9096C299.221 94.9096 299.053 94.7417 299.053 94.5306C299.053 94.4011 299.115 94.2859 299.216 94.2188C300.396 93.2256 301.668 92.7554 302.848 92.8706C303.966 92.9809 304.983 93.595 305.87 94.6985C306 94.8617 305.976 95.1016 305.813 95.2311C305.741 95.2887 305.659 95.3127 305.578 95.3127L305.573 95.3175Z" fill="#140625"/>
<path d="M291.145 95.3175C291.035 95.3175 290.925 95.2695 290.848 95.1735C290.095 94.2331 289.25 93.7102 288.343 93.6238C287.374 93.5279 286.29 93.9405 285.302 94.7753C285.234 94.8329 285.095 94.9096 285.004 94.9096C284.793 94.9096 284.625 94.7417 284.625 94.5306C284.625 94.4011 284.687 94.2859 284.788 94.2188C285.968 93.2256 287.24 92.7554 288.42 92.8706C289.538 92.9809 290.555 93.595 291.443 94.6985C291.572 94.8617 291.548 95.1016 291.385 95.2311C291.313 95.2887 291.232 95.3127 291.15 95.3127L291.145 95.3175Z" fill="#140625"/>
<path d="M264.47 185.751C264.432 185.751 264.393 185.746 264.355 185.732C264.153 185.67 264.043 185.459 264.105 185.257L267.8 173.402C267.862 173.2 268.078 173.09 268.275 173.152C268.476 173.215 268.586 173.426 268.524 173.627L264.83 185.483C264.777 185.646 264.628 185.751 264.465 185.751H264.47Z" fill="#140625"/>
<path d="M317.883 107.049C317.883 107.049 317.835 107.049 317.816 107.044C317.61 107.006 317.475 106.809 317.509 106.602C318.281 102.352 322.46 102.107 322.504 102.107C322.71 102.088 322.892 102.26 322.902 102.467C322.911 102.678 322.748 102.855 322.542 102.865C322.393 102.875 318.92 103.09 318.258 106.737C318.224 106.919 318.066 107.049 317.883 107.049Z" fill="#140625"/>
<path d="M323.315 117.681C321.199 117.681 319.189 116.41 318.359 114.327C317.27 111.597 318.599 108.488 321.329 107.399C321.717 107.246 322.159 107.433 322.317 107.822C322.471 108.21 322.284 108.652 321.895 108.81C319.942 109.592 318.992 111.813 319.77 113.766C320.552 115.719 322.773 116.669 324.726 115.891C326.678 115.109 327.628 112.888 326.851 110.935C326.53 110.134 325.968 109.482 325.22 109.05C324.855 108.839 324.73 108.373 324.942 108.013C325.153 107.649 325.618 107.524 325.978 107.735C327.024 108.34 327.811 109.251 328.262 110.369C329.351 113.099 328.022 116.208 325.292 117.297C324.644 117.556 323.977 117.676 323.32 117.676L323.315 117.681Z" fill="#6E8DF9" stroke="black" stroke-width="0.239891" stroke-miterlimit="10"/>
<path d="M293.51 68.2232C299.536 83.629 305.653 91.7901 310.883 96.0074C316.064 100.191 323.338 100.599 329.038 97.1589C329.038 97.1589 329.724 59.1601 293.515 68.2232H293.51Z" fill="#140625"/>
<path d="M313.737 94.5963C310.82 94.5963 307.231 94.0205 303.844 91.9239C298.576 88.6662 295.256 82.6737 293.965 74.1096C293.807 73.0732 294.522 72.1041 295.558 71.9506C296.595 71.797 297.564 72.5071 297.717 73.5434C298.83 80.9369 301.551 86.0274 305.806 88.6758C311.636 92.3029 318.597 90.1535 318.669 90.1343C319.662 89.8176 320.732 90.3646 321.054 91.3625C321.375 92.3605 320.828 93.4256 319.835 93.7471C319.648 93.8094 317.148 94.5963 313.732 94.5963H313.737Z" fill="#140625"/>
<path d="M298.303 68.5973C298.303 68.5973 296.542 92.4328 276.453 94.1745C276.453 94.1745 275.479 62.4848 298.303 68.5973Z" fill="#140625"/>
<path d="M306.66 76.85C306.66 76.85 321.951 78.1934 329.771 69.6964C337.592 61.1947 339.919 50.6203 334.977 46.072C330.03 41.5236 319.686 44.7286 311.866 53.2255C304.045 61.7273 306.66 76.85 306.66 76.85Z" fill="#140625"/>
<path d="M439.128 351.146L443.129 346.727L395.564 304.669L387.254 304.588C396.274 313.037 426.654 339.881 438.883 351.189C438.965 351.175 439.046 351.165 439.128 351.151V351.146Z" fill="#EF9DD7" stroke="black" stroke-width="0.239891" stroke-miterlimit="10"/>
<path d="M438.888 351.185C426.659 339.877 396.279 313.033 387.259 304.584L386.203 304.574H370.121L370.131 347.654L390.353 344.516L438.888 351.185Z" fill="#EF9DD7" stroke="black" stroke-width="0.239891" stroke-miterlimit="10"/>
<path d="M397.478 345.873C397.445 345.873 397.406 345.868 397.373 345.859C397.171 345.801 397.056 345.59 397.119 345.388L400.007 335.586C400.064 335.385 400.275 335.27 400.477 335.327C400.679 335.385 400.794 335.596 400.731 335.797L397.843 345.599C397.795 345.763 397.641 345.873 397.478 345.873Z" fill="#140625"/>
<path d="M406.393 347.098C406.36 347.098 406.331 347.098 406.297 347.084C406.096 347.031 405.971 346.825 406.024 346.618L408.547 336.955C408.6 336.754 408.811 336.629 409.008 336.682C409.21 336.735 409.334 336.941 409.282 337.147L406.758 346.81C406.715 346.983 406.561 347.093 406.388 347.093L406.393 347.098Z" fill="#140625"/>
<path d="M414.378 348.032C414.339 348.032 414.296 348.027 414.258 348.013C414.061 347.946 413.951 347.73 414.018 347.533L416.748 339.482C416.815 339.286 417.031 339.175 417.228 339.242C417.424 339.31 417.535 339.525 417.467 339.722L414.737 347.773C414.685 347.931 414.536 348.032 414.378 348.032Z" fill="#140625"/>
<path d="M399.313 353.181C399.169 353.181 399.025 353.176 398.886 353.162C397.365 353.037 396.214 351.852 396.209 350.408C396.199 348.129 398.325 346.637 402.369 346.08C403.223 345.965 404.116 345.869 405.023 345.797C405.167 345.788 405.301 345.773 405.426 345.759C405.953 345.701 406.505 345.639 406.702 346.138C406.793 346.363 406.769 346.642 406.639 347.069C406.164 348.58 404.96 350.039 404.034 350.993C402.676 352.394 400.978 353.172 399.318 353.172L399.313 353.181ZM405.953 346.479C405.833 346.479 405.651 346.498 405.507 346.517C405.373 346.531 405.229 346.546 405.08 346.56C404.193 346.627 403.315 346.723 402.47 346.838C399.951 347.184 396.957 348.081 396.967 350.408C396.967 351.473 397.807 352.313 398.949 352.409C400.517 352.533 402.168 351.833 403.483 350.475C404.351 349.578 405.478 348.22 405.905 346.853C405.968 346.661 405.982 346.551 405.987 346.488C405.977 346.488 405.963 346.488 405.949 346.488L405.953 346.479Z" fill="#140625"/>
<path d="M409.975 356.649C409.893 356.649 409.812 356.649 409.73 356.64C407.461 356.433 406.175 354.174 406.002 350.1C405.969 349.246 405.954 348.349 405.973 347.433C405.973 347.289 405.973 347.154 405.973 347.03C405.964 346.497 405.954 345.945 406.472 345.792C406.703 345.725 406.976 345.768 407.394 345.945C408.852 346.559 410.191 347.893 411.054 348.91C412.431 350.522 413.036 352.461 412.724 354.236C412.47 355.651 411.313 356.654 409.975 356.654V356.649ZM406.746 346.521C406.732 346.636 406.732 346.847 406.736 347.01C406.736 347.145 406.736 347.289 406.736 347.437C406.722 348.335 406.732 349.217 406.765 350.062C406.871 352.6 407.485 355.67 409.797 355.877C410.848 355.963 411.774 355.224 411.976 354.092C412.254 352.542 411.707 350.829 410.479 349.395C409.668 348.445 408.42 347.193 407.101 346.636C406.914 346.559 406.803 346.531 406.746 346.521Z" fill="#140625"/>
<path d="M368.453 189.807C365.378 164.657 356.862 138.979 332.148 129.642C330.527 129.028 328.876 128.5 327.206 128.044C326.42 127.958 325.633 127.862 324.846 127.795C324.126 133.149 320.077 136.781 315.293 138.911C304.254 143.824 288.061 142.567 283.743 129.426C273.039 131.197 261.615 134.469 252.955 141.277C247.812 145.321 243.777 150.561 240.318 156.068C236.105 162.771 232.051 169.56 229.6 174.507L263.597 185.364C259.49 211.93 258.554 228.103 255.757 254.817L363.799 254.481H370.699C370.425 254.481 370.253 219.971 370.171 216.66C369.979 208.35 369.586 199.115 368.449 189.807H368.453Z" fill="#EF9DD7" stroke="black" stroke-width="0.239891" stroke-miterlimit="10"/>
<path d="M278.412 130.36C278.657 130.36 278.801 130.509 278.81 130.72C279.122 136.17 283.378 140.253 287.259 142.259C296.006 146.783 310.087 146.581 319.309 141.803C325.258 138.718 328.828 134.016 329.634 128.201C329.662 127.995 329.859 127.846 330.061 127.875" stroke="#140625" stroke-width="0.479782" stroke-miterlimit="10"/>
<path d="M274.261 219.299C296.273 197.287 296.273 161.599 274.261 139.587C252.249 117.576 216.561 117.576 194.549 139.587C172.537 161.599 172.537 197.287 194.549 219.299C216.561 241.311 252.249 241.311 274.261 219.299Z" fill="#D7FF7B" stroke="black" stroke-width="0.479782" stroke-miterlimit="10"/>
<path d="M212.602 151.389C212.602 151.389 255.484 160.706 282.942 208.08C283.321 207.451 275.736 228.379 246.92 234.396C246.853 234.41 221.554 202.687 212.602 151.389Z" fill="#6E8DF9" stroke="black" stroke-width="0.239891" stroke-miterlimit="10"/>
<path d="M212.6 151.389C212.6 151.389 191.106 174.956 195.002 219.729C194.517 219.249 169.832 200.576 180.315 163.57C180.44 163.172 190.453 153.941 212.6 151.389Z" fill="#6E8DF9" stroke="black" stroke-width="0.239891" stroke-miterlimit="10"/>
<path d="M212.602 151.936C212.602 151.936 244.094 131.013 282.103 149.384C282.031 149.273 267.172 123.072 234.293 123.072C234.158 123.072 218.939 132.068 212.602 151.936Z" fill="#6E8DF9" stroke="black" stroke-width="0.239891" stroke-miterlimit="10"/>
<path d="M212.602 151.388C212.602 151.388 208.701 143.611 206.868 130.254C206.662 130.369 196.908 135.963 192.177 142.119C192.067 142.244 197.676 145.991 212.597 151.393L212.602 151.388Z" fill="#6E8DF9" stroke="black" stroke-width="0.239891" stroke-miterlimit="10"/>
<path d="M206.339 155.107C207.87 157.592 211.905 157.885 215.354 155.76C218.799 153.634 220.354 149.897 218.823 147.411C217.293 144.926 213.253 144.633 209.808 146.759C206.363 148.884 204.809 152.622 206.339 155.107Z" fill="#6E8DF9" stroke="black" stroke-width="0.239891" stroke-miterlimit="10"/>
<path d="M229.723 228.979C229.522 228.979 229.354 228.821 229.344 228.615C229.335 228.404 229.498 228.226 229.709 228.216C248.353 227.396 262.406 221.701 271.479 211.295C284.097 196.824 282.514 178.046 282.494 177.854C282.475 177.643 282.629 177.46 282.84 177.441C283.051 177.422 283.233 177.575 283.252 177.782C283.272 177.974 284.889 197.059 272.059 211.784C262.843 222.358 248.607 228.144 229.742 228.974C229.738 228.974 229.733 228.974 229.723 228.974V228.979Z" fill="#D7FF7B" stroke="black" stroke-width="0.479782" stroke-miterlimit="10"/>
<path d="M317.614 178.516C315.657 182.345 314.189 185.19 314.189 185.19C314.189 185.19 271.315 176.434 271.301 176.592L261.35 169.424C261.35 169.424 253.928 164.862 252.863 167.251C252.863 167.251 251.827 169.568 257.349 175.69C257.93 176.333 257.397 177.355 256.538 177.235C250.402 176.405 235.442 174.62 231.906 176.41C231.412 176.659 231.134 177.254 231.35 177.768C231.753 178.722 233.509 180.253 239.741 181.99C240.154 182.105 240.086 182.714 239.659 182.7C235.884 182.599 230.011 182.724 226.12 184.144C225.256 184.461 225.05 185.602 225.765 186.183C227.142 187.306 230.289 188.899 237.51 190.218C237.927 190.295 237.908 190.899 237.486 190.933C234.727 191.158 230.932 191.633 228.975 192.631C228.183 193.034 228.116 194.167 228.84 194.675C230.251 195.664 233.322 197.223 239.583 198.355C239.899 198.413 239.899 198.864 239.583 198.897C237.448 199.113 234.478 199.651 232.938 200.994C232.127 201.699 232.29 203.033 233.235 203.546C234.905 204.448 238.686 205.451 246.991 204.424L267.693 207.874C268.432 208.032 296.989 218.424 302.127 220.454C312.606 224.59 327.248 227.435 337.29 219.206C341.613 215.666 346.435 206.003 350.623 196.642C342.592 192.305 326.567 183.611 317.614 178.511V178.516Z" fill="white" stroke="black" stroke-width="0.239891" stroke-miterlimit="10"/>
<path d="M351.014 193.951C351.014 193.951 350.971 193.951 350.947 193.946C347.943 193.409 344.585 192.598 342.733 189.786C342.258 189.062 341.888 188.251 341.639 187.397C341.505 187.392 341.365 187.382 341.226 187.378C338.597 187.205 336.433 186.433 334.788 185.08C332.465 183.17 331.923 180.253 331.405 177.427C331.218 176.4 331.036 175.431 330.777 174.52C329.899 171.435 328.603 167.903 325.657 165.058C325.504 164.914 325.504 164.674 325.648 164.521C325.797 164.372 326.036 164.367 326.185 164.511C329.265 167.481 330.604 171.132 331.511 174.313C331.779 175.263 331.971 176.295 332.154 177.293C332.648 179.979 333.161 182.762 335.272 184.494C336.793 185.742 338.813 186.457 341.279 186.62C341.337 186.62 341.394 186.629 341.452 186.629C340.934 183.99 341.605 181.117 343.995 179.327C345.089 178.507 346.686 178.065 347.795 178.924C348.452 179.437 348.802 180.301 348.84 181.491C348.874 182.661 348.653 183.679 348.183 184.523C347.569 185.631 346.466 186.5 345.089 186.975C344.302 187.243 343.424 187.387 342.431 187.406C342.656 188.107 342.968 188.769 343.366 189.369C345.05 191.931 348.097 192.665 351.076 193.197C351.283 193.236 351.422 193.433 351.383 193.639C351.35 193.821 351.191 193.951 351.009 193.951H351.014ZM346.37 179.221C345.717 179.221 344.997 179.528 344.455 179.936C342.277 181.572 341.706 184.23 342.234 186.653C343.227 186.648 344.091 186.514 344.849 186.255C346.048 185.842 346.998 185.099 347.526 184.154C347.929 183.434 348.116 182.546 348.087 181.515C348.068 180.857 347.919 179.979 347.334 179.524C347.056 179.308 346.725 179.217 346.37 179.217V179.221Z" fill="white"/>
<path d="M327.604 158.398C327.494 159.118 321.549 170.815 317.615 178.516C326.568 183.616 342.593 192.305 350.624 196.647C354.698 187.54 357.538 179.288 356.871 178.9" fill="#EF9DD7"/>
<path d="M327.604 158.398C327.494 159.118 321.549 170.815 317.615 178.516C326.568 183.616 342.593 192.305 350.624 196.647C354.698 187.54 357.538 179.288 356.871 178.9" stroke="black" stroke-width="0.239891" stroke-miterlimit="10"/>
<path d="M137.295 11.7715L174.931 26.8214L183.316 39.7287L138.58 21.6644L137.295 11.7715Z" fill="#E745A0" stroke="black" stroke-width="0.738827" stroke-miterlimit="10"/>
<path d="M190.947 1L218.498 11.1145L225.827 23.7189L198.86 13.3089L190.947 1Z" fill="#E745A0" stroke="black" stroke-width="0.738827" stroke-miterlimit="10"/>
<path d="M225.828 23.7183L194.612 76.9138L127.054 49.0675L138.58 21.6644L127.054 49.0675L125 37.9333L137.294 11.7715L174.93 26.8214L183.316 39.7287L198.86 13.3082" fill="#E745A0"/>
<path d="M225.828 23.7183L194.612 76.9138L127.054 49.0675L138.58 21.6644L127.054 49.0675L125 37.9333L137.294 11.7715L174.93 26.8214L183.316 39.7287L198.86 13.3082" stroke="black" stroke-width="0.738827" stroke-miterlimit="10"/>
<path d="M174.93 26.822L190.947 1L198.86 13.3089L183.315 39.7293L174.93 26.822Z" fill="#E745A0" stroke="black" stroke-width="0.738827" stroke-miterlimit="10"/>
<path d="M137.293 11.7715L138.579 21.6644L183.314 39.7287L174.929 26.8214L137.293 11.7715Z" fill="#E745A0" stroke="black" stroke-width="0.738827" stroke-miterlimit="10"/>
</svg>
