<svg width="226" height="160" viewBox="0 0 226 160" fill="none" xmlns="http://www.w3.org/2000/svg">
<g clip-path="url(#clip0_74_26)">
<path d="M23.8193 21.2441L95.5874 49.9528L111.58 74.5531L26.2786 40.1084L23.8193 21.2441Z" fill="#E745A0" stroke="black" stroke-width="0.723323" stroke-miterlimit="10"/>
<path d="M126.126 0.708984L178.661 19.9928L192.636 44.0216L141.215 24.1808L126.126 0.708984Z" fill="#E745A0" stroke="black" stroke-width="0.723323" stroke-miterlimit="10"/>
<path d="M192.636 44.0216L133.113 145.46L4.28949 92.3685L26.2785 40.1084L4.28949 92.3685L0.376308 71.1317L23.8192 21.2441L95.5873 49.9528L111.58 74.5531L141.215 24.1808" fill="#E745A0"/>
<path d="M192.636 44.0216L133.113 145.46L4.28949 92.3685L26.2785 40.1084L4.28949 92.3685L0.376308 71.1317L23.8192 21.2441L95.5873 49.9528L111.58 74.5531L141.215 24.1808" stroke="black" stroke-width="0.723323" stroke-miterlimit="10"/>
<path d="M95.5872 49.9528L126.126 0.708984L141.214 24.1808L111.58 74.553L95.5872 49.9528Z" fill="#E745A0" stroke="black" stroke-width="0.723323" stroke-miterlimit="10"/>
<path d="M23.8192 21.2441L26.2785 40.1084L111.58 74.5531L95.5873 49.9528L23.8192 21.2441Z" fill="#E745A0" stroke="black" stroke-width="0.723323" stroke-miterlimit="10"/>
</g>
<path d="M96.4306 158.957C102.744 158.957 107.861 153.818 107.861 147.479C107.861 141.139 102.744 136 96.4306 136C90.1177 136 85 141.139 85 147.479C85 153.818 90.1177 158.957 96.4306 158.957Z" fill="#D7FF7B" stroke="black" stroke-width="0.465036" stroke-miterlimit="10"/>
<path d="M221.12 83.275C223.396 83.275 225.24 81.4226 225.24 79.1375C225.24 76.8524 223.396 75 221.12 75C218.845 75 217 76.8524 217 79.1375C217 81.4226 218.845 83.275 221.12 83.275Z" fill="#F04194" stroke="black" stroke-width="0.465036" stroke-miterlimit="10"/>
<defs>
<clipPath id="clip0_74_26">
<rect width="193.46" height="145.916" fill="white"/>
</clipPath>
</defs>
</svg>
