<svg width="91" height="183" viewBox="0 0 91 183" fill="none" xmlns="http://www.w3.org/2000/svg">
<path fill-rule="evenodd" clip-rule="evenodd" d="M50.2801 89.4144C51.442 93.9806 50.6469 98.5773 48.4148 102.328C46.1827 106.079 42.5236 108.974 37.9676 110.135C33.4014 111.297 28.8048 110.502 25.054 108.27C21.3032 106.038 18.4084 102.379 17.2465 97.8231C12.2624 78.2436 30.466 88.0181 17.2873 76.0319C15.3406 74.2584 13.8728 71.9142 13.1797 69.1724C9.39839 54.312 22.8116 60.7535 13.5366 51.6823C12.1606 50.337 11.1311 48.6144 10.6215 46.6065C9.88761 43.7017 10.3872 40.7765 11.8039 38.3915C13.2207 36.0065 15.5443 34.1617 18.4491 33.4278C21.3539 32.694 24.2792 33.1934 26.6642 34.6203C29.0492 36.0371 30.8942 38.3609 31.628 41.2658C32.1376 43.2635 32.0559 45.2815 31.4852 47.1162C27.6732 59.5101 36.3775 47.4525 40.1589 62.3028C40.852 65.0445 40.689 67.8066 39.8227 70.2936C33.9825 87.1313 45.2858 69.8451 50.2699 89.4246L50.2801 89.4144Z" fill="#1FFFB4" stroke="black" stroke-width="1.01924" stroke-miterlimit="10"/>
<path fill-rule="evenodd" clip-rule="evenodd" d="M20.5577 43.8248C20.4558 43.4273 20.7004 43.0196 21.0979 42.9177C21.4954 42.8157 21.903 43.0604 22.0049 43.4579L26.2757 60.2345L29.955 56.6468C30.2506 56.3614 30.7195 56.3716 31.0049 56.657C31.2902 56.9525 31.28 57.4214 30.9845 57.7068L26.6833 61.8958L30.2506 75.9001L35.2958 70.9772C35.5914 70.6918 36.0603 70.702 36.3456 70.9976C36.631 71.2932 36.6208 71.762 36.3252 72.0474L30.6684 77.5615L35.4182 96.2135L42.2267 89.5681C42.5222 89.2827 42.9911 89.2827 43.2765 89.5783C43.5619 89.8738 43.5619 90.3427 43.2663 90.6281L35.836 97.8748L44.5709 132.192C44.6729 132.59 44.4282 132.998 44.0307 133.1C43.6332 133.202 43.2256 132.957 43.1237 132.559L32.0241 88.9158L24.4206 86.7754C24.0231 86.6632 23.7887 86.2556 23.9008 85.8581C24.0129 85.4606 24.4205 85.2363 24.818 85.3382L31.6063 87.2442L27.1419 69.7134L21.3629 68.0826C20.9654 67.9705 20.731 67.5628 20.8431 67.1653C20.9552 66.7678 21.3628 66.5333 21.7603 66.6455L26.7139 68.0418L22.4128 51.1531L16.6338 49.5223C16.2363 49.4102 16.0019 49.0025 16.114 48.605C16.2261 48.2075 16.6337 47.9731 17.0312 48.0852L21.9848 49.4815L20.5373 43.784L20.5577 43.8248Z" fill="black"/>
<path fill-rule="evenodd" clip-rule="evenodd" d="M75.9736 107.823C74.3021 111.594 71.2748 114.326 67.7075 115.712C64.1504 117.088 60.0531 117.108 56.2921 115.437C52.521 113.765 49.7894 110.738 48.4135 107.171C47.0375 103.614 47.0171 99.5162 48.6887 95.7553C55.8437 79.5698 63.0903 96.1528 60.5015 80.7623C60.1243 78.4894 60.3793 76.084 61.3781 73.8213C66.8106 61.5395 72.5693 73.2302 71.0812 61.9676C70.8672 60.2961 71.0812 58.5532 71.8151 56.8918C72.8751 54.4966 74.8115 52.7537 77.0742 51.8772C79.3369 51.0006 81.9361 50.9905 84.3415 52.0505C86.7367 53.1105 88.4795 55.0368 89.3561 57.3097C90.2326 59.5724 90.2429 62.1816 89.1829 64.5769C88.449 66.228 87.3075 67.5734 85.9214 68.5315C76.5954 75.0036 89.1114 71.4057 83.6788 83.6875C82.68 85.9502 81.0696 87.7645 79.1331 89.0079C66.0054 97.437 83.1389 91.6477 75.9838 107.833L75.9736 107.823Z" fill="#1FFFB4" stroke="black" stroke-width="1.01924" stroke-miterlimit="10"/>
<path fill-rule="evenodd" clip-rule="evenodd" d="M80.1641 60.3469C80.3067 60.0208 80.6941 59.8679 81.0305 60.0106C81.3567 60.1533 81.5096 60.5406 81.3669 60.8769L75.2311 74.7385L79.7054 74.2595C80.0622 74.2187 80.3883 74.4837 80.4189 74.8404C80.4596 75.1972 80.1948 75.5233 79.8381 75.5539L74.6195 76.1145L69.5029 87.6828L75.6387 87.0203C75.9954 86.9795 76.3215 87.2445 76.3521 87.6012C76.3929 87.958 76.1278 88.2841 75.7711 88.3147L68.8912 89.0588L62.0726 104.48L70.3591 103.593C70.7159 103.552 71.042 103.817 71.0828 104.174C71.1235 104.531 70.8585 104.857 70.5017 104.898L61.4612 105.866L48.9144 134.221C48.7717 134.547 48.3843 134.7 48.0479 134.557C47.7218 134.415 47.5691 134.027 47.7118 133.691L63.6627 97.6305L59.5755 92.0451C59.3615 91.7597 59.4226 91.3418 59.7181 91.138C60.0035 90.924 60.4114 90.9851 60.6254 91.2807L64.2641 96.2648L70.6749 81.7712L67.5766 77.5312C67.3626 77.2458 67.4236 76.8381 67.7192 76.6241C68.0046 76.4101 68.4124 76.4712 68.6265 76.7668L71.2866 80.4054L77.4632 66.4521L74.3647 62.2121C74.1506 61.9267 74.2117 61.519 74.5072 61.305C74.7926 61.091 75.2107 61.1521 75.4145 61.4477L78.0746 65.0863L80.1538 60.3775L80.1641 60.3469Z" fill="black"/>
<path fill-rule="evenodd" clip-rule="evenodd" d="M66.7743 87.1115C66.3972 93.5327 63.4514 99.1895 58.9974 103.144C54.5433 107.099 48.5706 109.361 42.1596 108.984C35.7384 108.607 30.0817 105.662 26.127 101.208C22.1724 96.7535 19.9097 90.791 20.2869 84.3698C21.9176 56.8097 41.5585 77.0822 29.3684 56.0045C27.5745 52.8958 26.6264 49.2367 26.8609 45.3738C28.0941 24.4693 42.8935 38.4023 34.5765 22.757C33.3433 20.4332 32.7114 17.7628 32.8745 14.9395C33.1191 10.8523 34.9944 7.25445 37.8279 4.73694C40.6613 2.21943 44.4529 0.782305 48.54 1.02692C52.6272 1.27154 56.2251 3.14692 58.7426 5.98039C61.2601 8.81386 62.6973 12.6054 62.4527 16.6926C62.2897 19.5057 61.3417 22.0945 59.8434 24.2553C49.7428 38.81 66.0811 26.7218 64.8376 47.6263C64.6134 51.4892 63.2476 55.0056 61.0869 57.89C46.5016 77.388 68.3949 59.5718 66.7641 87.1217L66.7743 87.1115Z" fill="#1FFFB4" stroke="black" stroke-width="1.01924" stroke-miterlimit="10"/>
<path fill-rule="evenodd" clip-rule="evenodd" d="M46.9691 15.4186C46.9997 14.858 47.4887 14.4299 48.0493 14.4605C48.6099 14.4911 49.0382 14.9803 49.0076 15.5409L47.6111 39.1566L53.8997 36.0072C54.3991 35.7625 55.0108 35.9664 55.2656 36.4658C55.5102 36.9652 55.3064 37.5768 54.807 37.8316L47.4787 41.5008L46.3167 61.2128L54.9291 56.9015C55.4286 56.6569 56.0402 56.8607 56.295 57.3601C56.5396 57.8596 56.3358 58.4711 55.8364 58.7259L46.1843 63.5673L44.635 89.8228L56.2542 83.9928C56.7536 83.7379 57.3653 83.9418 57.6201 84.4412C57.8749 84.9406 57.6708 85.5522 57.1714 85.807L44.4922 92.1568L41.6383 140.448C41.6077 141.009 41.1187 141.437 40.5581 141.406C39.9975 141.376 39.5692 140.886 39.5998 140.326L43.2283 78.9068L34.2083 72.9646C33.7394 72.6589 33.6069 72.0269 33.9126 71.5581C34.2184 71.0892 34.8502 70.9567 35.3191 71.2625L43.361 76.5625L44.8184 51.8868L37.9692 47.3716C37.5003 47.0659 37.3678 46.4339 37.6736 45.9651C37.9793 45.4962 38.6111 45.3637 39.08 45.6695L44.9508 49.5324L46.3575 25.7638L39.5082 21.2588C39.0394 20.9531 38.9068 20.3211 39.2126 19.8523C39.5184 19.3834 40.1502 19.2509 40.619 19.5567L46.4898 23.4196L46.9589 15.4084L46.9691 15.4186Z" fill="black"/>
<path fill-rule="evenodd" clip-rule="evenodd" d="M36.8073 105.274C38.0813 108.892 37.7656 112.694 36.2163 115.894C34.6773 119.105 31.9151 121.724 28.2866 122.988C24.6684 124.262 20.8667 123.946 17.6663 122.397C14.4557 120.858 11.8361 118.096 10.5722 114.467C5.1193 98.9137 20.6015 105.549 9.03315 96.7529C7.32083 95.4483 5.96524 93.6544 5.20082 91.4733C1.06272 79.6705 12.4272 83.9411 4.23259 77.2345C3.0197 76.2357 2.0515 74.9107 1.50111 73.3207C0.695915 71.0172 0.88944 68.6016 1.8781 66.5631C2.85656 64.5247 4.62004 62.8531 6.92351 62.0479C9.22698 61.2427 11.6425 61.4364 13.6809 62.4251C15.7194 63.4035 17.3909 65.1668 18.1961 67.4703C18.7566 69.0603 18.828 70.7012 18.5019 72.2301C16.3003 82.5753 22.5075 72.1485 26.6456 83.9513C27.41 86.1325 27.4712 88.385 26.9514 90.4642C23.4146 104.56 31.3646 89.6998 36.8175 105.253L36.8073 105.274Z" fill="#1FFFB4" stroke="black" stroke-width="1.01924" stroke-miterlimit="10"/>
<path fill-rule="evenodd" clip-rule="evenodd" d="M9.37162 70.3655C9.2595 70.0495 9.43289 69.703 9.74885 69.5908C10.0648 69.4787 10.4114 69.652 10.5235 69.968L15.2016 83.2894L17.9331 80.1094C18.1471 79.8546 18.5345 79.824 18.7893 80.0482C19.0441 80.2724 19.0748 80.6496 18.8506 80.9044L15.6602 84.6144L19.564 95.7342L23.3147 91.3719C23.5287 91.1171 23.9161 91.0865 24.1709 91.3107C24.4257 91.5248 24.4462 91.9121 24.2321 92.1669L20.0328 97.0592L25.231 111.879L30.2863 105.988C30.5004 105.733 30.8878 105.702 31.1426 105.916C31.3974 106.13 31.4278 106.518 31.2036 106.773L25.6896 113.194L35.2501 140.448C35.3623 140.764 35.1889 141.111 34.8729 141.223C34.5569 141.335 34.2104 141.162 34.0983 140.846L21.9389 106.181L15.5993 104.989C15.2731 104.928 15.0489 104.612 15.11 104.286C15.1712 103.959 15.4871 103.735 15.8133 103.796L21.4599 104.856L16.5777 90.9336L11.7669 90.0265C11.4408 89.9654 11.2166 89.6494 11.2777 89.3232C11.3389 88.9971 11.6548 88.7729 11.9809 88.834L16.1089 89.6086L11.3999 76.1955L6.58912 75.2884C6.26297 75.2272 6.03876 74.9113 6.09991 74.5851C6.16107 74.259 6.47697 74.0347 6.80312 74.0959L10.9209 74.8705L9.33081 70.3451L9.37162 70.3655Z" fill="black"/>
<path fill-rule="evenodd" clip-rule="evenodd" d="M69.4941 130.337C74.6311 136.626 77.4034 144.423 77.4034 152.546C77.4034 164.461 71.4002 175.489 61.4422 181.982C60.9734 182.288 60.5046 182.43 59.944 182.43H24.6273C24.077 182.43 23.598 182.288 23.1291 181.982C13.1712 175.489 7.16797 164.461 7.16797 152.546C7.16797 144.423 9.9403 136.626 15.0772 130.337C15.6174 129.675 16.3511 129.328 17.1971 129.328H67.3539C68.1998 129.328 68.9335 129.675 69.4737 130.337H69.4941Z" fill="white" stroke="black" stroke-width="1.01924" stroke-miterlimit="10"/>
</svg>
