<svg width="346" height="259" viewBox="0 0 346 259" fill="none" xmlns="http://www.w3.org/2000/svg">
<g clip-path="url(#clip0_223_4826)">
<path fill-rule="evenodd" clip-rule="evenodd" d="M97.3703 112.196L98.1882 116.101C99.1849 116.405 100.154 116.806 101.07 117.299L104.412 115.116C106.546 116.54 108.377 118.371 109.802 120.505L107.619 123.847C108.112 124.768 108.512 125.732 108.816 126.729L112.721 127.547C113.22 130.066 113.22 132.655 112.721 135.168L108.816 135.986C108.512 136.983 108.112 137.952 107.619 138.868L109.802 142.21C108.377 144.344 106.546 146.175 104.412 147.599L101.07 145.417C100.149 145.909 99.1849 146.31 98.1882 146.614L97.3703 150.519C94.8516 151.017 92.2624 151.017 89.749 150.519L88.9311 146.614C87.9345 146.31 86.9649 145.909 86.0494 145.417L82.7074 147.599C80.5732 146.175 78.7423 144.344 77.3178 142.21L79.5007 138.868C79.0078 137.947 78.6069 136.983 78.3036 135.986L74.3982 135.168C73.8998 132.649 73.8998 130.06 74.3982 127.547L78.3036 126.729C78.6069 125.732 79.0078 124.763 79.5007 123.847L77.3178 120.505C78.7423 118.371 80.5732 116.54 82.7074 115.116L86.0494 117.299C86.9703 116.806 87.9345 116.405 88.9311 116.101L89.749 112.196C92.2678 111.698 94.857 111.698 97.3703 112.196ZM93.5624 125.749C90.464 125.749 87.9453 128.262 87.9453 131.366C87.9453 134.469 90.4586 136.983 93.5624 136.983C96.6661 136.983 99.1795 134.469 99.1795 131.366C99.1795 128.262 96.6661 125.749 93.5624 125.749ZM286.017 131.664L286.581 134.128C287.274 134.372 287.935 134.692 288.558 135.082L290.838 133.987C292.252 135.114 293.389 136.544 294.175 138.169L292.604 140.146C292.848 140.839 293.01 141.554 293.091 142.286L295.366 143.385C295.366 145.189 294.96 146.977 294.175 148.602H291.651C291.261 149.224 290.8 149.804 290.286 150.319L290.843 152.783C289.43 153.91 287.783 154.701 286.023 155.107L284.446 153.135C283.715 153.217 282.984 153.217 282.253 153.135L280.676 155.107C278.916 154.706 277.269 153.91 275.855 152.783L276.413 150.319C275.893 149.799 275.438 149.224 275.048 148.602H272.524C271.739 146.971 271.333 145.189 271.333 143.38L273.608 142.28C273.689 141.549 273.851 140.834 274.095 140.141L272.524 138.164C273.31 136.539 274.447 135.109 275.861 133.982L278.141 135.076C278.764 134.686 279.425 134.367 280.118 134.123L280.682 131.658C282.442 131.257 284.273 131.257 286.033 131.658L286.017 131.664ZM283.341 139.929C281.435 139.929 279.885 141.479 279.885 143.385C279.885 145.292 281.435 146.841 283.341 146.841C285.248 146.841 286.797 145.292 286.797 143.385C286.797 141.479 285.248 139.929 283.341 139.929Z" fill="#F6EBFF" stroke="black" stroke-width="0.541668" stroke-miterlimit="10"/>
<path fill-rule="evenodd" clip-rule="evenodd" d="M62.898 146.737C59.4692 146.228 55.9809 146.228 52.5521 146.737L51.3929 153.335C51.3604 153.524 51.2196 153.676 51.03 153.719C49.5729 154.072 48.1429 154.532 46.7562 155.106C46.5775 155.182 46.3771 155.139 46.2362 155.009L41.4208 150.35C38.3496 151.954 35.5275 154.001 33.052 156.433L35.9933 162.451C36.08 162.624 36.0529 162.83 35.9283 162.977C34.9533 164.119 34.0704 165.333 33.2904 166.611C33.1929 166.774 33.0033 166.86 32.8137 166.839L26.1783 165.902C24.6345 169.005 23.5566 172.32 22.9824 175.738L28.9029 178.88C29.0708 178.972 29.1737 179.151 29.1574 179.34C29.0383 180.835 29.0383 182.336 29.1574 183.831C29.1737 184.02 29.0708 184.205 28.9029 184.291L22.9824 187.433C23.5566 190.851 24.6345 194.166 26.1783 197.27L32.8137 196.333C33.0033 196.305 33.1929 196.392 33.2904 196.56C34.0758 197.838 34.9587 199.052 35.9283 200.195C36.0529 200.341 36.08 200.547 35.9933 200.72L33.052 206.738C35.5275 209.165 38.3496 211.212 41.4208 212.821L46.2362 208.163C46.3717 208.027 46.5775 207.989 46.7562 208.065C48.1429 208.639 49.5675 209.105 51.03 209.452C51.2142 209.495 51.3604 209.647 51.3929 209.836L52.5521 216.434C55.9809 216.943 59.4692 216.943 62.898 216.434L64.0571 209.836C64.0896 209.647 64.2305 209.495 64.4201 209.452C65.8771 209.1 67.3071 208.639 68.6938 208.065C68.8726 207.989 69.073 208.033 69.2138 208.163L74.0293 212.821C77.1005 211.218 79.9226 209.17 82.398 206.738L79.4568 200.72C79.3701 200.547 79.3972 200.341 79.5218 200.195C80.4968 199.052 81.3797 197.838 82.1597 196.56C82.2572 196.398 82.4468 196.311 82.6364 196.333L89.2718 197.27C90.8156 194.166 91.8935 190.851 92.4676 187.433L86.5472 184.291C86.3793 184.199 86.2764 184.02 86.2926 183.831C86.4118 182.336 86.4118 180.835 86.2926 179.34C86.2764 179.151 86.3793 178.967 86.5472 178.88L92.4676 175.738C91.8935 172.32 90.8156 169.005 89.2718 165.902L82.6364 166.839C82.4468 166.866 82.2572 166.779 82.1597 166.611C81.3743 165.333 80.4914 164.119 79.5218 162.977C79.3972 162.83 79.3701 162.624 79.4568 162.451L82.398 156.433C79.9226 154.007 77.1005 151.959 74.0293 150.35L69.2138 155.009C69.0784 155.144 68.8726 155.182 68.6938 155.106C67.3071 154.532 65.8826 154.066 64.4201 153.719C64.2359 153.676 64.0896 153.524 64.0571 153.335L62.898 146.737ZM55.9484 172.017C61.2296 172.017 65.5196 176.307 65.5196 181.588C65.5196 186.87 61.2296 191.16 55.9484 191.16C50.6671 191.16 46.3771 186.87 46.3771 181.588C46.3771 176.307 50.6671 172.017 55.9484 172.017Z" fill="#F6EBFF" stroke="black" stroke-width="0.541668" stroke-miterlimit="10"/>
<path fill-rule="evenodd" clip-rule="evenodd" d="M156.888 1.35313C156.85 1.35313 156.806 1.34771 156.769 1.3423C172.862 0.416045 208.644 3.46564 217.993 7.71773C227.343 11.9698 234.785 17.4894 240.315 24.2928C245.846 31.0961 249.816 38.4358 252.232 46.3279C254.648 54.22 255.753 61.9279 255.553 69.4571C255.152 78.6871 253.44 86.9422 250.423 94.2276C247.406 101.513 243.685 108.251 239.265 114.443C234.839 120.634 230.316 126.706 225.69 132.654C221.065 138.601 216.991 144.614 213.476 150.686C209.955 156.758 207.593 163.193 206.385 169.991C205.985 172.174 206.152 202.94 206.152 202.94H178.024C178.024 202.94 177.85 172.179 178.257 169.991C179.464 163.193 181.826 156.758 185.347 150.686C188.868 144.614 192.936 138.606 197.562 132.654C202.187 126.701 206.71 120.634 211.136 114.443C215.561 108.251 219.283 101.513 222.294 94.2276C225.311 86.9422 227.018 78.6871 227.424 69.4571C227.624 61.9279 226.519 54.22 224.103 46.3279C221.688 38.4358 217.717 31.0907 212.187 24.2928C206.656 17.4949 199.214 11.9698 189.864 7.71773C180.873 3.62814 169.877 1.51021 156.882 1.35313H156.888ZM166.448 45.602C163.323 46.9454 160.528 48.8033 158.117 51.2462C141.499 68.0921 150.274 94.5905 150.274 94.5905H122.145C122.145 94.5905 113.37 68.0921 129.988 51.2462C135.768 45.3908 143.763 42.8666 153.215 42.8666C157.803 42.8666 162.212 43.7766 166.443 45.602H166.448ZM178.105 215.615H206.234V249.351H178.105V215.615Z" fill="#EF9DD7" stroke="black" stroke-width="0.541668" stroke-miterlimit="10"/>
<path fill-rule="evenodd" clip-rule="evenodd" d="M206.386 169.991C205.985 172.174 206.153 202.941 206.153 202.941H178.024C178.024 202.941 177.851 172.18 178.257 169.991H206.386ZM178.105 215.616H206.234V249.351H178.105V215.616ZM119.887 76.2015C120.25 68.0873 122.622 58.7218 129.994 51.2468C135.774 45.3914 143.769 42.8672 153.221 42.8672C157.809 42.8672 162.218 43.7772 166.449 45.6026C163.513 46.8647 160.864 48.5872 158.556 50.8135C150.106 49.7843 143.168 50.6997 136.743 54.2422C123.857 61.3489 119.887 76.2015 119.887 76.2015Z" fill="#DF64C1" stroke="black" stroke-width="0.541668" stroke-miterlimit="10"/>
<path fill-rule="evenodd" clip-rule="evenodd" d="M150.279 94.5918H122.15L82.1807 109.163H110.31L150.279 94.5918Z" fill="#642E44"/>
<path d="M132.929 202.936C132.929 202.936 133.011 174.482 133.011 172.538C133.812 163.069 135.979 154.63 139.494 147.22C143.015 139.815 147.137 133.012 151.861 126.821C156.584 120.63 161.313 114.742 166.036 109.157C170.76 103.572 174.784 98.0474 178.105 92.5819C181.425 87.1165 183.386 81.4723 183.987 75.644C184.588 68.6023 183.435 62.6548 180.52 57.796C177.606 52.9372 173.685 49.2376 168.755 46.6864C163.826 44.1351 158.648 42.8622 153.22 42.8622C143.768 42.8622 135.773 45.3809 129.994 51.2418C113.375 68.0877 122.15 94.5861 122.15 94.5861L82.1805 109.157C74.868 94.7919 74.635 68.1256 82.1805 49.6005C85.8259 40.6468 90.8255 32.2997 97.5639 25.0142C104.302 17.7288 112.498 11.96 122.15 7.71333C131.803 3.46123 142.864 1.33789 155.333 1.33789C169.005 1.33789 180.52 3.46123 189.87 7.71333C199.219 11.9654 206.661 17.485 212.192 24.2884C217.722 31.0863 221.693 38.4313 224.108 46.3234C226.524 54.2156 227.629 61.9235 227.429 69.4527C227.028 78.6827 225.316 86.9378 222.299 94.2232C219.282 101.509 215.561 108.247 211.141 114.438C206.715 120.63 202.193 126.702 197.567 132.649C192.941 138.597 188.867 144.609 185.352 150.681C181.831 156.753 179.47 163.188 178.262 169.986C177.861 172.169 178.029 202.936 178.029 202.936H132.935H132.929ZM178.105 249.352H133.011V215.617H178.105V249.352Z" fill="#EF9DD7" stroke="black" stroke-width="0.541668" stroke-miterlimit="10"/>
<path fill-rule="evenodd" clip-rule="evenodd" d="M88.8647 106.723L82.1805 109.161C74.868 94.7959 74.635 68.1295 82.1805 49.6045C85.8259 40.6507 90.8255 32.3036 97.5639 25.0181C104.302 17.7327 112.498 11.9639 122.15 7.71723C131.803 3.46514 142.864 1.3418 155.333 1.3418C160.901 1.3418 166.107 1.69388 170.955 2.39805C116.891 7.17015 73.985 37.5957 88.8647 105.954V106.723Z" fill="#FFA994"/>
<path d="M226.817 54.8108C225.046 45.727 221.476 37.0169 216.439 29.2603C213.877 25.3169 210.941 21.6227 207.669 18.2536C204.917 15.4206 201.456 14.2669 198.13 12.2194C181.831 2.18767 161.882 -1.78276 142.988 1.2885C141.667 1.50517 140.35 1.75434 139.04 2.036C117.086 6.80269 97.4232 21.2923 86.3732 40.8574C75.3232 60.4224 73.059 84.7379 80.3119 106.004C80.6478 106.984 81.054 108.03 81.9315 108.577C83.1232 109.324 84.6724 108.864 85.9995 108.387C98.1328 104.021 110.272 99.6555 122.405 95.2896C119.659 80.7567 119.296 64.0245 129.268 53.1045C136.608 45.0607 148.524 42.022 159.201 44.1507C167.531 45.8136 175.456 50.6237 179.665 58.0012C186.029 69.1487 182.774 83.5517 176.068 94.4988C169.362 105.441 159.645 114.188 151.937 124.448C135.199 146.721 128.618 176.052 132.946 203.575C148.313 203.575 163.686 203.575 179.053 203.575C175.575 183.695 179.345 162.624 189.507 145.188C198.569 129.637 212.36 117.119 220.452 101.042C227.548 86.9425 229.834 70.4704 226.849 54.9733C226.839 54.9191 226.828 54.8649 226.817 54.8108Z" fill="#DF64C1" stroke="black" stroke-width="0.541668" stroke-miterlimit="10"/>
<path fill-rule="evenodd" clip-rule="evenodd" d="M45.9435 110.694C47.3735 110.694 48.7439 110.125 49.7568 109.118C51.5443 107.33 54.0089 106.225 56.7335 106.225C62.1773 106.225 66.5919 110.645 66.5919 116.084C66.5919 121.522 62.1718 125.942 56.7335 125.942C53.7056 125.942 50.9918 124.572 49.1935 122.41C48.7005 121.814 47.9639 121.473 47.1947 121.473H45.9489V138.709H28.713C28.713 140.139 29.2817 141.51 30.2892 142.522C32.0767 144.31 33.1817 146.775 33.1817 149.499C33.1817 154.943 28.7617 159.357 23.3234 159.357C17.885 159.357 13.465 154.937 13.465 149.499C13.465 146.471 14.8354 143.757 16.9967 141.959C17.5925 141.466 17.9338 140.73 17.9338 139.96V138.714H0.681641V99.4706C0.681641 97.8727 1.31539 96.3452 2.44206 95.2185C3.56873 94.0919 5.10165 93.4581 6.69416 93.4581H45.938V110.694H45.9435ZM279.013 114.681V97.4448C280.443 97.4448 281.813 98.0135 282.826 99.021C284.613 100.809 287.078 101.914 289.803 101.914C295.246 101.914 299.661 97.4935 299.661 92.0552C299.661 86.6168 295.241 82.1968 289.803 82.1968C286.775 82.1968 284.061 83.5672 282.263 85.7285C281.77 86.3243 281.033 86.6656 280.264 86.6656H279.018V69.4297H318.197C319.795 69.4297 321.322 70.0634 322.449 71.1901C323.576 72.3168 324.209 73.8497 324.209 75.4422V114.686H306.973C306.973 116.116 307.542 117.487 308.55 118.499C310.337 120.287 311.442 122.752 311.442 125.476C311.442 130.92 307.022 135.334 301.584 135.334C296.146 135.334 291.725 130.914 291.725 125.476C291.725 122.448 293.096 119.734 295.257 117.936C295.853 117.443 296.194 116.707 296.194 115.937V114.692H279.018L279.013 114.681ZM143.579 212.506V229.742C142.149 229.742 140.779 229.173 139.766 228.166C137.978 226.378 135.514 225.273 132.789 225.273C127.345 225.273 122.931 229.693 122.931 235.131C122.931 240.57 127.351 244.99 132.789 244.99C135.817 244.99 138.531 243.619 140.329 241.458C140.822 240.862 141.559 240.521 142.328 240.521H143.574V257.757H104.395C102.797 257.757 101.269 257.123 100.143 255.997C99.0161 254.87 98.3824 253.337 98.3824 251.744V212.501H115.618C115.618 211.071 115.05 209.7 114.042 208.687C112.255 206.9 111.149 204.435 111.149 201.711C111.149 196.267 115.57 191.852 121.008 191.852C126.446 191.852 130.866 196.272 130.866 201.711C130.866 204.738 129.496 207.452 127.335 209.251C126.739 209.743 126.397 210.48 126.397 211.249V212.495H143.574L143.579 212.506ZM299.32 184.485V167.25H316.556C316.556 168.68 315.987 170.05 314.979 171.063C313.192 172.85 312.087 175.315 312.087 178.04C312.087 183.483 316.507 187.898 321.945 187.898C327.384 187.898 331.804 183.478 331.804 178.04C331.804 175.012 330.433 172.298 328.272 170.5C327.676 170.007 327.335 169.27 327.335 168.501V167.255H344.571V206.499C344.571 208.097 343.937 209.624 342.81 210.751C341.684 211.878 340.151 212.511 338.558 212.511H299.314V195.276C297.884 195.276 296.514 195.844 295.501 196.852C293.713 198.639 291.249 199.744 288.524 199.744C283.08 199.744 278.666 195.324 278.666 189.886C278.666 184.448 283.086 180.028 288.524 180.028C291.552 180.028 294.266 181.398 296.064 183.559C296.557 184.155 297.294 184.496 298.063 184.496H299.309L299.32 184.485Z" fill="#639CFF" stroke="black" stroke-width="0.406251" stroke-miterlimit="10"/>
<path fill-rule="evenodd" clip-rule="evenodd" d="M46.4262 110.191C47.5528 110.083 48.6091 109.584 49.4162 108.777C51.2904 106.903 53.8741 105.744 56.7287 105.744C62.4379 105.744 67.0692 110.381 67.0692 116.084C67.0692 121.788 62.4325 126.425 56.7287 126.425C53.5491 126.425 50.7054 124.989 48.8149 122.72C48.4141 122.238 47.8128 121.956 47.1845 121.956H46.4208V138.715C46.4208 138.981 46.2041 139.197 45.9387 139.197H29.2065C29.3149 140.324 29.8132 141.38 30.6203 142.187C32.4945 144.062 33.6536 146.645 33.6536 149.5C33.6536 155.209 29.017 159.84 23.3132 159.84C17.6094 159.84 12.9727 155.204 12.9727 149.5C12.9727 146.32 14.4082 143.477 16.6777 141.586C17.1598 141.185 17.4415 140.584 17.4415 139.956V139.192H0.68228C0.416863 139.192 0.200195 138.975 0.200195 138.71V99.4659C0.200195 97.7434 0.882698 96.0913 2.10145 94.8726C3.32021 93.6538 4.97229 92.9713 6.6948 92.9713H45.9387C46.2041 92.9713 46.4208 93.188 46.4208 93.4534V110.186L46.4262 110.191ZM278.531 114.681V97.4455C278.531 97.1801 278.748 96.9634 279.013 96.9634C280.568 96.9634 282.063 97.5809 283.162 98.6805C284.858 100.381 287.209 101.432 289.798 101.432C294.976 101.432 299.18 97.2288 299.18 92.0505C299.18 86.8721 294.976 82.6688 289.798 82.6688C286.916 82.6688 284.338 83.9688 282.626 86.0271C282.041 86.7313 281.169 87.1376 280.254 87.1376H279.008C278.742 87.1376 278.526 86.9209 278.526 86.6555V69.4196C278.526 69.1542 278.742 68.9375 279.008 68.9375H318.187C319.909 68.9375 321.561 69.62 322.78 70.8388C323.999 72.0575 324.681 73.7096 324.681 75.4321V114.676C324.681 114.941 324.465 115.158 324.199 115.158C324.199 115.158 310.311 115.158 307.467 115.158C307.575 116.285 308.074 117.341 308.881 118.148C310.755 120.022 311.914 122.606 311.914 125.461C311.914 131.17 307.277 135.801 301.574 135.801C295.87 135.801 291.233 131.164 291.233 125.461C291.233 122.281 292.669 119.437 294.938 117.547C295.42 117.146 295.702 116.545 295.702 115.916V115.153H279.008C278.878 115.153 278.759 115.104 278.667 115.012C278.574 114.92 278.526 114.801 278.526 114.671L278.531 114.681ZM144.062 212.507V229.743C144.062 230.008 143.845 230.225 143.58 230.225C142.025 230.225 140.53 229.607 139.431 228.508C137.735 226.807 135.384 225.756 132.795 225.756C127.617 225.756 123.414 229.959 123.414 235.138C123.414 240.316 127.617 244.519 132.795 244.519C135.677 244.519 138.255 243.219 139.967 241.161C140.552 240.457 141.424 240.051 142.339 240.051H143.585C143.851 240.051 144.067 240.267 144.067 240.533V257.769C144.067 258.034 143.851 258.251 143.585 258.251H104.406C102.684 258.251 101.032 257.568 99.813 256.349C98.5943 255.131 97.9118 253.479 97.9118 251.756V212.512C97.9118 212.247 98.1284 212.03 98.3938 212.03H115.126C115.018 210.903 114.519 209.847 113.712 209.04C111.838 207.166 110.679 204.582 110.679 201.728C110.679 196.018 115.316 191.387 121.019 191.387C126.723 191.387 131.36 196.024 131.36 201.728C131.36 204.907 129.924 207.751 127.655 209.641C127.173 210.042 126.891 210.643 126.891 211.272V212.035H143.585C143.715 212.035 143.834 212.084 143.926 212.176C144.019 212.268 144.067 212.388 144.067 212.518L144.062 212.507ZM298.838 184.004V167.245C298.838 167.115 298.887 166.996 298.979 166.904C299.071 166.812 299.19 166.763 299.32 166.763H316.556C316.822 166.763 317.038 166.979 317.038 167.245C317.038 168.799 316.421 170.295 315.321 171.394C313.62 173.095 312.57 175.44 312.57 178.03C312.57 183.208 316.773 187.411 321.951 187.411C327.13 187.411 331.333 183.208 331.333 178.03C331.333 175.148 330.033 172.57 327.975 170.858C327.27 170.273 326.864 169.401 326.864 168.485V167.239C326.864 166.974 327.081 166.757 327.346 166.757H344.582C344.848 166.757 345.064 166.974 345.064 167.239V206.483C345.064 208.206 344.382 209.858 343.163 211.077C341.944 212.295 340.292 212.978 338.57 212.978H299.326C299.06 212.978 298.844 212.761 298.844 212.496V195.764C297.717 195.872 296.661 196.37 295.854 197.177C293.979 199.052 291.396 200.211 288.541 200.211C282.832 200.211 278.201 195.574 278.201 189.87C278.201 184.167 282.837 179.53 288.541 179.53C291.721 179.53 294.564 180.965 296.455 183.235C296.856 183.717 297.457 183.999 298.085 183.999H298.849L298.838 184.004Z" fill="#1FFFB4" stroke="black" stroke-width="0.406251" stroke-miterlimit="10"/>
</g>
<defs>
<clipPath id="clip0_223_4826">
<rect width="345.265" height="258.82" fill="white"/>
</clipPath>
</defs>
</svg>
