<svg width="157" height="73" viewBox="0 0 157 73" fill="none" xmlns="http://www.w3.org/2000/svg">
<path d="M150.665 33.2484C153.883 33.2484 156.492 30.6399 156.492 27.4221C156.492 24.2043 153.883 21.5957 150.665 21.5957C147.447 21.5957 144.839 24.2043 144.839 27.4221C144.839 30.6399 147.447 33.2484 150.665 33.2484Z" fill="#1FFFB4" stroke="black" stroke-width="0.130769" stroke-miterlimit="10"/>
<path d="M86.7133 56.9916C88.4831 56.9916 89.9178 55.4265 89.9178 53.4958C89.9178 51.5651 88.4831 50 86.7133 50C84.9435 50 83.5088 51.5651 83.5088 53.4958C83.5088 55.4265 84.9435 56.9916 86.7133 56.9916Z" fill="#CD89FF" stroke="black" stroke-width="0.270947" stroke-miterlimit="10"/>
<path d="M122.075 55.2981C130.644 53.9246 136.538 45.4663 135.238 36.406C133.939 27.3456 125.94 21.1142 117.37 22.4877C108.801 23.8612 102.908 32.3195 104.207 41.3798C105.506 50.4401 113.505 56.6715 122.075 55.2981Z" fill="#CD89FF" stroke="black" stroke-width="0.270947" stroke-miterlimit="10"/>
<path d="M109.956 31.8156C108.059 33.8209 107.639 35.6744 107.921 37.1612C108.203 38.6452 110.181 39.7194 113.115 38.9431C116.486 38.0522 119.645 33.7464 118.38 31.8185C117.117 29.8876 112.343 29.2946 109.956 31.8185V31.8156Z" fill="#B6C6FF" stroke="black" stroke-width="0.270947" stroke-miterlimit="10"/>
<path d="M109.532 33.2982C111.919 30.7744 116.693 31.3674 117.956 33.2982C118.165 33.6191 118.251 34.003 118.238 34.4269C118.655 33.4587 118.734 32.5391 118.305 31.8888C117.043 29.9579 112.269 29.3649 109.882 31.8888C108.513 33.3355 107.915 34.702 107.79 35.9109C108.115 35.0858 108.671 34.2092 109.53 33.3011L109.532 33.2982Z" fill="#CD89FF" stroke="black" stroke-width="0.270947" stroke-miterlimit="10"/>
<path d="M129.683 41.7616C128.15 40.7131 123.506 41.6126 122.311 43.618C121.116 45.6233 120.907 47.5513 122.663 48.6656C124.419 49.78 126.313 48.7401 127.857 47.3307C129.402 45.9212 132.07 43.3974 129.683 41.7645V41.7616Z" fill="#B6C6FF" stroke="black" stroke-width="0.270947" stroke-miterlimit="10"/>
<path d="M123.223 44.8774C124.418 42.8721 129.062 41.9726 130.595 43.0211C130.601 43.0239 130.604 43.0268 130.609 43.0296C130.525 42.5742 130.243 42.1416 129.685 41.7577C128.151 40.7092 123.507 41.6087 122.313 43.6141C121.18 45.5162 120.933 47.3525 122.416 48.487C122.09 47.4499 122.451 46.178 123.226 44.8774H123.223Z" fill="#CD89FF" stroke="black" stroke-width="0.270947" stroke-miterlimit="10"/>
<path d="M125.682 27.9536C124.422 28.4864 123.436 30.5519 124.84 32.6288C126.243 34.7086 128.701 35.9691 129.895 35.3016C131.09 34.6341 132.282 31.5173 130.597 29.7354C128.912 27.9536 127.438 27.2116 125.682 27.9536Z" fill="#B6C6FF" stroke="black" stroke-width="0.270947" stroke-miterlimit="10"/>
<path d="M130.596 29.6612C128.911 27.8793 127.437 27.1374 125.681 27.8793C125.259 28.0598 124.866 28.4122 124.584 28.8791C126.296 28.2031 127.749 28.9508 129.401 30.6983C130.661 32.0304 130.312 34.113 129.553 35.3563C129.675 35.3277 129.789 35.2847 129.892 35.2274C131.087 34.5599 132.279 31.4431 130.594 29.6612H130.596Z" fill="#CD89FF" stroke="black" stroke-width="0.270947" stroke-miterlimit="10"/>
<path d="M116.147 48.7578C114.947 48.1047 112.205 47.6148 110.389 48.6747C109.571 49.1532 108.972 49.9238 108.718 50.703C111.156 53.2326 114.37 54.9228 117.941 55.3467C118.157 55.0316 118.385 54.642 118.662 54.1493C119.35 52.9232 117.35 49.4138 116.15 48.7578H116.147Z" fill="#B6C6FF" stroke="black" stroke-width="0.270947" stroke-miterlimit="10"/>
<path d="M116.152 48.7402C114.952 48.0871 112.21 47.5972 110.394 48.6572C109.576 49.1356 108.977 49.9062 108.723 50.6854C108.804 50.7685 108.885 50.8516 108.969 50.9346C109.235 50.631 109.555 50.3588 109.92 50.1468C111.736 49.0869 114.478 49.5739 115.678 50.2299C116.656 50.7628 118.168 53.1949 118.317 54.739C118.425 54.5557 118.539 54.3523 118.666 54.1288C119.355 52.9027 117.355 49.3934 116.155 48.7374L116.152 48.7402Z" fill="#CD89FF" stroke="black" stroke-width="0.270947" stroke-miterlimit="10"/>
<path d="M104.407 47.2529C104.407 47.2529 100.012 51.6818 102.047 53.3549C103.266 54.3604 107.498 55.7355 119.295 49.8284C134.389 42.2683 140.776 34.4819 141.832 31.5713C142.889 28.6608 133.918 31.3192 133.918 31.3192L133.858 31.5513C133.858 31.5513 141.483 29.6691 140.936 31.1302C138.982 36.3325 128.407 44.0931 122.546 47.0037C116.689 49.9143 108.308 53.5296 104.973 53.266C101.727 53.0082 102.765 50.6391 103.344 49.5619C103.913 48.5048 104.488 47.4506 104.488 47.4506L104.404 47.2529H104.407Z" fill="#CEFF62" stroke="black" stroke-width="0.270947" stroke-miterlimit="10"/>
<path d="M35.9822 69.3086L73.39 36.9591L64.1692 39.5964" fill="#4662FF"/>
<path d="M35.9822 69.3086L73.39 36.9591L64.1692 39.5964" stroke="black" stroke-width="0.270947" stroke-miterlimit="10"/>
<path d="M45.1575 46.5743L36.0288 69.3086L67.8806 39.8716L66.7713 35.8676L52.9137 41.1731L43.8641 44.9312" fill="#D0DCFF"/>
<path d="M45.1575 46.5743L36.0288 69.3086L67.8806 39.8716L66.7713 35.8676L52.9137 41.1731L43.8641 44.9312" stroke="black" stroke-width="0.270947" stroke-miterlimit="10"/>
<path d="M71.9394 4.59687L78.784 24.8307L56.9108 29.9077L71.9394 4.59687Z" fill="#4662FF" stroke="black" stroke-width="0.270947" stroke-miterlimit="10"/>
<path d="M54.165 25.5571L71.9306 4.65448L72.3647 21.1969L61.4798 27.7784L53.6747 28.4247" fill="#D0DCFF"/>
<path d="M54.165 25.5571L71.9306 4.65448L72.3647 21.1969L61.4798 27.7784L53.6747 28.4247" stroke="black" stroke-width="0.270947" stroke-miterlimit="10"/>
<path d="M76.7737 18.4008L97.8104 17.17L87.634 30.2591L81.0656 31.9728L73.3337 27.2684L72.2423 22.4685" fill="#4662FF"/>
<path d="M76.7737 18.4008L97.8104 17.17L87.634 30.2591L81.0656 31.9728L73.3337 27.2684L72.2423 22.4685" stroke="black" stroke-width="0.270947" stroke-miterlimit="10"/>
<path d="M84.9628 30.7995C82.6471 32.0449 78.4607 30.4958 75.5124 27.2725C72.5641 24.0492 71.9539 20.3552 74.0919 18.9185C71.7391 19.3542 57.482 24.6133 53.3881 26.4662C51.0536 28.3041 52.4465 30.9346 52.0683 31.4325C51.6896 31.9281 48.2331 33.7665 47.0999 33.9106C44.1182 34.4892 42.0354 31.7757 41.1721 30.4755C40.4605 31.0034 31.963 38.9575 31.963 38.9575C31.963 38.9575 30.54 40.2487 27.9067 40.1802C25.2734 40.1117 11.8017 34.1277 9.67919 33.5662C7.55732 33.0069 6.94017 34.5865 7.35211 35.451C7.76404 36.3156 18.5211 45.5434 18.9197 45.9789C19.3184 46.4144 20.206 48.136 20.206 48.136C20.206 48.136 19.8377 48.5244 19.4264 49.1427C19.851 50.1421 20.6006 50.5144 21.1739 50.6524C21.4871 49.7094 22.6033 48.0996 24.2336 46.9633C23.0882 48.1045 21.9545 50.721 21.9545 50.721C21.9545 50.721 19.5019 59.1934 18.8908 62.5589C22.882 61.5431 27.9396 52.0797 28.7882 50.1209C28.7882 50.1209 30.6125 46.4009 29.9439 45.4717C29.3809 44.6899 28.051 44.6896 27.2795 44.9666C27.8728 44.5844 29.2621 44.7563 29.8331 45.3043C30.5292 45.9754 30.0576 47.072 29.8647 47.7401C29.749 48.1391 29.602 48.5295 29.4309 48.9082C29.3436 49.1011 29.0219 50.0811 28.7882 50.1209L29.9977 49.9184C34.1145 49.2318 42.6487 47.8042 45.9848 47.2436C46.1354 47.2175 46.348 46.9825 46.5681 46.688C46.7493 46.288 47.0138 45.9241 47.3189 45.584C47.3757 45.5023 47.4283 45.4346 47.469 45.3904C47.9914 44.833 48.5688 44.3141 49.2086 43.851C49.2112 43.8508 49.2132 43.8484 49.2152 43.846C49.8367 43.3052 50.4623 42.78 51.1641 42.3322C51.1976 42.2909 51.2478 42.2528 51.3175 42.2289C51.3278 42.228 51.3344 42.2229 51.344 42.2199C51.8291 41.9237 52.3513 41.6674 52.937 41.4715C53.0429 41.4356 53.1428 41.4454 53.2307 41.4788C54.1633 41.0684 55.0666 40.6174 55.9841 40.1902C57.3387 39.5613 58.7382 38.9626 60.2774 38.6286C61.2155 38.4237 62.2528 38.265 63.2797 38.3698C65.32 38.1298 67.3478 38.6426 68.3885 40.63C73.0427 38.5063 81.5371 33.2489 84.966 30.8015L84.9628 30.7995Z" fill="#EDD1FF"/>
<path d="M28.7882 50.1209C27.9396 52.0797 22.882 61.5431 18.8908 62.5589C19.5019 59.1934 21.9545 50.721 21.9545 50.721C21.9545 50.721 23.0882 48.1045 24.2336 46.9633C22.6033 48.0996 21.4871 49.7094 21.1739 50.6524C20.6006 50.5144 19.851 50.1421 19.4264 49.1427C19.8377 48.5244 20.206 48.136 20.206 48.136C20.206 48.136 19.3184 46.4144 18.9197 45.9789C18.5211 45.5434 7.76404 36.3156 7.35211 35.451C6.94017 34.5865 7.55732 33.0069 9.67919 33.5662C11.8017 34.1277 25.2734 40.1117 27.9067 40.1802C30.54 40.2487 31.963 38.9575 31.963 38.9575C31.963 38.9575 40.4605 31.0034 41.1721 30.4755C42.0354 31.7757 44.1182 34.4892 47.0999 33.9106C48.2331 33.7665 51.6896 31.9281 52.0683 31.4325C52.4465 30.9346 51.0536 28.3041 53.3881 26.4662C57.482 24.6133 71.7391 19.3542 74.0919 18.9185C71.9539 20.3552 72.5641 24.0492 75.5124 27.2725C78.4607 30.4958 82.6471 32.0449 84.9628 30.7995L84.9659 30.8015C81.5371 33.2489 73.0427 38.5063 68.3885 40.63C67.3478 38.6426 65.32 38.1298 63.2797 38.3698C62.2528 38.265 61.2155 38.4237 60.2774 38.6286C58.7382 38.9626 57.3387 39.5613 55.9841 40.1902C55.0666 40.6174 54.1633 41.0684 53.2307 41.4788C53.1429 41.4454 53.0429 41.4356 52.937 41.4715C52.3513 41.6674 51.8291 41.9237 51.344 42.2199C51.3344 42.2229 51.3278 42.228 51.3175 42.2289C51.2478 42.2528 51.1976 42.2909 51.1641 42.3322C50.4623 42.78 49.8367 43.3052 49.2152 43.846C49.2132 43.8484 49.2112 43.8508 49.2086 43.851C48.5688 44.3141 47.9914 44.833 47.469 45.3904C47.4283 45.4346 47.3757 45.5023 47.3189 45.584C47.0138 45.9241 46.7493 46.288 46.5681 46.688C46.348 46.9825 46.1354 47.2175 45.9848 47.2436C42.6487 47.8042 34.1145 49.2318 29.9977 49.9184L28.7882 50.1209ZM28.7882 50.1209C28.7882 50.1209 30.6125 46.4009 29.9439 45.4717C29.3809 44.6899 28.051 44.6896 27.2795 44.9666C27.8728 44.5844 29.2621 44.7564 29.8331 45.3043C30.5292 45.9754 30.0576 47.072 29.8647 47.7401C29.749 48.1391 29.602 48.5295 29.4309 48.9082C29.3436 49.1011 29.0219 50.0811 28.7882 50.1209Z" stroke="black" stroke-width="0.270947" stroke-miterlimit="10"/>
<path d="M56.0611 26.4907C55.699 27.3241 55.2035 29.176 56.4544 31.5134C63.9697 28.353 74.0527 24.1665 74.0527 24.1665C74.0527 24.1665 73.1506 21.3757 74.7268 19.5994C70.6514 20.8305 60.2655 24.6838 56.0585 26.4909L56.0611 26.4907Z" fill="#4662FF" stroke="black" stroke-width="0.270947" stroke-miterlimit="10"/>
<path d="M48.1009 34.6338L48.1213 34.6321L48.1412 34.6282C48.8149 34.5433 50.7029 33.6526 51.9401 32.912C52.5216 32.5638 53.3271 32.1366 53.37 32.0928C53.3918 31.9902 53.4402 31.6391 53.4107 31.3953C53.2729 30.2984 52.3262 28.7871 54.1337 27.3679L54.1771 27.3352L54.2279 27.3108C54.6977 27.0995 55.2991 26.8437 55.994 26.5578C53.2601 26.0207 51.2502 25.8065 50.0469 25.7181C49.2301 25.6603 48.4658 25.8826 47.9286 26.3368L42.2851 31.186L42.6752 31.7403C43.7908 33.4123 45.8021 35.0772 48.1034 34.6336L48.1009 34.6338Z" fill="#4662FF" stroke="black" stroke-width="0.270947" stroke-miterlimit="10"/>
<path d="M30.3639 40.6941C29.5339 41.0373 28.6242 41.1979 27.6614 41.1712C27.2007 41.1595 26.4471 40.9805 25.2906 40.6109L24.74 40.4347L24.914 40.0023C26.3498 36.4244 26.7939 35.2883 26.9114 34.9651C27.2271 34.1117 28.3043 33.1668 29.2336 32.6107L29.286 32.5802C29.5564 32.4206 29.9267 32.416 30.2513 32.5696C30.5759 32.7233 30.7907 33.0036 30.8101 33.3002C30.9622 35.512 30.695 39.5043 30.6097 40.3777L30.588 40.5971L30.3628 40.6898L30.3639 40.6941Z" fill="#EDD1FF" stroke="black" stroke-width="0.270947" stroke-miterlimit="10"/>
<path d="M18.413 50.067C18.8304 51.0438 19.5672 51.4078 20.1308 51.5427C20.3544 50.8714 20.9999 49.851 21.9558 48.9178C21.4579 48.7487 20.3569 48.271 20.9032 47.5133C22.0136 46.7399 22.8335 46.3624 22.8335 46.3624C22.8335 46.3624 25.2813 45.4718 26.0045 45.3567C28.6846 42.732 31.5368 41.3698 31.5368 41.3698C31.5368 41.3698 27.4491 42.8629 25.5257 42.1057C23.6023 41.3485 9.23969 35.7155 8.3133 35.4624C7.45655 35.2278 6.82565 36.1784 6.94891 37.1662C8.95669 39.2442 17.5635 46.5922 17.9152 46.9747C18.3071 47.4004 19.1795 49.0831 19.1795 49.0831C19.1795 49.0831 18.8174 49.4627 18.413 50.067Z" fill="#4662FF" stroke="black" stroke-width="0.270947" stroke-miterlimit="10"/>
<path d="M30.7463 47.8274L42.4521 45.3716C44.3164 44.9815 46.0044 44.2366 47.4372 43.212C51.0109 40.6499 56.5566 37.731 63.2609 36.5128C66.2566 35.9695 69.0626 34.9901 71.5049 33.5424C74.1415 31.9815 77.0616 30.1089 78.7877 28.9415C79.2429 29.2607 79.7073 29.5437 80.1718 29.7867C79.1055 29.2253 78.0417 28.461 77.0737 27.5237C76.0752 28.1909 72.1234 30.797 67.8376 33.1489C66.5576 33.8519 65.1154 34.345 63.5731 34.5898C56.5645 35.7067 51.0678 38.8618 47.9003 41.1018C45.5128 42.7874 42.6914 43.9919 39.6109 44.6697L30.8596 46.5975C30.8667 46.9785 30.8313 47.4008 30.746 47.8463C30.7467 47.8391 30.7495 47.8295 30.7503 47.8223L30.7463 47.8274Z" fill="#FB2A72" stroke="black" stroke-width="0.270947" stroke-miterlimit="10"/>
<path d="M78.6994 28.5868C77.1048 29.6719 74.4919 31.3586 72.0217 32.8459C69.3581 34.4517 66.3269 35.6151 63.0511 36.2234C56.8629 37.3686 51.668 39.9644 48.1055 42.3822C45.9358 43.8532 43.3906 44.8918 40.6315 45.4724L30.5817 47.5914C30.4261 48.4344 30.1013 49.3559 29.5851 50.2203L29.9455 50.1064C34.1332 49.3866 42.8165 47.8874 46.2107 47.302C48.31 44.1993 50.3865 42.7908 53.8522 41.5309C58.4599 39.5804 60.4728 38.9786 60.776 38.8909C63.5389 37.5918 67.4031 37.2388 68.9978 40.3681C73.7314 38.1437 82.3702 32.6378 85.8617 30.0815L85.8605 30.0769C84.0982 31.053 81.2699 30.3928 78.702 28.5866L78.6994 28.5868Z" fill="#D0DCFF" stroke="black" stroke-width="0.270947" stroke-miterlimit="10"/>
<path d="M77.342 26.9716C79.7621 29.6312 83.2803 31.3942 85.7641 31.1648C86.2609 30.829 86.7073 30.519 87.0894 30.2491L87.0883 30.2449C84.885 31.4352 80.9056 29.9552 78.103 26.8755C75.3004 23.7957 74.72 20.266 76.758 18.897L76.7569 18.8928C76.5023 18.94 76.1057 19.0446 75.5996 19.1973C74.0515 20.865 74.7119 24.0786 77.3444 26.9714L77.342 26.9716Z" fill="#D0DCFF" stroke="black" stroke-width="0.270947" stroke-miterlimit="10"/>
<path d="M25.7994 44.9982C23.5638 45.28 21.0218 46.2955 18.538 48.3589C18.697 48.6559 18.8072 48.8696 18.8072 48.8696C18.8072 48.8696 22.2804 45.8452 25.802 44.998L25.7994 44.9982Z" fill="#D0DCFF" stroke="black" stroke-width="0.270947" stroke-miterlimit="10"/>
<path d="M18.5355 48.8648C18.5355 48.8648 18.5337 48.8582 18.5264 48.8477C18.5315 48.8584 18.5355 48.8648 18.5355 48.8648Z" fill="#D0DCFF" stroke="black" stroke-width="0.270947" stroke-miterlimit="10"/>
<path d="M18.8409 48.8187C18.8409 48.8187 18.4877 49.2114 18.0988 49.8385C18.0988 49.8385 22.0682 45.9826 25.6116 44.9968C22.1719 45.8126 18.8409 48.8187 18.8409 48.8187Z" fill="#D0DCFF" stroke="black" stroke-width="0.270947" stroke-miterlimit="10"/>
<path d="M18.527 48.8496C18.527 48.8496 18.5175 48.829 18.5117 48.8145C18.517 48.8269 18.5248 48.8412 18.527 48.8496Z" fill="#D0DCFF" stroke="black" stroke-width="0.270947" stroke-miterlimit="10"/>
<path d="M18.5023 48.799C18.4837 48.7604 18.4599 48.7095 18.4287 48.6465C18.4599 48.7095 18.4843 48.7624 18.5023 48.799Z" fill="#D0DCFF" stroke="black" stroke-width="0.270947" stroke-miterlimit="10"/>
<path d="M17.4958 47.181L18.9603 46.1297L6.67152 35.8948C6.6073 35.9911 6.55701 36.0928 6.51824 36.2L18.3845 46.0825L17.2143 46.9252C17.3398 47.0382 17.4328 47.1235 17.4964 47.1831L17.4958 47.181Z" fill="#D0DCFF" stroke="black" stroke-width="0.270947" stroke-miterlimit="10"/>
<path d="M34.9205 39.2017C34.7242 38.9293 34.2951 38.212 34.4485 37.3256C34.3136 37.4606 34.1827 37.5931 34.0553 37.7211C34.0726 38.5243 34.4723 39.1427 34.6573 39.3885L34.92 39.1996L34.9205 39.2017Z" fill="#D0DCFF" stroke="black" stroke-width="0.270947" stroke-miterlimit="10"/>
<path d="M41.6569 31.4133C42.6572 32.9027 44.9358 35.5932 47.8431 34.568C47.7893 34.579 47.7374 34.5878 47.6925 34.5937C44.7636 35.1586 42.718 32.5085 41.8702 31.2387C41.8274 31.271 41.7556 31.33 41.6588 31.4109L41.6569 31.4133Z" fill="#D0DCFF" stroke="black" stroke-width="0.270947" stroke-miterlimit="10"/>
<path d="M70.3864 30.5328C67.238 27.0572 66.4939 23.1141 68.6829 21.6558C68.6941 21.6419 69.0388 21.421 69.3146 21.2663C68.5803 21.5221 67.8156 21.7934 67.011 22.0918C65.7644 24.4626 66.7474 27.8724 69.5939 31.0156C72.0609 33.7401 75.278 35.4615 77.9396 35.7162C78.4798 35.3926 79.0166 35.065 79.546 34.7381C77.1 35.3923 73.2334 33.6781 70.3845 30.5351L70.3864 30.5328Z" fill="#D0DCFF" stroke="black" stroke-width="0.270947" stroke-miterlimit="10"/>
<path d="M37.6959 46.2069C36.0843 46.5283 34.4707 46.8429 32.8469 47.1491C31.9437 46.3099 31.5252 45.8532 30.8077 44.9057C32.2627 44.4649 33.7247 44.0304 35.1919 43.6048C36.0808 44.7397 36.5996 45.274 37.6966 46.2091L37.6959 46.2069Z" fill="#D0DCFF" stroke="black" stroke-width="0.270947" stroke-miterlimit="10"/>
<path d="M34.8391 45.3677C35.2986 45.8493 35.2198 46.3019 34.6553 46.4155C34.1149 46.5252 33.3355 46.2685 32.9145 45.8153C32.4836 45.3539 32.5481 44.8443 33.0475 44.7065C33.5703 44.5624 34.3689 44.8758 34.8391 45.3677Z" fill="#D0DCFF" stroke="black" stroke-width="0.270947" stroke-miterlimit="10"/>
<path d="M52.5857 46.1819C53.6632 45.589 54.2029 44.7725 53.7914 44.3584C53.3798 43.9442 52.1728 44.0892 51.0954 44.6822C50.018 45.2751 49.4782 46.0916 49.8897 46.5058C50.3013 46.9199 51.5083 46.7749 52.5857 46.1819Z" fill="#D0DCFF" stroke="black" stroke-width="0.270947" stroke-miterlimit="10"/>
<path d="M64.1873 20.553C65.2647 19.9601 65.8045 19.1436 65.393 18.7294C64.9814 18.3153 63.7744 18.4603 62.6969 19.0532C61.6195 19.6462 61.0797 20.4627 61.4913 20.8769C61.9028 21.291 63.1099 21.146 64.1873 20.553Z" fill="#D0DCFF" stroke="black" stroke-width="0.270947" stroke-miterlimit="10"/>
<path d="M54.8971 52.1661C54.7268 51.6892 54.3745 51.1294 53.656 50.7207C51.7064 49.612 47.9814 50.296 42.5778 52.747C42.4232 52.9576 42.2707 53.1656 42.1178 53.3713C49.0968 50.1004 52.1235 50.2641 53.4344 51.0045C54.1804 51.4265 54.4331 52.0835 54.5171 52.5505C54.6443 52.4208 54.772 52.2933 54.8971 52.1661Z" fill="#A0A0A0" stroke="#231F20" stroke-width="0.20321" stroke-miterlimit="10"/>
<path d="M76.2627 14.7565C76.1328 14.2548 75.804 13.6786 75.0285 13.3052C72.9237 12.2873 68.5054 13.3872 61.8841 16.5665C61.6748 16.8101 61.467 17.049 61.2625 17.2898C69.8313 13.0696 73.32 12.9555 74.7334 13.6355C75.5391 14.0219 76.4699 15.2758 76.4996 15.7783C76.6678 15.6261 76.0999 14.9082 76.2632 14.7587L76.2627 14.7565Z" fill="#A0A0A0" stroke="#231F20" stroke-width="0.20321" stroke-miterlimit="10"/>
</svg>
