<svg width="103" height="94" viewBox="0 0 103 94" fill="none" xmlns="http://www.w3.org/2000/svg">
<g clip-path="url(#clip0_223_10417)">
<path d="M80.9205 77.3757C80.942 77.6241 80.9652 77.9669 80.9735 78.3776C80.9867 79.0003 80.9801 80.476 80.5628 82.2861C80.1636 84.0201 79.5592 85.3119 79.1666 86.1383C78.6665 87.1916 78.3452 87.6454 78.332 88.4469C78.3154 89.4505 78.7957 90.277 79.2014 90.8169C80.5992 90.0848 82.1262 89.1541 83.6862 87.9633C87.6527 84.9359 90.175 81.5044 91.7168 78.9308C91.268 78.3478 90.6967 77.6953 89.9812 77.0378C89.0339 76.1667 84.5905 72.1903 83.0735 71.498C82.7389 71.922 80.9354 75.3519 80.157 75.3055C80.4121 75.9961 80.6654 76.6867 80.9205 77.3773V77.3757Z" fill="#6E8DF9" stroke="black" stroke-width="0.0828067" stroke-miterlimit="10"/>
<path d="M79.3372 90.7977C81.3411 89.8073 83.2291 88.5967 84.9565 87.1774C86.8859 85.5925 88.6132 83.774 90.0706 81.7469C90.6851 80.8907 91.2531 80.003 91.7831 79.0921C91.9122 78.8702 91.5595 78.688 91.4303 78.9083C90.4134 80.6588 89.2442 82.315 87.8928 83.8254C86.1887 85.7299 84.2228 87.4043 82.0765 88.7921C81.1258 89.4065 80.1404 89.9613 79.1252 90.4615C78.8967 90.5741 79.1103 90.9103 79.3372 90.7977Z" fill="#6E8DF9" stroke="black" stroke-width="0.0828067" stroke-miterlimit="10"/>
<path d="M56.9641 80.9612C56.8283 81.1699 56.6361 81.4564 56.391 81.7843C56.0184 82.2845 55.1075 83.4438 53.6667 84.6163C52.2855 85.7392 51.0169 86.3867 50.1988 86.7991C49.1587 87.3224 48.6254 87.4831 48.122 88.1075C47.4926 88.8892 47.3635 89.8365 47.3535 90.5122C48.907 90.7937 50.6823 90.9958 52.6449 91.0156C57.6348 91.0637 61.7321 89.9044 64.5293 88.8196C64.5326 88.0843 64.4846 87.2181 64.3223 86.2592C64.1086 84.989 63.1597 79.8715 62.3879 78.3926C61.8629 78.5201 58.2194 79.3714 57.6331 78.858C57.4096 79.5602 57.186 80.2607 56.9624 80.9629L56.9641 80.9612Z" fill="#6E8DF9" stroke="black" stroke-width="0.0828067" stroke-miterlimit="10"/>
<path d="M47.4692 90.5794C49.6586 91.0299 51.8927 91.2319 54.1268 91.1723C56.6226 91.1061 59.1019 90.7334 61.4983 90.0279C62.5085 89.7298 63.5022 89.3787 64.4793 88.9846C64.7162 88.8885 64.5505 88.5275 64.3137 88.6235C62.4357 89.3804 60.4963 89.97 58.5023 90.331C55.9867 90.7864 53.4081 90.9007 50.8609 90.6771C49.7348 90.5778 48.6152 90.4105 47.5073 90.182C47.2572 90.1306 47.2191 90.5264 47.4675 90.5778L47.4692 90.5794Z" fill="#6E8DF9" stroke="black" stroke-width="0.0828067" stroke-miterlimit="10"/>
<path d="M63.577 30.0234C62.8103 31.5554 61.588 35.8911 60.601 38.5592C59.1436 42.4958 58.4728 45.5166 57.4957 49.9948C56.3944 55.041 55.8197 58.9478 55.452 61.4817C55.2914 62.593 54.8227 65.892 54.3938 70.246C54.0394 73.8464 53.8208 77.0444 53.6816 79.7356C55.5233 79.6628 57.61 79.6843 59.8905 79.8863C61.9408 80.0685 63.8089 80.365 65.465 80.7078C65.1322 77.8062 64.743 73.2552 64.8523 67.6641C64.9814 61.1008 65.7135 57.4209 66.4041 50.3144C66.8082 46.1426 67.6809 37.7692 67.7687 30.1178C66.4339 30.0731 64.9135 30.0698 63.5787 30.0251L63.577 30.0234Z" fill="#6E8DF9" stroke="black" stroke-width="0.0828067" stroke-miterlimit="10"/>
<path d="M67.0935 31.4375C66.7771 33.8207 66.2223 37.5271 65.27 42.0202C63.0227 52.6294 61.6713 52.9507 61.7806 57.2219C62.0141 66.2594 77.1064 79.5648 77.1064 79.5648C77.1064 79.5648 83.408 72.0674 85.0079 70.2805C81.2898 65.8139 75.5845 60.342 71.8648 55.8754C73.2013 52.6542 74.079 49.8719 74.657 47.7968C75.8726 43.4312 76.4655 41.2103 75.8064 39.3555C75.3526 38.0786 74.6521 37.3168 73.2891 34.0393C72.8949 33.0903 72.5984 32.2987 72.4096 31.7787C70.6376 31.666 68.8655 31.5518 67.0935 31.4392V31.4375Z" fill="#6E8DF9" stroke="black" stroke-width="0.0828067" stroke-miterlimit="10"/>
<path d="M54.2677 84.5301C55.1422 84.5252 56.01 84.7206 56.7933 85.1098C57.0782 85.2505 57.3316 84.8233 57.0434 84.6808C56.1806 84.2536 55.2316 84.0283 54.2661 84.0333C53.9465 84.0349 53.9465 84.5318 54.2661 84.5301H54.2677Z" fill="#6E8DF9" stroke="black" stroke-width="0.0828067" stroke-miterlimit="10"/>
<path d="M52.8208 85.722C53.725 85.5167 54.5729 86.0549 55.305 86.5137C55.5766 86.6842 55.8266 86.2536 55.555 86.0847C54.6955 85.5465 53.7399 85.0049 52.6883 85.2434C52.3769 85.3146 52.5077 85.7932 52.8208 85.722Z" fill="#6E8DF9" stroke="black" stroke-width="0.0828067" stroke-miterlimit="10"/>
<path d="M80.7796 81.9809C81.2218 81.7358 81.76 81.6381 82.2436 81.7159C82.3712 81.7358 82.5169 81.6828 82.55 81.542C82.5765 81.4228 82.5136 81.2589 82.3761 81.2357C81.7402 81.133 81.0943 81.2357 80.5295 81.5503C80.412 81.6149 80.3739 81.7756 80.4401 81.8898C80.5097 82.0074 80.662 82.0439 80.7796 81.9793V81.9809Z" fill="#6E8DF9" stroke="black" stroke-width="0.0828067" stroke-miterlimit="10"/>
<path d="M80.3171 83.6173C81.0674 83.4219 81.8358 83.3357 82.6109 83.3573C82.9305 83.3655 82.9305 82.8687 82.6109 82.8604C81.7944 82.8389 80.9763 82.9333 80.1846 83.1387C79.8749 83.2181 80.0058 83.6984 80.3171 83.6173Z" fill="#6E8DF9" stroke="black" stroke-width="0.0828067" stroke-miterlimit="10"/>
<path d="M47.6634 90.2055C48.6604 90.4804 49.7038 90.5814 50.7356 90.6294C51.9363 90.6841 53.1419 90.6526 54.341 90.5798C55.4605 90.5119 56.5801 90.4175 57.6864 90.227C58.7943 90.0365 59.8907 89.7765 60.9688 89.4602C62.1248 89.1207 63.2692 88.7183 64.3589 88.1999C64.6471 88.0624 64.3954 87.6335 64.1089 87.771C62.1795 88.6885 60.0646 89.2797 57.9696 89.6739C56.9146 89.8726 55.8514 89.9786 54.7799 90.0548C53.5974 90.1376 52.4083 90.1823 51.2225 90.1508C50.0731 90.121 48.9089 90.0332 47.7959 89.7269C47.4879 89.6424 47.3554 90.121 47.6634 90.2055Z" fill="#6E8DF9" stroke="black" stroke-width="0.0828067" stroke-miterlimit="10"/>
<path d="M90.6703 78.3621C89.824 79.5561 88.9612 80.7403 88.0768 81.9062C87.4326 82.7541 86.7834 83.6037 86.0166 84.3473C85.5181 84.8309 84.9881 85.283 84.4631 85.7385C83.9348 86.1956 83.4264 86.6759 82.8865 87.118C81.6345 88.1432 80.2516 88.9977 78.8604 89.8208C78.5855 89.9831 78.8356 90.4137 79.1105 90.2498C80.3692 89.5045 81.6146 88.7328 82.7722 87.8368C83.3303 87.4062 83.8487 86.9359 84.377 86.4688C84.9053 86.0018 85.4469 85.5497 85.9669 85.0727C86.8066 84.3043 87.5137 83.4431 88.206 82.5438C88.8353 81.7257 89.4498 80.8943 90.0559 80.0596C90.4054 79.5793 90.7531 79.0974 91.096 78.6121C91.2814 78.3505 90.8509 78.102 90.667 78.3621H90.6703Z" fill="#6E8DF9" stroke="black" stroke-width="0.0828067" stroke-miterlimit="10"/>
<path d="M87.0991 75.9447C87.6589 76.6999 87.6738 77.639 87.1322 78.0398C86.5907 78.4405 85.698 78.154 85.1383 77.3972C84.5785 76.642 84.5636 75.7029 85.1051 75.3022C85.6467 74.9014 86.5393 75.1879 87.0991 75.9447Z" fill="#6E8DF9" stroke="black" stroke-width="0.0828067" stroke-miterlimit="10"/>
<path d="M62.3702 21.033C62.1201 25.8424 60.6213 36.0724 58.0476 37.2665C54.8331 38.7586 46.2758 36.8855 43.8513 35.7528C42.7947 35.2592 45.9231 27.2518 47.0973 27.6741C48.6673 28.2372 53.8328 29.7791 53.9852 29.7741C54.3098 29.7625 57.3438 23.6928 59.0943 19.8704C61.0535 15.5893 62.5606 17.3945 62.3718 21.033H62.3702Z" fill="white" stroke="black" stroke-width="0.0828067" stroke-miterlimit="10"/>
<path d="M45.9496 36.3435C45.9496 36.3435 42.6374 35.4392 40.4993 34.7453C39.3069 34.3578 37.3212 33.5132 36.5743 32.8275C35.458 31.8024 31.4452 26.8042 32.636 25.8055C33.7141 24.9013 36.6173 29.6328 36.6173 29.6328C36.6173 29.6328 33.2653 25.1166 34.7641 24.267C36.2629 23.4174 38.8316 29.1989 38.8316 29.1989C38.8316 29.1989 35.4928 24.4806 37.1771 23.8496C38.449 23.371 41.0707 28.4785 41.0707 28.4785C41.0707 28.4785 38.2287 24.4044 39.5156 23.8562C40.9382 23.2501 43.6542 27.8127 43.6542 27.8127C47.1619 26.9714 49.1079 27.9303 50.4527 28.8362C50.7789 29.0548 45.948 36.3451 45.948 36.3451L45.9496 36.3435Z" fill="white" stroke="black" stroke-width="0.0828067" stroke-miterlimit="10"/>
<path d="M57.9834 39.9668L47.3096 43.1475L40.7764 28.6074L51.4482 25.4258L57.9834 39.9668Z" fill="#D0DCFF" stroke="black" stroke-width="0.0886228"/>
<path d="M57.5168 40.1533L46.7569 43.3595L40.187 28.7375L50.9453 25.5312L57.5168 40.1533Z" fill="#CD89FF"/>
<path d="M47.2408 34.2008C47.4627 34.7638 48.1119 35.0802 48.6899 34.9079C49.2679 34.7357 49.5561 34.1395 49.3325 33.5764C49.1089 33.0133 48.4597 32.697 47.8834 32.8692C47.3054 33.0415 47.0172 33.6377 47.2408 34.2008Z" fill="#D7FF7B"/>
<path d="M77.7442 20.9749C76.9162 16.7551 73.0557 19.544 71.9925 24.8784C71.0882 29.4179 70.9276 29.1049 70.2337 29.6613C69.5961 30.1714 62.9699 32.2201 61.0835 32.9769C60.3499 32.6805 58.4768 31.9551 57.1701 31.7133C55.514 31.4036 49.7721 31.9037 49.8003 33.338C49.8268 34.7672 53.876 34.3465 54.8913 34.4592C55.7938 34.5585 56.0075 34.7738 55.6895 35.0355C54.0648 35.5439 52.3358 36.0275 50.8188 36.3041C49.0799 36.6221 46.5212 35.6334 46.3787 36.9401C46.2479 38.106 48.0895 38.6277 48.0895 38.6277C48.0895 38.6277 48.2435 39.5567 49.5883 40.403C49.5883 40.403 49.8599 41.2742 51.4332 41.7014C51.4332 41.7014 51.728 42.1585 52.412 42.3589C55.6514 43.2996 59.1889 42.354 62.1766 41.5772C62.3223 41.5408 62.4896 41.4977 62.6751 41.4481C62.7397 41.4315 62.8043 41.4149 62.8688 41.3984C66.0735 40.5289 74.0229 38.0248 76.4508 35.2491C78.9284 32.4155 78.7644 26.1702 77.7442 20.9766V20.9749Z" fill="white" stroke="black" stroke-width="0.0828067" stroke-miterlimit="10"/>
<path d="M79.9729 29.7774C79.9597 29.0404 79.9083 28.0053 79.7477 26.7781C79.3933 24.0753 79.1117 21.9306 77.7007 19.7611C77.2353 19.0456 75.8657 17.0003 73.1679 15.8096C72.3067 15.4286 71.4836 15.2133 70.7565 15.0924C69.8837 14.7761 69.1285 14.6768 68.6251 14.6155C66.9772 14.4118 65.702 14.6817 64.8127 14.8788C63.9482 15.0693 63.3238 15.2995 62.8766 15.5081C60.3328 16.5498 58.6668 19.4249 58.0474 20.5842C57.3551 21.8826 56.8649 23.181 55.4406 25.8325C55.1061 26.4552 54.8212 26.9653 54.6274 27.3048C55.0696 27.7172 55.5781 28.1378 56.1594 28.5419C58.2494 29.996 60.3626 30.5939 61.873 30.8572C61.873 30.8555 61.8747 30.8522 61.8763 30.8506C61.9641 31.051 62.0453 31.2315 62.1148 31.3838C63.6053 31.831 66.0382 32.2897 68.9911 31.6356C70.2713 31.3524 71.3809 30.9185 72.2901 30.4763C72.3795 30.0076 72.4673 29.5538 72.5567 29.1166C74.1036 29.6068 75.9369 29.9612 77.9938 29.9281C78.6944 29.9165 79.3552 29.8618 79.9746 29.7774H79.9729Z" fill="#1FFFB4" stroke="black" stroke-width="0.0828067" stroke-miterlimit="10"/>
<path d="M69.6108 9.27173C69.5164 9.23861 69.4203 9.22536 69.3226 9.22701C69.4783 7.60731 68.8986 6.19298 67.7443 5.72263C66.1925 5.09165 64.1936 6.40496 63.2777 8.65565C62.3619 10.9063 62.8769 13.2415 64.4287 13.8725C64.8444 14.0414 65.2916 14.0695 65.742 13.9801C65.7917 14.0447 65.8398 14.1126 65.8861 14.1888C65.954 14.2998 66.0252 14.4372 66.1544 14.8049C66.2472 15.0649 66.3614 15.4193 66.4707 15.8565C66.7109 15.8631 66.9775 15.8515 67.2607 15.8101C68.3422 15.6528 69.1404 15.1493 69.6075 14.7867C69.4418 14.3958 69.2795 13.9453 69.1404 13.4386C68.9781 12.8457 68.887 12.2991 68.834 11.8156C69.3458 11.9182 69.9138 11.5208 70.1424 10.8732C70.3875 10.1793 70.149 9.46384 69.6108 9.27339V9.27173Z" fill="white" stroke="black" stroke-width="0.0828067" stroke-miterlimit="10"/>
<path d="M63.738 7.15551C63.9284 7.65235 64.2977 7.94548 64.6422 8.21378C65.9589 9.23561 67.5073 9.21574 68.1499 9.16771C68.3072 9.53372 68.4646 9.90138 68.6219 10.2674C68.8223 9.76558 69.2744 9.52875 69.5692 9.62977C69.9087 9.74736 69.9783 10.2955 69.9137 10.6384C69.821 11.1319 69.6636 11.5824 69.5825 11.6304C70.1638 11.6983 70.6838 11.4747 71.3098 11.0259C72.2488 10.3518 72.9477 8.31811 72.7623 7.00646C72.6679 6.33903 71.7371 5.84385 71.7371 5.84385C71.7371 5.84385 71.8067 4.61003 70.967 4.0337C69.6338 3.11785 67.1413 2.5233 65.6757 3.26359C64.3011 3.95586 63.2395 5.84385 63.7413 7.15551H63.738Z" fill="#1B2C56"/>
<path d="M68.0458 8.50694C67.5721 8.63778 65.8017 9.06672 64.2665 8.08132C62.8405 7.16713 62.1681 5.3901 62.4232 5.16652C62.5606 5.04562 62.9151 5.42819 63.2695 5.27251C63.6868 5.08868 63.5378 4.40967 63.8193 3.87639C64.346 2.8794 68.0988 2.12089 70.0563 3.53854C71.315 4.44942 69.4369 5.50603 69.4435 5.56896C69.5578 6.70838 69.0212 7.83621 68.0474 8.50694H68.0458Z" fill="#1B2C56"/>
<path d="M64.0249 9.77194C63.8941 10.6431 64.2452 11.4181 64.8099 11.5026C65.3747 11.5871 65.9394 10.9511 66.0702 10.08C66.2011 9.20886 65.85 8.43379 65.2852 8.34932C64.7205 8.26486 64.1557 8.90082 64.0249 9.77194Z" fill="#B9F2E1"/>
<path d="M62.0869 9.33477C61.9677 10.1297 62.2227 10.8269 62.6583 10.8915C63.0939 10.9578 63.5443 10.3665 63.6636 9.5716C63.7828 8.77665 63.5278 8.07942 63.0922 8.01483C62.6567 7.94859 62.2062 8.53983 62.0869 9.33477Z" fill="#B9F2E1"/>
<path d="M62.1734 9.8976C62.1999 10.1891 62.3539 10.4127 62.5195 10.3978C62.6851 10.3829 62.7977 10.1344 62.7729 9.84461C62.7464 9.55313 62.5924 9.32955 62.4267 9.34445C62.2611 9.35936 62.1485 9.60778 62.1734 9.8976Z" fill="#1B2C56"/>
<path d="M64.2466 10.1574C64.2731 10.4488 64.4271 10.6724 64.5927 10.6575C64.7583 10.6426 64.871 10.3942 64.8461 10.1044C64.8196 9.81289 64.6656 9.58931 64.5 9.60422C64.3344 9.61912 64.2218 9.86754 64.2466 10.1574Z" fill="#1B2C56"/>
<path d="M72.1714 6.96747C72.3155 6.49381 72.4629 6.00029 72.4314 5.50013C72.4032 5.06457 72.2426 4.66379 71.9726 4.32097C71.4129 3.61049 70.4838 3.32563 69.6044 3.40844C69.4702 3.42169 69.356 3.51443 69.356 3.65686C69.356 3.78107 69.4702 3.91853 69.6044 3.90528C70.3397 3.83572 71.1148 4.03446 71.5901 4.63398C72.1167 5.29809 71.918 6.09469 71.6911 6.83498C71.5967 7.14136 72.077 7.2722 72.1697 6.96747H72.1714Z" fill="#1B2C56"/>
<path d="M24.6704 61.7383L25.2616 65.2824L29.2645 86.8966H29.9088L26.9989 65.2824L26.5683 61.7383H24.6704Z" fill="#DCDCDC"/>
<path d="M26.5683 61.7383H24.6704L25.2616 65.2824H26.9989L26.5683 61.7383Z" fill="#C8C8C8"/>
<path d="M12.0996 86.8966H12.7455L16.7484 65.2824L17.3396 61.7383H15.4417L15.0111 65.2824L12.0996 86.8966Z" fill="#DCDCDC"/>
<path d="M15.4418 61.7383L15.0112 65.2824H16.7485L17.3398 61.7383H15.4418Z" fill="#C8C8C8"/>
<path d="M0.0947266 86.8966H0.740619L4.7435 65.2824L5.33308 61.7383H3.43515L3.00621 65.2824L0.0947266 86.8966Z" fill="#D7FF7B" stroke="black" stroke-width="0.165613" stroke-miterlimit="10"/>
<path d="M1.11816 63.4026H30.4483V60.3122H19.4681L15.7783 38.8438H2.23605L1.11816 63.4026Z" fill="#D0DCFF" stroke="black" stroke-width="0.165613" stroke-miterlimit="10"/>
<path d="M42.3546 81.3254C42.5069 81.5208 42.7239 81.7891 42.9971 82.0955C43.4112 82.5609 44.4198 83.6374 45.9567 84.6807C47.429 85.6794 48.7506 86.216 49.6001 86.5538C50.6833 86.9861 51.2281 87.1003 51.7813 87.6783C52.4769 88.4021 52.6855 89.3361 52.7551 90.0085C51.2331 90.4242 49.4793 90.7786 47.5267 90.9674C42.5599 91.4461 38.3765 90.6461 35.4965 89.8081C35.4286 89.0761 35.4038 88.2083 35.48 87.2395C35.5826 85.956 36.1341 80.0204 36.775 78.4785C37.3083 78.5613 40.9634 79.8481 41.5033 79.2851C41.7865 79.9641 42.0697 80.6431 42.3529 81.3238L42.3546 81.3254Z" fill="#1FFFB4" stroke="black" stroke-width="0.165613" stroke-miterlimit="10"/>
<path d="M52.6457 90.0859C50.5027 90.7235 48.2967 91.1193 46.0643 91.2535C43.5718 91.4025 41.0694 91.2469 38.6216 90.7517C37.5882 90.543 36.568 90.278 35.5611 89.97C35.3159 89.8955 35.4501 89.5212 35.6952 89.5957C37.6329 90.1869 39.6153 90.6059 41.6324 90.7931C44.1779 91.0283 46.7582 90.9206 49.2738 90.4768C50.3884 90.2813 51.4881 90.0164 52.5729 89.6934C52.818 89.6205 52.8892 90.0114 52.6457 90.0843V90.0859Z" fill="#1FFFB4" stroke="black" stroke-width="0.165613" stroke-miterlimit="10"/>
<path d="M45.4693 84.123C44.8748 84.2687 44.3249 84.6165 43.949 85.1001C43.8695 85.2028 43.8413 85.3535 43.949 85.4512C44.0384 85.5323 44.2156 85.5605 44.3001 85.4512C44.3846 85.3435 44.4773 85.2409 44.5767 85.1481C44.628 85.1001 44.681 85.0537 44.7373 85.0106C44.7092 85.0322 44.734 85.0123 44.7489 85.0024C44.7605 84.9941 44.7721 84.9842 44.7853 84.9759C44.8152 84.9543 44.8466 84.9328 44.8781 84.9129C44.994 84.8384 45.1149 84.7738 45.2391 84.7175C45.259 84.7092 45.264 84.7076 45.2408 84.7175C45.2573 84.7109 45.2756 84.7043 45.2921 84.6976C45.3236 84.686 45.355 84.6745 45.3865 84.6645C45.4561 84.6413 45.5273 84.6198 45.6002 84.6032C45.726 84.5718 45.8138 84.4227 45.7741 84.2969C45.731 84.166 45.6035 84.0898 45.4677 84.123H45.4693Z" fill="#85D7C8"/>
<path d="M46.8006 85.0547C46.0819 85.4406 45.4194 85.9308 44.8365 86.5022C44.6079 86.7258 44.959 87.0769 45.1876 86.8533C45.7424 86.3101 46.3667 85.8513 47.0507 85.4837C47.1683 85.4207 47.2064 85.2568 47.1401 85.1441C47.0706 85.0249 46.9182 84.9918 46.8006 85.0547Z" fill="#85D7C8"/>
<path d="M35.7393 89.1581C37.1354 89.4513 38.5382 89.7245 39.9426 89.9713C40.9694 90.1518 42.0061 90.3456 43.0478 90.3886C43.7765 90.4185 44.5069 90.3936 45.2372 90.3671C45.9692 90.3423 46.7029 90.3472 47.4333 90.3042C49.1242 90.2065 50.7936 89.8852 52.4464 89.5275C52.7594 89.4595 52.6269 88.9809 52.3139 89.0488C50.8615 89.3635 49.3991 89.6517 47.9168 89.7742C47.1799 89.8355 46.4429 89.8305 45.7043 89.8537C44.9871 89.8769 44.27 89.91 43.5529 89.9034C42.4781 89.8918 41.4265 89.7245 40.3715 89.5424C39.4126 89.3767 38.457 89.1962 37.5031 89.0074C36.9582 88.8998 36.415 88.7905 35.8718 88.6779C35.5604 88.6133 35.4263 89.0919 35.7393 89.1565V89.1581Z" fill="#85D7C8"/>
<path d="M26.427 83.634L15.3242 81.1481C15.3242 81.1481 24.4794 59.9049 23.6695 58.8317C23.2638 58.2952 12.9792 58.1362 9.7083 55.3654C5.45866 51.765 8.31052 46.265 8.31052 46.265L19.7975 45.9238C19.7975 45.9238 19.6584 48.3236 20.1072 48.6846C20.402 48.9264 34.0883 50.0758 35.592 54.6881C37.4353 60.3438 26.427 83.634 26.427 83.634Z" fill="#EF9DD7" stroke="black" stroke-width="0.0828067" stroke-miterlimit="10"/>
<path d="M45.8154 81.8947L33.8548 81.8848C33.8548 81.8848 30.0026 64.7786 29.0967 63.621C27.8894 62.0791 10.9885 62.1139 7.36324 57.0825C4.10728 52.5646 6.85646 46.1703 6.85646 46.1703L19.6551 45.791C19.6551 45.791 19.2559 47.8198 18.4693 49.8154C18.4693 49.8154 33.8879 52.6573 38.2071 57.3806C41.1219 60.5687 45.817 81.8931 45.817 81.8931L45.8154 81.8947Z" fill="#EF9DD7" stroke="black" stroke-width="0.0828067" stroke-miterlimit="10"/>
<path d="M47.6951 36.6324C47.2612 35.8938 46.496 36.4453 46.496 36.4453C46.496 36.4453 47.3904 35.4036 46.8869 34.6997C46.3834 33.9959 45.2208 34.8918 45.2208 34.8918C45.2208 34.8918 46.0621 33.7557 45.509 33.09C44.9558 32.4242 43.939 33.5205 43.939 33.5205C43.939 33.5205 44.7554 32.5169 44.0698 32.1609C43.2434 31.7303 41.9466 33.7508 40.9 34.4016C40.7973 34.4662 39.8301 34.9763 38.7718 35.5344C38.6923 35.3771 38.6377 35.2843 38.6377 35.2843C39.6181 34.6865 41.4283 33.2274 40.8602 32.2818C40.4213 31.5481 36.9219 33.3864 36.2562 34.125C35.8107 34.6186 35.1764 35.6371 34.8021 36.2615C32.7269 36.9802 29.943 37.8696 29.4196 37.8265C28.6429 37.7636 21.8097 32.5269 19.4216 31.3676C15.3044 29.3703 17.2023 35.0343 18.0801 36.3625C19.7114 38.8301 26.4436 45.3437 29.3948 45.3785C31.1304 45.4 37.1273 43.2139 39.1378 42.308C40.5008 41.8559 43.9903 40.6883 44.7819 40.1087C45.6796 39.4512 48.1273 37.3744 47.6951 36.6341V36.6324Z" fill="white" stroke="black" stroke-width="0.0828067" stroke-miterlimit="10"/>
<path d="M22.1279 48.6531C21.7652 49.0042 5.4109 50.1983 5.33472 50.0939C5.12936 49.8124 5.53511 36.8714 11.6744 31.7721C13.5674 30.2004 18.2741 30.2253 19.0988 30.7552C19.5112 31.0202 20.3857 33.0424 20.7136 34.9006C21.0398 36.7571 22.3565 48.4279 22.1279 48.6514V48.6531Z" fill="#6E8DF9" stroke="black" stroke-width="0.0828067" stroke-miterlimit="10"/>
<path d="M24.0441 39.4593C23.2177 39.2423 21.4026 39.3947 20.3609 39.5769C19.5709 39.7143 18.5722 39.9363 17.6796 40.1449C17.4693 40.1582 17.2407 40.1913 16.9923 40.2459L12.7443 41.4748C12.7443 41.4748 14.1288 39.3003 15.6541 35.5243C17.355 31.3144 13.271 30.4052 10.6294 33.3879C6.0088 38.6064 2.15663 47.5578 4.43547 49.3928C6.51558 51.0688 13.5078 49.4623 18.2195 47.5594C18.2195 47.5594 18.2211 47.5594 18.2228 47.5594C18.9979 47.2729 19.8408 46.7893 20.7434 45.9944C20.7434 45.9944 24.5691 48.3246 25.3905 47.3127C25.7317 46.892 25.1305 46.261 24.3803 45.6996C25.4965 46.3107 26.7436 46.8374 27.1378 46.3935C27.5104 45.9729 27.1477 45.4065 26.5449 44.8599C27.5137 45.3617 28.4445 45.6449 28.7724 45.1315C29.2742 44.3449 27.6893 43.2204 26.4902 42.5149C27.7158 43.126 29.4663 43.8464 29.7528 43.1442C30.2463 41.9286 25.2812 39.7855 24.0458 39.4609L24.0441 39.4593Z" fill="white" stroke="black" stroke-width="0.0828067" stroke-miterlimit="10"/>
<path d="M18.395 19.5453C18.0571 19.1379 17.706 18.7239 17.1115 18.492C15.6177 17.9091 13.9996 19.027 13.9118 19.0899C12.6631 19.9793 12.7476 21.0143 11.0285 23.8364C10.6062 24.5303 10.2269 25.0801 9.97852 25.4296C10.2004 25.8701 10.6476 26.6154 11.4657 27.2894C12.2822 27.9602 13.0954 28.255 13.5707 28.3891C13.7578 28.293 13.9466 28.197 14.1338 28.1009C14.1437 28.2682 14.152 28.4355 14.1619 28.6011C14.4153 28.7551 14.7101 28.8992 15.0496 29.0068C16.6544 29.5202 18.1284 28.8893 18.6666 28.6259C19.1419 27.7432 20.1969 25.5008 19.7828 22.8328C19.6884 22.2266 19.4516 20.8123 18.3966 19.5437L18.395 19.5453Z" fill="#1B2C56"/>
<path d="M22.4676 24.8173C21.6164 22.608 19.6936 21.2914 18.1699 21.8777C17.0371 22.3133 16.4459 23.6812 16.5685 25.2628C16.4741 25.2595 16.3797 25.2711 16.2869 25.3026C15.7586 25.4781 15.5135 26.172 15.7404 26.8511C15.9507 27.4854 16.4972 27.8845 16.9974 27.7917C16.9361 28.2621 16.8368 28.7921 16.6678 29.3684C16.5237 29.8603 16.3565 30.2958 16.1892 30.6734C16.6364 31.0345 17.4065 31.5412 18.4565 31.7135C18.733 31.7582 18.9914 31.7747 19.2249 31.7731C19.3392 31.3491 19.4568 31.0063 19.5528 30.7546C19.687 30.3985 19.7582 30.266 19.8261 30.16C19.8724 30.0871 19.9205 30.0209 19.9702 29.9596C20.4074 30.0557 20.8429 30.0358 21.2504 29.8801C22.7723 29.2939 23.3172 27.0283 22.4676 24.819V24.8173Z" fill="white" stroke="black" stroke-width="0.0828067" stroke-miterlimit="10"/>
<path d="M22.0465 23.35C21.8527 23.8303 21.4867 24.1102 21.1472 24.3635C19.8455 25.3357 18.3367 25.2877 17.7124 25.2297C17.5517 25.5841 17.3927 25.9385 17.2321 26.2913C17.0449 25.7978 16.6094 25.5593 16.3212 25.6537C15.9883 25.7613 15.9105 26.2946 15.9668 26.6308C16.048 27.1127 16.4405 27.3694 16.5183 27.4191C15.9502 27.4738 15.2017 27.4324 14.6005 26.9836C13.2375 25.9667 13.4346 23.4626 14.2792 21.9274C15.407 19.8771 18.2755 18.4909 20.233 19.5243C21.5596 20.2249 22.5582 22.0831 22.0465 23.35Z" fill="#1B2C56"/>
<path d="M21.7204 25.8917C21.833 26.7429 21.477 27.4915 20.9238 27.5644C20.3723 27.6372 19.8341 27.0062 19.7215 26.155C19.6089 25.3037 19.9649 24.5552 20.5181 24.4823C21.0696 24.4094 21.6078 25.0404 21.7204 25.8917Z" fill="#B9F2E1" stroke="black" stroke-width="0.0828067" stroke-miterlimit="10"/>
<path d="M23.6148 25.5044C23.7174 26.2811 23.4558 26.9552 23.0301 27.0115C22.6045 27.0678 22.1772 26.4832 22.0745 25.7081C21.9719 24.9314 22.2335 24.2573 22.6592 24.201C23.0848 24.1447 23.5121 24.7293 23.6148 25.5044Z" fill="#B9F2E1" stroke="black" stroke-width="0.0828067" stroke-miterlimit="10"/>
<path d="M17.1333 25.9277H19.6722" stroke="black" stroke-width="0.0828067" stroke-miterlimit="10"/>
<path d="M21.6641 25.6074L22.0533 25.4004" stroke="black" stroke-width="0.0828067" stroke-miterlimit="10"/>
<path d="M19.3624 19.9029C18.8821 18.7552 18.0076 17.6952 16.7473 17.3988C16.1296 17.2531 15.4754 17.2961 14.8974 17.5644C14.3128 17.836 13.8723 18.3594 13.599 18.9324C13.2479 19.6694 13.1485 20.4809 13.0641 21.2841C13.031 21.6021 13.5278 21.5988 13.5609 21.2841C13.7067 19.9012 14.0611 18.0447 15.7387 17.8277C17.1995 17.6389 18.3604 18.78 18.8854 20.0337C18.9367 20.1579 19.0494 20.244 19.1918 20.2076C19.3094 20.1761 19.417 20.0254 19.3657 19.9012L19.3624 19.9029Z" fill="#1B2C56"/>
<path d="M22.7105 25.7921C22.737 26.0836 22.891 26.3072 23.0566 26.2923C23.2222 26.2774 23.3348 26.029 23.31 25.7391C23.2835 25.4477 23.1295 25.2241 22.9639 25.239C22.7982 25.2539 22.6856 25.5023 22.7105 25.7921Z" fill="#1B2C56"/>
<path d="M20.8823 25.9542C20.9088 26.2457 21.0629 26.4693 21.2285 26.4544C21.3941 26.4395 21.5067 26.1911 21.4819 25.9012C21.4554 25.6098 21.3013 25.3862 21.1357 25.4011C20.9701 25.416 20.8575 25.6644 20.8823 25.9542Z" fill="#1B2C56"/>
<path d="M19.4214 31.3633C20.4614 31.8419 21.6058 32.4381 22.8082 33.1817C24.1049 33.9849 25.2212 34.8064 26.1635 35.5781C25.8985 36.1677 25.463 36.9643 24.7541 37.7775C24.1149 38.5112 23.459 39.0179 22.9506 39.3541C22.043 39.4369 21.1371 39.5181 20.2296 39.6009C19.9613 36.855 19.6913 34.1092 19.423 31.3649L19.4214 31.3633Z" fill="#6E8DF9" stroke="black" stroke-width="0.0828067" stroke-miterlimit="10"/>
<path d="M15.0282 30.8691C14.4535 30.9536 13.6287 31.1325 12.7162 31.5465C10.964 32.3414 9.95707 33.519 8.9667 34.7031C8.17341 35.6521 7.10686 37.131 6.23242 39.1846C6.99921 39.6682 8.20985 40.3091 9.81298 40.6784C11.5354 41.0759 13.001 40.9981 13.9285 40.8755C14.374 40.0657 16.0964 36.8793 16.6346 34.3917C16.7439 33.8833 16.8416 33.2341 16.5783 32.5319C16.2272 31.5978 15.4339 31.0878 15.0282 30.8691Z" fill="#6E8DF9" stroke="black" stroke-width="0.0828067" stroke-miterlimit="10"/>
<path d="M22.7536 62.4435C23.7572 62.4452 24.7559 62.5594 25.7313 62.793C26.6538 63.0132 27.6011 63.3146 28.4341 63.7767C28.8382 64.0003 29.1827 64.2918 29.4394 64.6776C29.6862 65.0503 29.8584 65.4626 30.0075 65.8816C30.337 66.8141 30.5805 67.7763 30.7776 68.7434C31.0078 69.8729 31.1734 71.0124 31.339 72.1518C31.3854 72.4664 31.864 72.3323 31.8176 72.0193C31.5129 69.9276 31.2065 67.816 30.5076 65.8121C30.1979 64.9244 29.7855 64.0748 28.9873 63.5299C28.5881 63.2583 28.136 63.0695 27.6905 62.8907C27.2152 62.7002 26.7283 62.5379 26.2348 62.4054C25.102 62.099 23.9261 61.9467 22.7519 61.9434C22.4323 61.9434 22.4323 62.4402 22.7519 62.4402L22.7536 62.4435Z" fill="#1B2C56"/>
<path d="M38.6377 35.2793C38.6377 35.2793 39.3299 35.8689 38.4224 37.4472L38.6377 35.2793Z" fill="white"/>
<path d="M38.6377 35.2793C38.6377 35.2793 39.3299 35.8689 38.4224 37.4472" stroke="black" stroke-width="0.0828067" stroke-miterlimit="10"/>
<path d="M43.9391 33.5176C43.9391 33.5176 42.6722 35.4818 40.7163 36.1011L43.9391 33.5176Z" fill="white"/>
<path d="M43.9391 33.5176C43.9391 33.5176 42.6722 35.4818 40.7163 36.1011" stroke="black" stroke-width="0.0828067" stroke-miterlimit="10"/>
<path d="M45.2472 34.8105C45.2472 34.8105 43.9803 36.7747 42.0244 37.3941L45.2472 34.8105Z" fill="white"/>
<path d="M45.2472 34.8105C45.2472 34.8105 43.9803 36.7747 42.0244 37.3941" stroke="black" stroke-width="0.0828067" stroke-miterlimit="10"/>
<path d="M46.7033 36.1562C46.7033 36.1562 45.4364 38.1204 43.4805 38.7398L46.7033 36.1562Z" fill="white"/>
<path d="M46.7033 36.1562C46.7033 36.1562 45.4364 38.1204 43.4805 38.7398" stroke="black" stroke-width="0.0828067" stroke-miterlimit="10"/>
<path d="M65.9961 41.6124C72.2563 41.3027 78.5148 40.9913 84.775 40.6816C84.9373 56.7163 85.0996 72.751 85.2619 88.7874L66.6006 89.1451C66.3985 73.3009 66.1981 57.4566 65.9961 41.614V41.6124Z" fill="#D7FF7B" stroke="black" stroke-width="0.165613" stroke-miterlimit="10"/>
<path d="M10.2324 44.3761C16.4926 44.0664 22.7511 43.755 29.0113 43.4453C29.2896 58.9136 29.5678 74.3802 29.846 89.8485C23.6256 89.9678 17.4051 90.087 11.1847 90.2063C10.8667 74.9301 10.5504 59.6539 10.2324 44.3777V44.3761Z" fill="#D7FF7B" stroke="black" stroke-width="0.165613" stroke-miterlimit="10"/>
<path d="M84.8428 47.3641C66.2709 48.2071 47.699 49.0484 29.1272 49.8914C29.0891 47.7434 29.0493 45.5937 29.0112 43.4457C47.5997 42.5249 66.1881 41.6025 84.7749 40.6816C84.7981 42.9091 84.8196 45.1366 84.8428 47.3641Z" fill="#D7FF7B" stroke="black" stroke-width="0.165613" stroke-miterlimit="10"/>
<path d="M29.0112 43.4462C30.0215 43.3965 30.5266 43.3717 31.5385 43.3203C31.8118 58.8134 32.085 74.3066 32.3583 89.7997C31.3547 89.8196 30.8512 89.8279 29.8476 89.8477C29.5693 74.3795 29.2911 58.9128 29.0129 43.4445L29.0112 43.4462Z" fill="#D7FF7B" stroke="black" stroke-width="0.165613" stroke-miterlimit="10"/>
<path d="M82.2495 40.8075C83.2598 40.7578 83.7649 40.733 84.7751 40.6816C84.9374 56.7163 85.0997 72.751 85.262 88.7874C84.2584 88.8072 83.7566 88.8155 82.7513 88.8354C82.5841 72.8255 82.4168 56.8174 82.2495 40.8075Z" fill="#D7FF7B" stroke="black" stroke-width="0.165613" stroke-miterlimit="10"/>
<path d="M90.9002 89.0099H90.2543L86.2514 67.394L85.6602 63.8516H87.5581L87.9887 67.394L90.9002 89.0099Z" fill="#D7FF7B" stroke="black" stroke-width="0.165613" stroke-miterlimit="10"/>
<path d="M102.906 89.0099H102.26L98.2571 67.394L97.6675 63.8516H99.5654L99.9944 67.394L102.906 89.0099Z" fill="#D7FF7B" stroke="black" stroke-width="0.165613" stroke-miterlimit="10"/>
<path d="M101.882 65.5158H72.5522V62.4255H83.5324L87.2223 40.957H100.764L101.882 65.5158Z" fill="#D0DCFF" stroke="black" stroke-width="0.165613" stroke-miterlimit="10"/>
<path d="M80.6042 79.4387C80.5727 79.6855 80.5214 80.0267 80.4436 80.4291C80.3243 81.0402 80.003 82.481 79.2097 84.1604C78.4496 85.7701 77.5851 86.9029 77.0253 87.6266C76.3132 88.5491 75.9024 88.9251 75.7186 89.7034C75.4884 90.6806 75.7815 91.5898 76.0647 92.2042C77.5867 91.7869 79.276 91.2022 81.0547 90.3709C85.5759 88.2576 88.7689 85.4406 90.8226 83.2545C90.5079 82.5887 90.0889 81.8302 89.5308 81.0352C88.7905 79.9819 85.296 75.151 83.9595 74.1523C83.5422 74.4952 81.0497 77.463 80.2995 77.2526C80.4005 77.9813 80.5032 78.71 80.6042 79.4404V79.4387Z" fill="#1FFFB4" stroke="black" stroke-width="0.165613" stroke-miterlimit="10"/>
<path d="M76.1989 92.2165C78.3684 91.6766 80.4701 90.8933 82.4591 89.8747C84.6816 88.7353 86.7568 87.3276 88.6116 85.6566C89.395 84.9511 90.1386 84.2041 90.8491 83.4274C91.0213 83.2386 90.7166 82.9852 90.5427 83.174C89.1764 84.6679 87.6809 86.0375 86.0397 87.2249C83.9678 88.7221 81.6923 89.941 79.2992 90.8403C78.2409 91.2377 77.1578 91.5706 76.0615 91.8439C75.813 91.9052 75.9505 92.2795 76.1973 92.2182L76.1989 92.2165Z" fill="#1FFFB4" stroke="black" stroke-width="0.165613" stroke-miterlimit="10"/>
<path d="M60.2966 83.0165C60.1459 83.2136 59.9323 83.4852 59.6623 83.7932C59.2533 84.2636 58.2546 85.35 56.7293 86.4066C55.267 87.4201 53.9503 87.9683 53.104 88.3161C52.0259 88.7583 51.4827 88.8775 50.9345 89.4622C50.2472 90.1942 50.0468 91.1282 49.9839 91.8006C51.5108 92.1997 53.2663 92.5376 55.2222 92.7065C60.194 93.1371 64.3691 92.2941 67.2408 91.428C67.3004 90.6943 67.3186 89.8282 67.2309 88.8593C67.1149 87.5775 66.5055 81.6469 65.848 80.1133C65.3147 80.2011 61.6729 81.5243 61.128 80.9678C60.8514 81.6502 60.5749 82.3325 60.2983 83.0148L60.2966 83.0165Z" fill="#1FFFB4" stroke="black" stroke-width="0.165613" stroke-miterlimit="10"/>
<path d="M50.0934 91.8788C52.2414 92.4948 54.454 92.8691 56.6865 92.9801C59.1806 93.1043 61.6814 92.9238 64.1242 92.4038C65.1543 92.1851 66.1728 91.9102 67.1764 91.5922C67.4199 91.5144 67.2824 91.1418 67.039 91.2196C65.1079 91.8307 63.1288 92.2696 61.1133 92.4766C58.5712 92.7383 55.9893 92.6555 53.4686 92.2365C52.3524 92.051 51.2494 91.7976 50.163 91.4862C49.9179 91.415 49.85 91.8075 50.0934 91.8771V91.8788Z" fill="#1FFFB4" stroke="black" stroke-width="0.165613" stroke-miterlimit="10"/>
<path d="M77.9659 80.3397L86.8246 74.1524C86.8246 74.1524 80.6108 61.8523 80.8145 61.5873C81.5283 60.6665 90.1385 61.0855 93.8565 57.389C97.7948 53.4755 94.7856 47.9043 94.7856 47.9043H84.4977C84.4977 47.9043 84.5921 50.6965 84.1499 51.0609C83.8585 51.3043 68.7313 52.7634 68.1401 56.7547C67.1149 63.6641 77.9659 80.3397 77.9659 80.3397Z" fill="#E745A0" stroke="black" stroke-width="0.165613" stroke-miterlimit="10"/>
<path d="M57.1447 82.4669L69.4713 82.3758C69.4713 82.3758 73.9893 68.1695 74.9896 67.0997C75.4963 66.5564 78.8881 65.9536 82.9407 65.0643L82.9622 65.0593C84.4593 64.7314 86.0459 64.3637 87.6077 63.9414C91.6751 62.8566 95.5852 61.4291 97.3672 59.4583C101.094 55.3394 97.3672 47.8984 97.3672 47.8984H86.8707C86.8707 47.8984 86.6107 51.1378 87.4139 53.1219C87.4139 53.1219 79.6913 54.2563 73.1877 56.3663C69.5028 57.562 66.2104 59.0724 64.9352 60.8693C62.446 64.3836 57.1431 82.4669 57.1431 82.4669H57.1447Z" fill="#E745A0" stroke="black" stroke-width="0.165613" stroke-miterlimit="10"/>
<path d="M87.058 34.4524C84.1416 36.7494 80.667 39.7321 80.2795 39.9557C79.9101 40.1677 74.9301 39.0233 72.2538 38.697C71.3926 38.4039 68.9316 37.6404 66.4143 37.5278C65.3527 37.4798 61.7606 39.1723 62.0835 40.2124C62.1199 40.3349 62.1912 40.4078 62.2839 40.4442C61.8649 40.7887 61.6132 41.1696 61.802 41.5307C61.9129 41.7443 62.1365 41.8255 62.418 41.8155C62.2392 42.0209 62.1895 42.2312 62.3452 42.4399C62.6168 42.8042 63.6287 42.6303 64.6124 42.3455C63.9698 42.6469 63.4879 43.0046 63.7181 43.3425C64.3292 44.2368 66.4673 43.364 67.9959 42.9765C68.7859 42.7761 69.9468 42.6188 70.0247 43.1272C70.0694 43.4187 69.4566 43.6969 69.0078 43.7482C68.1565 43.8476 66.9509 43.9619 67.0072 44.4952C67.0883 45.2768 69.132 45.3232 69.8425 45.3216C70.2052 45.3216 70.6639 45.2802 71.0995 45.2288C71.3877 45.2785 71.7338 45.3398 72.1263 45.4011C73.592 45.6362 75.6986 45.9178 77.7853 45.9658C79.5657 46.0039 81.3377 45.8697 82.6941 45.3895C84.3767 44.7949 86.5959 41.221 89.1265 36.4563C90.5293 33.8147 89.0702 32.8625 87.058 34.4507V34.4524Z" fill="white" stroke="black" stroke-width="0.0828067" stroke-miterlimit="10"/>
<path d="M82.5967 36.9049L87.8135 40.4259C87.8135 40.4259 89.4315 36.7012 90.1602 35.3084C91.1258 33.4651 90.667 32.6752 88.2905 33.5976C86.6989 34.2137 82.5967 36.9049 82.5967 36.9049Z" fill="#EF9DD7" stroke="black" stroke-width="0.0828067" stroke-miterlimit="10"/>
<path d="M84.3301 49.2857L99.0879 50.4781C99.0879 50.4781 96.877 37.3367 93.8363 34.0874C92.4518 32.6085 89.532 33.1003 88.386 34.0526C88.0995 34.2911 84.5537 38.7925 84.2523 40.3608C83.9873 41.747 85.1135 43.2856 85.1135 43.2856L84.3301 49.2857Z" fill="#EF9DD7" stroke="black" stroke-width="0.0828067" stroke-miterlimit="10"/>
<path d="M93.8349 34.5692C92.7832 33.6219 89.2424 32.9015 90.978 36.5814C92.4818 39.7728 93.7156 42.3331 93.7388 42.6528C93.7686 43.0916 88.4226 44.4961 85.8043 45.4881C85.8043 45.4881 83.2091 45.9485 81.5265 46.3294C80.5874 46.5414 79.0108 47.0498 78.3914 47.5218C77.4673 48.2273 74.049 51.7698 74.8903 52.6161C75.3772 53.1063 76.5945 51.8874 77.4093 50.9434C76.6492 51.9553 75.7118 53.4557 76.4107 53.941C76.8661 54.2573 77.5484 53.6926 78.186 52.9324C77.8714 53.6031 77.7654 54.206 78.2258 54.4279C78.711 54.6631 79.5755 53.7837 80.2976 52.8777C79.8637 53.6114 79.5805 54.3517 80.0144 54.5852C81.0594 55.1483 83.4542 51.8493 83.4542 51.8493C85.7215 52.6177 87.2335 52.2352 88.3067 51.7317C91.0857 50.7794 97.9785 48.123 100.203 45.4848C101.71 43.6961 97.5098 37.8814 93.8349 34.5675V34.5692Z" fill="white" stroke="black" stroke-width="0.0828067" stroke-miterlimit="10"/>
<path d="M98.2053 38.6638L91.9931 39.7834C91.9931 39.7834 90.8471 37.2147 90.4132 35.7043C89.8385 33.7054 92.0776 32.2976 94.2206 33.6805C95.6548 34.6046 98.2036 38.6638 98.2036 38.6638H98.2053Z" fill="#EF9DD7" stroke="black" stroke-width="0.0828067" stroke-miterlimit="10"/>
<path d="M91.0417 27.6279C90.9489 27.5915 90.8529 27.5733 90.7568 27.57C90.9787 25.9569 90.4587 24.521 89.3242 24.0043C87.8006 23.3104 85.7487 24.5392 84.7417 26.7502C83.7348 28.9611 84.1521 31.3161 85.6758 32.0101C86.0832 32.1955 86.5287 32.2436 86.9825 32.1707C87.0289 32.2369 87.0736 32.3082 87.1166 32.386C87.1796 32.4986 87.2441 32.6394 87.3601 33.012C87.4412 33.2753 87.5423 33.6347 87.6333 34.0753C87.8735 34.0918 88.1385 34.0902 88.425 34.0603C89.5114 33.9477 90.3295 33.4774 90.8115 33.1346C90.6624 32.7371 90.5183 32.28 90.4007 31.7683C90.2633 31.1687 90.1937 30.6206 90.1606 30.1337C90.669 30.2579 91.252 29.8836 91.507 29.2476C91.7803 28.5653 91.5716 27.8383 91.0417 27.6263V27.6279Z" fill="white" stroke="black" stroke-width="0.0828067" stroke-miterlimit="10"/>
<path d="M85.2619 25.2713C85.4308 25.7748 85.7885 26.0845 86.1214 26.366C87.395 27.4425 88.9418 27.4855 89.586 27.464C89.7285 27.8366 89.8709 28.2093 90.0117 28.5819C90.2336 28.0884 90.694 27.8714 90.9838 27.984C91.3184 28.1149 91.3647 28.6664 91.2852 29.0059C91.171 29.4944 90.9954 29.9383 90.9126 29.9846C91.4906 30.0757 92.0189 29.8753 92.6631 29.4514C94.1205 28.4925 94.0742 25.9155 93.3041 24.2909C92.2756 22.1213 89.4221 20.5232 87.3536 21.4622C85.9525 22.0981 84.8131 23.9398 85.2602 25.2696L85.2619 25.2713Z" fill="#1B2C56"/>
<path d="M85.439 27.8975C85.2717 28.762 85.5913 29.552 86.1511 29.6596C86.7125 29.7673 87.3021 29.1545 87.4694 28.29C87.6367 27.4255 87.317 26.6355 86.7572 26.5279C86.1975 26.4202 85.6062 27.033 85.439 27.8975Z" fill="#B9F2E1"/>
<path d="M83.5215 27.3828C83.3692 28.1711 83.5961 28.8783 84.0283 28.9627C84.4606 29.0472 84.9342 28.4742 85.0883 27.6859C85.2406 26.8975 85.0137 26.1904 84.5815 26.1059C84.1492 26.0215 83.6756 26.5945 83.5215 27.3828Z" fill="#B9F2E1"/>
<path d="M93.9302 24.8471C94.9999 24.2931 95.418 22.9769 94.864 21.9072C94.31 20.8375 92.9938 20.4195 91.9241 20.9735C90.8544 21.5275 90.4364 22.8437 90.9904 23.9134C91.5444 24.983 92.8606 25.401 93.9302 24.8471Z" fill="#1B2C56"/>
<path d="M94.2137 22.0792C95.0699 22.6141 95.4309 23.7304 94.9457 24.6396C94.4405 25.5902 93.3044 25.7674 92.3356 25.8883C92.0226 25.9281 92.0193 26.4249 92.3356 26.3852C93.5214 26.2361 94.8778 25.9844 95.4309 24.7737C95.9543 23.6327 95.5187 22.3094 94.4637 21.6486C94.1921 21.478 93.9421 21.9086 94.2137 22.0776V22.0792Z" fill="#1B2C56"/>
<path d="M85.0879 27.6875H85.3943" stroke="black" stroke-width="0.12421" stroke-miterlimit="10"/>
<path d="M87.5142 28.0938L90.0133 28.5823" stroke="black" stroke-width="0.12421" stroke-miterlimit="10"/>
<path d="M83.7571 27.3205C83.7074 27.6087 83.8001 27.8654 83.9641 27.8935C84.128 27.9217 84.3003 27.7114 84.35 27.4232C84.3996 27.135 84.3069 26.8783 84.1429 26.8502C83.979 26.822 83.8067 27.0324 83.7571 27.3205Z" fill="#1B2C56"/>
<path d="M85.7649 27.6994C85.7152 27.9876 85.8079 28.2443 85.9719 28.2725C86.1358 28.3006 86.3081 28.0903 86.3578 27.8021C86.4075 27.5139 86.3147 27.2572 86.1508 27.2291C85.9868 27.2009 85.8146 27.4113 85.7649 27.6994Z" fill="#1B2C56"/>
<path d="M33.9756 11.1674C34.5519 16.6806 39.4905 20.6835 45.0038 20.1072C47.2313 19.8737 49.212 18.928 50.7456 17.5153L55.767 18.2523L53.2547 13.9116C53.8641 12.4277 54.1208 10.7782 53.9436 9.07899C53.3673 3.56572 48.4287 -0.437158 42.9154 0.139177C37.4021 0.715512 33.3993 5.6541 33.9756 11.1674Z" fill="#D0DCFF" stroke="black" stroke-width="0.165613" stroke-miterlimit="10"/>
<path d="M38.25 7.47724C39.5616 7.44577 40.8733 7.41596 42.1833 7.38449C44.2651 7.33481 46.3468 7.28678 48.4286 7.2371C48.9072 7.2255 49.3858 7.21391 49.8644 7.20397C50.1841 7.19569 50.1841 6.69885 49.8644 6.70713C48.5528 6.7386 47.2411 6.76841 45.9311 6.79988C43.8494 6.84956 41.7676 6.89759 39.6858 6.94727C39.2072 6.95887 38.7286 6.97046 38.25 6.9804C37.9303 6.98868 37.9303 7.48552 38.25 7.47724Z" fill="#D0DCFF" stroke="black" stroke-width="0.165613" stroke-miterlimit="10"/>
<path d="M38.25 10.5358C39.5616 10.5044 40.8733 10.4746 42.1833 10.4431C44.2651 10.3934 46.3468 10.3454 48.4286 10.2957C48.9072 10.2841 49.3858 10.2725 49.8644 10.2626C50.1841 10.2543 50.1841 9.75745 49.8644 9.76573C48.5528 9.79719 47.2411 9.827 45.9311 9.85847C43.8494 9.90815 41.7676 9.95618 39.6858 10.0059C39.2072 10.0175 38.7286 10.0291 38.25 10.039C37.9303 10.0473 37.9303 10.5441 38.25 10.5358Z" fill="#D0DCFF" stroke="black" stroke-width="0.165613" stroke-miterlimit="10"/>
<path d="M38.25 13.5925C39.5616 13.561 40.8733 13.5312 42.1833 13.4997C44.2651 13.45 46.3468 13.402 48.4286 13.3523C48.9072 13.3407 49.3858 13.3291 49.8644 13.3192C50.1841 13.3109 50.1841 12.8141 49.8644 12.8224C48.5528 12.8538 47.2411 12.8836 45.9311 12.9151C43.8494 12.9648 41.7676 13.0128 39.6858 13.0625C39.2072 13.0741 38.7286 13.0857 38.25 13.0956C37.9303 13.1039 37.9303 13.6008 38.25 13.5925Z" fill="#D0DCFF" stroke="black" stroke-width="0.165613" stroke-miterlimit="10"/>
<path d="M48.0908 38.6267C48.0908 38.6267 51.9264 39.1335 56.2291 37.7324L48.0908 38.6267Z" fill="white"/>
<path d="M48.0908 38.6267C48.0908 38.6267 51.9264 39.1335 56.2291 37.7324" stroke="black" stroke-width="0.0828067" stroke-miterlimit="10"/>
<path d="M49.5879 40.401C49.5879 40.401 54.3095 40.5235 56.229 39.1953L49.5879 40.401Z" fill="white"/>
<path d="M49.5879 40.401C49.5879 40.401 54.3095 40.5235 56.229 39.1953" stroke="black" stroke-width="0.0828067" stroke-miterlimit="10"/>
<path d="M51.4331 41.6999C51.4331 41.6999 54.901 41.7993 56.2293 40.8105L51.4331 41.6999Z" fill="white"/>
<path d="M51.4331 41.6999C51.4331 41.6999 54.901 41.7993 56.2293 40.8105" stroke="black" stroke-width="0.0828067" stroke-miterlimit="10"/>
<path d="M61.5289 21.6133C61.5289 21.6133 61.398 30.7651 62.1152 31.3861L61.5289 21.6133Z" fill="#1FFFB4"/>
<path d="M61.5289 21.6133C61.5289 21.6133 61.398 30.7651 62.1152 31.3861" stroke="black" stroke-width="0.0828067" stroke-miterlimit="10"/>
<path d="M72.555 29.1163L72.4341 22.9141" stroke="black" stroke-width="0.0828067" stroke-miterlimit="10"/>
<path d="M63.6636 9.57422L64.172 9.67855" stroke="black" stroke-width="0.0828067" stroke-miterlimit="10"/>
<path d="M66.0698 10.0801L68.7693 10.1314" stroke="black" stroke-width="0.0828067" stroke-miterlimit="10"/>
<path d="M62.2842 40.4446C62.2842 40.4446 64.1291 38.9524 65.9956 38.709L62.2842 40.4446Z" fill="white"/>
<path d="M62.2842 40.4446C62.2842 40.4446 64.1291 38.9524 65.9956 38.709" stroke="black" stroke-width="0.0828067" stroke-miterlimit="10"/>
<path d="M64.6128 42.3467C64.6128 42.3467 66.2391 41.3066 67.5905 41.3066L64.6128 42.3467Z" fill="white"/>
<path d="M64.6128 42.3467C64.6128 42.3467 66.2391 41.3066 67.5905 41.3066" stroke="black" stroke-width="0.0828067" stroke-miterlimit="10"/>
<path d="M62.4185 41.8171C62.4185 41.8171 64.8728 39.9209 67.3305 39.8281L62.4185 41.8171Z" fill="white"/>
<path d="M62.4185 41.8171C62.4185 41.8171 64.8728 39.9209 67.3305 39.8281" stroke="black" stroke-width="0.0828067" stroke-miterlimit="10"/>
<path d="M78.186 52.9344L79.9581 50.6191" stroke="black" stroke-width="0.0828067" stroke-miterlimit="10"/>
<path d="M80.2563 52.9344L82.0284 50.6191" stroke="black" stroke-width="0.0828067" stroke-miterlimit="10"/>
<path d="M77.3003 51.0513L79.0724 48.7344" stroke="black" stroke-width="0.0828067" stroke-miterlimit="10"/>
</g>
<defs>
<clipPath id="clip0_223_10417">
<rect width="103" height="93.1012" fill="white"/>
</clipPath>
</defs>
</svg>
