<svg width="256" height="174" viewBox="0 0 256 174" fill="none" xmlns="http://www.w3.org/2000/svg">
<path d="M223.154 136.107V122H236.064V137.316L248.503 129.658L254.667 140.602L242.333 147.442L254.667 154.808L248.367 165.666L236.064 158.163V172.908H223.154V158.696L210.97 165.802L204 154.945L216.736 147.454L204 140.336L210.97 128.461L223.154 136.107Z" fill="#DF64C1" stroke="black" stroke-width="0.620079" stroke-miterlimit="10"/>
<g clip-path="url(#clip0_223_4208)">
<path d="M23.8193 22.2441L95.5874 50.9528L111.58 75.5531L26.2786 41.1084L23.8193 22.2441Z" fill="#E745A0" stroke="black" stroke-width="0.723323" stroke-miterlimit="10"/>
<path d="M126.126 1.70898L178.661 20.9928L192.636 45.0216L141.214 25.1808L126.126 1.70898Z" fill="#E745A0" stroke="black" stroke-width="0.723323" stroke-miterlimit="10"/>
<path d="M192.635 45.0216L133.113 146.46L4.28915 93.3685L26.2782 41.1084L4.28915 93.3685L0.375977 72.1317L23.8189 22.2441L95.587 50.9528L111.58 75.5531L141.214 25.1808" fill="#E745A0"/>
<path d="M192.635 45.0216L133.113 146.46L4.28915 93.3685L26.2782 41.1084L4.28915 93.3685L0.375977 72.1317L23.8189 22.2441L95.587 50.9528L111.58 75.5531L141.214 25.1808" stroke="black" stroke-width="0.723323" stroke-miterlimit="10"/>
<path d="M95.5869 50.9528L126.126 1.70898L141.214 25.1808L111.58 75.553L95.5869 50.9528Z" fill="#E745A0" stroke="black" stroke-width="0.723323" stroke-miterlimit="10"/>
<path d="M23.8193 22.2441L26.2786 41.1084L111.58 75.5531L95.5874 50.9528L23.8193 22.2441Z" fill="#E745A0" stroke="black" stroke-width="0.723323" stroke-miterlimit="10"/>
</g>
<path d="M241.571 23.9572C247.884 23.9572 253.002 18.818 253.002 12.4786C253.002 6.13914 247.884 1 241.571 1C235.258 1 230.141 6.13914 230.141 12.4786C230.141 18.818 235.258 23.9572 241.571 23.9572Z" fill="#CD89FF" stroke="black" stroke-width="0.465036" stroke-miterlimit="10"/>
<path d="M96.4306 159.957C102.744 159.957 107.861 154.818 107.861 148.479C107.861 142.139 102.744 137 96.4306 137C90.1177 137 85 142.139 85 148.479C85 154.818 90.1177 159.957 96.4306 159.957Z" fill="#D7FF7B" stroke="black" stroke-width="0.465036" stroke-miterlimit="10"/>
<path d="M221.12 84.275C223.396 84.275 225.24 82.4226 225.24 80.1375C225.24 77.8524 223.396 76 221.12 76C218.845 76 217 77.8524 217 80.1375C217 82.4226 218.845 84.275 221.12 84.275Z" fill="#F04194" stroke="black" stroke-width="0.465036" stroke-miterlimit="10"/>
<defs>
<clipPath id="clip0_223_4208">
<rect width="193.46" height="145.916" fill="white" transform="translate(0 1)"/>
</clipPath>
</defs>
</svg>
