<svg width="231" height="167" viewBox="0 0 231 167" fill="none" xmlns="http://www.w3.org/2000/svg">
<g clip-path="url(#clip0_548_1316)">
<path d="M185.544 162.358L170.311 160.309L170.397 159.675L185.629 161.723C189.165 162.198 192.866 160.576 195.057 157.589L195.575 157.968C193.248 161.145 189.308 162.864 185.544 162.358Z" fill="#007CFF" stroke="black" stroke-width="0.379179" stroke-miterlimit="10"/>
<path d="M167.381 159.27L161.142 158.431L161.057 159.065L167.296 159.904L167.381 159.27Z" fill="#007CFF" stroke="black" stroke-width="0.379179" stroke-miterlimit="10"/>
<path d="M185.843 160.136L7.61892 136.173C3.4299 135.609 0.761668 131.761 1.69305 127.622L26.1708 18.4785C27.1022 14.3389 31.2888 11.4125 35.4778 11.9758L213.702 35.9396C217.891 36.5029 220.559 40.351 219.627 44.4905L195.143 153.633C194.212 157.772 190.025 160.699 185.836 160.136L185.843 160.136Z" fill="#CD89FF" stroke="black" stroke-width="0.758357" stroke-miterlimit="10"/>
<path d="M182.441 157.32L8.66025 133.954C5.09324 133.474 2.82007 130.196 3.61069 126.671L25.9161 27.2449C26.1432 26.2287 27.1626 25.5192 28.1908 25.6575L211.213 50.2665C212.241 50.4048 212.891 51.3386 212.664 52.3549L190.358 151.781C189.568 155.306 186.002 157.799 182.435 157.319L182.441 157.32Z" fill="white" stroke="black" stroke-width="0.379179" stroke-miterlimit="10"/>
<path d="M46.5781 20.9706C46.317 22.1438 45.0635 22.8153 43.9477 22.368C40.0911 20.822 37.8776 16.7637 38.8481 12.4291C39.9926 7.3296 45.1274 3.74234 50.2875 4.43616C54.6796 5.02673 57.6982 8.52778 57.796 12.7023C57.8222 13.9012 56.7594 14.8374 55.5725 14.6779C54.6522 14.5541 53.9467 13.7937 53.8838 12.8677C53.7184 10.4934 51.9588 8.53794 49.4391 8.19913C46.3798 7.78779 43.3351 9.91141 42.6563 12.9412C42.0954 15.4311 43.3129 17.7659 45.4684 18.7471C46.3148 19.1323 46.7797 20.0478 46.5798 20.9579L46.5781 20.9706Z" fill="white" stroke="black" stroke-width="0.379179" stroke-linecap="round" stroke-linejoin="round"/>
<path d="M84.2475 26.0355C83.9864 27.2087 82.733 27.8802 81.6171 27.433C77.7605 25.887 75.547 21.8286 76.5176 17.4941C77.662 12.3945 82.7905 8.80643 87.9569 9.50111C92.3491 10.0917 95.3677 13.5927 95.4654 17.7672C95.4916 18.9662 94.4288 19.9024 93.2419 19.7428C92.3216 19.6191 91.6161 18.8586 91.5532 17.9326C91.3879 15.5583 89.6283 13.6029 87.1085 13.2641C84.0429 12.8519 81.0045 14.9763 80.3258 18.0061C79.7648 20.496 80.9814 22.8372 83.1378 23.8121C83.9842 24.1973 84.4491 25.1127 84.2492 26.0228L84.2475 26.0355Z" fill="white" stroke="black" stroke-width="0.379179" stroke-linecap="round" stroke-linejoin="round"/>
<path d="M121.917 31.1005C121.656 32.2737 120.403 32.9452 119.287 32.4979C115.43 30.9519 113.217 26.8936 114.187 22.559C115.332 17.4595 120.46 13.8714 125.627 14.566C130.019 15.1566 133.037 18.6577 133.135 22.8322C133.161 24.0311 132.098 24.9673 130.912 24.8077C129.991 24.684 129.286 23.9236 129.223 22.9976C129.058 20.6232 127.298 18.6678 124.778 18.329C121.713 17.9168 118.674 20.0413 117.995 23.071C117.434 25.5609 118.651 27.9021 120.808 28.877C121.654 29.2622 122.119 30.1777 121.919 31.0878L121.917 31.1005Z" fill="white" stroke="black" stroke-width="0.379179" stroke-linecap="round" stroke-linejoin="round"/>
<path d="M159.586 36.1654C159.325 37.3386 158.072 38.0101 156.956 37.5628C153.099 36.0169 150.886 31.9585 151.856 27.6239C153.001 22.5244 158.129 18.9363 163.296 19.631C167.688 20.2216 170.707 23.7226 170.811 27.898C170.837 29.0969 169.774 30.0331 168.587 29.8735C167.667 29.7498 166.961 28.9894 166.898 28.0634C166.733 25.689 164.973 23.7336 162.454 23.3948C159.394 22.9835 156.35 25.1071 155.671 28.1368C155.11 30.6267 156.328 32.9616 158.483 33.9428C159.329 34.328 159.794 35.2435 159.594 36.1536L159.593 36.1663L159.586 36.1654Z" fill="white" stroke="black" stroke-width="0.379179" stroke-linecap="round" stroke-linejoin="round"/>
<path d="M197.256 41.2308C196.995 42.4041 195.742 43.0756 194.626 42.6283C190.769 41.0823 188.556 37.0239 189.526 32.6894C190.671 27.5899 195.799 24.0017 200.965 24.6964C205.358 25.287 208.376 28.788 208.474 32.9626C208.5 34.1615 207.437 35.0977 206.25 34.9381C205.33 34.8144 204.625 34.054 204.562 33.1279C204.396 30.7536 202.637 28.7982 200.117 28.4594C197.058 28.048 194.013 30.1717 193.334 33.2014C192.773 35.6913 193.991 38.0262 196.146 39.0074C196.993 39.3926 197.458 40.3081 197.258 41.2181L197.256 41.2308Z" fill="white" stroke="black" stroke-width="0.379179" stroke-linecap="round" stroke-linejoin="round"/>
<path d="M182.598 152.696L10.8035 129.597C10.6258 129.573 10.5176 129.416 10.5542 129.24L32.3216 32.2293C32.3582 32.0533 32.5356 31.935 32.707 31.9581L204.495 55.0566C204.673 55.0805 204.781 55.2372 204.744 55.4132L182.983 152.425C182.947 152.601 182.769 152.719 182.598 152.696ZM11.2633 129.012L182.417 152.025L204.035 55.6409L32.8819 32.6278L11.2633 129.012Z" fill="#E1E1E1" stroke="black" stroke-width="0.379179" stroke-miterlimit="10"/>
<path d="M186.945 133.294L15.1567 110.196C14.979 110.172 14.8708 110.015 14.9074 109.839C14.944 109.663 15.1215 109.545 15.2928 109.568L187.081 132.666C187.258 132.69 187.367 132.847 187.33 133.023C187.293 133.199 187.116 133.317 186.945 133.294Z" fill="#E1E1E1" stroke="black" stroke-width="0.379179" stroke-miterlimit="10"/>
<path d="M191.298 113.893L19.5102 90.7947C19.3325 90.7708 19.2243 90.6141 19.2609 90.4381C19.2975 90.2621 19.475 90.1438 19.6463 90.1668L191.434 113.265C191.612 113.289 191.72 113.446 191.684 113.622C191.647 113.798 191.47 113.916 191.298 113.893Z" fill="#E1E1E1" stroke="black" stroke-width="0.379179" stroke-miterlimit="10"/>
<path d="M195.651 94.4923L23.8635 71.3938C23.6858 71.3699 23.5776 71.2132 23.6142 71.0372C23.6508 70.8612 23.8282 70.7429 23.9996 70.7659L195.788 93.8644C195.965 93.8883 196.073 94.045 196.037 94.221C196 94.397 195.823 94.5153 195.651 94.4923Z" fill="#E1E1E1" stroke="black" stroke-width="0.379179" stroke-miterlimit="10"/>
<path d="M200.006 75.0851L28.2177 51.9866C28.04 51.9627 27.9319 51.806 27.9685 51.63C28.005 51.454 28.1825 51.3357 28.3539 51.3587L200.142 74.4572C200.319 74.4811 200.428 74.6378 200.391 74.8138C200.354 74.9898 200.177 75.1081 200.006 75.0851Z" fill="#E1E1E1" stroke="black" stroke-width="0.379179" stroke-miterlimit="10"/>
<path d="M161.119 149.807C160.942 149.784 160.834 149.627 160.87 149.451L182.631 52.4394C182.668 52.2634 182.845 52.1451 183.017 52.1682C183.188 52.1912 183.302 52.3488 183.266 52.5248L161.505 149.536C161.468 149.712 161.291 149.831 161.119 149.807Z" fill="#E1E1E1" stroke="black" stroke-width="0.379179" stroke-miterlimit="10"/>
<path d="M139.648 146.921C139.47 146.897 139.362 146.74 139.398 146.564L161.159 49.5527C161.196 49.3767 161.373 49.2584 161.545 49.2814C161.716 49.3045 161.831 49.462 161.794 49.638L140.033 146.65C139.996 146.826 139.819 146.944 139.648 146.921Z" fill="#E1E1E1" stroke="black" stroke-width="0.379179" stroke-miterlimit="10"/>
<path d="M118.176 144.034C117.998 144.01 117.89 143.853 117.927 143.677L139.688 46.6655C139.724 46.4895 139.902 46.3712 140.073 46.3942C140.244 46.4173 140.359 46.5748 140.322 46.7508L118.561 143.762C118.525 143.938 118.347 144.057 118.176 144.034Z" fill="#E1E1E1" stroke="black" stroke-width="0.379179" stroke-miterlimit="10"/>
<path d="M96.7039 141.146C96.5262 141.122 96.418 140.966 96.4546 140.79L118.216 43.7783C118.252 43.6023 118.43 43.484 118.601 43.507C118.772 43.5301 118.887 43.6876 118.85 43.8636L97.0893 140.875C97.0527 141.051 96.8753 141.169 96.7039 141.146Z" fill="#E1E1E1" stroke="black" stroke-width="0.379179" stroke-miterlimit="10"/>
<path d="M75.2254 138.259C75.0477 138.235 74.9395 138.078 74.9761 137.902L96.7371 40.8906C96.7737 40.7146 96.9511 40.5963 97.1225 40.6193C97.2939 40.6424 97.4084 40.7999 97.3718 40.9759L75.6108 137.987C75.5742 138.163 75.3968 138.282 75.2254 138.259Z" fill="#E1E1E1" stroke="black" stroke-width="0.379179" stroke-miterlimit="10"/>
<path d="M53.7537 135.371C53.576 135.348 53.4678 135.191 53.5044 135.015L75.2654 38.0034C75.302 37.8274 75.4795 37.7091 75.6508 37.7321C75.8222 37.7552 75.9367 37.9127 75.9001 38.0887L54.1391 135.1C54.1025 135.276 53.9251 135.395 53.7537 135.371Z" fill="#E1E1E1" stroke="black" stroke-width="0.379179" stroke-miterlimit="10"/>
<path d="M32.2818 132.484C32.1041 132.46 31.9959 132.304 32.0325 132.128L53.7935 35.1162C53.8301 34.9402 54.0075 34.8219 54.1789 34.8449C54.3503 34.868 54.4648 35.0255 54.4282 35.2015L32.6672 132.213C32.6306 132.389 32.4532 132.507 32.2818 132.484Z" fill="#E1E1E1" stroke="black" stroke-width="0.379179" stroke-miterlimit="10"/>
<path d="M127.557 83.0101L114.438 81.2461C113.314 81.0951 112.611 80.0765 112.857 78.9659L115.439 67.4557C115.685 66.3451 116.797 65.5706 117.921 65.7216L131.04 67.4857C132.163 67.6367 132.866 68.6553 132.62 69.7659L130.039 81.2761C129.792 82.3867 128.68 83.1612 127.557 83.0101Z" fill="#007CFF" stroke="black" stroke-width="0.379179" stroke-miterlimit="10"/>
<path d="M127.557 83.0101L114.438 81.2461C113.314 81.0951 112.611 80.0765 112.857 78.9659L115.439 67.4557C115.685 66.3451 116.797 65.5706 117.921 65.7216L131.04 67.4857C132.163 67.6367 132.866 68.6553 132.62 69.7659L130.039 81.2761C129.792 82.3867 128.68 83.1612 127.557 83.0101Z" fill="#DF64C1" stroke="black" stroke-width="0.758357" stroke-miterlimit="10"/>
<path d="M219.1 95.3185L205.301 93.4632L208.784 77.9451L222.576 79.7995L216.341 86.9544L219.1 95.3185Z" fill="#E0FF70" stroke="black" stroke-width="0.758357" stroke-miterlimit="10"/>
<path d="M166.033 108.17L152.914 106.406C151.79 106.255 151.087 105.236 151.334 104.126L153.915 92.6154C154.161 91.5048 155.274 90.7303 156.397 90.8813L169.516 92.6453C170.64 92.7964 171.343 93.8149 171.097 94.9256L168.515 106.436C168.269 107.546 167.157 108.321 166.033 108.17Z" fill="#007CFF" stroke="black" stroke-width="0.379179" stroke-miterlimit="10"/>
<path d="M166.033 108.17L152.914 106.406C151.79 106.255 151.087 105.236 151.334 104.126L153.915 92.6154C154.161 91.5048 155.274 90.7303 156.397 90.8813L169.516 92.6453C170.64 92.7964 171.343 93.8149 171.097 94.9256L168.515 106.436C168.269 107.546 167.157 108.321 166.033 108.17Z" fill="#DF64C1" stroke="black" stroke-width="0.758357" stroke-miterlimit="10"/>
<path d="M196.453 72.2875L161.614 67.6031C160.491 67.452 159.788 66.4335 160.034 65.3228L162.616 53.8126C162.862 52.702 163.974 51.9275 165.097 52.0786L199.936 56.763C201.06 56.914 201.763 57.9326 201.516 59.0432L198.935 70.5534C198.689 71.664 197.576 72.4385 196.453 72.2875Z" fill="#1FFFB4" stroke="black" stroke-width="0.758357" stroke-miterlimit="10"/>
<path d="M55.2152 70.5819C49.9218 69.8702 45.7624 67.4047 43.1218 63.3987C39.7246 58.2443 39.8851 52.4373 43.5504 48.2454C48.9741 42.0283 61.2313 39.9673 68.8326 42.0168C69.0006 42.0653 69.0872 42.2384 69.026 42.4047C68.9649 42.5709 68.7773 42.6685 68.6085 42.6264C61.1942 40.6279 49.2841 42.6063 44.029 48.6264C39.8955 53.3692 41.1379 59.1709 43.6766 63.021C47.2243 68.4025 52.8588 69.8451 56.9593 70.1056C64.7688 70.6064 73.8432 67.3227 79.5293 61.9422C81.1209 60.4373 83.6515 57.4757 82.7347 54.5867C81.3772 50.3139 75.0062 49.7351 69.6079 49.7072C69.4331 49.7095 69.2978 49.5621 69.3145 49.3899C69.3312 49.2176 69.4859 49.0769 69.667 49.0754C73.2701 49.0946 81.7035 49.1365 83.3604 54.3543C84.3823 57.5675 81.6716 60.7634 79.9685 62.376C74.1414 67.8927 64.8565 71.2515 56.8676 70.7395C56.3103 70.7033 55.7555 70.6481 55.2224 70.5764L55.2152 70.5819Z" fill="#007CFF" stroke="black" stroke-width="0.379179" stroke-miterlimit="10"/>
<path d="M158.595 103.609C158.595 103.609 158.557 103.604 158.538 103.602C158.337 103.555 158.175 103.417 158.111 103.221C157.421 101.145 156.771 99.7778 156 98.7824C155.791 98.5151 155.863 98.1178 156.152 97.8917C156.448 97.6665 156.85 97.7012 157.06 97.9685C157.803 98.9278 158.432 100.163 159.068 101.922C161.382 100.088 164.027 98.3431 166.958 96.7276C167.28 96.5447 167.673 96.6493 167.826 96.9478C167.986 97.2472 167.85 97.6359 167.529 97.8125C164.367 99.5585 161.541 101.453 159.134 103.449C158.981 103.577 158.785 103.635 158.595 103.609Z" fill="white" stroke="black" stroke-width="0.379179" stroke-miterlimit="10"/>
<path d="M129.579 142.51C125.65 141.982 123.161 138.391 124.032 134.508C124.903 130.625 128.811 127.894 132.74 128.422C136.668 128.95 139.158 132.542 138.287 136.425C137.416 140.307 133.508 143.039 129.579 142.51ZM132.455 129.676C129.224 129.242 126.015 131.485 125.301 134.679C124.587 137.872 126.633 140.822 129.857 141.255C133.082 141.689 136.298 139.446 137.011 136.253C137.725 133.06 135.679 130.11 132.455 129.676Z" fill="#007CFF" stroke="black" stroke-width="0.379179" stroke-miterlimit="10"/>
<path d="M73.8426 94.9595C69.9138 94.4312 67.4243 90.8397 68.2953 86.957C69.1663 83.0743 73.0746 80.3431 77.0033 80.8714C80.9321 81.3996 83.4216 84.9911 82.5506 88.8738C81.6796 92.7565 77.7714 95.4877 73.8426 94.9595ZM76.7184 82.1254C73.4878 81.691 70.2783 83.9346 69.5647 87.1277C68.851 90.3208 70.8969 93.271 74.1211 93.7046C77.3454 94.1381 80.5612 91.8953 81.2749 88.7023C81.9885 85.5092 79.9427 82.559 76.7184 82.1254Z" fill="#007CFF" stroke="black" stroke-width="0.379179" stroke-miterlimit="10"/>
</g>
<defs>
<clipPath id="clip0_548_1316">
<rect width="213.488" height="138.809" fill="white" transform="translate(18.4976) rotate(7.65802)"/>
</clipPath>
</defs>
</svg>
